ISO-10303-21;
HEADER;
/* Generated by software containing ST-Developer
 * from STEP Tools, Inc. (www.steptools.com) 
 */

FILE_DESCRIPTION(
/* description */ (''),
/* implementation_level */ '2;1');

FILE_NAME(
/* name */ '2 Drawer.step',
/* time_stamp */ '2026-06-27T15:40:22-04:00',
/* author */ (''),
/* organization */ (''),
/* preprocessor_version */ 'ST-DEVELOPER v20.1',
/* originating_system */ 'Autodesk Translation Framework v15.8.0.0',
/* authorisation */ '');

FILE_SCHEMA (('AUTOMOTIVE_DESIGN { 1 0 10303 214 3 1 1 }'));
ENDSEC;

DATA;
#10=MECHANICAL_DESIGN_GEOMETRIC_PRESENTATION_REPRESENTATION('',(#25,#26,
#27,#28,#29,#30,#31,#32,#33,#34),#1922);
#11=ITEM_DEFINED_TRANSFORMATION($,$,#1206,#1283);
#12=(
REPRESENTATION_RELATIONSHIP($,$,#1936,#1935)
REPRESENTATION_RELATIONSHIP_WITH_TRANSFORMATION(#11)
SHAPE_REPRESENTATION_RELATIONSHIP()
);
#13=CONTEXT_DEPENDENT_SHAPE_REPRESENTATION(#12,#1934);
#14=NEXT_ASSEMBLY_USAGE_OCCURRENCE('Large v11:1','Large v11:1',
'Large v11:1',#1938,#1939,'Large v11:1');
#15=CIRCLE('',#1264,1.0625);
#16=CIRCLE('',#1265,1.0625);
#17=CIRCLE('',#1274,1.0625);
#18=CIRCLE('',#1275,1.0625);
#19=CYLINDRICAL_SURFACE('',#1263,1.0625);
#20=CYLINDRICAL_SURFACE('',#1273,1.0625);
#21=SHAPE_REPRESENTATION_RELATIONSHIP('SRR','None',#1936,#23);
#22=SHAPE_REPRESENTATION_RELATIONSHIP('SRR','None',#1935,#24);
#23=ADVANCED_BREP_SHAPE_REPRESENTATION('',(#35,#36,#37,#38,#39,#40),#1921);
#24=ADVANCED_BREP_SHAPE_REPRESENTATION('',(#41,#42,#43,#44),#1920);
#25=STYLED_ITEM('',(#1949),#35);
#26=STYLED_ITEM('',(#1949),#36);
#27=STYLED_ITEM('',(#1949),#37);
#28=STYLED_ITEM('',(#1949),#38);
#29=STYLED_ITEM('',(#1949),#39);
#30=STYLED_ITEM('',(#1949),#40);
#31=STYLED_ITEM('',(#1949),#41);
#32=STYLED_ITEM('',(#1949),#42);
#33=STYLED_ITEM('',(#1949),#43);
#34=STYLED_ITEM('',(#1949),#44);
#35=MANIFOLD_SOLID_BREP('Bottom',#1183);
#36=MANIFOLD_SOLID_BREP('Top',#1184);
#37=MANIFOLD_SOLID_BREP('Body23',#1185);
#38=MANIFOLD_SOLID_BREP('Body24',#1186);
#39=MANIFOLD_SOLID_BREP('Body25',#1187);
#40=MANIFOLD_SOLID_BREP('Body26',#1188);
#41=MANIFOLD_SOLID_BREP('Body6',#1189);
#42=MANIFOLD_SOLID_BREP('Body5',#1190);
#43=MANIFOLD_SOLID_BREP('Body7',#1191);
#44=MANIFOLD_SOLID_BREP('Body12',#1192);
#45=FACE_OUTER_BOUND('',#117,.T.);
#46=FACE_OUTER_BOUND('',#118,.T.);
#47=FACE_OUTER_BOUND('',#119,.T.);
#48=FACE_OUTER_BOUND('',#120,.T.);
#49=FACE_OUTER_BOUND('',#121,.T.);
#50=FACE_OUTER_BOUND('',#122,.T.);
#51=FACE_OUTER_BOUND('',#123,.T.);
#52=FACE_OUTER_BOUND('',#124,.T.);
#53=FACE_OUTER_BOUND('',#125,.T.);
#54=FACE_OUTER_BOUND('',#126,.T.);
#55=FACE_OUTER_BOUND('',#127,.T.);
#56=FACE_OUTER_BOUND('',#128,.T.);
#57=FACE_OUTER_BOUND('',#129,.T.);
#58=FACE_OUTER_BOUND('',#130,.T.);
#59=FACE_OUTER_BOUND('',#131,.T.);
#60=FACE_OUTER_BOUND('',#132,.T.);
#61=FACE_OUTER_BOUND('',#133,.T.);
#62=FACE_OUTER_BOUND('',#134,.T.);
#63=FACE_OUTER_BOUND('',#135,.T.);
#64=FACE_OUTER_BOUND('',#136,.T.);
#65=FACE_OUTER_BOUND('',#137,.T.);
#66=FACE_OUTER_BOUND('',#138,.T.);
#67=FACE_OUTER_BOUND('',#139,.T.);
#68=FACE_OUTER_BOUND('',#140,.T.);
#69=FACE_OUTER_BOUND('',#141,.T.);
#70=FACE_OUTER_BOUND('',#142,.T.);
#71=FACE_OUTER_BOUND('',#143,.T.);
#72=FACE_OUTER_BOUND('',#144,.T.);
#73=FACE_OUTER_BOUND('',#145,.T.);
#74=FACE_OUTER_BOUND('',#146,.T.);
#75=FACE_OUTER_BOUND('',#147,.T.);
#76=FACE_OUTER_BOUND('',#148,.T.);
#77=FACE_OUTER_BOUND('',#149,.T.);
#78=FACE_OUTER_BOUND('',#150,.T.);
#79=FACE_OUTER_BOUND('',#151,.T.);
#80=FACE_OUTER_BOUND('',#152,.T.);
#81=FACE_OUTER_BOUND('',#153,.T.);
#82=FACE_OUTER_BOUND('',#154,.T.);
#83=FACE_OUTER_BOUND('',#155,.T.);
#84=FACE_OUTER_BOUND('',#156,.T.);
#85=FACE_OUTER_BOUND('',#157,.T.);
#86=FACE_OUTER_BOUND('',#158,.T.);
#87=FACE_OUTER_BOUND('',#159,.T.);
#88=FACE_OUTER_BOUND('',#160,.T.);
#89=FACE_OUTER_BOUND('',#161,.T.);
#90=FACE_OUTER_BOUND('',#162,.T.);
#91=FACE_OUTER_BOUND('',#163,.T.);
#92=FACE_OUTER_BOUND('',#164,.T.);
#93=FACE_OUTER_BOUND('',#165,.T.);
#94=FACE_OUTER_BOUND('',#166,.T.);
#95=FACE_OUTER_BOUND('',#167,.T.);
#96=FACE_OUTER_BOUND('',#168,.T.);
#97=FACE_OUTER_BOUND('',#169,.T.);
#98=FACE_OUTER_BOUND('',#170,.T.);
#99=FACE_OUTER_BOUND('',#171,.T.);
#100=FACE_OUTER_BOUND('',#172,.T.);
#101=FACE_OUTER_BOUND('',#173,.T.);
#102=FACE_OUTER_BOUND('',#174,.T.);
#103=FACE_OUTER_BOUND('',#175,.T.);
#104=FACE_OUTER_BOUND('',#176,.T.);
#105=FACE_OUTER_BOUND('',#177,.T.);
#106=FACE_OUTER_BOUND('',#178,.T.);
#107=FACE_OUTER_BOUND('',#179,.T.);
#108=FACE_OUTER_BOUND('',#180,.T.);
#109=FACE_OUTER_BOUND('',#181,.T.);
#110=FACE_OUTER_BOUND('',#182,.T.);
#111=FACE_OUTER_BOUND('',#183,.T.);
#112=FACE_OUTER_BOUND('',#184,.T.);
#113=FACE_OUTER_BOUND('',#185,.T.);
#114=FACE_OUTER_BOUND('',#186,.T.);
#115=FACE_OUTER_BOUND('',#187,.T.);
#116=FACE_OUTER_BOUND('',#188,.T.);
#117=EDGE_LOOP('',(#737,#738,#739,#740));
#118=EDGE_LOOP('',(#741,#742,#743,#744));
#119=EDGE_LOOP('',(#745,#746,#747,#748));
#120=EDGE_LOOP('',(#749,#750,#751,#752));
#121=EDGE_LOOP('',(#753,#754,#755,#756));
#122=EDGE_LOOP('',(#757,#758,#759,#760));
#123=EDGE_LOOP('',(#761,#762,#763,#764));
#124=EDGE_LOOP('',(#765,#766,#767,#768));
#125=EDGE_LOOP('',(#769,#770,#771,#772));
#126=EDGE_LOOP('',(#773,#774,#775,#776));
#127=EDGE_LOOP('',(#777,#778,#779,#780));
#128=EDGE_LOOP('',(#781,#782,#783,#784));
#129=EDGE_LOOP('',(#785,#786,#787,#788));
#130=EDGE_LOOP('',(#789,#790,#791,#792));
#131=EDGE_LOOP('',(#793,#794,#795,#796));
#132=EDGE_LOOP('',(#797,#798,#799,#800));
#133=EDGE_LOOP('',(#801,#802,#803,#804));
#134=EDGE_LOOP('',(#805,#806,#807,#808,#809));
#135=EDGE_LOOP('',(#810,#811,#812,#813));
#136=EDGE_LOOP('',(#814,#815,#816,#817));
#137=EDGE_LOOP('',(#818,#819,#820,#821,#822));
#138=EDGE_LOOP('',(#823,#824,#825,#826));
#139=EDGE_LOOP('',(#827,#828,#829,#830));
#140=EDGE_LOOP('',(#831,#832,#833,#834));
#141=EDGE_LOOP('',(#835,#836,#837,#838,#839));
#142=EDGE_LOOP('',(#840,#841,#842,#843));
#143=EDGE_LOOP('',(#844,#845,#846,#847));
#144=EDGE_LOOP('',(#848,#849,#850,#851,#852));
#145=EDGE_LOOP('',(#853,#854,#855,#856));
#146=EDGE_LOOP('',(#857,#858,#859,#860));
#147=EDGE_LOOP('',(#861,#862,#863,#864));
#148=EDGE_LOOP('',(#865,#866,#867,#868));
#149=EDGE_LOOP('',(#869,#870,#871,#872,#873));
#150=EDGE_LOOP('',(#874,#875,#876,#877));
#151=EDGE_LOOP('',(#878,#879,#880,#881,#882));
#152=EDGE_LOOP('',(#883,#884,#885,#886));
#153=EDGE_LOOP('',(#887,#888,#889,#890));
#154=EDGE_LOOP('',(#891,#892,#893,#894,#895));
#155=EDGE_LOOP('',(#896,#897,#898,#899));
#156=EDGE_LOOP('',(#900,#901,#902,#903));
#157=EDGE_LOOP('',(#904,#905,#906,#907));
#158=EDGE_LOOP('',(#908,#909,#910,#911,#912));
#159=EDGE_LOOP('',(#913,#914,#915,#916));
#160=EDGE_LOOP('',(#917,#918,#919,#920));
#161=EDGE_LOOP('',(#921,#922,#923,#924));
#162=EDGE_LOOP('',(#925,#926,#927,#928));
#163=EDGE_LOOP('',(#929,#930,#931,#932));
#164=EDGE_LOOP('',(#933,#934,#935,#936));
#165=EDGE_LOOP('',(#937,#938,#939,#940));
#166=EDGE_LOOP('',(#941,#942,#943,#944));
#167=EDGE_LOOP('',(#945,#946,#947,#948));
#168=EDGE_LOOP('',(#949,#950,#951,#952));
#169=EDGE_LOOP('',(#953,#954,#955,#956));
#170=EDGE_LOOP('',(#957,#958,#959,#960));
#171=EDGE_LOOP('',(#961,#962,#963,#964));
#172=EDGE_LOOP('',(#965,#966,#967,#968));
#173=EDGE_LOOP('',(#969,#970,#971,#972));
#174=EDGE_LOOP('',(#973,#974,#975,#976,#977,#978));
#175=EDGE_LOOP('',(#979,#980,#981,#982));
#176=EDGE_LOOP('',(#983,#984,#985,#986,#987,#988));
#177=EDGE_LOOP('',(#989,#990,#991,#992));
#178=EDGE_LOOP('',(#993,#994,#995,#996));
#179=EDGE_LOOP('',(#997,#998,#999,#1000));
#180=EDGE_LOOP('',(#1001,#1002,#1003,#1004));
#181=EDGE_LOOP('',(#1005,#1006,#1007,#1008));
#182=EDGE_LOOP('',(#1009,#1010,#1011,#1012,#1013,#1014));
#183=EDGE_LOOP('',(#1015,#1016,#1017,#1018));
#184=EDGE_LOOP('',(#1019,#1020,#1021,#1022));
#185=EDGE_LOOP('',(#1023,#1024,#1025,#1026));
#186=EDGE_LOOP('',(#1027,#1028,#1029,#1030,#1031,#1032));
#187=EDGE_LOOP('',(#1033,#1034,#1035,#1036));
#188=EDGE_LOOP('',(#1037,#1038,#1039,#1040));
#189=LINE('',#1595,#337);
#190=LINE('',#1597,#338);
#191=LINE('',#1599,#339);
#192=LINE('',#1600,#340);
#193=LINE('',#1603,#341);
#194=LINE('',#1605,#342);
#195=LINE('',#1606,#343);
#196=LINE('',#1609,#344);
#197=LINE('',#1611,#345);
#198=LINE('',#1612,#346);
#199=LINE('',#1614,#347);
#200=LINE('',#1615,#348);
#201=LINE('',#1618,#349);
#202=LINE('',#1620,#350);
#203=LINE('',#1621,#351);
#204=LINE('',#1624,#352);
#205=LINE('',#1625,#353);
#206=LINE('',#1629,#354);
#207=LINE('',#1630,#355);
#208=LINE('',#1632,#356);
#209=LINE('',#1637,#357);
#210=LINE('',#1639,#358);
#211=LINE('',#1641,#359);
#212=LINE('',#1642,#360);
#213=LINE('',#1645,#361);
#214=LINE('',#1647,#362);
#215=LINE('',#1648,#363);
#216=LINE('',#1651,#364);
#217=LINE('',#1653,#365);
#218=LINE('',#1654,#366);
#219=LINE('',#1656,#367);
#220=LINE('',#1657,#368);
#221=LINE('',#1663,#369);
#222=LINE('',#1665,#370);
#223=LINE('',#1667,#371);
#224=LINE('',#1668,#372);
#225=LINE('',#1671,#373);
#226=LINE('',#1673,#374);
#227=LINE('',#1675,#375);
#228=LINE('',#1676,#376);
#229=LINE('',#1679,#377);
#230=LINE('',#1680,#378);
#231=LINE('',#1683,#379);
#232=LINE('',#1684,#380);
#233=LINE('',#1687,#381);
#234=LINE('',#1688,#382);
#235=LINE('',#1690,#383);
#236=LINE('',#1695,#384);
#237=LINE('',#1697,#385);
#238=LINE('',#1699,#386);
#239=LINE('',#1700,#387);
#240=LINE('',#1703,#388);
#241=LINE('',#1705,#389);
#242=LINE('',#1707,#390);
#243=LINE('',#1708,#391);
#244=LINE('',#1711,#392);
#245=LINE('',#1712,#393);
#246=LINE('',#1715,#394);
#247=LINE('',#1717,#395);
#248=LINE('',#1718,#396);
#249=LINE('',#1720,#397);
#250=LINE('',#1721,#398);
#251=LINE('',#1727,#399);
#252=LINE('',#1729,#400);
#253=LINE('',#1731,#401);
#254=LINE('',#1732,#402);
#255=LINE('',#1735,#403);
#256=LINE('',#1737,#404);
#257=LINE('',#1738,#405);
#258=LINE('',#1741,#406);
#259=LINE('',#1743,#407);
#260=LINE('',#1744,#408);
#261=LINE('',#1747,#409);
#262=LINE('',#1748,#410);
#263=LINE('',#1751,#411);
#264=LINE('',#1752,#412);
#265=LINE('',#1754,#413);
#266=LINE('',#1759,#414);
#267=LINE('',#1761,#415);
#268=LINE('',#1763,#416);
#269=LINE('',#1765,#417);
#270=LINE('',#1766,#418);
#271=LINE('',#1769,#419);
#272=LINE('',#1771,#420);
#273=LINE('',#1772,#421);
#274=LINE('',#1775,#422);
#275=LINE('',#1776,#423);
#276=LINE('',#1779,#424);
#277=LINE('',#1780,#425);
#278=LINE('',#1783,#426);
#279=LINE('',#1784,#427);
#280=LINE('',#1786,#428);
#281=LINE('',#1791,#429);
#282=LINE('',#1793,#430);
#283=LINE('',#1795,#431);
#284=LINE('',#1796,#432);
#285=LINE('',#1799,#433);
#286=LINE('',#1801,#434);
#287=LINE('',#1802,#435);
#288=LINE('',#1805,#436);
#289=LINE('',#1807,#437);
#290=LINE('',#1808,#438);
#291=LINE('',#1810,#439);
#292=LINE('',#1811,#440);
#293=LINE('',#1817,#441);
#294=LINE('',#1819,#442);
#295=LINE('',#1821,#443);
#296=LINE('',#1822,#444);
#297=LINE('',#1825,#445);
#298=LINE('',#1827,#446);
#299=LINE('',#1828,#447);
#300=LINE('',#1831,#448);
#301=LINE('',#1833,#449);
#302=LINE('',#1834,#450);
#303=LINE('',#1836,#451);
#304=LINE('',#1837,#452);
#305=LINE('',#1845,#453);
#306=LINE('',#1848,#454);
#307=LINE('',#1851,#455);
#308=LINE('',#1853,#456);
#309=LINE('',#1855,#457);
#310=LINE('',#1857,#458);
#311=LINE('',#1858,#459);
#312=LINE('',#1861,#460);
#313=LINE('',#1862,#461);
#314=LINE('',#1865,#462);
#315=LINE('',#1867,#463);
#316=LINE('',#1869,#464);
#317=LINE('',#1870,#465);
#318=LINE('',#1872,#466);
#319=LINE('',#1874,#467);
#320=LINE('',#1876,#468);
#321=LINE('',#1883,#469);
#322=LINE('',#1886,#470);
#323=LINE('',#1889,#471);
#324=LINE('',#1891,#472);
#325=LINE('',#1893,#473);
#326=LINE('',#1895,#474);
#327=LINE('',#1896,#475);
#328=LINE('',#1899,#476);
#329=LINE('',#1900,#477);
#330=LINE('',#1903,#478);
#331=LINE('',#1904,#479);
#332=LINE('',#1907,#480);
#333=LINE('',#1908,#481);
#334=LINE('',#1911,#482);
#335=LINE('',#1912,#483);
#336=LINE('',#1914,#484);
#337=VECTOR('',#1290,0.393700787401575);
#338=VECTOR('',#1291,0.393700787401575);
#339=VECTOR('',#1292,0.393700787401575);
#340=VECTOR('',#1293,0.393700787401575);
#341=VECTOR('',#1296,0.393700787401575);
#342=VECTOR('',#1297,0.393700787401575);
#343=VECTOR('',#1298,0.393700787401575);
#344=VECTOR('',#1301,0.393700787401575);
#345=VECTOR('',#1302,0.393700787401575);
#346=VECTOR('',#1303,0.393700787401575);
#347=VECTOR('',#1306,0.393700787401575);
#348=VECTOR('',#1307,0.393700787401575);
#349=VECTOR('',#1310,0.393700787401575);
#350=VECTOR('',#1311,0.393700787401575);
#351=VECTOR('',#1312,0.393700787401575);
#352=VECTOR('',#1315,0.393700787401575);
#353=VECTOR('',#1316,0.393700787401575);
#354=VECTOR('',#1321,0.393700787401575);
#355=VECTOR('',#1322,0.393700787401575);
#356=VECTOR('',#1325,0.393700787401575);
#357=VECTOR('',#1330,0.393700787401575);
#358=VECTOR('',#1331,0.393700787401575);
#359=VECTOR('',#1332,0.393700787401575);
#360=VECTOR('',#1333,0.393700787401575);
#361=VECTOR('',#1336,0.393700787401575);
#362=VECTOR('',#1337,0.393700787401575);
#363=VECTOR('',#1338,0.393700787401575);
#364=VECTOR('',#1341,0.393700787401575);
#365=VECTOR('',#1342,0.393700787401575);
#366=VECTOR('',#1343,0.393700787401575);
#367=VECTOR('',#1346,0.393700787401575);
#368=VECTOR('',#1347,0.393700787401575);
#369=VECTOR('',#1354,0.393700787401575);
#370=VECTOR('',#1355,0.393700787401575);
#371=VECTOR('',#1356,0.393700787401575);
#372=VECTOR('',#1357,0.393700787401575);
#373=VECTOR('',#1360,0.393700787401575);
#374=VECTOR('',#1361,0.393700787401575);
#375=VECTOR('',#1362,0.393700787401575);
#376=VECTOR('',#1363,0.393700787401575);
#377=VECTOR('',#1366,0.393700787401575);
#378=VECTOR('',#1367,0.393700787401575);
#379=VECTOR('',#1370,0.393700787401575);
#380=VECTOR('',#1371,0.393700787401575);
#381=VECTOR('',#1374,0.393700787401575);
#382=VECTOR('',#1375,0.393700787401575);
#383=VECTOR('',#1378,0.393700787401575);
#384=VECTOR('',#1383,0.393700787401575);
#385=VECTOR('',#1384,0.393700787401575);
#386=VECTOR('',#1385,0.393700787401575);
#387=VECTOR('',#1386,0.393700787401575);
#388=VECTOR('',#1389,0.393700787401575);
#389=VECTOR('',#1390,0.393700787401575);
#390=VECTOR('',#1391,0.393700787401575);
#391=VECTOR('',#1392,0.393700787401575);
#392=VECTOR('',#1395,0.393700787401575);
#393=VECTOR('',#1396,0.393700787401575);
#394=VECTOR('',#1399,0.393700787401575);
#395=VECTOR('',#1400,0.393700787401575);
#396=VECTOR('',#1401,0.393700787401575);
#397=VECTOR('',#1404,0.393700787401575);
#398=VECTOR('',#1405,0.393700787401575);
#399=VECTOR('',#1412,0.393700787401575);
#400=VECTOR('',#1413,0.393700787401575);
#401=VECTOR('',#1414,0.393700787401575);
#402=VECTOR('',#1415,0.393700787401575);
#403=VECTOR('',#1418,0.393700787401575);
#404=VECTOR('',#1419,0.393700787401575);
#405=VECTOR('',#1420,0.393700787401575);
#406=VECTOR('',#1423,0.393700787401575);
#407=VECTOR('',#1424,0.393700787401575);
#408=VECTOR('',#1425,0.393700787401575);
#409=VECTOR('',#1428,0.393700787401575);
#410=VECTOR('',#1429,0.393700787401575);
#411=VECTOR('',#1432,0.393700787401575);
#412=VECTOR('',#1433,0.393700787401575);
#413=VECTOR('',#1436,0.393700787401575);
#414=VECTOR('',#1441,0.393700787401575);
#415=VECTOR('',#1442,0.393700787401575);
#416=VECTOR('',#1443,0.393700787401575);
#417=VECTOR('',#1444,0.393700787401575);
#418=VECTOR('',#1445,0.393700787401575);
#419=VECTOR('',#1448,0.393700787401575);
#420=VECTOR('',#1449,0.393700787401575);
#421=VECTOR('',#1450,0.393700787401575);
#422=VECTOR('',#1453,0.393700787401575);
#423=VECTOR('',#1454,0.393700787401575);
#424=VECTOR('',#1457,0.393700787401575);
#425=VECTOR('',#1458,0.393700787401575);
#426=VECTOR('',#1461,0.393700787401575);
#427=VECTOR('',#1462,0.393700787401575);
#428=VECTOR('',#1465,0.393700787401575);
#429=VECTOR('',#1470,0.393700787401575);
#430=VECTOR('',#1471,0.393700787401575);
#431=VECTOR('',#1472,0.393700787401575);
#432=VECTOR('',#1473,0.393700787401575);
#433=VECTOR('',#1476,0.393700787401575);
#434=VECTOR('',#1477,0.393700787401575);
#435=VECTOR('',#1478,0.393700787401575);
#436=VECTOR('',#1481,0.393700787401575);
#437=VECTOR('',#1482,0.393700787401575);
#438=VECTOR('',#1483,0.393700787401575);
#439=VECTOR('',#1486,0.393700787401575);
#440=VECTOR('',#1487,0.393700787401575);
#441=VECTOR('',#1494,0.393700787401575);
#442=VECTOR('',#1495,0.393700787401575);
#443=VECTOR('',#1496,0.393700787401575);
#444=VECTOR('',#1497,0.393700787401575);
#445=VECTOR('',#1500,0.393700787401575);
#446=VECTOR('',#1501,0.393700787401575);
#447=VECTOR('',#1502,0.393700787401575);
#448=VECTOR('',#1505,0.393700787401575);
#449=VECTOR('',#1506,0.393700787401575);
#450=VECTOR('',#1507,0.393700787401575);
#451=VECTOR('',#1510,0.393700787401575);
#452=VECTOR('',#1511,0.393700787401575);
#453=VECTOR('',#1520,0.393700787401575);
#454=VECTOR('',#1523,0.393700787401575);
#455=VECTOR('',#1526,0.393700787401575);
#456=VECTOR('',#1527,0.393700787401575);
#457=VECTOR('',#1528,0.393700787401575);
#458=VECTOR('',#1529,0.393700787401575);
#459=VECTOR('',#1530,0.393700787401575);
#460=VECTOR('',#1533,0.393700787401575);
#461=VECTOR('',#1534,0.393700787401575);
#462=VECTOR('',#1537,0.393700787401575);
#463=VECTOR('',#1538,0.393700787401575);
#464=VECTOR('',#1539,0.393700787401575);
#465=VECTOR('',#1540,0.393700787401575);
#466=VECTOR('',#1543,0.393700787401575);
#467=VECTOR('',#1546,0.393700787401575);
#468=VECTOR('',#1549,0.393700787401575);
#469=VECTOR('',#1556,0.393700787401575);
#470=VECTOR('',#1559,0.393700787401575);
#471=VECTOR('',#1562,0.393700787401575);
#472=VECTOR('',#1563,0.393700787401575);
#473=VECTOR('',#1564,0.393700787401575);
#474=VECTOR('',#1565,0.393700787401575);
#475=VECTOR('',#1566,0.393700787401575);
#476=VECTOR('',#1569,0.393700787401575);
#477=VECTOR('',#1570,0.393700787401575);
#478=VECTOR('',#1573,0.393700787401575);
#479=VECTOR('',#1574,0.393700787401575);
#480=VECTOR('',#1577,0.393700787401575);
#481=VECTOR('',#1578,0.393700787401575);
#482=VECTOR('',#1581,0.393700787401575);
#483=VECTOR('',#1582,0.393700787401575);
#484=VECTOR('',#1585,0.393700787401575);
#485=VERTEX_POINT('',#1593);
#486=VERTEX_POINT('',#1594);
#487=VERTEX_POINT('',#1596);
#488=VERTEX_POINT('',#1598);
#489=VERTEX_POINT('',#1602);
#490=VERTEX_POINT('',#1604);
#491=VERTEX_POINT('',#1608);
#492=VERTEX_POINT('',#1610);
#493=VERTEX_POINT('',#1617);
#494=VERTEX_POINT('',#1619);
#495=VERTEX_POINT('',#1623);
#496=VERTEX_POINT('',#1628);
#497=VERTEX_POINT('',#1635);
#498=VERTEX_POINT('',#1636);
#499=VERTEX_POINT('',#1638);
#500=VERTEX_POINT('',#1640);
#501=VERTEX_POINT('',#1644);
#502=VERTEX_POINT('',#1646);
#503=VERTEX_POINT('',#1650);
#504=VERTEX_POINT('',#1652);
#505=VERTEX_POINT('',#1661);
#506=VERTEX_POINT('',#1662);
#507=VERTEX_POINT('',#1664);
#508=VERTEX_POINT('',#1666);
#509=VERTEX_POINT('',#1670);
#510=VERTEX_POINT('',#1672);
#511=VERTEX_POINT('',#1674);
#512=VERTEX_POINT('',#1678);
#513=VERTEX_POINT('',#1682);
#514=VERTEX_POINT('',#1686);
#515=VERTEX_POINT('',#1693);
#516=VERTEX_POINT('',#1694);
#517=VERTEX_POINT('',#1696);
#518=VERTEX_POINT('',#1698);
#519=VERTEX_POINT('',#1702);
#520=VERTEX_POINT('',#1704);
#521=VERTEX_POINT('',#1706);
#522=VERTEX_POINT('',#1710);
#523=VERTEX_POINT('',#1714);
#524=VERTEX_POINT('',#1716);
#525=VERTEX_POINT('',#1725);
#526=VERTEX_POINT('',#1726);
#527=VERTEX_POINT('',#1728);
#528=VERTEX_POINT('',#1730);
#529=VERTEX_POINT('',#1734);
#530=VERTEX_POINT('',#1736);
#531=VERTEX_POINT('',#1740);
#532=VERTEX_POINT('',#1742);
#533=VERTEX_POINT('',#1746);
#534=VERTEX_POINT('',#1750);
#535=VERTEX_POINT('',#1757);
#536=VERTEX_POINT('',#1758);
#537=VERTEX_POINT('',#1760);
#538=VERTEX_POINT('',#1762);
#539=VERTEX_POINT('',#1764);
#540=VERTEX_POINT('',#1768);
#541=VERTEX_POINT('',#1770);
#542=VERTEX_POINT('',#1774);
#543=VERTEX_POINT('',#1778);
#544=VERTEX_POINT('',#1782);
#545=VERTEX_POINT('',#1789);
#546=VERTEX_POINT('',#1790);
#547=VERTEX_POINT('',#1792);
#548=VERTEX_POINT('',#1794);
#549=VERTEX_POINT('',#1798);
#550=VERTEX_POINT('',#1800);
#551=VERTEX_POINT('',#1804);
#552=VERTEX_POINT('',#1806);
#553=VERTEX_POINT('',#1815);
#554=VERTEX_POINT('',#1816);
#555=VERTEX_POINT('',#1818);
#556=VERTEX_POINT('',#1820);
#557=VERTEX_POINT('',#1824);
#558=VERTEX_POINT('',#1826);
#559=VERTEX_POINT('',#1830);
#560=VERTEX_POINT('',#1832);
#561=VERTEX_POINT('',#1841);
#562=VERTEX_POINT('',#1842);
#563=VERTEX_POINT('',#1844);
#564=VERTEX_POINT('',#1846);
#565=VERTEX_POINT('',#1850);
#566=VERTEX_POINT('',#1852);
#567=VERTEX_POINT('',#1854);
#568=VERTEX_POINT('',#1856);
#569=VERTEX_POINT('',#1860);
#570=VERTEX_POINT('',#1864);
#571=VERTEX_POINT('',#1866);
#572=VERTEX_POINT('',#1868);
#573=VERTEX_POINT('',#1879);
#574=VERTEX_POINT('',#1880);
#575=VERTEX_POINT('',#1882);
#576=VERTEX_POINT('',#1884);
#577=VERTEX_POINT('',#1888);
#578=VERTEX_POINT('',#1890);
#579=VERTEX_POINT('',#1892);
#580=VERTEX_POINT('',#1894);
#581=VERTEX_POINT('',#1898);
#582=VERTEX_POINT('',#1902);
#583=VERTEX_POINT('',#1906);
#584=VERTEX_POINT('',#1910);
#585=EDGE_CURVE('',#485,#486,#189,.T.);
#586=EDGE_CURVE('',#486,#487,#190,.T.);
#587=EDGE_CURVE('',#487,#488,#191,.T.);
#588=EDGE_CURVE('',#488,#485,#192,.T.);
#589=EDGE_CURVE('',#489,#487,#193,.T.);
#590=EDGE_CURVE('',#486,#490,#194,.T.);
#591=EDGE_CURVE('',#490,#489,#195,.T.);
#592=EDGE_CURVE('',#491,#489,#196,.T.);
#593=EDGE_CURVE('',#490,#492,#197,.T.);
#594=EDGE_CURVE('',#491,#492,#198,.T.);
#595=EDGE_CURVE('',#492,#485,#199,.T.);
#596=EDGE_CURVE('',#488,#491,#200,.T.);
#597=EDGE_CURVE('',#493,#486,#201,.T.);
#598=EDGE_CURVE('',#494,#493,#202,.T.);
#599=EDGE_CURVE('',#490,#494,#203,.T.);
#600=EDGE_CURVE('',#485,#495,#204,.T.);
#601=EDGE_CURVE('',#493,#495,#205,.T.);
#602=EDGE_CURVE('',#496,#492,#206,.T.);
#603=EDGE_CURVE('',#495,#496,#207,.T.);
#604=EDGE_CURVE('',#496,#494,#208,.T.);
#605=EDGE_CURVE('',#497,#498,#209,.T.);
#606=EDGE_CURVE('',#499,#497,#210,.T.);
#607=EDGE_CURVE('',#499,#500,#211,.T.);
#608=EDGE_CURVE('',#500,#498,#212,.T.);
#609=EDGE_CURVE('',#501,#497,#213,.T.);
#610=EDGE_CURVE('',#502,#501,#214,.T.);
#611=EDGE_CURVE('',#502,#499,#215,.T.);
#612=EDGE_CURVE('',#503,#501,#216,.T.);
#613=EDGE_CURVE('',#504,#503,#217,.T.);
#614=EDGE_CURVE('',#502,#504,#218,.T.);
#615=EDGE_CURVE('',#498,#503,#219,.T.);
#616=EDGE_CURVE('',#504,#500,#220,.T.);
#617=EDGE_CURVE('',#505,#506,#221,.T.);
#618=EDGE_CURVE('',#506,#507,#222,.T.);
#619=EDGE_CURVE('',#507,#508,#223,.T.);
#620=EDGE_CURVE('',#508,#505,#224,.T.);
#621=EDGE_CURVE('',#509,#507,#225,.T.);
#622=EDGE_CURVE('',#509,#510,#226,.T.);
#623=EDGE_CURVE('',#510,#511,#227,.T.);
#624=EDGE_CURVE('',#511,#508,#228,.T.);
#625=EDGE_CURVE('',#506,#512,#229,.T.);
#626=EDGE_CURVE('',#512,#509,#230,.T.);
#627=EDGE_CURVE('',#511,#513,#231,.T.);
#628=EDGE_CURVE('',#505,#513,#232,.T.);
#629=EDGE_CURVE('',#513,#514,#233,.T.);
#630=EDGE_CURVE('',#514,#512,#234,.T.);
#631=EDGE_CURVE('',#510,#514,#235,.T.);
#632=EDGE_CURVE('',#515,#516,#236,.T.);
#633=EDGE_CURVE('',#516,#517,#237,.T.);
#634=EDGE_CURVE('',#517,#518,#238,.T.);
#635=EDGE_CURVE('',#518,#515,#239,.T.);
#636=EDGE_CURVE('',#519,#517,#240,.T.);
#637=EDGE_CURVE('',#519,#520,#241,.T.);
#638=EDGE_CURVE('',#520,#521,#242,.T.);
#639=EDGE_CURVE('',#521,#518,#243,.T.);
#640=EDGE_CURVE('',#516,#522,#244,.T.);
#641=EDGE_CURVE('',#522,#519,#245,.T.);
#642=EDGE_CURVE('',#520,#523,#246,.T.);
#643=EDGE_CURVE('',#524,#523,#247,.T.);
#644=EDGE_CURVE('',#524,#521,#248,.T.);
#645=EDGE_CURVE('',#515,#524,#249,.T.);
#646=EDGE_CURVE('',#523,#522,#250,.T.);
#647=EDGE_CURVE('',#525,#526,#251,.T.);
#648=EDGE_CURVE('',#526,#527,#252,.T.);
#649=EDGE_CURVE('',#527,#528,#253,.T.);
#650=EDGE_CURVE('',#528,#525,#254,.T.);
#651=EDGE_CURVE('',#526,#529,#255,.T.);
#652=EDGE_CURVE('',#529,#530,#256,.T.);
#653=EDGE_CURVE('',#530,#527,#257,.T.);
#654=EDGE_CURVE('',#531,#525,#258,.T.);
#655=EDGE_CURVE('',#532,#531,#259,.T.);
#656=EDGE_CURVE('',#529,#532,#260,.T.);
#657=EDGE_CURVE('',#528,#533,#261,.T.);
#658=EDGE_CURVE('',#531,#533,#262,.T.);
#659=EDGE_CURVE('',#534,#530,#263,.T.);
#660=EDGE_CURVE('',#533,#534,#264,.T.);
#661=EDGE_CURVE('',#534,#532,#265,.T.);
#662=EDGE_CURVE('',#535,#536,#266,.T.);
#663=EDGE_CURVE('',#537,#535,#267,.T.);
#664=EDGE_CURVE('',#538,#537,#268,.T.);
#665=EDGE_CURVE('',#539,#538,#269,.T.);
#666=EDGE_CURVE('',#536,#539,#270,.T.);
#667=EDGE_CURVE('',#536,#540,#271,.T.);
#668=EDGE_CURVE('',#539,#541,#272,.T.);
#669=EDGE_CURVE('',#541,#540,#273,.T.);
#670=EDGE_CURVE('',#542,#538,#274,.T.);
#671=EDGE_CURVE('',#542,#541,#275,.T.);
#672=EDGE_CURVE('',#537,#543,#276,.T.);
#673=EDGE_CURVE('',#543,#542,#277,.T.);
#674=EDGE_CURVE('',#540,#544,#278,.T.);
#675=EDGE_CURVE('',#543,#544,#279,.T.);
#676=EDGE_CURVE('',#544,#535,#280,.T.);
#677=EDGE_CURVE('',#545,#546,#281,.F.);
#678=EDGE_CURVE('',#547,#546,#282,.T.);
#679=EDGE_CURVE('',#547,#548,#283,.T.);
#680=EDGE_CURVE('',#548,#545,#284,.T.);
#681=EDGE_CURVE('',#546,#549,#285,.F.);
#682=EDGE_CURVE('',#550,#549,#286,.T.);
#683=EDGE_CURVE('',#547,#550,#287,.F.);
#684=EDGE_CURVE('',#549,#551,#288,.F.);
#685=EDGE_CURVE('',#552,#551,#289,.T.);
#686=EDGE_CURVE('',#552,#550,#290,.T.);
#687=EDGE_CURVE('',#551,#545,#291,.F.);
#688=EDGE_CURVE('',#548,#552,#292,.T.);
#689=EDGE_CURVE('',#553,#554,#293,.F.);
#690=EDGE_CURVE('',#555,#554,#294,.T.);
#691=EDGE_CURVE('',#556,#555,#295,.F.);
#692=EDGE_CURVE('',#556,#553,#296,.T.);
#693=EDGE_CURVE('',#554,#557,#297,.F.);
#694=EDGE_CURVE('',#558,#557,#298,.T.);
#695=EDGE_CURVE('',#558,#555,#299,.T.);
#696=EDGE_CURVE('',#557,#559,#300,.F.);
#697=EDGE_CURVE('',#560,#559,#301,.T.);
#698=EDGE_CURVE('',#560,#558,#302,.T.);
#699=EDGE_CURVE('',#559,#553,#303,.F.);
#700=EDGE_CURVE('',#560,#556,#304,.F.);
#701=EDGE_CURVE('',#561,#562,#15,.T.);
#702=EDGE_CURVE('',#563,#561,#305,.T.);
#703=EDGE_CURVE('',#564,#563,#16,.T.);
#704=EDGE_CURVE('',#562,#564,#306,.T.);
#705=EDGE_CURVE('',#562,#565,#307,.T.);
#706=EDGE_CURVE('',#565,#566,#308,.T.);
#707=EDGE_CURVE('',#567,#566,#309,.T.);
#708=EDGE_CURVE('',#567,#568,#310,.T.);
#709=EDGE_CURVE('',#568,#561,#311,.T.);
#710=EDGE_CURVE('',#564,#569,#312,.T.);
#711=EDGE_CURVE('',#569,#565,#313,.T.);
#712=EDGE_CURVE('',#570,#563,#314,.T.);
#713=EDGE_CURVE('',#571,#570,#315,.T.);
#714=EDGE_CURVE('',#572,#571,#316,.T.);
#715=EDGE_CURVE('',#569,#572,#317,.T.);
#716=EDGE_CURVE('',#570,#568,#318,.T.);
#717=EDGE_CURVE('',#566,#572,#319,.T.);
#718=EDGE_CURVE('',#571,#567,#320,.T.);
#719=EDGE_CURVE('',#573,#574,#17,.T.);
#720=EDGE_CURVE('',#575,#573,#321,.T.);
#721=EDGE_CURVE('',#576,#575,#18,.T.);
#722=EDGE_CURVE('',#574,#576,#322,.T.);
#723=EDGE_CURVE('',#574,#577,#323,.F.);
#724=EDGE_CURVE('',#577,#578,#324,.T.);
#725=EDGE_CURVE('',#578,#579,#325,.T.);
#726=EDGE_CURVE('',#579,#580,#326,.T.);
#727=EDGE_CURVE('',#580,#573,#327,.F.);
#728=EDGE_CURVE('',#581,#576,#328,.T.);
#729=EDGE_CURVE('',#577,#581,#329,.T.);
#730=EDGE_CURVE('',#582,#580,#330,.T.);
#731=EDGE_CURVE('',#575,#582,#331,.T.);
#732=EDGE_CURVE('',#581,#583,#332,.T.);
#733=EDGE_CURVE('',#583,#578,#333,.T.);
#734=EDGE_CURVE('',#584,#582,#334,.T.);
#735=EDGE_CURVE('',#583,#584,#335,.T.);
#736=EDGE_CURVE('',#584,#579,#336,.T.);
#737=ORIENTED_EDGE('',*,*,#585,.T.);
#738=ORIENTED_EDGE('',*,*,#586,.T.);
#739=ORIENTED_EDGE('',*,*,#587,.T.);
#740=ORIENTED_EDGE('',*,*,#588,.T.);
#741=ORIENTED_EDGE('',*,*,#589,.T.);
#742=ORIENTED_EDGE('',*,*,#586,.F.);
#743=ORIENTED_EDGE('',*,*,#590,.T.);
#744=ORIENTED_EDGE('',*,*,#591,.T.);
#745=ORIENTED_EDGE('',*,*,#592,.T.);
#746=ORIENTED_EDGE('',*,*,#591,.F.);
#747=ORIENTED_EDGE('',*,*,#593,.T.);
#748=ORIENTED_EDGE('',*,*,#594,.F.);
#749=ORIENTED_EDGE('',*,*,#595,.T.);
#750=ORIENTED_EDGE('',*,*,#588,.F.);
#751=ORIENTED_EDGE('',*,*,#596,.T.);
#752=ORIENTED_EDGE('',*,*,#594,.T.);
#753=ORIENTED_EDGE('',*,*,#590,.F.);
#754=ORIENTED_EDGE('',*,*,#597,.F.);
#755=ORIENTED_EDGE('',*,*,#598,.F.);
#756=ORIENTED_EDGE('',*,*,#599,.F.);
#757=ORIENTED_EDGE('',*,*,#585,.F.);
#758=ORIENTED_EDGE('',*,*,#600,.T.);
#759=ORIENTED_EDGE('',*,*,#601,.F.);
#760=ORIENTED_EDGE('',*,*,#597,.T.);
#761=ORIENTED_EDGE('',*,*,#587,.F.);
#762=ORIENTED_EDGE('',*,*,#589,.F.);
#763=ORIENTED_EDGE('',*,*,#592,.F.);
#764=ORIENTED_EDGE('',*,*,#596,.F.);
#765=ORIENTED_EDGE('',*,*,#595,.F.);
#766=ORIENTED_EDGE('',*,*,#602,.F.);
#767=ORIENTED_EDGE('',*,*,#603,.F.);
#768=ORIENTED_EDGE('',*,*,#600,.F.);
#769=ORIENTED_EDGE('',*,*,#604,.T.);
#770=ORIENTED_EDGE('',*,*,#598,.T.);
#771=ORIENTED_EDGE('',*,*,#601,.T.);
#772=ORIENTED_EDGE('',*,*,#603,.T.);
#773=ORIENTED_EDGE('',*,*,#593,.F.);
#774=ORIENTED_EDGE('',*,*,#599,.T.);
#775=ORIENTED_EDGE('',*,*,#604,.F.);
#776=ORIENTED_EDGE('',*,*,#602,.T.);
#777=ORIENTED_EDGE('',*,*,#605,.F.);
#778=ORIENTED_EDGE('',*,*,#606,.F.);
#779=ORIENTED_EDGE('',*,*,#607,.T.);
#780=ORIENTED_EDGE('',*,*,#608,.T.);
#781=ORIENTED_EDGE('',*,*,#609,.F.);
#782=ORIENTED_EDGE('',*,*,#610,.F.);
#783=ORIENTED_EDGE('',*,*,#611,.T.);
#784=ORIENTED_EDGE('',*,*,#606,.T.);
#785=ORIENTED_EDGE('',*,*,#612,.F.);
#786=ORIENTED_EDGE('',*,*,#613,.F.);
#787=ORIENTED_EDGE('',*,*,#614,.F.);
#788=ORIENTED_EDGE('',*,*,#610,.T.);
#789=ORIENTED_EDGE('',*,*,#615,.F.);
#790=ORIENTED_EDGE('',*,*,#608,.F.);
#791=ORIENTED_EDGE('',*,*,#616,.F.);
#792=ORIENTED_EDGE('',*,*,#613,.T.);
#793=ORIENTED_EDGE('',*,*,#607,.F.);
#794=ORIENTED_EDGE('',*,*,#611,.F.);
#795=ORIENTED_EDGE('',*,*,#614,.T.);
#796=ORIENTED_EDGE('',*,*,#616,.T.);
#797=ORIENTED_EDGE('',*,*,#609,.T.);
#798=ORIENTED_EDGE('',*,*,#605,.T.);
#799=ORIENTED_EDGE('',*,*,#615,.T.);
#800=ORIENTED_EDGE('',*,*,#612,.T.);
#801=ORIENTED_EDGE('',*,*,#617,.T.);
#802=ORIENTED_EDGE('',*,*,#618,.T.);
#803=ORIENTED_EDGE('',*,*,#619,.T.);
#804=ORIENTED_EDGE('',*,*,#620,.T.);
#805=ORIENTED_EDGE('',*,*,#619,.F.);
#806=ORIENTED_EDGE('',*,*,#621,.F.);
#807=ORIENTED_EDGE('',*,*,#622,.T.);
#808=ORIENTED_EDGE('',*,*,#623,.T.);
#809=ORIENTED_EDGE('',*,*,#624,.T.);
#810=ORIENTED_EDGE('',*,*,#618,.F.);
#811=ORIENTED_EDGE('',*,*,#625,.T.);
#812=ORIENTED_EDGE('',*,*,#626,.T.);
#813=ORIENTED_EDGE('',*,*,#621,.T.);
#814=ORIENTED_EDGE('',*,*,#620,.F.);
#815=ORIENTED_EDGE('',*,*,#624,.F.);
#816=ORIENTED_EDGE('',*,*,#627,.T.);
#817=ORIENTED_EDGE('',*,*,#628,.F.);
#818=ORIENTED_EDGE('',*,*,#617,.F.);
#819=ORIENTED_EDGE('',*,*,#628,.T.);
#820=ORIENTED_EDGE('',*,*,#629,.T.);
#821=ORIENTED_EDGE('',*,*,#630,.T.);
#822=ORIENTED_EDGE('',*,*,#625,.F.);
#823=ORIENTED_EDGE('',*,*,#631,.T.);
#824=ORIENTED_EDGE('',*,*,#629,.F.);
#825=ORIENTED_EDGE('',*,*,#627,.F.);
#826=ORIENTED_EDGE('',*,*,#623,.F.);
#827=ORIENTED_EDGE('',*,*,#626,.F.);
#828=ORIENTED_EDGE('',*,*,#630,.F.);
#829=ORIENTED_EDGE('',*,*,#631,.F.);
#830=ORIENTED_EDGE('',*,*,#622,.F.);
#831=ORIENTED_EDGE('',*,*,#632,.T.);
#832=ORIENTED_EDGE('',*,*,#633,.T.);
#833=ORIENTED_EDGE('',*,*,#634,.T.);
#834=ORIENTED_EDGE('',*,*,#635,.T.);
#835=ORIENTED_EDGE('',*,*,#634,.F.);
#836=ORIENTED_EDGE('',*,*,#636,.F.);
#837=ORIENTED_EDGE('',*,*,#637,.T.);
#838=ORIENTED_EDGE('',*,*,#638,.T.);
#839=ORIENTED_EDGE('',*,*,#639,.T.);
#840=ORIENTED_EDGE('',*,*,#633,.F.);
#841=ORIENTED_EDGE('',*,*,#640,.T.);
#842=ORIENTED_EDGE('',*,*,#641,.T.);
#843=ORIENTED_EDGE('',*,*,#636,.T.);
#844=ORIENTED_EDGE('',*,*,#642,.T.);
#845=ORIENTED_EDGE('',*,*,#643,.F.);
#846=ORIENTED_EDGE('',*,*,#644,.T.);
#847=ORIENTED_EDGE('',*,*,#638,.F.);
#848=ORIENTED_EDGE('',*,*,#632,.F.);
#849=ORIENTED_EDGE('',*,*,#645,.T.);
#850=ORIENTED_EDGE('',*,*,#643,.T.);
#851=ORIENTED_EDGE('',*,*,#646,.T.);
#852=ORIENTED_EDGE('',*,*,#640,.F.);
#853=ORIENTED_EDGE('',*,*,#635,.F.);
#854=ORIENTED_EDGE('',*,*,#639,.F.);
#855=ORIENTED_EDGE('',*,*,#644,.F.);
#856=ORIENTED_EDGE('',*,*,#645,.F.);
#857=ORIENTED_EDGE('',*,*,#641,.F.);
#858=ORIENTED_EDGE('',*,*,#646,.F.);
#859=ORIENTED_EDGE('',*,*,#642,.F.);
#860=ORIENTED_EDGE('',*,*,#637,.F.);
#861=ORIENTED_EDGE('',*,*,#647,.T.);
#862=ORIENTED_EDGE('',*,*,#648,.T.);
#863=ORIENTED_EDGE('',*,*,#649,.T.);
#864=ORIENTED_EDGE('',*,*,#650,.T.);
#865=ORIENTED_EDGE('',*,*,#648,.F.);
#866=ORIENTED_EDGE('',*,*,#651,.T.);
#867=ORIENTED_EDGE('',*,*,#652,.T.);
#868=ORIENTED_EDGE('',*,*,#653,.T.);
#869=ORIENTED_EDGE('',*,*,#647,.F.);
#870=ORIENTED_EDGE('',*,*,#654,.F.);
#871=ORIENTED_EDGE('',*,*,#655,.F.);
#872=ORIENTED_EDGE('',*,*,#656,.F.);
#873=ORIENTED_EDGE('',*,*,#651,.F.);
#874=ORIENTED_EDGE('',*,*,#650,.F.);
#875=ORIENTED_EDGE('',*,*,#657,.T.);
#876=ORIENTED_EDGE('',*,*,#658,.F.);
#877=ORIENTED_EDGE('',*,*,#654,.T.);
#878=ORIENTED_EDGE('',*,*,#649,.F.);
#879=ORIENTED_EDGE('',*,*,#653,.F.);
#880=ORIENTED_EDGE('',*,*,#659,.F.);
#881=ORIENTED_EDGE('',*,*,#660,.F.);
#882=ORIENTED_EDGE('',*,*,#657,.F.);
#883=ORIENTED_EDGE('',*,*,#655,.T.);
#884=ORIENTED_EDGE('',*,*,#658,.T.);
#885=ORIENTED_EDGE('',*,*,#660,.T.);
#886=ORIENTED_EDGE('',*,*,#661,.T.);
#887=ORIENTED_EDGE('',*,*,#656,.T.);
#888=ORIENTED_EDGE('',*,*,#661,.F.);
#889=ORIENTED_EDGE('',*,*,#659,.T.);
#890=ORIENTED_EDGE('',*,*,#652,.F.);
#891=ORIENTED_EDGE('',*,*,#662,.F.);
#892=ORIENTED_EDGE('',*,*,#663,.F.);
#893=ORIENTED_EDGE('',*,*,#664,.F.);
#894=ORIENTED_EDGE('',*,*,#665,.F.);
#895=ORIENTED_EDGE('',*,*,#666,.F.);
#896=ORIENTED_EDGE('',*,*,#667,.F.);
#897=ORIENTED_EDGE('',*,*,#666,.T.);
#898=ORIENTED_EDGE('',*,*,#668,.T.);
#899=ORIENTED_EDGE('',*,*,#669,.T.);
#900=ORIENTED_EDGE('',*,*,#670,.F.);
#901=ORIENTED_EDGE('',*,*,#671,.T.);
#902=ORIENTED_EDGE('',*,*,#668,.F.);
#903=ORIENTED_EDGE('',*,*,#665,.T.);
#904=ORIENTED_EDGE('',*,*,#664,.T.);
#905=ORIENTED_EDGE('',*,*,#672,.T.);
#906=ORIENTED_EDGE('',*,*,#673,.T.);
#907=ORIENTED_EDGE('',*,*,#670,.T.);
#908=ORIENTED_EDGE('',*,*,#674,.F.);
#909=ORIENTED_EDGE('',*,*,#669,.F.);
#910=ORIENTED_EDGE('',*,*,#671,.F.);
#911=ORIENTED_EDGE('',*,*,#673,.F.);
#912=ORIENTED_EDGE('',*,*,#675,.T.);
#913=ORIENTED_EDGE('',*,*,#676,.F.);
#914=ORIENTED_EDGE('',*,*,#675,.F.);
#915=ORIENTED_EDGE('',*,*,#672,.F.);
#916=ORIENTED_EDGE('',*,*,#663,.T.);
#917=ORIENTED_EDGE('',*,*,#674,.T.);
#918=ORIENTED_EDGE('',*,*,#676,.T.);
#919=ORIENTED_EDGE('',*,*,#662,.T.);
#920=ORIENTED_EDGE('',*,*,#667,.T.);
#921=ORIENTED_EDGE('',*,*,#677,.T.);
#922=ORIENTED_EDGE('',*,*,#678,.F.);
#923=ORIENTED_EDGE('',*,*,#679,.T.);
#924=ORIENTED_EDGE('',*,*,#680,.T.);
#925=ORIENTED_EDGE('',*,*,#681,.T.);
#926=ORIENTED_EDGE('',*,*,#682,.F.);
#927=ORIENTED_EDGE('',*,*,#683,.F.);
#928=ORIENTED_EDGE('',*,*,#678,.T.);
#929=ORIENTED_EDGE('',*,*,#684,.T.);
#930=ORIENTED_EDGE('',*,*,#685,.F.);
#931=ORIENTED_EDGE('',*,*,#686,.T.);
#932=ORIENTED_EDGE('',*,*,#682,.T.);
#933=ORIENTED_EDGE('',*,*,#687,.T.);
#934=ORIENTED_EDGE('',*,*,#680,.F.);
#935=ORIENTED_EDGE('',*,*,#688,.T.);
#936=ORIENTED_EDGE('',*,*,#685,.T.);
#937=ORIENTED_EDGE('',*,*,#683,.T.);
#938=ORIENTED_EDGE('',*,*,#686,.F.);
#939=ORIENTED_EDGE('',*,*,#688,.F.);
#940=ORIENTED_EDGE('',*,*,#679,.F.);
#941=ORIENTED_EDGE('',*,*,#684,.F.);
#942=ORIENTED_EDGE('',*,*,#681,.F.);
#943=ORIENTED_EDGE('',*,*,#677,.F.);
#944=ORIENTED_EDGE('',*,*,#687,.F.);
#945=ORIENTED_EDGE('',*,*,#689,.T.);
#946=ORIENTED_EDGE('',*,*,#690,.F.);
#947=ORIENTED_EDGE('',*,*,#691,.F.);
#948=ORIENTED_EDGE('',*,*,#692,.T.);
#949=ORIENTED_EDGE('',*,*,#693,.T.);
#950=ORIENTED_EDGE('',*,*,#694,.F.);
#951=ORIENTED_EDGE('',*,*,#695,.T.);
#952=ORIENTED_EDGE('',*,*,#690,.T.);
#953=ORIENTED_EDGE('',*,*,#696,.T.);
#954=ORIENTED_EDGE('',*,*,#697,.F.);
#955=ORIENTED_EDGE('',*,*,#698,.T.);
#956=ORIENTED_EDGE('',*,*,#694,.T.);
#957=ORIENTED_EDGE('',*,*,#699,.T.);
#958=ORIENTED_EDGE('',*,*,#692,.F.);
#959=ORIENTED_EDGE('',*,*,#700,.F.);
#960=ORIENTED_EDGE('',*,*,#697,.T.);
#961=ORIENTED_EDGE('',*,*,#695,.F.);
#962=ORIENTED_EDGE('',*,*,#698,.F.);
#963=ORIENTED_EDGE('',*,*,#700,.T.);
#964=ORIENTED_EDGE('',*,*,#691,.T.);
#965=ORIENTED_EDGE('',*,*,#696,.F.);
#966=ORIENTED_EDGE('',*,*,#693,.F.);
#967=ORIENTED_EDGE('',*,*,#689,.F.);
#968=ORIENTED_EDGE('',*,*,#699,.F.);
#969=ORIENTED_EDGE('',*,*,#701,.F.);
#970=ORIENTED_EDGE('',*,*,#702,.F.);
#971=ORIENTED_EDGE('',*,*,#703,.F.);
#972=ORIENTED_EDGE('',*,*,#704,.F.);
#973=ORIENTED_EDGE('',*,*,#701,.T.);
#974=ORIENTED_EDGE('',*,*,#705,.T.);
#975=ORIENTED_EDGE('',*,*,#706,.T.);
#976=ORIENTED_EDGE('',*,*,#707,.F.);
#977=ORIENTED_EDGE('',*,*,#708,.T.);
#978=ORIENTED_EDGE('',*,*,#709,.T.);
#979=ORIENTED_EDGE('',*,*,#704,.T.);
#980=ORIENTED_EDGE('',*,*,#710,.T.);
#981=ORIENTED_EDGE('',*,*,#711,.T.);
#982=ORIENTED_EDGE('',*,*,#705,.F.);
#983=ORIENTED_EDGE('',*,*,#703,.T.);
#984=ORIENTED_EDGE('',*,*,#712,.F.);
#985=ORIENTED_EDGE('',*,*,#713,.F.);
#986=ORIENTED_EDGE('',*,*,#714,.F.);
#987=ORIENTED_EDGE('',*,*,#715,.F.);
#988=ORIENTED_EDGE('',*,*,#710,.F.);
#989=ORIENTED_EDGE('',*,*,#702,.T.);
#990=ORIENTED_EDGE('',*,*,#709,.F.);
#991=ORIENTED_EDGE('',*,*,#716,.F.);
#992=ORIENTED_EDGE('',*,*,#712,.T.);
#993=ORIENTED_EDGE('',*,*,#717,.F.);
#994=ORIENTED_EDGE('',*,*,#706,.F.);
#995=ORIENTED_EDGE('',*,*,#711,.F.);
#996=ORIENTED_EDGE('',*,*,#715,.T.);
#997=ORIENTED_EDGE('',*,*,#718,.F.);
#998=ORIENTED_EDGE('',*,*,#713,.T.);
#999=ORIENTED_EDGE('',*,*,#716,.T.);
#1000=ORIENTED_EDGE('',*,*,#708,.F.);
#1001=ORIENTED_EDGE('',*,*,#718,.T.);
#1002=ORIENTED_EDGE('',*,*,#707,.T.);
#1003=ORIENTED_EDGE('',*,*,#717,.T.);
#1004=ORIENTED_EDGE('',*,*,#714,.T.);
#1005=ORIENTED_EDGE('',*,*,#719,.F.);
#1006=ORIENTED_EDGE('',*,*,#720,.F.);
#1007=ORIENTED_EDGE('',*,*,#721,.F.);
#1008=ORIENTED_EDGE('',*,*,#722,.F.);
#1009=ORIENTED_EDGE('',*,*,#719,.T.);
#1010=ORIENTED_EDGE('',*,*,#723,.T.);
#1011=ORIENTED_EDGE('',*,*,#724,.T.);
#1012=ORIENTED_EDGE('',*,*,#725,.T.);
#1013=ORIENTED_EDGE('',*,*,#726,.T.);
#1014=ORIENTED_EDGE('',*,*,#727,.T.);
#1015=ORIENTED_EDGE('',*,*,#722,.T.);
#1016=ORIENTED_EDGE('',*,*,#728,.F.);
#1017=ORIENTED_EDGE('',*,*,#729,.F.);
#1018=ORIENTED_EDGE('',*,*,#723,.F.);
#1019=ORIENTED_EDGE('',*,*,#720,.T.);
#1020=ORIENTED_EDGE('',*,*,#727,.F.);
#1021=ORIENTED_EDGE('',*,*,#730,.F.);
#1022=ORIENTED_EDGE('',*,*,#731,.F.);
#1023=ORIENTED_EDGE('',*,*,#729,.T.);
#1024=ORIENTED_EDGE('',*,*,#732,.T.);
#1025=ORIENTED_EDGE('',*,*,#733,.T.);
#1026=ORIENTED_EDGE('',*,*,#724,.F.);
#1027=ORIENTED_EDGE('',*,*,#721,.T.);
#1028=ORIENTED_EDGE('',*,*,#731,.T.);
#1029=ORIENTED_EDGE('',*,*,#734,.F.);
#1030=ORIENTED_EDGE('',*,*,#735,.F.);
#1031=ORIENTED_EDGE('',*,*,#732,.F.);
#1032=ORIENTED_EDGE('',*,*,#728,.T.);
#1033=ORIENTED_EDGE('',*,*,#725,.F.);
#1034=ORIENTED_EDGE('',*,*,#733,.F.);
#1035=ORIENTED_EDGE('',*,*,#735,.T.);
#1036=ORIENTED_EDGE('',*,*,#736,.T.);
#1037=ORIENTED_EDGE('',*,*,#730,.T.);
#1038=ORIENTED_EDGE('',*,*,#726,.F.);
#1039=ORIENTED_EDGE('',*,*,#736,.F.);
#1040=ORIENTED_EDGE('',*,*,#734,.T.);
#1041=PLANE('',#1207);
#1042=PLANE('',#1208);
#1043=PLANE('',#1209);
#1044=PLANE('',#1210);
#1045=PLANE('',#1211);
#1046=PLANE('',#1212);
#1047=PLANE('',#1213);
#1048=PLANE('',#1214);
#1049=PLANE('',#1215);
#1050=PLANE('',#1216);
#1051=PLANE('',#1217);
#1052=PLANE('',#1218);
#1053=PLANE('',#1219);
#1054=PLANE('',#1220);
#1055=PLANE('',#1221);
#1056=PLANE('',#1222);
#1057=PLANE('',#1223);
#1058=PLANE('',#1224);
#1059=PLANE('',#1225);
#1060=PLANE('',#1226);
#1061=PLANE('',#1227);
#1062=PLANE('',#1228);
#1063=PLANE('',#1229);
#1064=PLANE('',#1230);
#1065=PLANE('',#1231);
#1066=PLANE('',#1232);
#1067=PLANE('',#1233);
#1068=PLANE('',#1234);
#1069=PLANE('',#1235);
#1070=PLANE('',#1236);
#1071=PLANE('',#1237);
#1072=PLANE('',#1238);
#1073=PLANE('',#1239);
#1074=PLANE('',#1240);
#1075=PLANE('',#1241);
#1076=PLANE('',#1242);
#1077=PLANE('',#1243);
#1078=PLANE('',#1244);
#1079=PLANE('',#1245);
#1080=PLANE('',#1246);
#1081=PLANE('',#1247);
#1082=PLANE('',#1248);
#1083=PLANE('',#1249);
#1084=PLANE('',#1250);
#1085=PLANE('',#1251);
#1086=PLANE('',#1252);
#1087=PLANE('',#1253);
#1088=PLANE('',#1254);
#1089=PLANE('',#1255);
#1090=PLANE('',#1256);
#1091=PLANE('',#1257);
#1092=PLANE('',#1258);
#1093=PLANE('',#1259);
#1094=PLANE('',#1260);
#1095=PLANE('',#1261);
#1096=PLANE('',#1262);
#1097=PLANE('',#1266);
#1098=PLANE('',#1267);
#1099=PLANE('',#1268);
#1100=PLANE('',#1269);
#1101=PLANE('',#1270);
#1102=PLANE('',#1271);
#1103=PLANE('',#1272);
#1104=PLANE('',#1276);
#1105=PLANE('',#1277);
#1106=PLANE('',#1278);
#1107=PLANE('',#1279);
#1108=PLANE('',#1280);
#1109=PLANE('',#1281);
#1110=PLANE('',#1282);
#1111=ADVANCED_FACE('',(#45),#1041,.T.);
#1112=ADVANCED_FACE('',(#46),#1042,.T.);
#1113=ADVANCED_FACE('',(#47),#1043,.T.);
#1114=ADVANCED_FACE('',(#48),#1044,.T.);
#1115=ADVANCED_FACE('',(#49),#1045,.T.);
#1116=ADVANCED_FACE('',(#50),#1046,.F.);
#1117=ADVANCED_FACE('',(#51),#1047,.T.);
#1118=ADVANCED_FACE('',(#52),#1048,.T.);
#1119=ADVANCED_FACE('',(#53),#1049,.T.);
#1120=ADVANCED_FACE('',(#54),#1050,.T.);
#1121=ADVANCED_FACE('',(#55),#1051,.T.);
#1122=ADVANCED_FACE('',(#56),#1052,.T.);
#1123=ADVANCED_FACE('',(#57),#1053,.T.);
#1124=ADVANCED_FACE('',(#58),#1054,.T.);
#1125=ADVANCED_FACE('',(#59),#1055,.F.);
#1126=ADVANCED_FACE('',(#60),#1056,.F.);
#1127=ADVANCED_FACE('',(#61),#1057,.T.);
#1128=ADVANCED_FACE('',(#62),#1058,.F.);
#1129=ADVANCED_FACE('',(#63),#1059,.T.);
#1130=ADVANCED_FACE('',(#64),#1060,.T.);
#1131=ADVANCED_FACE('',(#65),#1061,.T.);
#1132=ADVANCED_FACE('',(#66),#1062,.T.);
#1133=ADVANCED_FACE('',(#67),#1063,.F.);
#1134=ADVANCED_FACE('',(#68),#1064,.T.);
#1135=ADVANCED_FACE('',(#69),#1065,.T.);
#1136=ADVANCED_FACE('',(#70),#1066,.T.);
#1137=ADVANCED_FACE('',(#71),#1067,.T.);
#1138=ADVANCED_FACE('',(#72),#1068,.F.);
#1139=ADVANCED_FACE('',(#73),#1069,.T.);
#1140=ADVANCED_FACE('',(#74),#1070,.F.);
#1141=ADVANCED_FACE('',(#75),#1071,.T.);
#1142=ADVANCED_FACE('',(#76),#1072,.F.);
#1143=ADVANCED_FACE('',(#77),#1073,.F.);
#1144=ADVANCED_FACE('',(#78),#1074,.T.);
#1145=ADVANCED_FACE('',(#79),#1075,.F.);
#1146=ADVANCED_FACE('',(#80),#1076,.T.);
#1147=ADVANCED_FACE('',(#81),#1077,.F.);
#1148=ADVANCED_FACE('',(#82),#1078,.F.);
#1149=ADVANCED_FACE('',(#83),#1079,.F.);
#1150=ADVANCED_FACE('',(#84),#1080,.T.);
#1151=ADVANCED_FACE('',(#85),#1081,.T.);
#1152=ADVANCED_FACE('',(#86),#1082,.F.);
#1153=ADVANCED_FACE('',(#87),#1083,.T.);
#1154=ADVANCED_FACE('',(#88),#1084,.T.);
#1155=ADVANCED_FACE('',(#89),#1085,.T.);
#1156=ADVANCED_FACE('',(#90),#1086,.T.);
#1157=ADVANCED_FACE('',(#91),#1087,.T.);
#1158=ADVANCED_FACE('',(#92),#1088,.T.);
#1159=ADVANCED_FACE('',(#93),#1089,.F.);
#1160=ADVANCED_FACE('',(#94),#1090,.T.);
#1161=ADVANCED_FACE('',(#95),#1091,.T.);
#1162=ADVANCED_FACE('',(#96),#1092,.T.);
#1163=ADVANCED_FACE('',(#97),#1093,.T.);
#1164=ADVANCED_FACE('',(#98),#1094,.T.);
#1165=ADVANCED_FACE('',(#99),#1095,.F.);
#1166=ADVANCED_FACE('',(#100),#1096,.T.);
#1167=ADVANCED_FACE('',(#101),#19,.F.);
#1168=ADVANCED_FACE('',(#102),#1097,.F.);
#1169=ADVANCED_FACE('',(#103),#1098,.T.);
#1170=ADVANCED_FACE('',(#104),#1099,.T.);
#1171=ADVANCED_FACE('',(#105),#1100,.T.);
#1172=ADVANCED_FACE('',(#106),#1101,.T.);
#1173=ADVANCED_FACE('',(#107),#1102,.T.);
#1174=ADVANCED_FACE('',(#108),#1103,.T.);
#1175=ADVANCED_FACE('',(#109),#20,.F.);
#1176=ADVANCED_FACE('',(#110),#1104,.F.);
#1177=ADVANCED_FACE('',(#111),#1105,.F.);
#1178=ADVANCED_FACE('',(#112),#1106,.F.);
#1179=ADVANCED_FACE('',(#113),#1107,.T.);
#1180=ADVANCED_FACE('',(#114),#1108,.T.);
#1181=ADVANCED_FACE('',(#115),#1109,.T.);
#1182=ADVANCED_FACE('',(#116),#1110,.T.);
#1183=CLOSED_SHELL('',(#1111,#1112,#1113,#1114,#1115,#1116,#1117,#1118,
#1119,#1120));
#1184=CLOSED_SHELL('',(#1121,#1122,#1123,#1124,#1125,#1126));
#1185=CLOSED_SHELL('',(#1127,#1128,#1129,#1130,#1131,#1132,#1133));
#1186=CLOSED_SHELL('',(#1134,#1135,#1136,#1137,#1138,#1139,#1140));
#1187=CLOSED_SHELL('',(#1141,#1142,#1143,#1144,#1145,#1146,#1147));
#1188=CLOSED_SHELL('',(#1148,#1149,#1150,#1151,#1152,#1153,#1154));
#1189=CLOSED_SHELL('',(#1155,#1156,#1157,#1158,#1159,#1160));
#1190=CLOSED_SHELL('',(#1161,#1162,#1163,#1164,#1165,#1166));
#1191=CLOSED_SHELL('',(#1167,#1168,#1169,#1170,#1171,#1172,#1173,#1174));
#1192=CLOSED_SHELL('',(#1175,#1176,#1177,#1178,#1179,#1180,#1181,#1182));
#1193=DERIVED_UNIT_ELEMENT(#1195,1.);
#1194=DERIVED_UNIT_ELEMENT(#1926,-3.);
#1195=(
MASS_UNIT()
NAMED_UNIT(*)
SI_UNIT(.KILO.,.GRAM.)
);
#1196=DERIVED_UNIT((#1193,#1194));
#1197=MEASURE_REPRESENTATION_ITEM('density measure',
POSITIVE_RATIO_MEASURE(7850.),#1196);
#1198=PROPERTY_DEFINITION_REPRESENTATION(#1203,#1200);
#1199=PROPERTY_DEFINITION_REPRESENTATION(#1204,#1201);
#1200=REPRESENTATION('material name',(#1202),#1921);
#1201=REPRESENTATION('density',(#1197),#1921);
#1202=DESCRIPTIVE_REPRESENTATION_ITEM('Steel','Steel');
#1203=PROPERTY_DEFINITION('material property','material name',#1939);
#1204=PROPERTY_DEFINITION('material property','density of part',#1939);
#1205=AXIS2_PLACEMENT_3D('',#1590,#1284,#1285);
#1206=AXIS2_PLACEMENT_3D('',#1591,#1286,#1287);
#1207=AXIS2_PLACEMENT_3D('',#1592,#1288,#1289);
#1208=AXIS2_PLACEMENT_3D('',#1601,#1294,#1295);
#1209=AXIS2_PLACEMENT_3D('',#1607,#1299,#1300);
#1210=AXIS2_PLACEMENT_3D('',#1613,#1304,#1305);
#1211=AXIS2_PLACEMENT_3D('',#1616,#1308,#1309);
#1212=AXIS2_PLACEMENT_3D('',#1622,#1313,#1314);
#1213=AXIS2_PLACEMENT_3D('',#1626,#1317,#1318);
#1214=AXIS2_PLACEMENT_3D('',#1627,#1319,#1320);
#1215=AXIS2_PLACEMENT_3D('',#1631,#1323,#1324);
#1216=AXIS2_PLACEMENT_3D('',#1633,#1326,#1327);
#1217=AXIS2_PLACEMENT_3D('',#1634,#1328,#1329);
#1218=AXIS2_PLACEMENT_3D('',#1643,#1334,#1335);
#1219=AXIS2_PLACEMENT_3D('',#1649,#1339,#1340);
#1220=AXIS2_PLACEMENT_3D('',#1655,#1344,#1345);
#1221=AXIS2_PLACEMENT_3D('',#1658,#1348,#1349);
#1222=AXIS2_PLACEMENT_3D('',#1659,#1350,#1351);
#1223=AXIS2_PLACEMENT_3D('',#1660,#1352,#1353);
#1224=AXIS2_PLACEMENT_3D('',#1669,#1358,#1359);
#1225=AXIS2_PLACEMENT_3D('',#1677,#1364,#1365);
#1226=AXIS2_PLACEMENT_3D('',#1681,#1368,#1369);
#1227=AXIS2_PLACEMENT_3D('',#1685,#1372,#1373);
#1228=AXIS2_PLACEMENT_3D('',#1689,#1376,#1377);
#1229=AXIS2_PLACEMENT_3D('',#1691,#1379,#1380);
#1230=AXIS2_PLACEMENT_3D('',#1692,#1381,#1382);
#1231=AXIS2_PLACEMENT_3D('',#1701,#1387,#1388);
#1232=AXIS2_PLACEMENT_3D('',#1709,#1393,#1394);
#1233=AXIS2_PLACEMENT_3D('',#1713,#1397,#1398);
#1234=AXIS2_PLACEMENT_3D('',#1719,#1402,#1403);
#1235=AXIS2_PLACEMENT_3D('',#1722,#1406,#1407);
#1236=AXIS2_PLACEMENT_3D('',#1723,#1408,#1409);
#1237=AXIS2_PLACEMENT_3D('',#1724,#1410,#1411);
#1238=AXIS2_PLACEMENT_3D('',#1733,#1416,#1417);
#1239=AXIS2_PLACEMENT_3D('',#1739,#1421,#1422);
#1240=AXIS2_PLACEMENT_3D('',#1745,#1426,#1427);
#1241=AXIS2_PLACEMENT_3D('',#1749,#1430,#1431);
#1242=AXIS2_PLACEMENT_3D('',#1753,#1434,#1435);
#1243=AXIS2_PLACEMENT_3D('',#1755,#1437,#1438);
#1244=AXIS2_PLACEMENT_3D('',#1756,#1439,#1440);
#1245=AXIS2_PLACEMENT_3D('',#1767,#1446,#1447);
#1246=AXIS2_PLACEMENT_3D('',#1773,#1451,#1452);
#1247=AXIS2_PLACEMENT_3D('',#1777,#1455,#1456);
#1248=AXIS2_PLACEMENT_3D('',#1781,#1459,#1460);
#1249=AXIS2_PLACEMENT_3D('',#1785,#1463,#1464);
#1250=AXIS2_PLACEMENT_3D('',#1787,#1466,#1467);
#1251=AXIS2_PLACEMENT_3D('',#1788,#1468,#1469);
#1252=AXIS2_PLACEMENT_3D('',#1797,#1474,#1475);
#1253=AXIS2_PLACEMENT_3D('',#1803,#1479,#1480);
#1254=AXIS2_PLACEMENT_3D('',#1809,#1484,#1485);
#1255=AXIS2_PLACEMENT_3D('',#1812,#1488,#1489);
#1256=AXIS2_PLACEMENT_3D('',#1813,#1490,#1491);
#1257=AXIS2_PLACEMENT_3D('',#1814,#1492,#1493);
#1258=AXIS2_PLACEMENT_3D('',#1823,#1498,#1499);
#1259=AXIS2_PLACEMENT_3D('',#1829,#1503,#1504);
#1260=AXIS2_PLACEMENT_3D('',#1835,#1508,#1509);
#1261=AXIS2_PLACEMENT_3D('',#1838,#1512,#1513);
#1262=AXIS2_PLACEMENT_3D('',#1839,#1514,#1515);
#1263=AXIS2_PLACEMENT_3D('',#1840,#1516,#1517);
#1264=AXIS2_PLACEMENT_3D('',#1843,#1518,#1519);
#1265=AXIS2_PLACEMENT_3D('',#1847,#1521,#1522);
#1266=AXIS2_PLACEMENT_3D('',#1849,#1524,#1525);
#1267=AXIS2_PLACEMENT_3D('',#1859,#1531,#1532);
#1268=AXIS2_PLACEMENT_3D('',#1863,#1535,#1536);
#1269=AXIS2_PLACEMENT_3D('',#1871,#1541,#1542);
#1270=AXIS2_PLACEMENT_3D('',#1873,#1544,#1545);
#1271=AXIS2_PLACEMENT_3D('',#1875,#1547,#1548);
#1272=AXIS2_PLACEMENT_3D('',#1877,#1550,#1551);
#1273=AXIS2_PLACEMENT_3D('',#1878,#1552,#1553);
#1274=AXIS2_PLACEMENT_3D('',#1881,#1554,#1555);
#1275=AXIS2_PLACEMENT_3D('',#1885,#1557,#1558);
#1276=AXIS2_PLACEMENT_3D('',#1887,#1560,#1561);
#1277=AXIS2_PLACEMENT_3D('',#1897,#1567,#1568);
#1278=AXIS2_PLACEMENT_3D('',#1901,#1571,#1572);
#1279=AXIS2_PLACEMENT_3D('',#1905,#1575,#1576);
#1280=AXIS2_PLACEMENT_3D('',#1909,#1579,#1580);
#1281=AXIS2_PLACEMENT_3D('',#1913,#1583,#1584);
#1282=AXIS2_PLACEMENT_3D('',#1915,#1586,#1587);
#1283=AXIS2_PLACEMENT_3D('',#1916,#1588,#1589);
#1284=DIRECTION('axis',(0.,0.,1.));
#1285=DIRECTION('refdir',(1.,0.,0.));
#1286=DIRECTION('axis',(0.,0.,1.));
#1287=DIRECTION('refdir',(1.,0.,0.));
#1288=DIRECTION('center_axis',(0.,-0.707106781186548,-0.707106781186547));
#1289=DIRECTION('ref_axis',(-1.,0.,0.));
#1290=DIRECTION('',(-1.,0.,0.));
#1291=DIRECTION('',(0.577350269189626,0.577350269189626,-0.577350269189625));
#1292=DIRECTION('',(1.,0.,0.));
#1293=DIRECTION('',(0.577350269189626,-0.577350269189626,0.577350269189626));
#1294=DIRECTION('center_axis',(-0.707106781186548,0.,-0.707106781186548));
#1295=DIRECTION('ref_axis',(-0.707106781186548,0.,0.707106781186548));
#1296=DIRECTION('',(0.,-1.,0.));
#1297=DIRECTION('',(0.,1.,0.));
#1298=DIRECTION('',(0.577350269189626,-0.577350269189626,-0.577350269189626));
#1299=DIRECTION('center_axis',(0.,0.707106781186548,-0.707106781186547));
#1300=DIRECTION('ref_axis',(-1.,0.,0.));
#1301=DIRECTION('',(-1.,0.,0.));
#1302=DIRECTION('',(1.,0.,0.));
#1303=DIRECTION('',(0.577350269189626,0.577350269189626,0.577350269189626));
#1304=DIRECTION('center_axis',(0.707106781186548,0.,-0.707106781186548));
#1305=DIRECTION('ref_axis',(-0.707106781186548,0.,-0.707106781186548));
#1306=DIRECTION('',(0.,-1.,0.));
#1307=DIRECTION('',(0.,1.,0.));
#1308=DIRECTION('center_axis',(-1.,0.,0.));
#1309=DIRECTION('ref_axis',(0.,0.,1.));
#1310=DIRECTION('',(-1.40740628414947E-33,0.,-1.));
#1311=DIRECTION('',(0.,-1.,0.));
#1312=DIRECTION('',(0.,0.,1.));
#1313=DIRECTION('center_axis',(0.,1.,0.));
#1314=DIRECTION('ref_axis',(1.,0.,0.));
#1315=DIRECTION('',(0.,0.,1.));
#1316=DIRECTION('',(1.,0.,0.));
#1317=DIRECTION('center_axis',(0.,0.,-1.));
#1318=DIRECTION('ref_axis',(-1.,0.,0.));
#1319=DIRECTION('center_axis',(1.,0.,0.));
#1320=DIRECTION('ref_axis',(0.,0.,-1.));
#1321=DIRECTION('',(0.,0.,-1.));
#1322=DIRECTION('',(0.,1.,0.));
#1323=DIRECTION('center_axis',(0.,0.,1.));
#1324=DIRECTION('ref_axis',(1.,0.,0.));
#1325=DIRECTION('',(-1.,0.,0.));
#1326=DIRECTION('center_axis',(0.,1.,0.));
#1327=DIRECTION('ref_axis',(0.,0.,1.));
#1328=DIRECTION('center_axis',(1.,0.,0.));
#1329=DIRECTION('ref_axis',(0.,0.,-1.));
#1330=DIRECTION('',(0.,0.,-1.));
#1331=DIRECTION('',(0.,1.,0.));
#1332=DIRECTION('',(0.,0.,-1.));
#1333=DIRECTION('',(0.,1.,0.));
#1334=DIRECTION('center_axis',(0.,0.,1.));
#1335=DIRECTION('ref_axis',(1.,0.,0.));
#1336=DIRECTION('',(1.,0.,0.));
#1337=DIRECTION('',(0.,1.,0.));
#1338=DIRECTION('',(1.,0.,0.));
#1339=DIRECTION('center_axis',(-1.,0.,-2.11279813895148E-17));
#1340=DIRECTION('ref_axis',(-2.11279813895148E-17,0.,1.));
#1341=DIRECTION('',(-2.11279813895148E-17,0.,1.));
#1342=DIRECTION('',(0.,1.,0.));
#1343=DIRECTION('',(2.11279813895148E-17,0.,-1.));
#1344=DIRECTION('center_axis',(0.,0.,-1.));
#1345=DIRECTION('ref_axis',(-1.,0.,0.));
#1346=DIRECTION('',(-1.,0.,0.));
#1347=DIRECTION('',(1.,0.,0.));
#1348=DIRECTION('center_axis',(0.,1.,0.));
#1349=DIRECTION('ref_axis',(-1.,0.,0.));
#1350=DIRECTION('center_axis',(0.,-1.,0.));
#1351=DIRECTION('ref_axis',(0.,0.,-1.));
#1352=DIRECTION('center_axis',(-0.707106781186548,0.,0.707106781186548));
#1353=DIRECTION('ref_axis',(0.707106781186548,0.,0.707106781186548));
#1354=DIRECTION('',(-0.707106781186548,0.,-0.707106781186548));
#1355=DIRECTION('',(0.,-1.,0.));
#1356=DIRECTION('',(0.707106781186548,0.,0.707106781186548));
#1357=DIRECTION('',(0.,1.,0.));
#1358=DIRECTION('center_axis',(0.,1.,0.));
#1359=DIRECTION('ref_axis',(1.,0.,0.));
#1360=DIRECTION('',(0.,0.,1.));
#1361=DIRECTION('',(1.,0.,0.));
#1362=DIRECTION('',(0.,0.,1.));
#1363=DIRECTION('',(-1.,0.,0.));
#1364=DIRECTION('center_axis',(-1.,0.,0.));
#1365=DIRECTION('ref_axis',(0.,0.,1.));
#1366=DIRECTION('',(0.,0.,-1.));
#1367=DIRECTION('',(0.,-1.,0.));
#1368=DIRECTION('center_axis',(0.,0.,1.));
#1369=DIRECTION('ref_axis',(1.,0.,0.));
#1370=DIRECTION('',(0.,1.,0.));
#1371=DIRECTION('',(1.,0.,0.));
#1372=DIRECTION('center_axis',(0.,1.,0.));
#1373=DIRECTION('ref_axis',(0.,0.,1.));
#1374=DIRECTION('',(0.,0.,-1.));
#1375=DIRECTION('',(-1.,0.,0.));
#1376=DIRECTION('center_axis',(1.,0.,0.));
#1377=DIRECTION('ref_axis',(0.,0.,-1.));
#1378=DIRECTION('',(0.,1.,0.));
#1379=DIRECTION('center_axis',(0.,0.,1.));
#1380=DIRECTION('ref_axis',(1.,0.,0.));
#1381=DIRECTION('center_axis',(0.707106781186547,0.,0.707106781186548));
#1382=DIRECTION('ref_axis',(0.707106781186548,0.,-0.707106781186547));
#1383=DIRECTION('',(0.707106781186548,0.,-0.707106781186547));
#1384=DIRECTION('',(0.,1.,0.));
#1385=DIRECTION('',(-0.707106781186548,0.,0.707106781186547));
#1386=DIRECTION('',(0.,-1.,0.));
#1387=DIRECTION('center_axis',(0.,1.,0.));
#1388=DIRECTION('ref_axis',(0.,0.,1.));
#1389=DIRECTION('',(0.,0.,1.));
#1390=DIRECTION('',(-1.,0.,0.));
#1391=DIRECTION('',(0.,0.,1.));
#1392=DIRECTION('',(1.,0.,0.));
#1393=DIRECTION('center_axis',(1.,0.,0.));
#1394=DIRECTION('ref_axis',(0.,0.,-1.));
#1395=DIRECTION('',(0.,0.,-1.));
#1396=DIRECTION('',(0.,1.,0.));
#1397=DIRECTION('center_axis',(-1.,0.,0.));
#1398=DIRECTION('ref_axis',(0.,0.,1.));
#1399=DIRECTION('',(0.,-1.,0.));
#1400=DIRECTION('',(-1.40740628414947E-33,0.,-1.));
#1401=DIRECTION('',(0.,1.,0.));
#1402=DIRECTION('center_axis',(0.,1.,0.));
#1403=DIRECTION('ref_axis',(1.,0.,0.));
#1404=DIRECTION('',(-1.,0.,0.));
#1405=DIRECTION('',(1.,0.,0.));
#1406=DIRECTION('center_axis',(0.,0.,1.));
#1407=DIRECTION('ref_axis',(1.,0.,0.));
#1408=DIRECTION('center_axis',(0.,0.,1.));
#1409=DIRECTION('ref_axis',(1.,0.,0.));
#1410=DIRECTION('center_axis',(0.,-0.707106781186548,0.707106781186548));
#1411=DIRECTION('ref_axis',(1.,0.,0.));
#1412=DIRECTION('',(0.,-0.707106781186548,-0.707106781186548));
#1413=DIRECTION('',(1.,0.,0.));
#1414=DIRECTION('',(0.,0.707106781186548,0.707106781186548));
#1415=DIRECTION('',(-1.,0.,0.));
#1416=DIRECTION('center_axis',(0.,1.,0.));
#1417=DIRECTION('ref_axis',(-1.,0.,0.));
#1418=DIRECTION('',(0.,0.,-1.));
#1419=DIRECTION('',(1.,0.,0.));
#1420=DIRECTION('',(0.,0.,1.));
#1421=DIRECTION('center_axis',(1.,0.,0.));
#1422=DIRECTION('ref_axis',(0.,0.,-1.));
#1423=DIRECTION('',(0.,-1.,0.));
#1424=DIRECTION('',(0.,0.,1.));
#1425=DIRECTION('',(0.,1.,0.));
#1426=DIRECTION('center_axis',(0.,0.,1.));
#1427=DIRECTION('ref_axis',(1.,0.,0.));
#1428=DIRECTION('',(0.,1.,0.));
#1429=DIRECTION('',(1.,0.,0.));
#1430=DIRECTION('center_axis',(-1.,0.,0.));
#1431=DIRECTION('ref_axis',(0.,0.,1.));
#1432=DIRECTION('',(0.,-1.,0.));
#1433=DIRECTION('',(0.,0.,-1.));
#1434=DIRECTION('center_axis',(0.,1.,0.));
#1435=DIRECTION('ref_axis',(0.,0.,1.));
#1436=DIRECTION('',(-1.,0.,0.));
#1437=DIRECTION('center_axis',(0.,0.,1.));
#1438=DIRECTION('ref_axis',(1.,0.,0.));
#1439=DIRECTION('center_axis',(-1.,0.,0.));
#1440=DIRECTION('ref_axis',(0.,0.,1.));
#1441=DIRECTION('',(0.,-1.,0.));
#1442=DIRECTION('',(0.,0.,-1.));
#1443=DIRECTION('',(0.,0.707106781186548,-0.707106781186547));
#1444=DIRECTION('',(0.,1.,0.));
#1445=DIRECTION('',(0.,0.,1.));
#1446=DIRECTION('center_axis',(0.,1.,0.));
#1447=DIRECTION('ref_axis',(1.,0.,0.));
#1448=DIRECTION('',(-1.,0.,0.));
#1449=DIRECTION('',(-1.,0.,0.));
#1450=DIRECTION('',(0.,0.,-1.));
#1451=DIRECTION('center_axis',(0.,0.,1.));
#1452=DIRECTION('ref_axis',(1.,0.,0.));
#1453=DIRECTION('',(1.,0.,0.));
#1454=DIRECTION('',(0.,-1.,0.));
#1455=DIRECTION('center_axis',(0.,0.707106781186547,0.707106781186548));
#1456=DIRECTION('ref_axis',(1.,0.,0.));
#1457=DIRECTION('',(-1.,0.,0.));
#1458=DIRECTION('',(0.,-0.707106781186548,0.707106781186547));
#1459=DIRECTION('center_axis',(1.,0.,0.));
#1460=DIRECTION('ref_axis',(0.,0.,-1.));
#1461=DIRECTION('',(0.,1.,0.));
#1462=DIRECTION('',(0.,0.,-1.));
#1463=DIRECTION('center_axis',(0.,1.,0.));
#1464=DIRECTION('ref_axis',(0.,0.,1.));
#1465=DIRECTION('',(1.,0.,0.));
#1466=DIRECTION('center_axis',(0.,0.,-1.));
#1467=DIRECTION('ref_axis',(-1.,0.,0.));
#1468=DIRECTION('center_axis',(0.,0.,1.));
#1469=DIRECTION('ref_axis',(-1.,0.,0.));
#1470=DIRECTION('',(-1.,0.,0.));
#1471=DIRECTION('',(0.,-1.,0.));
#1472=DIRECTION('',(-1.,0.,0.));
#1473=DIRECTION('',(0.,-1.,0.));
#1474=DIRECTION('center_axis',(1.,0.,0.));
#1475=DIRECTION('ref_axis',(0.,0.,1.));
#1476=DIRECTION('',(0.,0.,1.));
#1477=DIRECTION('',(0.,-1.,0.));
#1478=DIRECTION('',(0.,0.,1.));
#1479=DIRECTION('center_axis',(0.,0.,-1.));
#1480=DIRECTION('ref_axis',(1.,0.,0.));
#1481=DIRECTION('',(1.,0.,0.));
#1482=DIRECTION('',(0.,-1.,0.));
#1483=DIRECTION('',(1.,0.,0.));
#1484=DIRECTION('center_axis',(-1.,0.,2.05692084228839E-17));
#1485=DIRECTION('ref_axis',(-2.05692084228839E-17,0.,-1.));
#1486=DIRECTION('',(-2.05692084228839E-17,0.,-1.));
#1487=DIRECTION('',(-2.05692084228839E-17,0.,-1.));
#1488=DIRECTION('center_axis',(0.,-1.,0.));
#1489=DIRECTION('ref_axis',(1.,0.,0.));
#1490=DIRECTION('center_axis',(0.,-1.,0.));
#1491=DIRECTION('ref_axis',(0.,0.,-1.));
#1492=DIRECTION('center_axis',(1.,0.,0.));
#1493=DIRECTION('ref_axis',(0.,0.,1.));
#1494=DIRECTION('',(0.,0.,1.));
#1495=DIRECTION('',(0.,-1.,0.));
#1496=DIRECTION('',(0.,0.,1.));
#1497=DIRECTION('',(0.,-1.,0.));
#1498=DIRECTION('center_axis',(0.,0.,-1.));
#1499=DIRECTION('ref_axis',(1.,0.,0.));
#1500=DIRECTION('',(1.,0.,0.));
#1501=DIRECTION('',(0.,-1.,0.));
#1502=DIRECTION('',(1.,0.,0.));
#1503=DIRECTION('center_axis',(-1.,0.,0.));
#1504=DIRECTION('ref_axis',(0.,0.,-1.));
#1505=DIRECTION('',(0.,0.,-1.));
#1506=DIRECTION('',(0.,-1.,0.));
#1507=DIRECTION('',(0.,0.,-1.));
#1508=DIRECTION('center_axis',(0.,0.,1.));
#1509=DIRECTION('ref_axis',(-1.,0.,0.));
#1510=DIRECTION('',(-1.,0.,0.));
#1511=DIRECTION('',(-1.,0.,0.));
#1512=DIRECTION('center_axis',(0.,-1.,0.));
#1513=DIRECTION('ref_axis',(1.,0.,0.));
#1514=DIRECTION('center_axis',(0.,-1.,0.));
#1515=DIRECTION('ref_axis',(0.,0.,-1.));
#1516=DIRECTION('center_axis',(0.,1.,0.));
#1517=DIRECTION('ref_axis',(-1.,0.,0.));
#1518=DIRECTION('center_axis',(0.,-1.,0.));
#1519=DIRECTION('ref_axis',(-1.,0.,0.));
#1520=DIRECTION('',(0.,1.,0.));
#1521=DIRECTION('center_axis',(0.,1.,0.));
#1522=DIRECTION('ref_axis',(-1.,0.,0.));
#1523=DIRECTION('',(0.,-1.,0.));
#1524=DIRECTION('center_axis',(0.,-1.,0.));
#1525=DIRECTION('ref_axis',(0.,0.,-1.));
#1526=DIRECTION('',(1.,0.,0.));
#1527=DIRECTION('',(-1.50204700682571E-16,0.,-1.));
#1528=DIRECTION('',(1.,0.,0.));
#1529=DIRECTION('',(0.,0.,1.));
#1530=DIRECTION('',(1.,0.,0.));
#1531=DIRECTION('center_axis',(0.,0.,1.));
#1532=DIRECTION('ref_axis',(1.,0.,0.));
#1533=DIRECTION('',(1.,0.,0.));
#1534=DIRECTION('',(0.,1.,0.));
#1535=DIRECTION('center_axis',(0.,-1.,0.));
#1536=DIRECTION('ref_axis',(1.,0.,0.));
#1537=DIRECTION('',(1.,0.,0.));
#1538=DIRECTION('',(0.,0.,1.));
#1539=DIRECTION('',(-1.,0.,0.));
#1540=DIRECTION('',(-1.50204700682571E-16,0.,-1.));
#1541=DIRECTION('center_axis',(0.,0.,1.));
#1542=DIRECTION('ref_axis',(1.,0.,0.));
#1543=DIRECTION('',(0.,1.,0.));
#1544=DIRECTION('center_axis',(1.,0.,-1.50204700682571E-16));
#1545=DIRECTION('ref_axis',(-1.50204700682571E-16,0.,-1.));
#1546=DIRECTION('',(0.,-1.,0.));
#1547=DIRECTION('center_axis',(-1.,0.,0.));
#1548=DIRECTION('ref_axis',(0.,0.,1.));
#1549=DIRECTION('',(0.,1.,0.));
#1550=DIRECTION('center_axis',(0.,0.,-1.));
#1551=DIRECTION('ref_axis',(-1.,0.,0.));
#1552=DIRECTION('center_axis',(0.,1.,0.));
#1553=DIRECTION('ref_axis',(-1.,0.,0.));
#1554=DIRECTION('center_axis',(0.,-1.,0.));
#1555=DIRECTION('ref_axis',(-1.,0.,0.));
#1556=DIRECTION('',(0.,1.,0.));
#1557=DIRECTION('center_axis',(0.,1.,0.));
#1558=DIRECTION('ref_axis',(-1.,0.,0.));
#1559=DIRECTION('',(0.,-1.,0.));
#1560=DIRECTION('center_axis',(0.,-1.,0.));
#1561=DIRECTION('ref_axis',(0.,0.,-1.));
#1562=DIRECTION('',(-1.,0.,0.));
#1563=DIRECTION('',(-1.50204700682571E-16,0.,-1.));
#1564=DIRECTION('',(-1.,0.,0.));
#1565=DIRECTION('',(0.,0.,1.));
#1566=DIRECTION('',(-1.,0.,0.));
#1567=DIRECTION('center_axis',(0.,0.,-1.));
#1568=DIRECTION('ref_axis',(-1.,0.,0.));
#1569=DIRECTION('',(-1.,0.,0.));
#1570=DIRECTION('',(0.,-1.,0.));
#1571=DIRECTION('center_axis',(0.,0.,-1.));
#1572=DIRECTION('ref_axis',(-1.,0.,0.));
#1573=DIRECTION('',(0.,1.,0.));
#1574=DIRECTION('',(-1.,0.,0.));
#1575=DIRECTION('center_axis',(1.,0.,-1.50204700682571E-16));
#1576=DIRECTION('ref_axis',(-1.50204700682571E-16,0.,-1.));
#1577=DIRECTION('',(-1.50204700682571E-16,0.,-1.));
#1578=DIRECTION('',(0.,1.,0.));
#1579=DIRECTION('center_axis',(0.,-1.,0.));
#1580=DIRECTION('ref_axis',(1.,0.,0.));
#1581=DIRECTION('',(0.,0.,1.));
#1582=DIRECTION('',(-1.,0.,0.));
#1583=DIRECTION('center_axis',(0.,0.,-1.));
#1584=DIRECTION('ref_axis',(-1.,0.,0.));
#1585=DIRECTION('',(0.,1.,0.));
#1586=DIRECTION('center_axis',(-1.,0.,0.));
#1587=DIRECTION('ref_axis',(0.,0.,1.));
#1588=DIRECTION('',(0.,0.,1.));
#1589=DIRECTION('',(1.,0.,0.));
#1590=CARTESIAN_POINT('',(0.,0.,0.));
#1591=CARTESIAN_POINT('',(0.,0.,0.));
#1592=CARTESIAN_POINT('Origin',(5.094,0.3125,0.3125));
#1593=CARTESIAN_POINT('',(19.,0.,0.625));
#1594=CARTESIAN_POINT('',(8.79628927593417E-34,0.,0.624999999999999));
#1595=CARTESIAN_POINT('',(5.094,0.,0.625));
#1596=CARTESIAN_POINT('',(0.625,0.625,0.));
#1597=CARTESIAN_POINT('',(8.79628927593417E-34,0.,0.624999999999999));
#1598=CARTESIAN_POINT('',(18.375,0.625,0.));
#1599=CARTESIAN_POINT('',(5.094,0.625,0.));
#1600=CARTESIAN_POINT('',(18.375,0.625,0.));
#1601=CARTESIAN_POINT('Origin',(0.3125,0.688,0.3125));
#1602=CARTESIAN_POINT('',(0.625,23.437,0.));
#1603=CARTESIAN_POINT('',(0.625,0.688,0.));
#1604=CARTESIAN_POINT('',(0.,24.062,0.624999999999999));
#1605=CARTESIAN_POINT('',(0.,0.688,0.625));
#1606=CARTESIAN_POINT('',(0.,24.062,0.624999999999999));
#1607=CARTESIAN_POINT('Origin',(5.094,23.7495,0.3125));
#1608=CARTESIAN_POINT('',(18.375,23.437,0.));
#1609=CARTESIAN_POINT('',(5.094,23.437,0.));
#1610=CARTESIAN_POINT('',(19.,24.062,0.624999999999999));
#1611=CARTESIAN_POINT('',(5.094,24.062,0.625));
#1612=CARTESIAN_POINT('',(18.375,23.437,0.));
#1613=CARTESIAN_POINT('Origin',(18.6875,0.688,0.3125));
#1614=CARTESIAN_POINT('',(19.,0.688,0.624999999999999));
#1615=CARTESIAN_POINT('',(18.375,0.688,0.));
#1616=CARTESIAN_POINT('Origin',(0.,0.688,0.));
#1617=CARTESIAN_POINT('',(9.68295523494832E-34,0.,0.688000000000001));
#1618=CARTESIAN_POINT('',(2.91164212064842E-32,0.,20.688));
#1619=CARTESIAN_POINT('',(0.,24.062,0.688000000000001));
#1620=CARTESIAN_POINT('',(0.,6.3595,0.688000000000001));
#1621=CARTESIAN_POINT('',(0.,24.062,20.688));
#1622=CARTESIAN_POINT('Origin',(9.5,0.,10.344));
#1623=CARTESIAN_POINT('',(19.,0.,0.688000000000001));
#1624=CARTESIAN_POINT('',(19.,0.,4.85273686774737E-32));
#1625=CARTESIAN_POINT('',(9.5,0.,0.688000000000001));
#1626=CARTESIAN_POINT('Origin',(0.688000000000001,0.688,0.));
#1627=CARTESIAN_POINT('Origin',(19.,0.688,20.688));
#1628=CARTESIAN_POINT('',(19.,24.062,0.688000000000001));
#1629=CARTESIAN_POINT('',(19.,24.062,0.));
#1630=CARTESIAN_POINT('',(19.,6.3595,0.688000000000001));
#1631=CARTESIAN_POINT('Origin',(0.688000000000001,0.688,0.688));
#1632=CARTESIAN_POINT('',(9.5,24.062,0.688000000000001));
#1633=CARTESIAN_POINT('Origin',(9.5,24.062,10.344));
#1634=CARTESIAN_POINT('Origin',(18.312,0.688,20.));
#1635=CARTESIAN_POINT('',(18.312,23.312,20.));
#1636=CARTESIAN_POINT('',(18.312,23.312,19.312));
#1637=CARTESIAN_POINT('',(18.312,23.312,19.828));
#1638=CARTESIAN_POINT('',(18.312,0.688,20.));
#1639=CARTESIAN_POINT('',(18.312,0.688,20.));
#1640=CARTESIAN_POINT('',(18.312,0.688,19.312));
#1641=CARTESIAN_POINT('',(18.312,0.688,20.688));
#1642=CARTESIAN_POINT('',(18.312,0.688,19.312));
#1643=CARTESIAN_POINT('Origin',(0.688,0.688,20.));
#1644=CARTESIAN_POINT('',(0.688,23.312,20.));
#1645=CARTESIAN_POINT('',(5.094,23.312,20.));
#1646=CARTESIAN_POINT('',(0.688,0.688,20.));
#1647=CARTESIAN_POINT('',(0.688,0.688,20.));
#1648=CARTESIAN_POINT('',(0.,0.688,20.));
#1649=CARTESIAN_POINT('Origin',(0.688,0.688,19.312));
#1650=CARTESIAN_POINT('',(0.688,23.312,19.312));
#1651=CARTESIAN_POINT('',(0.687999999999999,23.312,19.484));
#1652=CARTESIAN_POINT('',(0.688,0.688,19.312));
#1653=CARTESIAN_POINT('',(0.688,0.688,19.312));
#1654=CARTESIAN_POINT('',(0.688,0.688,20.688));
#1655=CARTESIAN_POINT('Origin',(18.312,0.688,19.312));
#1656=CARTESIAN_POINT('',(13.906,23.312,19.312));
#1657=CARTESIAN_POINT('',(0.,0.688,19.312));
#1658=CARTESIAN_POINT('Origin',(9.5,0.688,19.656));
#1659=CARTESIAN_POINT('Origin',(9.5,23.312,19.656));
#1660=CARTESIAN_POINT('Origin',(18.6245,0.688,20.3755));
#1661=CARTESIAN_POINT('',(18.937,24.062,20.688));
#1662=CARTESIAN_POINT('',(18.312,24.062,20.063));
#1663=CARTESIAN_POINT('',(13.8355,24.062,15.5865));
#1664=CARTESIAN_POINT('',(18.312,0.,20.063));
#1665=CARTESIAN_POINT('',(18.312,0.688,20.063));
#1666=CARTESIAN_POINT('',(18.937,0.,20.688));
#1667=CARTESIAN_POINT('',(13.8355,4.37095678986282E-17,15.5865));
#1668=CARTESIAN_POINT('',(18.937,0.688,20.688));
#1669=CARTESIAN_POINT('Origin',(9.5,0.,10.344));
#1670=CARTESIAN_POINT('',(18.312,0.,0.688000000000001));
#1671=CARTESIAN_POINT('',(18.312,0.,5.172));
#1672=CARTESIAN_POINT('',(19.,0.,0.688000000000001));
#1673=CARTESIAN_POINT('',(9.5,0.,0.688000000000001));
#1674=CARTESIAN_POINT('',(19.,0.,20.688));
#1675=CARTESIAN_POINT('',(19.,0.,4.85273686774737E-32));
#1676=CARTESIAN_POINT('',(19.,0.,20.688));
#1677=CARTESIAN_POINT('Origin',(18.312,0.688,0.));
#1678=CARTESIAN_POINT('',(18.312,24.062,0.688000000000001));
#1679=CARTESIAN_POINT('',(18.312,24.062,5.172));
#1680=CARTESIAN_POINT('',(18.312,6.3595,0.688000000000001));
#1681=CARTESIAN_POINT('Origin',(0.,0.688,20.688));
#1682=CARTESIAN_POINT('',(19.,24.062,20.688));
#1683=CARTESIAN_POINT('',(19.,0.688,20.688));
#1684=CARTESIAN_POINT('',(19.,24.062,20.688));
#1685=CARTESIAN_POINT('Origin',(9.5,24.062,10.344));
#1686=CARTESIAN_POINT('',(19.,24.062,0.688000000000001));
#1687=CARTESIAN_POINT('',(19.,24.062,0.));
#1688=CARTESIAN_POINT('',(9.5,24.062,0.688000000000001));
#1689=CARTESIAN_POINT('Origin',(19.,0.688,20.688));
#1690=CARTESIAN_POINT('',(19.,6.3595,0.688000000000001));
#1691=CARTESIAN_POINT('Origin',(9.5,12.031,0.688000000000001));
#1692=CARTESIAN_POINT('Origin',(0.3755,0.688,20.3755));
#1693=CARTESIAN_POINT('',(0.0630000000000012,0.,20.688));
#1694=CARTESIAN_POINT('',(0.688000000000001,0.,20.063));
#1695=CARTESIAN_POINT('',(5.1645,-4.37095678986282E-17,15.5865));
#1696=CARTESIAN_POINT('',(0.688000000000001,24.062,20.063));
#1697=CARTESIAN_POINT('',(0.688,0.688,20.063));
#1698=CARTESIAN_POINT('',(0.0630000000000012,24.062,20.688));
#1699=CARTESIAN_POINT('',(5.1645,24.062,15.5865));
#1700=CARTESIAN_POINT('',(0.0630000000000003,0.688,20.688));
#1701=CARTESIAN_POINT('Origin',(9.5,24.062,10.344));
#1702=CARTESIAN_POINT('',(0.688000000000001,24.062,0.688000000000001));
#1703=CARTESIAN_POINT('',(0.688000000000001,24.062,15.516));
#1704=CARTESIAN_POINT('',(0.,24.062,0.688000000000001));
#1705=CARTESIAN_POINT('',(9.5,24.062,0.688000000000001));
#1706=CARTESIAN_POINT('',(0.,24.062,20.688));
#1707=CARTESIAN_POINT('',(0.,24.062,20.688));
#1708=CARTESIAN_POINT('',(19.,24.062,20.688));
#1709=CARTESIAN_POINT('Origin',(0.688,0.688,20.688));
#1710=CARTESIAN_POINT('',(0.688000000000001,0.,0.688000000000001));
#1711=CARTESIAN_POINT('',(0.688000000000001,0.,15.516));
#1712=CARTESIAN_POINT('',(0.688000000000001,6.3595,0.688000000000001));
#1713=CARTESIAN_POINT('Origin',(0.,0.688,0.));
#1714=CARTESIAN_POINT('',(9.68295523494832E-34,0.,0.688000000000001));
#1715=CARTESIAN_POINT('',(0.,6.3595,0.688000000000001));
#1716=CARTESIAN_POINT('',(2.91164212064842E-32,0.,20.688));
#1717=CARTESIAN_POINT('',(2.91164212064842E-32,0.,20.688));
#1718=CARTESIAN_POINT('',(0.,0.688,20.688));
#1719=CARTESIAN_POINT('Origin',(9.5,0.,10.344));
#1720=CARTESIAN_POINT('',(19.,0.,20.688));
#1721=CARTESIAN_POINT('',(9.5,0.,0.688000000000001));
#1722=CARTESIAN_POINT('Origin',(0.,0.688,20.688));
#1723=CARTESIAN_POINT('Origin',(9.5,12.031,0.688000000000001));
#1724=CARTESIAN_POINT('Origin',(4.75,23.6245,20.3755));
#1725=CARTESIAN_POINT('',(0.688,23.937,20.688));
#1726=CARTESIAN_POINT('',(0.688,23.312,20.063));
#1727=CARTESIAN_POINT('',(0.688,17.9685,14.7195));
#1728=CARTESIAN_POINT('',(18.312,23.312,20.063));
#1729=CARTESIAN_POINT('',(4.75,23.312,20.063));
#1730=CARTESIAN_POINT('',(18.312,23.937,20.688));
#1731=CARTESIAN_POINT('',(18.312,12.7965,9.5475));
#1732=CARTESIAN_POINT('',(4.75,23.937,20.688));
#1733=CARTESIAN_POINT('Origin',(9.5,23.312,10.344));
#1734=CARTESIAN_POINT('',(0.688,23.312,0.688));
#1735=CARTESIAN_POINT('',(0.688,23.312,0.688));
#1736=CARTESIAN_POINT('',(18.312,23.312,0.688));
#1737=CARTESIAN_POINT('',(5.094,23.312,0.688000000000001));
#1738=CARTESIAN_POINT('',(18.312,23.312,0.688));
#1739=CARTESIAN_POINT('Origin',(0.688,0.688,20.688));
#1740=CARTESIAN_POINT('',(0.688000000000001,24.062,20.688));
#1741=CARTESIAN_POINT('',(0.688,0.688,20.688));
#1742=CARTESIAN_POINT('',(0.688000000000001,24.062,0.688000000000001));
#1743=CARTESIAN_POINT('',(0.688000000000001,24.062,15.516));
#1744=CARTESIAN_POINT('',(0.688000000000001,6.3595,0.688000000000001));
#1745=CARTESIAN_POINT('Origin',(0.,0.688,20.688));
#1746=CARTESIAN_POINT('',(18.312,24.062,20.688));
#1747=CARTESIAN_POINT('',(18.312,0.688,20.688));
#1748=CARTESIAN_POINT('',(19.,24.062,20.688));
#1749=CARTESIAN_POINT('Origin',(18.312,0.688,0.));
#1750=CARTESIAN_POINT('',(18.312,24.062,0.688000000000001));
#1751=CARTESIAN_POINT('',(18.312,6.3595,0.688000000000001));
#1752=CARTESIAN_POINT('',(18.312,24.062,5.172));
#1753=CARTESIAN_POINT('Origin',(9.5,24.062,10.344));
#1754=CARTESIAN_POINT('',(9.5,24.062,0.688000000000001));
#1755=CARTESIAN_POINT('Origin',(9.5,12.031,0.688000000000001));
#1756=CARTESIAN_POINT('Origin',(18.312,0.688,0.));
#1757=CARTESIAN_POINT('',(18.312,0.688,19.312));
#1758=CARTESIAN_POINT('',(18.312,0.,19.312));
#1759=CARTESIAN_POINT('',(18.312,0.516,19.312));
#1760=CARTESIAN_POINT('',(18.312,0.688,20.063));
#1761=CARTESIAN_POINT('',(18.312,0.688,0.688));
#1762=CARTESIAN_POINT('',(18.312,0.063,20.688));
#1763=CARTESIAN_POINT('',(18.312,5.5475,15.2035));
#1764=CARTESIAN_POINT('',(18.312,0.,20.688));
#1765=CARTESIAN_POINT('',(18.312,0.688,20.688));
#1766=CARTESIAN_POINT('',(18.312,0.,5.172));
#1767=CARTESIAN_POINT('Origin',(9.5,0.,10.344));
#1768=CARTESIAN_POINT('',(0.688000000000001,0.,19.312));
#1769=CARTESIAN_POINT('',(9.5,0.,19.312));
#1770=CARTESIAN_POINT('',(0.688000000000001,0.,20.688));
#1771=CARTESIAN_POINT('',(19.,0.,20.688));
#1772=CARTESIAN_POINT('',(0.688000000000001,0.,15.516));
#1773=CARTESIAN_POINT('Origin',(0.,0.688,20.688));
#1774=CARTESIAN_POINT('',(0.688,0.063,20.688));
#1775=CARTESIAN_POINT('',(4.75,0.063,20.688));
#1776=CARTESIAN_POINT('',(0.688,0.688,20.688));
#1777=CARTESIAN_POINT('Origin',(4.75,0.3755,20.3755));
#1778=CARTESIAN_POINT('',(0.688,0.688,20.063));
#1779=CARTESIAN_POINT('',(4.75,0.688,20.063));
#1780=CARTESIAN_POINT('',(0.688,0.375500000000001,20.3755));
#1781=CARTESIAN_POINT('Origin',(0.688,0.688,20.688));
#1782=CARTESIAN_POINT('',(0.688,0.688,19.312));
#1783=CARTESIAN_POINT('',(0.688,0.516,19.312));
#1784=CARTESIAN_POINT('',(0.688,0.688,0.688));
#1785=CARTESIAN_POINT('Origin',(9.5,0.688,10.344));
#1786=CARTESIAN_POINT('',(9.5,0.688,19.312));
#1787=CARTESIAN_POINT('Origin',(9.5,0.344,19.312));
#1788=CARTESIAN_POINT('Origin',(17.812,22.84,10.035));
#1789=CARTESIAN_POINT('',(1.188,0.472,10.035));
#1790=CARTESIAN_POINT('',(17.812,0.472,10.035));
#1791=CARTESIAN_POINT('',(13.656,0.472000000000001,10.035));
#1792=CARTESIAN_POINT('',(17.812,23.312,10.035));
#1793=CARTESIAN_POINT('',(17.812,22.84,10.035));
#1794=CARTESIAN_POINT('',(1.188,23.312,10.035));
#1795=CARTESIAN_POINT('',(13.656,23.312,10.035));
#1796=CARTESIAN_POINT('',(1.188,22.84,10.035));
#1797=CARTESIAN_POINT('Origin',(17.812,22.84,9.563));
#1798=CARTESIAN_POINT('',(17.812,0.472,9.563));
#1799=CARTESIAN_POINT('',(17.812,0.472000000000001,7.4935));
#1800=CARTESIAN_POINT('',(17.812,23.312,9.563));
#1801=CARTESIAN_POINT('',(17.812,22.84,9.563));
#1802=CARTESIAN_POINT('',(17.812,23.312,9.681));
#1803=CARTESIAN_POINT('Origin',(1.188,22.84,9.563));
#1804=CARTESIAN_POINT('',(1.188,0.472,9.563));
#1805=CARTESIAN_POINT('',(5.344,0.472000000000001,9.563));
#1806=CARTESIAN_POINT('',(1.188,23.312,9.563));
#1807=CARTESIAN_POINT('',(1.188,22.84,9.563));
#1808=CARTESIAN_POINT('',(5.344,23.312,9.563));
#1809=CARTESIAN_POINT('Origin',(1.188,22.84,10.035));
#1810=CARTESIAN_POINT('',(1.188,0.472000000000001,7.7295));
#1811=CARTESIAN_POINT('',(1.188,23.312,9.917));
#1812=CARTESIAN_POINT('Origin',(9.5,23.312,9.799));
#1813=CARTESIAN_POINT('Origin',(9.5,0.472,5.424));
#1814=CARTESIAN_POINT('Origin',(17.812,22.84,0.813));
#1815=CARTESIAN_POINT('',(17.812,0.472,1.285));
#1816=CARTESIAN_POINT('',(17.812,0.472,0.813));
#1817=CARTESIAN_POINT('',(17.812,0.472000000000001,3.1185));
#1818=CARTESIAN_POINT('',(17.812,23.312,0.813));
#1819=CARTESIAN_POINT('',(17.812,22.84,0.813));
#1820=CARTESIAN_POINT('',(17.812,23.312,1.285));
#1821=CARTESIAN_POINT('',(17.812,23.312,0.931));
#1822=CARTESIAN_POINT('',(17.812,22.84,1.285));
#1823=CARTESIAN_POINT('Origin',(1.188,22.84,0.813));
#1824=CARTESIAN_POINT('',(1.188,0.472,0.813));
#1825=CARTESIAN_POINT('',(5.344,0.472000000000001,0.813));
#1826=CARTESIAN_POINT('',(1.188,23.312,0.813));
#1827=CARTESIAN_POINT('',(1.188,22.84,0.813));
#1828=CARTESIAN_POINT('',(5.344,23.312,0.813));
#1829=CARTESIAN_POINT('Origin',(1.188,22.84,1.285));
#1830=CARTESIAN_POINT('',(1.188,0.472,1.285));
#1831=CARTESIAN_POINT('',(1.188,0.472000000000001,3.3545));
#1832=CARTESIAN_POINT('',(1.188,23.312,1.285));
#1833=CARTESIAN_POINT('',(1.188,22.84,1.285));
#1834=CARTESIAN_POINT('',(1.188,23.312,1.167));
#1835=CARTESIAN_POINT('Origin',(17.812,22.84,1.285));
#1836=CARTESIAN_POINT('',(13.656,0.472000000000001,1.285));
#1837=CARTESIAN_POINT('',(13.656,23.312,1.285));
#1838=CARTESIAN_POINT('Origin',(9.5,23.312,1.049));
#1839=CARTESIAN_POINT('Origin',(9.5,0.472,5.424));
#1840=CARTESIAN_POINT('Origin',(9.5,0.,19.312));
#1841=CARTESIAN_POINT('',(8.4375,0.472,19.312));
#1842=CARTESIAN_POINT('',(10.5625,0.472,19.312));
#1843=CARTESIAN_POINT('Origin',(9.5,0.472,19.312));
#1844=CARTESIAN_POINT('',(8.4375,0.,19.312));
#1845=CARTESIAN_POINT('',(8.4375,0.,19.312));
#1846=CARTESIAN_POINT('',(10.5625,0.,19.312));
#1847=CARTESIAN_POINT('Origin',(9.5,0.,19.312));
#1848=CARTESIAN_POINT('',(10.5625,0.,19.312));
#1849=CARTESIAN_POINT('Origin',(9.5,0.472,10.));
#1850=CARTESIAN_POINT('',(18.312,0.472,19.312));
#1851=CARTESIAN_POINT('',(5.094,0.472,19.312));
#1852=CARTESIAN_POINT('',(18.312,0.472,9.563));
#1853=CARTESIAN_POINT('',(18.312,0.472,14.656));
#1854=CARTESIAN_POINT('',(0.688000000000001,0.472,9.563));
#1855=CARTESIAN_POINT('',(9.5,0.472,9.563));
#1856=CARTESIAN_POINT('',(0.688000000000001,0.472,19.312));
#1857=CARTESIAN_POINT('',(0.688000000000001,0.472,5.344));
#1858=CARTESIAN_POINT('',(5.094,0.472,19.312));
#1859=CARTESIAN_POINT('Origin',(0.688000000000001,0.,19.312));
#1860=CARTESIAN_POINT('',(18.312,0.,19.312));
#1861=CARTESIAN_POINT('',(0.688000000000001,0.,19.312));
#1862=CARTESIAN_POINT('',(18.312,0.,19.312));
#1863=CARTESIAN_POINT('Origin',(9.5,0.,10.));
#1864=CARTESIAN_POINT('',(0.688000000000001,0.,19.312));
#1865=CARTESIAN_POINT('',(0.688000000000001,0.,19.312));
#1866=CARTESIAN_POINT('',(0.688000000000001,0.,9.563));
#1867=CARTESIAN_POINT('',(0.688000000000001,0.,0.688000000000001));
#1868=CARTESIAN_POINT('',(18.312,0.,9.563));
#1869=CARTESIAN_POINT('',(9.5,0.,9.563));
#1870=CARTESIAN_POINT('',(18.312,0.,19.312));
#1871=CARTESIAN_POINT('Origin',(0.688000000000001,0.,19.312));
#1872=CARTESIAN_POINT('',(0.688000000000001,0.,19.312));
#1873=CARTESIAN_POINT('Origin',(18.312,0.,19.312));
#1874=CARTESIAN_POINT('',(18.312,0.118,9.563));
#1875=CARTESIAN_POINT('Origin',(0.688000000000001,0.,0.688000000000001));
#1876=CARTESIAN_POINT('',(0.688000000000001,0.118,9.563));
#1877=CARTESIAN_POINT('Origin',(9.5,0.236,9.563));
#1878=CARTESIAN_POINT('Origin',(9.5,0.,9.463));
#1879=CARTESIAN_POINT('',(8.4375,0.472,9.463));
#1880=CARTESIAN_POINT('',(10.5625,0.472,9.463));
#1881=CARTESIAN_POINT('Origin',(9.5,0.472,9.463));
#1882=CARTESIAN_POINT('',(8.4375,0.,9.463));
#1883=CARTESIAN_POINT('',(8.4375,0.,9.463));
#1884=CARTESIAN_POINT('',(10.5625,0.,9.463));
#1885=CARTESIAN_POINT('Origin',(9.5,0.,9.463));
#1886=CARTESIAN_POINT('',(10.5625,0.,9.463));
#1887=CARTESIAN_POINT('Origin',(9.5,0.472,10.));
#1888=CARTESIAN_POINT('',(18.312,0.472,9.463));
#1889=CARTESIAN_POINT('',(9.5,0.472,9.463));
#1890=CARTESIAN_POINT('',(18.312,0.472,0.688000000000001));
#1891=CARTESIAN_POINT('',(18.312,0.472,14.656));
#1892=CARTESIAN_POINT('',(0.688000000000001,0.472,0.688000000000001));
#1893=CARTESIAN_POINT('',(13.906,0.472,0.688000000000001));
#1894=CARTESIAN_POINT('',(0.688000000000001,0.472,9.463));
#1895=CARTESIAN_POINT('',(0.688000000000001,0.472,5.344));
#1896=CARTESIAN_POINT('',(9.5,0.472,9.463));
#1897=CARTESIAN_POINT('Origin',(9.5,0.236,9.463));
#1898=CARTESIAN_POINT('',(18.312,0.,9.463));
#1899=CARTESIAN_POINT('',(9.5,0.,9.463));
#1900=CARTESIAN_POINT('',(18.312,0.118,9.463));
#1901=CARTESIAN_POINT('Origin',(9.5,0.236,9.463));
#1902=CARTESIAN_POINT('',(0.688000000000001,0.,9.463));
#1903=CARTESIAN_POINT('',(0.688000000000001,0.118,9.463));
#1904=CARTESIAN_POINT('',(9.5,0.,9.463));
#1905=CARTESIAN_POINT('Origin',(18.312,0.,19.312));
#1906=CARTESIAN_POINT('',(18.312,0.,0.688000000000001));
#1907=CARTESIAN_POINT('',(18.312,0.,19.312));
#1908=CARTESIAN_POINT('',(18.312,0.,0.688000000000001));
#1909=CARTESIAN_POINT('Origin',(9.5,0.,10.));
#1910=CARTESIAN_POINT('',(0.688000000000001,0.,0.688000000000001));
#1911=CARTESIAN_POINT('',(0.688000000000001,0.,0.688000000000001));
#1912=CARTESIAN_POINT('',(18.312,0.,0.688000000000001));
#1913=CARTESIAN_POINT('Origin',(18.312,0.,0.688000000000001));
#1914=CARTESIAN_POINT('',(0.688000000000001,0.,0.688000000000001));
#1915=CARTESIAN_POINT('Origin',(0.688000000000001,0.,0.688000000000001));
#1916=CARTESIAN_POINT('',(0.,0.,0.));
#1917=UNCERTAINTY_MEASURE_WITH_UNIT(LENGTH_MEASURE(0.000393700787401575),
#1924,'DISTANCE_ACCURACY_VALUE',
'Maximum model space distance between geometric entities at asserted c
onnectivities');
#1918=UNCERTAINTY_MEASURE_WITH_UNIT(LENGTH_MEASURE(0.000393700787401575),
#1924,'DISTANCE_ACCURACY_VALUE',
'Maximum model space distance between geometric entities at asserted c
onnectivities');
#1919=UNCERTAINTY_MEASURE_WITH_UNIT(LENGTH_MEASURE(0.000393700787401575),
#1924,'DISTANCE_ACCURACY_VALUE',
'Maximum model space distance between geometric entities at asserted c
onnectivities');
#1920=(
GEOMETRIC_REPRESENTATION_CONTEXT(3)
GLOBAL_UNCERTAINTY_ASSIGNED_CONTEXT((#1917))
GLOBAL_UNIT_ASSIGNED_CONTEXT((#1924,#1928,#1929))
REPRESENTATION_CONTEXT('','3D')
);
#1921=(
GEOMETRIC_REPRESENTATION_CONTEXT(3)
GLOBAL_UNCERTAINTY_ASSIGNED_CONTEXT((#1918))
GLOBAL_UNIT_ASSIGNED_CONTEXT((#1924,#1928,#1929))
REPRESENTATION_CONTEXT('','3D')
);
#1922=(
GEOMETRIC_REPRESENTATION_CONTEXT(3)
GLOBAL_UNCERTAINTY_ASSIGNED_CONTEXT((#1919))
GLOBAL_UNIT_ASSIGNED_CONTEXT((#1924,#1928,#1929))
REPRESENTATION_CONTEXT('','3D')
);
#1923=DIMENSIONAL_EXPONENTS(1.,0.,0.,0.,0.,0.,0.);
#1924=(
CONVERSION_BASED_UNIT('inch',#1927)
LENGTH_UNIT()
NAMED_UNIT(#1923)
);
#1925=(
LENGTH_UNIT()
NAMED_UNIT(*)
SI_UNIT(.MILLI.,.METRE.)
);
#1926=(
LENGTH_UNIT()
NAMED_UNIT(*)
SI_UNIT($,.METRE.)
);
#1927=LENGTH_MEASURE_WITH_UNIT(LENGTH_MEASURE(25.4),#1925);
#1928=(
NAMED_UNIT(*)
PLANE_ANGLE_UNIT()
SI_UNIT($,.RADIAN.)
);
#1929=(
NAMED_UNIT(*)
SI_UNIT($,.STERADIAN.)
SOLID_ANGLE_UNIT()
);
#1930=SHAPE_DEFINITION_REPRESENTATION(#1932,#1935);
#1931=SHAPE_DEFINITION_REPRESENTATION(#1933,#1936);
#1932=PRODUCT_DEFINITION_SHAPE('',$,#1938);
#1933=PRODUCT_DEFINITION_SHAPE('',$,#1939);
#1934=PRODUCT_DEFINITION_SHAPE($,$,#14);
#1935=SHAPE_REPRESENTATION('',(#1205,#1283),#1920);
#1936=SHAPE_REPRESENTATION('',(#1206),#1921);
#1937=PRODUCT_DEFINITION_CONTEXT('part definition',#1945,'design');
#1938=PRODUCT_DEFINITION('2 Drawer','2 Drawer v8',#1940,#1937);
#1939=PRODUCT_DEFINITION('Large','Large v11',#1941,#1937);
#1940=PRODUCT_DEFINITION_FORMATION('',$,#1947);
#1941=PRODUCT_DEFINITION_FORMATION('',$,#1948);
#1942=PRODUCT_RELATED_PRODUCT_CATEGORY('2 Drawer v8','2 Drawer v8',(#1947));
#1943=PRODUCT_RELATED_PRODUCT_CATEGORY('Large v11','Large v11',(#1948));
#1944=APPLICATION_PROTOCOL_DEFINITION('international standard',
'automotive_design',2009,#1945);
#1945=APPLICATION_CONTEXT(
'Core Data for Automotive Mechanical Design Process');
#1946=PRODUCT_CONTEXT('part definition',#1945,'mechanical');
#1947=PRODUCT('2 Drawer','2 Drawer v8',$,(#1946));
#1948=PRODUCT('Large','Large v11',$,(#1946));
#1949=PRESENTATION_STYLE_ASSIGNMENT((#1950));
#1950=SURFACE_STYLE_USAGE(.BOTH.,#1951);
#1951=SURFACE_SIDE_STYLE('',(#1952));
#1952=SURFACE_STYLE_FILL_AREA(#1953);
#1953=FILL_AREA_STYLE('Steel - Satin',(#1954));
#1954=FILL_AREA_STYLE_COLOUR('Steel - Satin',#1955);
#1955=COLOUR_RGB('Steel - Satin',0.627450980392157,0.627450980392157,0.627450980392157);
ENDSEC;
END-ISO-10303-21;
