ISO-10303-21;
HEADER;
/* Generated by software containing ST-Developer
 * from STEP Tools, Inc. (www.steptools.com) 
 */

FILE_DESCRIPTION(
/* description */ (''),
/* implementation_level */ '2;1');

FILE_NAME(
/* name */ 'Dolly Strap.step',
/* time_stamp */ '2026-06-27T15:40:27-04:00',
/* author */ (''),
/* organization */ (''),
/* preprocessor_version */ 'ST-DEVELOPER v20.1',
/* originating_system */ 'Autodesk Translation Framework v15.8.0.0',
/* authorisation */ '');

FILE_SCHEMA (('AUTOMOTIVE_DESIGN { 1 0 10303 214 3 1 1 }'));
ENDSEC;

DATA;
#10=MECHANICAL_DESIGN_GEOMETRIC_PRESENTATION_REPRESENTATION('',(#13),#989);
#11=SHAPE_REPRESENTATION_RELATIONSHIP('SRR','None',#998,#12);
#12=ADVANCED_BREP_SHAPE_REPRESENTATION('',(#14),#988);
#13=STYLED_ITEM('',(#1007),#14);
#14=MANIFOLD_SOLID_BREP('Body1',#565);
#15=CONICAL_SURFACE('',#624,0.101870078740157,0.493928178314395);
#16=CONICAL_SURFACE('',#627,0.101870078740157,0.493928178314395);
#17=FACE_BOUND('',#190,.T.);
#18=FACE_BOUND('',#197,.T.);
#19=FACE_BOUND('',#207,.T.);
#20=FACE_BOUND('',#210,.T.);
#21=ELLIPSE('',#608,0.172849327692311,0.12992125984252);
#22=ELLIPSE('',#623,0.172849327692304,0.12992125984252);
#23=PLANE('',#607);
#24=PLANE('',#610);
#25=PLANE('',#612);
#26=PLANE('',#614);
#27=PLANE('',#615);
#28=PLANE('',#617);
#29=PLANE('',#633);
#30=PLANE('',#634);
#31=PLANE('',#635);
#32=PLANE('',#636);
#33=PLANE('',#637);
#34=PLANE('',#638);
#35=TOROIDAL_SURFACE('',#579,0.637500000000038,0.15748031496063);
#36=TOROIDAL_SURFACE('',#598,0.637500000000038,0.15748031496063);
#37=LINE('',#846,#79);
#38=LINE('',#847,#80);
#39=LINE('',#852,#81);
#40=LINE('',#853,#82);
#41=LINE('',#861,#83);
#42=LINE('',#862,#84);
#43=LINE('',#871,#85);
#44=LINE('',#872,#86);
#45=LINE('',#877,#87);
#46=LINE('',#878,#88);
#47=LINE('',#887,#89);
#48=LINE('',#888,#90);
#49=LINE('',#893,#91);
#50=LINE('',#894,#92);
#51=LINE('',#902,#93);
#52=LINE('',#903,#94);
#53=LINE('',#908,#95);
#54=LINE('',#909,#96);
#55=LINE('',#914,#97);
#56=LINE('',#915,#98);
#57=LINE('',#917,#99);
#58=LINE('',#921,#100);
#59=LINE('',#924,#101);
#60=LINE('',#926,#102);
#61=LINE('',#932,#103);
#62=LINE('',#933,#104);
#63=LINE('',#935,#105);
#64=LINE('',#940,#106);
#65=LINE('',#941,#107);
#66=LINE('',#943,#108);
#67=LINE('',#949,#109);
#68=LINE('',#954,#110);
#69=LINE('',#958,#111);
#70=LINE('',#961,#112);
#71=LINE('',#964,#113);
#72=LINE('',#968,#114);
#73=LINE('',#973,#115);
#74=LINE('',#974,#116);
#75=LINE('',#978,#117);
#76=LINE('',#981,#118);
#77=LINE('',#982,#119);
#78=LINE('',#984,#120);
#79=VECTOR('',#661,0.393700787401575);
#80=VECTOR('',#662,0.393700787401575);
#81=VECTOR('',#667,0.393700787401575);
#82=VECTOR('',#668,0.393700787401575);
#83=VECTOR('',#679,0.393700787401575);
#84=VECTOR('',#680,0.393700787401575);
#85=VECTOR('',#691,0.393700787401575);
#86=VECTOR('',#692,0.393700787401575);
#87=VECTOR('',#697,0.393700787401575);
#88=VECTOR('',#698,0.393700787401575);
#89=VECTOR('',#709,0.393700787401575);
#90=VECTOR('',#710,0.393700787401575);
#91=VECTOR('',#715,0.393700787401575);
#92=VECTOR('',#716,0.393700787401575);
#93=VECTOR('',#727,0.393700787401575);
#94=VECTOR('',#728,0.393700787401575);
#95=VECTOR('',#733,0.393700787401575);
#96=VECTOR('',#734,0.393700787401575);
#97=VECTOR('',#739,0.393700787401575);
#98=VECTOR('',#740,0.393700787401575);
#99=VECTOR('',#743,0.393700787401575);
#100=VECTOR('',#748,0.393700787401575);
#101=VECTOR('',#751,0.393700787401575);
#102=VECTOR('',#752,0.393700787401575);
#103=VECTOR('',#759,0.393700787401575);
#104=VECTOR('',#760,0.393700787401575);
#105=VECTOR('',#763,0.393700787401575);
#106=VECTOR('',#768,0.393700787401575);
#107=VECTOR('',#769,0.393700787401575);
#108=VECTOR('',#772,0.393700787401575);
#109=VECTOR('',#779,0.12992125984252);
#110=VECTOR('',#784,0.12992125984252);
#111=VECTOR('',#789,0.101870078740157);
#112=VECTOR('',#794,0.0738188976377953);
#113=VECTOR('',#797,0.101870078740157);
#114=VECTOR('',#802,0.0738188976377953);
#115=VECTOR('',#809,0.393700787401575);
#116=VECTOR('',#810,0.393700787401575);
#117=VECTOR('',#817,0.393700787401575);
#118=VECTOR('',#820,0.393700787401575);
#119=VECTOR('',#821,0.393700787401575);
#120=VECTOR('',#824,0.393700787401575);
#121=CYLINDRICAL_SURFACE('',#575,0.15748031496063);
#122=CYLINDRICAL_SURFACE('',#577,0.15748031496063);
#123=CYLINDRICAL_SURFACE('',#583,0.15748031496063);
#124=CYLINDRICAL_SURFACE('',#588,0.15748031496063);
#125=CYLINDRICAL_SURFACE('',#589,0.15748031496063);
#126=CYLINDRICAL_SURFACE('',#595,0.15748031496063);
#127=CYLINDRICAL_SURFACE('',#596,0.15748031496063);
#128=CYLINDRICAL_SURFACE('',#602,0.15748031496063);
#129=CYLINDRICAL_SURFACE('',#603,0.15748031496063);
#130=CYLINDRICAL_SURFACE('',#605,0.15748031496063);
#131=CYLINDRICAL_SURFACE('',#609,0.794980314960667);
#132=CYLINDRICAL_SURFACE('',#619,0.12992125984252);
#133=CYLINDRICAL_SURFACE('',#621,0.12992125984252);
#134=CYLINDRICAL_SURFACE('',#626,0.0738188976377953);
#135=CYLINDRICAL_SURFACE('',#629,0.0738188976377953);
#136=CYLINDRICAL_SURFACE('',#631,0.6375);
#137=FACE_OUTER_BOUND('',#173,.T.);
#138=FACE_OUTER_BOUND('',#174,.T.);
#139=FACE_OUTER_BOUND('',#175,.T.);
#140=FACE_OUTER_BOUND('',#176,.T.);
#141=FACE_OUTER_BOUND('',#177,.T.);
#142=FACE_OUTER_BOUND('',#178,.T.);
#143=FACE_OUTER_BOUND('',#179,.T.);
#144=FACE_OUTER_BOUND('',#180,.T.);
#145=FACE_OUTER_BOUND('',#181,.T.);
#146=FACE_OUTER_BOUND('',#182,.T.);
#147=FACE_OUTER_BOUND('',#183,.T.);
#148=FACE_OUTER_BOUND('',#184,.T.);
#149=FACE_OUTER_BOUND('',#185,.T.);
#150=FACE_OUTER_BOUND('',#186,.T.);
#151=FACE_OUTER_BOUND('',#187,.T.);
#152=FACE_OUTER_BOUND('',#188,.T.);
#153=FACE_OUTER_BOUND('',#189,.T.);
#154=FACE_OUTER_BOUND('',#191,.T.);
#155=FACE_OUTER_BOUND('',#192,.T.);
#156=FACE_OUTER_BOUND('',#193,.T.);
#157=FACE_OUTER_BOUND('',#194,.T.);
#158=FACE_OUTER_BOUND('',#195,.T.);
#159=FACE_OUTER_BOUND('',#196,.T.);
#160=FACE_OUTER_BOUND('',#198,.T.);
#161=FACE_OUTER_BOUND('',#199,.T.);
#162=FACE_OUTER_BOUND('',#200,.T.);
#163=FACE_OUTER_BOUND('',#201,.T.);
#164=FACE_OUTER_BOUND('',#202,.T.);
#165=FACE_OUTER_BOUND('',#203,.T.);
#166=FACE_OUTER_BOUND('',#204,.T.);
#167=FACE_OUTER_BOUND('',#205,.T.);
#168=FACE_OUTER_BOUND('',#206,.T.);
#169=FACE_OUTER_BOUND('',#208,.T.);
#170=FACE_OUTER_BOUND('',#209,.T.);
#171=FACE_OUTER_BOUND('',#211,.T.);
#172=FACE_OUTER_BOUND('',#212,.T.);
#173=EDGE_LOOP('',(#369,#370,#371));
#174=EDGE_LOOP('',(#372,#373,#374));
#175=EDGE_LOOP('',(#375,#376,#377,#378));
#176=EDGE_LOOP('',(#379,#380,#381,#382));
#177=EDGE_LOOP('',(#383,#384,#385,#386));
#178=EDGE_LOOP('',(#387,#388,#389,#390));
#179=EDGE_LOOP('',(#391,#392,#393));
#180=EDGE_LOOP('',(#394,#395,#396,#397));
#181=EDGE_LOOP('',(#398,#399,#400,#401));
#182=EDGE_LOOP('',(#402,#403,#404));
#183=EDGE_LOOP('',(#405,#406,#407,#408));
#184=EDGE_LOOP('',(#409,#410,#411,#412));
#185=EDGE_LOOP('',(#413,#414,#415,#416));
#186=EDGE_LOOP('',(#417,#418,#419,#420));
#187=EDGE_LOOP('',(#421,#422,#423,#424));
#188=EDGE_LOOP('',(#425,#426,#427,#428));
#189=EDGE_LOOP('',(#429,#430,#431,#432));
#190=EDGE_LOOP('',(#433));
#191=EDGE_LOOP('',(#434,#435,#436,#437));
#192=EDGE_LOOP('',(#438,#439,#440,#441,#442));
#193=EDGE_LOOP('',(#443,#444,#445,#446,#447));
#194=EDGE_LOOP('',(#448,#449,#450,#451));
#195=EDGE_LOOP('',(#452,#453,#454,#455,#456));
#196=EDGE_LOOP('',(#457,#458,#459,#460,#461,#462));
#197=EDGE_LOOP('',(#463));
#198=EDGE_LOOP('',(#464,#465,#466,#467));
#199=EDGE_LOOP('',(#468,#469,#470,#471));
#200=EDGE_LOOP('',(#472,#473,#474,#475));
#201=EDGE_LOOP('',(#476,#477,#478,#479));
#202=EDGE_LOOP('',(#480,#481,#482,#483));
#203=EDGE_LOOP('',(#484,#485,#486,#487));
#204=EDGE_LOOP('',(#488,#489,#490,#491,#492,#493,#494,#495));
#205=EDGE_LOOP('',(#496,#497,#498,#499));
#206=EDGE_LOOP('',(#500,#501,#502,#503));
#207=EDGE_LOOP('',(#504));
#208=EDGE_LOOP('',(#505,#506,#507,#508));
#209=EDGE_LOOP('',(#509,#510,#511,#512,#513,#514));
#210=EDGE_LOOP('',(#515));
#211=EDGE_LOOP('',(#516,#517,#518,#519));
#212=EDGE_LOOP('',(#520,#521,#522,#523,#524));
#213=CIRCLE('',#568,0.15748031496063);
#214=CIRCLE('',#569,0.15748031496063);
#215=CIRCLE('',#570,0.15748031496063);
#216=CIRCLE('',#572,0.157480314960631);
#217=CIRCLE('',#573,0.15748031496063);
#218=CIRCLE('',#574,0.15748031496063);
#219=CIRCLE('',#576,0.15748031496063);
#220=CIRCLE('',#578,0.15748031496063);
#221=CIRCLE('',#580,0.6375);
#222=CIRCLE('',#581,0.15748031496063);
#223=CIRCLE('',#582,0.794980314960667);
#224=CIRCLE('',#585,0.15748031496063);
#225=CIRCLE('',#586,0.15748031496063);
#226=CIRCLE('',#587,0.15748031496063);
#227=CIRCLE('',#590,0.15748031496063);
#228=CIRCLE('',#592,0.15748031496063);
#229=CIRCLE('',#593,0.15748031496063);
#230=CIRCLE('',#594,0.15748031496063);
#231=CIRCLE('',#597,0.15748031496063);
#232=CIRCLE('',#599,0.794980314960667);
#233=CIRCLE('',#600,0.157480314960659);
#234=CIRCLE('',#601,0.6375);
#235=CIRCLE('',#604,0.15748031496063);
#236=CIRCLE('',#606,0.15748031496063);
#237=CIRCLE('',#611,0.6375);
#238=CIRCLE('',#613,0.6375);
#239=CIRCLE('',#616,0.6375);
#240=CIRCLE('',#618,0.0738188976377953);
#241=CIRCLE('',#620,0.12992125984252);
#242=CIRCLE('',#622,0.12992125984252);
#243=CIRCLE('',#625,0.0738188976377953);
#244=CIRCLE('',#628,0.0738188976377953);
#245=CIRCLE('',#630,0.0738188976377953);
#246=CIRCLE('',#632,0.6375);
#247=VERTEX_POINT('',#829);
#248=VERTEX_POINT('',#830);
#249=VERTEX_POINT('',#832);
#250=VERTEX_POINT('',#836);
#251=VERTEX_POINT('',#837);
#252=VERTEX_POINT('',#839);
#253=VERTEX_POINT('',#843);
#254=VERTEX_POINT('',#844);
#255=VERTEX_POINT('',#849);
#256=VERTEX_POINT('',#850);
#257=VERTEX_POINT('',#855);
#258=VERTEX_POINT('',#857);
#259=VERTEX_POINT('',#864);
#260=VERTEX_POINT('',#865);
#261=VERTEX_POINT('',#867);
#262=VERTEX_POINT('',#874);
#263=VERTEX_POINT('',#875);
#264=VERTEX_POINT('',#880);
#265=VERTEX_POINT('',#881);
#266=VERTEX_POINT('',#883);
#267=VERTEX_POINT('',#890);
#268=VERTEX_POINT('',#891);
#269=VERTEX_POINT('',#896);
#270=VERTEX_POINT('',#898);
#271=VERTEX_POINT('',#905);
#272=VERTEX_POINT('',#906);
#273=VERTEX_POINT('',#911);
#274=VERTEX_POINT('',#912);
#275=VERTEX_POINT('',#918);
#276=VERTEX_POINT('',#923);
#277=VERTEX_POINT('',#925);
#278=VERTEX_POINT('',#929);
#279=VERTEX_POINT('',#931);
#280=VERTEX_POINT('',#937);
#281=VERTEX_POINT('',#939);
#282=VERTEX_POINT('',#944);
#283=VERTEX_POINT('',#947);
#284=VERTEX_POINT('',#951);
#285=VERTEX_POINT('',#953);
#286=VERTEX_POINT('',#957);
#287=VERTEX_POINT('',#963);
#288=VERTEX_POINT('',#967);
#289=VERTEX_POINT('',#971);
#290=VERTEX_POINT('',#980);
#291=EDGE_CURVE('',#247,#248,#213,.F.);
#292=EDGE_CURVE('',#249,#247,#214,.F.);
#293=EDGE_CURVE('',#248,#249,#215,.F.);
#294=EDGE_CURVE('',#250,#251,#216,.F.);
#295=EDGE_CURVE('',#252,#250,#217,.F.);
#296=EDGE_CURVE('',#251,#252,#218,.F.);
#297=EDGE_CURVE('',#253,#254,#219,.T.);
#298=EDGE_CURVE('',#254,#252,#37,.T.);
#299=EDGE_CURVE('',#250,#253,#38,.T.);
#300=EDGE_CURVE('',#255,#256,#220,.T.);
#301=EDGE_CURVE('',#256,#251,#39,.T.);
#302=EDGE_CURVE('',#252,#255,#40,.T.);
#303=EDGE_CURVE('',#255,#257,#221,.T.);
#304=EDGE_CURVE('',#257,#258,#222,.T.);
#305=EDGE_CURVE('',#258,#256,#223,.T.);
#306=EDGE_CURVE('',#257,#249,#41,.T.);
#307=EDGE_CURVE('',#247,#258,#42,.T.);
#308=EDGE_CURVE('',#259,#260,#224,.F.);
#309=EDGE_CURVE('',#261,#259,#225,.F.);
#310=EDGE_CURVE('',#260,#261,#226,.F.);
#311=EDGE_CURVE('',#259,#247,#43,.T.);
#312=EDGE_CURVE('',#248,#261,#44,.T.);
#313=EDGE_CURVE('',#262,#263,#227,.T.);
#314=EDGE_CURVE('',#263,#260,#45,.T.);
#315=EDGE_CURVE('',#261,#262,#46,.T.);
#316=EDGE_CURVE('',#264,#265,#228,.F.);
#317=EDGE_CURVE('',#266,#264,#229,.F.);
#318=EDGE_CURVE('',#265,#266,#230,.F.);
#319=EDGE_CURVE('',#264,#250,#47,.T.);
#320=EDGE_CURVE('',#251,#266,#48,.T.);
#321=EDGE_CURVE('',#267,#268,#231,.T.);
#322=EDGE_CURVE('',#268,#265,#49,.T.);
#323=EDGE_CURVE('',#266,#267,#50,.T.);
#324=EDGE_CURVE('',#267,#269,#232,.T.);
#325=EDGE_CURVE('',#269,#270,#233,.T.);
#326=EDGE_CURVE('',#270,#268,#234,.T.);
#327=EDGE_CURVE('',#260,#270,#51,.T.);
#328=EDGE_CURVE('',#269,#259,#52,.T.);
#329=EDGE_CURVE('',#271,#272,#235,.T.);
#330=EDGE_CURVE('',#272,#264,#53,.T.);
#331=EDGE_CURVE('',#265,#271,#54,.T.);
#332=EDGE_CURVE('',#273,#274,#236,.T.);
#333=EDGE_CURVE('',#274,#248,#55,.T.);
#334=EDGE_CURVE('',#249,#273,#56,.T.);
#335=EDGE_CURVE('',#256,#267,#57,.T.);
#336=EDGE_CURVE('',#275,#275,#21,.T.);
#337=EDGE_CURVE('',#258,#269,#58,.T.);
#338=EDGE_CURVE('',#263,#276,#59,.T.);
#339=EDGE_CURVE('',#276,#277,#60,.T.);
#340=EDGE_CURVE('',#277,#270,#237,.T.);
#341=EDGE_CURVE('',#268,#278,#238,.T.);
#342=EDGE_CURVE('',#278,#279,#61,.T.);
#343=EDGE_CURVE('',#279,#271,#62,.T.);
#344=EDGE_CURVE('',#274,#262,#63,.T.);
#345=EDGE_CURVE('',#257,#280,#239,.T.);
#346=EDGE_CURVE('',#280,#281,#64,.T.);
#347=EDGE_CURVE('',#281,#273,#65,.T.);
#348=EDGE_CURVE('',#281,#276,#66,.T.);
#349=EDGE_CURVE('',#282,#282,#240,.T.);
#350=EDGE_CURVE('',#283,#283,#241,.T.);
#351=EDGE_CURVE('',#283,#275,#67,.T.);
#352=EDGE_CURVE('',#284,#284,#242,.T.);
#353=EDGE_CURVE('',#284,#285,#68,.T.);
#354=EDGE_CURVE('',#285,#285,#22,.T.);
#355=EDGE_CURVE('',#284,#286,#69,.T.);
#356=EDGE_CURVE('',#286,#286,#243,.T.);
#357=EDGE_CURVE('',#286,#282,#70,.T.);
#358=EDGE_CURVE('',#283,#287,#71,.T.);
#359=EDGE_CURVE('',#287,#287,#244,.T.);
#360=EDGE_CURVE('',#287,#288,#72,.T.);
#361=EDGE_CURVE('',#288,#288,#245,.T.);
#362=EDGE_CURVE('',#289,#255,#246,.T.);
#363=EDGE_CURVE('',#289,#278,#73,.T.);
#364=EDGE_CURVE('',#280,#277,#74,.T.);
#365=EDGE_CURVE('',#253,#272,#75,.T.);
#366=EDGE_CURVE('',#290,#279,#76,.T.);
#367=EDGE_CURVE('',#290,#254,#77,.T.);
#368=EDGE_CURVE('',#289,#290,#78,.T.);
#369=ORIENTED_EDGE('',*,*,#291,.F.);
#370=ORIENTED_EDGE('',*,*,#292,.F.);
#371=ORIENTED_EDGE('',*,*,#293,.F.);
#372=ORIENTED_EDGE('',*,*,#294,.F.);
#373=ORIENTED_EDGE('',*,*,#295,.F.);
#374=ORIENTED_EDGE('',*,*,#296,.F.);
#375=ORIENTED_EDGE('',*,*,#297,.T.);
#376=ORIENTED_EDGE('',*,*,#298,.T.);
#377=ORIENTED_EDGE('',*,*,#295,.T.);
#378=ORIENTED_EDGE('',*,*,#299,.T.);
#379=ORIENTED_EDGE('',*,*,#300,.T.);
#380=ORIENTED_EDGE('',*,*,#301,.T.);
#381=ORIENTED_EDGE('',*,*,#296,.T.);
#382=ORIENTED_EDGE('',*,*,#302,.T.);
#383=ORIENTED_EDGE('',*,*,#300,.F.);
#384=ORIENTED_EDGE('',*,*,#303,.T.);
#385=ORIENTED_EDGE('',*,*,#304,.T.);
#386=ORIENTED_EDGE('',*,*,#305,.T.);
#387=ORIENTED_EDGE('',*,*,#304,.F.);
#388=ORIENTED_EDGE('',*,*,#306,.T.);
#389=ORIENTED_EDGE('',*,*,#292,.T.);
#390=ORIENTED_EDGE('',*,*,#307,.T.);
#391=ORIENTED_EDGE('',*,*,#308,.F.);
#392=ORIENTED_EDGE('',*,*,#309,.F.);
#393=ORIENTED_EDGE('',*,*,#310,.F.);
#394=ORIENTED_EDGE('',*,*,#309,.T.);
#395=ORIENTED_EDGE('',*,*,#311,.T.);
#396=ORIENTED_EDGE('',*,*,#291,.T.);
#397=ORIENTED_EDGE('',*,*,#312,.T.);
#398=ORIENTED_EDGE('',*,*,#313,.T.);
#399=ORIENTED_EDGE('',*,*,#314,.T.);
#400=ORIENTED_EDGE('',*,*,#310,.T.);
#401=ORIENTED_EDGE('',*,*,#315,.T.);
#402=ORIENTED_EDGE('',*,*,#316,.F.);
#403=ORIENTED_EDGE('',*,*,#317,.F.);
#404=ORIENTED_EDGE('',*,*,#318,.F.);
#405=ORIENTED_EDGE('',*,*,#317,.T.);
#406=ORIENTED_EDGE('',*,*,#319,.T.);
#407=ORIENTED_EDGE('',*,*,#294,.T.);
#408=ORIENTED_EDGE('',*,*,#320,.T.);
#409=ORIENTED_EDGE('',*,*,#321,.T.);
#410=ORIENTED_EDGE('',*,*,#322,.T.);
#411=ORIENTED_EDGE('',*,*,#318,.T.);
#412=ORIENTED_EDGE('',*,*,#323,.T.);
#413=ORIENTED_EDGE('',*,*,#321,.F.);
#414=ORIENTED_EDGE('',*,*,#324,.T.);
#415=ORIENTED_EDGE('',*,*,#325,.T.);
#416=ORIENTED_EDGE('',*,*,#326,.T.);
#417=ORIENTED_EDGE('',*,*,#308,.T.);
#418=ORIENTED_EDGE('',*,*,#327,.T.);
#419=ORIENTED_EDGE('',*,*,#325,.F.);
#420=ORIENTED_EDGE('',*,*,#328,.T.);
#421=ORIENTED_EDGE('',*,*,#329,.T.);
#422=ORIENTED_EDGE('',*,*,#330,.T.);
#423=ORIENTED_EDGE('',*,*,#316,.T.);
#424=ORIENTED_EDGE('',*,*,#331,.T.);
#425=ORIENTED_EDGE('',*,*,#332,.T.);
#426=ORIENTED_EDGE('',*,*,#333,.T.);
#427=ORIENTED_EDGE('',*,*,#293,.T.);
#428=ORIENTED_EDGE('',*,*,#334,.T.);
#429=ORIENTED_EDGE('',*,*,#323,.F.);
#430=ORIENTED_EDGE('',*,*,#320,.F.);
#431=ORIENTED_EDGE('',*,*,#301,.F.);
#432=ORIENTED_EDGE('',*,*,#335,.T.);
#433=ORIENTED_EDGE('',*,*,#336,.T.);
#434=ORIENTED_EDGE('',*,*,#324,.F.);
#435=ORIENTED_EDGE('',*,*,#335,.F.);
#436=ORIENTED_EDGE('',*,*,#305,.F.);
#437=ORIENTED_EDGE('',*,*,#337,.T.);
#438=ORIENTED_EDGE('',*,*,#327,.F.);
#439=ORIENTED_EDGE('',*,*,#314,.F.);
#440=ORIENTED_EDGE('',*,*,#338,.T.);
#441=ORIENTED_EDGE('',*,*,#339,.T.);
#442=ORIENTED_EDGE('',*,*,#340,.T.);
#443=ORIENTED_EDGE('',*,*,#331,.F.);
#444=ORIENTED_EDGE('',*,*,#322,.F.);
#445=ORIENTED_EDGE('',*,*,#341,.T.);
#446=ORIENTED_EDGE('',*,*,#342,.T.);
#447=ORIENTED_EDGE('',*,*,#343,.T.);
#448=ORIENTED_EDGE('',*,*,#315,.F.);
#449=ORIENTED_EDGE('',*,*,#312,.F.);
#450=ORIENTED_EDGE('',*,*,#333,.F.);
#451=ORIENTED_EDGE('',*,*,#344,.T.);
#452=ORIENTED_EDGE('',*,*,#306,.F.);
#453=ORIENTED_EDGE('',*,*,#345,.T.);
#454=ORIENTED_EDGE('',*,*,#346,.T.);
#455=ORIENTED_EDGE('',*,*,#347,.T.);
#456=ORIENTED_EDGE('',*,*,#334,.F.);
#457=ORIENTED_EDGE('',*,*,#313,.F.);
#458=ORIENTED_EDGE('',*,*,#344,.F.);
#459=ORIENTED_EDGE('',*,*,#332,.F.);
#460=ORIENTED_EDGE('',*,*,#347,.F.);
#461=ORIENTED_EDGE('',*,*,#348,.T.);
#462=ORIENTED_EDGE('',*,*,#338,.F.);
#463=ORIENTED_EDGE('',*,*,#349,.T.);
#464=ORIENTED_EDGE('',*,*,#350,.F.);
#465=ORIENTED_EDGE('',*,*,#351,.T.);
#466=ORIENTED_EDGE('',*,*,#336,.F.);
#467=ORIENTED_EDGE('',*,*,#351,.F.);
#468=ORIENTED_EDGE('',*,*,#352,.F.);
#469=ORIENTED_EDGE('',*,*,#353,.T.);
#470=ORIENTED_EDGE('',*,*,#354,.F.);
#471=ORIENTED_EDGE('',*,*,#353,.F.);
#472=ORIENTED_EDGE('',*,*,#352,.T.);
#473=ORIENTED_EDGE('',*,*,#355,.T.);
#474=ORIENTED_EDGE('',*,*,#356,.T.);
#475=ORIENTED_EDGE('',*,*,#355,.F.);
#476=ORIENTED_EDGE('',*,*,#356,.F.);
#477=ORIENTED_EDGE('',*,*,#357,.T.);
#478=ORIENTED_EDGE('',*,*,#349,.F.);
#479=ORIENTED_EDGE('',*,*,#357,.F.);
#480=ORIENTED_EDGE('',*,*,#350,.T.);
#481=ORIENTED_EDGE('',*,*,#358,.T.);
#482=ORIENTED_EDGE('',*,*,#359,.T.);
#483=ORIENTED_EDGE('',*,*,#358,.F.);
#484=ORIENTED_EDGE('',*,*,#359,.F.);
#485=ORIENTED_EDGE('',*,*,#360,.T.);
#486=ORIENTED_EDGE('',*,*,#361,.F.);
#487=ORIENTED_EDGE('',*,*,#360,.F.);
#488=ORIENTED_EDGE('',*,*,#362,.F.);
#489=ORIENTED_EDGE('',*,*,#363,.T.);
#490=ORIENTED_EDGE('',*,*,#341,.F.);
#491=ORIENTED_EDGE('',*,*,#326,.F.);
#492=ORIENTED_EDGE('',*,*,#340,.F.);
#493=ORIENTED_EDGE('',*,*,#364,.F.);
#494=ORIENTED_EDGE('',*,*,#345,.F.);
#495=ORIENTED_EDGE('',*,*,#303,.F.);
#496=ORIENTED_EDGE('',*,*,#346,.F.);
#497=ORIENTED_EDGE('',*,*,#364,.T.);
#498=ORIENTED_EDGE('',*,*,#339,.F.);
#499=ORIENTED_EDGE('',*,*,#348,.F.);
#500=ORIENTED_EDGE('',*,*,#328,.F.);
#501=ORIENTED_EDGE('',*,*,#337,.F.);
#502=ORIENTED_EDGE('',*,*,#307,.F.);
#503=ORIENTED_EDGE('',*,*,#311,.F.);
#504=ORIENTED_EDGE('',*,*,#354,.T.);
#505=ORIENTED_EDGE('',*,*,#330,.F.);
#506=ORIENTED_EDGE('',*,*,#365,.F.);
#507=ORIENTED_EDGE('',*,*,#299,.F.);
#508=ORIENTED_EDGE('',*,*,#319,.F.);
#509=ORIENTED_EDGE('',*,*,#329,.F.);
#510=ORIENTED_EDGE('',*,*,#343,.F.);
#511=ORIENTED_EDGE('',*,*,#366,.F.);
#512=ORIENTED_EDGE('',*,*,#367,.T.);
#513=ORIENTED_EDGE('',*,*,#297,.F.);
#514=ORIENTED_EDGE('',*,*,#365,.T.);
#515=ORIENTED_EDGE('',*,*,#361,.T.);
#516=ORIENTED_EDGE('',*,*,#368,.T.);
#517=ORIENTED_EDGE('',*,*,#366,.T.);
#518=ORIENTED_EDGE('',*,*,#342,.F.);
#519=ORIENTED_EDGE('',*,*,#363,.F.);
#520=ORIENTED_EDGE('',*,*,#298,.F.);
#521=ORIENTED_EDGE('',*,*,#367,.F.);
#522=ORIENTED_EDGE('',*,*,#368,.F.);
#523=ORIENTED_EDGE('',*,*,#362,.T.);
#524=ORIENTED_EDGE('',*,*,#302,.F.);
#525=SPHERICAL_SURFACE('',#567,0.15748031496063);
#526=SPHERICAL_SURFACE('',#571,0.15748031496063);
#527=SPHERICAL_SURFACE('',#584,0.15748031496063);
#528=SPHERICAL_SURFACE('',#591,0.15748031496063);
#529=ADVANCED_FACE('',(#137),#525,.T.);
#530=ADVANCED_FACE('',(#138),#526,.T.);
#531=ADVANCED_FACE('',(#139),#121,.T.);
#532=ADVANCED_FACE('',(#140),#122,.T.);
#533=ADVANCED_FACE('',(#141),#35,.T.);
#534=ADVANCED_FACE('',(#142),#123,.T.);
#535=ADVANCED_FACE('',(#143),#527,.T.);
#536=ADVANCED_FACE('',(#144),#124,.T.);
#537=ADVANCED_FACE('',(#145),#125,.T.);
#538=ADVANCED_FACE('',(#146),#528,.T.);
#539=ADVANCED_FACE('',(#147),#126,.T.);
#540=ADVANCED_FACE('',(#148),#127,.T.);
#541=ADVANCED_FACE('',(#149),#36,.T.);
#542=ADVANCED_FACE('',(#150),#128,.T.);
#543=ADVANCED_FACE('',(#151),#129,.T.);
#544=ADVANCED_FACE('',(#152),#130,.T.);
#545=ADVANCED_FACE('',(#153,#17),#23,.T.);
#546=ADVANCED_FACE('',(#154),#131,.T.);
#547=ADVANCED_FACE('',(#155),#24,.T.);
#548=ADVANCED_FACE('',(#156),#25,.T.);
#549=ADVANCED_FACE('',(#157),#26,.T.);
#550=ADVANCED_FACE('',(#158),#27,.F.);
#551=ADVANCED_FACE('',(#159,#18),#28,.T.);
#552=ADVANCED_FACE('',(#160),#132,.F.);
#553=ADVANCED_FACE('',(#161),#133,.F.);
#554=ADVANCED_FACE('',(#162),#15,.F.);
#555=ADVANCED_FACE('',(#163),#134,.F.);
#556=ADVANCED_FACE('',(#164),#16,.F.);
#557=ADVANCED_FACE('',(#165),#135,.F.);
#558=ADVANCED_FACE('',(#166),#136,.F.);
#559=ADVANCED_FACE('',(#167),#29,.T.);
#560=ADVANCED_FACE('',(#168,#19),#30,.T.);
#561=ADVANCED_FACE('',(#169),#31,.T.);
#562=ADVANCED_FACE('',(#170,#20),#32,.T.);
#563=ADVANCED_FACE('',(#171),#33,.T.);
#564=ADVANCED_FACE('',(#172),#34,.F.);
#565=CLOSED_SHELL('',(#529,#530,#531,#532,#533,#534,#535,#536,#537,#538,
#539,#540,#541,#542,#543,#544,#545,#546,#547,#548,#549,#550,#551,#552,#553,
#554,#555,#556,#557,#558,#559,#560,#561,#562,#563,#564));
#566=AXIS2_PLACEMENT_3D('',#827,#639,#640);
#567=AXIS2_PLACEMENT_3D('',#828,#641,#642);
#568=AXIS2_PLACEMENT_3D('',#831,#643,#644);
#569=AXIS2_PLACEMENT_3D('',#833,#645,#646);
#570=AXIS2_PLACEMENT_3D('',#834,#647,#648);
#571=AXIS2_PLACEMENT_3D('',#835,#649,#650);
#572=AXIS2_PLACEMENT_3D('',#838,#651,#652);
#573=AXIS2_PLACEMENT_3D('',#840,#653,#654);
#574=AXIS2_PLACEMENT_3D('',#841,#655,#656);
#575=AXIS2_PLACEMENT_3D('',#842,#657,#658);
#576=AXIS2_PLACEMENT_3D('',#845,#659,#660);
#577=AXIS2_PLACEMENT_3D('',#848,#663,#664);
#578=AXIS2_PLACEMENT_3D('',#851,#665,#666);
#579=AXIS2_PLACEMENT_3D('',#854,#669,#670);
#580=AXIS2_PLACEMENT_3D('',#856,#671,#672);
#581=AXIS2_PLACEMENT_3D('',#858,#673,#674);
#582=AXIS2_PLACEMENT_3D('',#859,#675,#676);
#583=AXIS2_PLACEMENT_3D('',#860,#677,#678);
#584=AXIS2_PLACEMENT_3D('',#863,#681,#682);
#585=AXIS2_PLACEMENT_3D('',#866,#683,#684);
#586=AXIS2_PLACEMENT_3D('',#868,#685,#686);
#587=AXIS2_PLACEMENT_3D('',#869,#687,#688);
#588=AXIS2_PLACEMENT_3D('',#870,#689,#690);
#589=AXIS2_PLACEMENT_3D('',#873,#693,#694);
#590=AXIS2_PLACEMENT_3D('',#876,#695,#696);
#591=AXIS2_PLACEMENT_3D('',#879,#699,#700);
#592=AXIS2_PLACEMENT_3D('',#882,#701,#702);
#593=AXIS2_PLACEMENT_3D('',#884,#703,#704);
#594=AXIS2_PLACEMENT_3D('',#885,#705,#706);
#595=AXIS2_PLACEMENT_3D('',#886,#707,#708);
#596=AXIS2_PLACEMENT_3D('',#889,#711,#712);
#597=AXIS2_PLACEMENT_3D('',#892,#713,#714);
#598=AXIS2_PLACEMENT_3D('',#895,#717,#718);
#599=AXIS2_PLACEMENT_3D('',#897,#719,#720);
#600=AXIS2_PLACEMENT_3D('',#899,#721,#722);
#601=AXIS2_PLACEMENT_3D('',#900,#723,#724);
#602=AXIS2_PLACEMENT_3D('',#901,#725,#726);
#603=AXIS2_PLACEMENT_3D('',#904,#729,#730);
#604=AXIS2_PLACEMENT_3D('',#907,#731,#732);
#605=AXIS2_PLACEMENT_3D('',#910,#735,#736);
#606=AXIS2_PLACEMENT_3D('',#913,#737,#738);
#607=AXIS2_PLACEMENT_3D('',#916,#741,#742);
#608=AXIS2_PLACEMENT_3D('',#919,#744,#745);
#609=AXIS2_PLACEMENT_3D('',#920,#746,#747);
#610=AXIS2_PLACEMENT_3D('',#922,#749,#750);
#611=AXIS2_PLACEMENT_3D('',#927,#753,#754);
#612=AXIS2_PLACEMENT_3D('',#928,#755,#756);
#613=AXIS2_PLACEMENT_3D('',#930,#757,#758);
#614=AXIS2_PLACEMENT_3D('',#934,#761,#762);
#615=AXIS2_PLACEMENT_3D('',#936,#764,#765);
#616=AXIS2_PLACEMENT_3D('',#938,#766,#767);
#617=AXIS2_PLACEMENT_3D('',#942,#770,#771);
#618=AXIS2_PLACEMENT_3D('',#945,#773,#774);
#619=AXIS2_PLACEMENT_3D('',#946,#775,#776);
#620=AXIS2_PLACEMENT_3D('',#948,#777,#778);
#621=AXIS2_PLACEMENT_3D('',#950,#780,#781);
#622=AXIS2_PLACEMENT_3D('',#952,#782,#783);
#623=AXIS2_PLACEMENT_3D('',#955,#785,#786);
#624=AXIS2_PLACEMENT_3D('',#956,#787,#788);
#625=AXIS2_PLACEMENT_3D('',#959,#790,#791);
#626=AXIS2_PLACEMENT_3D('',#960,#792,#793);
#627=AXIS2_PLACEMENT_3D('',#962,#795,#796);
#628=AXIS2_PLACEMENT_3D('',#965,#798,#799);
#629=AXIS2_PLACEMENT_3D('',#966,#800,#801);
#630=AXIS2_PLACEMENT_3D('',#969,#803,#804);
#631=AXIS2_PLACEMENT_3D('',#970,#805,#806);
#632=AXIS2_PLACEMENT_3D('',#972,#807,#808);
#633=AXIS2_PLACEMENT_3D('',#975,#811,#812);
#634=AXIS2_PLACEMENT_3D('',#976,#813,#814);
#635=AXIS2_PLACEMENT_3D('',#977,#815,#816);
#636=AXIS2_PLACEMENT_3D('',#979,#818,#819);
#637=AXIS2_PLACEMENT_3D('',#983,#822,#823);
#638=AXIS2_PLACEMENT_3D('',#985,#825,#826);
#639=DIRECTION('axis',(0.,0.,1.));
#640=DIRECTION('refdir',(1.,0.,0.));
#641=DIRECTION('center_axis',(0.438312745709137,-0.198518726433273,-0.876625491418216));
#642=DIRECTION('ref_axis',(-0.798539992717034,0.361671304136378,-0.481173303286634));
#643=DIRECTION('center_axis',(0.,0.,-1.));
#644=DIRECTION('ref_axis',(-0.6595683660391,0.751644577257437,0.));
#645=DIRECTION('center_axis',(-0.751644577257437,-0.6595683660391,0.));
#646=DIRECTION('ref_axis',(0.,0.,-1.));
#647=DIRECTION('center_axis',(-1.4432899320127E-13,1.,-2.22044604925031E-15));
#648=DIRECTION('ref_axis',(-1.,-1.4432899320127E-13,0.));
#649=DIRECTION('center_axis',(-0.438312745709128,-0.198518726433295,-0.876625491418216));
#650=DIRECTION('ref_axis',(0.798539992717016,0.361671304136419,-0.481173303286634));
#651=DIRECTION('center_axis',(0.,0.,-1.));
#652=DIRECTION('ref_axis',(1.,-8.8817841970012E-14,0.));
#653=DIRECTION('center_axis',(9.10382880192628E-14,1.,0.));
#654=DIRECTION('ref_axis',(0.,0.,-1.));
#655=DIRECTION('center_axis',(0.751644577257471,-0.659568366039062,6.26704440918739E-15));
#656=DIRECTION('ref_axis',(0.659568366039062,0.751644577257471,0.));
#657=DIRECTION('center_axis',(8.88178419700156E-14,1.,0.));
#658=DIRECTION('ref_axis',(0.707106781186549,-6.28036983473508E-14,-0.707106781186546));
#659=DIRECTION('center_axis',(-3.20098900673739E-16,1.,0.));
#660=DIRECTION('ref_axis',(0.707106781186549,-6.28036983473508E-14,-0.707106781186546));
#661=DIRECTION('',(8.88178419700156E-14,1.,0.));
#662=DIRECTION('',(-8.88178419700156E-14,-1.,0.));
#663=DIRECTION('center_axis',(-0.751644577257472,0.659568366039061,0.));
#664=DIRECTION('ref_axis',(0.466385264282351,0.531492977620854,-0.707106781186548));
#665=DIRECTION('center_axis',(0.751644577258249,-0.659568366038175,1.09840197943496E-15));
#666=DIRECTION('ref_axis',(0.,-1.66533453693773E-15,-1.));
#667=DIRECTION('',(0.751644577257472,-0.659568366039061,0.));
#668=DIRECTION('',(-0.751644577257472,0.659568366039061,0.));
#669=DIRECTION('center_axis',(0.,0.,1.));
#670=DIRECTION('ref_axis',(1.,0.,0.));
#671=DIRECTION('center_axis',(0.,0.,1.));
#672=DIRECTION('ref_axis',(1.,0.,0.));
#673=DIRECTION('center_axis',(0.751644577257392,0.659568366039152,0.));
#674=DIRECTION('ref_axis',(0.,0.,-1.));
#675=DIRECTION('center_axis',(0.,0.,-1.));
#676=DIRECTION('ref_axis',(-7.74145855477106E-14,1.,0.));
#677=DIRECTION('center_axis',(0.751644577257438,0.6595683660391,0.));
#678=DIRECTION('ref_axis',(-0.466385264282381,0.531492977620829,-0.707106781186546));
#679=DIRECTION('',(-0.751644577257438,-0.6595683660391,0.));
#680=DIRECTION('',(0.751644577257438,0.6595683660391,0.));
#681=DIRECTION('center_axis',(-0.438312745709139,0.198518726433271,-0.876625491418216));
#682=DIRECTION('ref_axis',(-0.798539992717035,0.361671304136375,0.481173303286634));
#683=DIRECTION('center_axis',(-0.751644577257437,-0.6595683660391,0.));
#684=DIRECTION('ref_axis',(-0.6595683660391,0.751644577257437,0.));
#685=DIRECTION('center_axis',(0.,0.,1.));
#686=DIRECTION('ref_axis',(-1.,-1.4432899320127E-13,0.));
#687=DIRECTION('center_axis',(-1.4210854715202E-13,1.,0.));
#688=DIRECTION('ref_axis',(0.,0.,1.));
#689=DIRECTION('center_axis',(0.,0.,1.));
#690=DIRECTION('ref_axis',(-0.910924905258169,0.41257219608257,0.));
#691=DIRECTION('',(0.,0.,-1.));
#692=DIRECTION('',(0.,0.,1.));
#693=DIRECTION('center_axis',(1.4432899320127E-13,-1.,0.));
#694=DIRECTION('ref_axis',(-0.707106781186548,-1.02056009814445E-13,0.707106781186547));
#695=DIRECTION('center_axis',(-5.02555274057773E-14,1.,0.));
#696=DIRECTION('ref_axis',(-0.707106781186548,-1.02056009814445E-13,0.707106781186547));
#697=DIRECTION('',(-1.4432899320127E-13,1.,0.));
#698=DIRECTION('',(1.4432899320127E-13,-1.,0.));
#699=DIRECTION('center_axis',(0.438312745709127,0.198518726433292,-0.876625491418217));
#700=DIRECTION('ref_axis',(0.798539992717017,0.361671304136418,0.481173303286632));
#701=DIRECTION('center_axis',(8.88178419700124E-14,1.,4.44089209850063E-15));
#702=DIRECTION('ref_axis',(1.,-8.88178419700124E-14,0.));
#703=DIRECTION('center_axis',(0.,0.,1.));
#704=DIRECTION('ref_axis',(0.65956836603906,0.751644577257473,0.));
#705=DIRECTION('center_axis',(0.751644577257477,-0.659568366039055,0.));
#706=DIRECTION('ref_axis',(0.,0.,1.));
#707=DIRECTION('center_axis',(0.,0.,1.));
#708=DIRECTION('ref_axis',(0.910924905258147,0.41257219608262,0.));
#709=DIRECTION('',(0.,0.,-1.));
#710=DIRECTION('',(0.,0.,1.));
#711=DIRECTION('center_axis',(-0.751644577257472,0.659568366039061,0.));
#712=DIRECTION('ref_axis',(0.466385264282351,0.531492977620854,0.707106781186547));
#713=DIRECTION('center_axis',(0.751644577257472,-0.659568366039061,-1.18164661918096E-12));
#714=DIRECTION('ref_axis',(0.65956836603906,0.751644577257472,0.));
#715=DIRECTION('',(0.751644577257472,-0.659568366039061,0.));
#716=DIRECTION('',(-0.751644577257472,0.659568366039061,0.));
#717=DIRECTION('center_axis',(0.,0.,1.));
#718=DIRECTION('ref_axis',(1.,0.,0.));
#719=DIRECTION('center_axis',(0.,0.,1.));
#720=DIRECTION('ref_axis',(-7.74145855477106E-14,1.,0.));
#721=DIRECTION('center_axis',(0.751644577257392,0.659568366039152,0.));
#722=DIRECTION('ref_axis',(-0.659568366039152,0.751644577257391,0.));
#723=DIRECTION('center_axis',(0.,0.,-1.));
#724=DIRECTION('ref_axis',(1.,0.,0.));
#725=DIRECTION('center_axis',(-0.751644577257438,-0.6595683660391,0.));
#726=DIRECTION('ref_axis',(-0.466385264282382,0.531492977620829,0.707106781186546));
#727=DIRECTION('',(0.751644577257438,0.6595683660391,0.));
#728=DIRECTION('',(-0.751644577257438,-0.6595683660391,0.));
#729=DIRECTION('center_axis',(8.88178419700156E-14,1.,0.));
#730=DIRECTION('ref_axis',(0.70710678118655,-6.28036983473509E-14,0.707106781186545));
#731=DIRECTION('center_axis',(-3.20098900673739E-16,1.,0.));
#732=DIRECTION('ref_axis',(0.70710678118655,-6.28036983473509E-14,0.707106781186545));
#733=DIRECTION('',(8.88178419700156E-14,1.,0.));
#734=DIRECTION('',(-8.88178419700156E-14,-1.,0.));
#735=DIRECTION('center_axis',(-1.4432899320127E-13,1.,0.));
#736=DIRECTION('ref_axis',(-0.707106781186548,-1.02056009814445E-13,-0.707106781186547));
#737=DIRECTION('center_axis',(-5.02555274057773E-14,1.,0.));
#738=DIRECTION('ref_axis',(-0.707106781186548,-1.02056009814445E-13,-0.707106781186547));
#739=DIRECTION('',(-1.4432899320127E-13,1.,0.));
#740=DIRECTION('',(1.4432899320127E-13,-1.,0.));
#741=DIRECTION('center_axis',(0.659568366039061,0.751644577257472,0.));
#742=DIRECTION('ref_axis',(-0.751644577257472,0.659568366039061,0.));
#743=DIRECTION('',(0.,0.,1.));
#744=DIRECTION('center_axis',(-0.659568366039061,-0.751644577257472,0.));
#745=DIRECTION('ref_axis',(0.751644577257471,-0.659568366039061,0.));
#746=DIRECTION('center_axis',(0.,0.,1.));
#747=DIRECTION('ref_axis',(1.,-2.03433214862592E-13,0.));
#748=DIRECTION('',(0.,0.,1.));
#749=DIRECTION('center_axis',(0.,0.,1.));
#750=DIRECTION('ref_axis',(1.,0.,0.));
#751=DIRECTION('',(1.,5.02555274057773E-14,0.));
#752=DIRECTION('',(-4.64111074815416E-14,1.,0.));
#753=DIRECTION('center_axis',(0.,0.,-1.));
#754=DIRECTION('ref_axis',(1.,0.,0.));
#755=DIRECTION('center_axis',(0.,0.,1.));
#756=DIRECTION('ref_axis',(1.,0.,0.));
#757=DIRECTION('center_axis',(0.,0.,-1.));
#758=DIRECTION('ref_axis',(1.,0.,0.));
#759=DIRECTION('',(4.52791292502845E-15,-1.,0.));
#760=DIRECTION('',(1.,3.20098900673739E-16,0.));
#761=DIRECTION('center_axis',(-1.,-1.4432899320127E-13,0.));
#762=DIRECTION('ref_axis',(1.4432899320127E-13,-1.,0.));
#763=DIRECTION('',(0.,0.,1.));
#764=DIRECTION('center_axis',(0.,0.,1.));
#765=DIRECTION('ref_axis',(1.,0.,0.));
#766=DIRECTION('center_axis',(0.,0.,1.));
#767=DIRECTION('ref_axis',(1.,0.,0.));
#768=DIRECTION('',(4.64111074815416E-14,-1.,0.));
#769=DIRECTION('',(-1.,-5.02555274057773E-14,0.));
#770=DIRECTION('center_axis',(5.02555274057773E-14,-1.,0.));
#771=DIRECTION('ref_axis',(1.,5.02555274057773E-14,0.));
#772=DIRECTION('',(0.,0.,1.));
#773=DIRECTION('center_axis',(-5.02555274057773E-14,1.,0.));
#774=DIRECTION('ref_axis',(0.,0.,1.));
#775=DIRECTION('center_axis',(-5.04900565420681E-14,1.,0.));
#776=DIRECTION('ref_axis',(0.,0.,1.));
#777=DIRECTION('center_axis',(-5.02555274057773E-14,1.,0.));
#778=DIRECTION('ref_axis',(0.,0.,1.));
#779=DIRECTION('',(-5.04900565420681E-14,1.,0.));
#780=DIRECTION('center_axis',(-5.04900565420462E-14,1.,0.));
#781=DIRECTION('ref_axis',(0.,0.,1.));
#782=DIRECTION('center_axis',(-5.02555274057773E-14,1.,0.));
#783=DIRECTION('ref_axis',(0.,0.,1.));
#784=DIRECTION('',(-5.04900565420462E-14,1.,0.));
#785=DIRECTION('center_axis',(0.6595683660391,-0.751644577257438,0.));
#786=DIRECTION('ref_axis',(0.751644577257438,0.6595683660391,0.));
#787=DIRECTION('center_axis',(-5.02555274057773E-14,1.,0.));
#788=DIRECTION('ref_axis',(0.,0.,1.));
#789=DIRECTION('',(4.41907947086736E-14,-0.880477353509162,0.474088209047116));
#790=DIRECTION('center_axis',(5.02555274057773E-14,-1.,0.));
#791=DIRECTION('ref_axis',(0.,0.,1.));
#792=DIRECTION('center_axis',(5.02555274057773E-14,-1.,0.));
#793=DIRECTION('ref_axis',(0.,0.,1.));
#794=DIRECTION('',(5.02555274057773E-14,-1.,0.));
#795=DIRECTION('center_axis',(-5.02555274057773E-14,1.,0.));
#796=DIRECTION('ref_axis',(0.,0.,1.));
#797=DIRECTION('',(4.41907947086736E-14,-0.880477353509162,0.474088209047116));
#798=DIRECTION('center_axis',(5.02555274057773E-14,-1.,0.));
#799=DIRECTION('ref_axis',(0.,0.,1.));
#800=DIRECTION('center_axis',(5.02555274057773E-14,-1.,0.));
#801=DIRECTION('ref_axis',(0.,0.,1.));
#802=DIRECTION('',(5.02555274057773E-14,-1.,0.));
#803=DIRECTION('center_axis',(-3.20098900673739E-16,1.,0.));
#804=DIRECTION('ref_axis',(0.,0.,1.));
#805=DIRECTION('center_axis',(0.,0.,1.));
#806=DIRECTION('ref_axis',(1.,0.,0.));
#807=DIRECTION('center_axis',(0.,0.,1.));
#808=DIRECTION('ref_axis',(1.,0.,0.));
#809=DIRECTION('',(0.,0.,1.));
#810=DIRECTION('',(0.,0.,1.));
#811=DIRECTION('center_axis',(1.,4.64111074815416E-14,0.));
#812=DIRECTION('ref_axis',(-4.64111074815416E-14,1.,0.));
#813=DIRECTION('center_axis',(-0.6595683660391,0.751644577257438,0.));
#814=DIRECTION('ref_axis',(-0.751644577257438,-0.6595683660391,0.));
#815=DIRECTION('center_axis',(1.,-8.88178419700156E-14,0.));
#816=DIRECTION('ref_axis',(8.88178419700156E-14,1.,0.));
#817=DIRECTION('',(0.,0.,1.));
#818=DIRECTION('center_axis',(3.20098900673739E-16,-1.,0.));
#819=DIRECTION('ref_axis',(1.,3.20098900673739E-16,0.));
#820=DIRECTION('',(0.,0.,1.));
#821=DIRECTION('',(1.,3.20098900673739E-16,0.));
#822=DIRECTION('center_axis',(-1.,-4.52791292502845E-15,0.));
#823=DIRECTION('ref_axis',(4.52791292502845E-15,-1.,0.));
#824=DIRECTION('',(4.52791292502845E-15,-1.,0.));
#825=DIRECTION('center_axis',(0.,0.,1.));
#826=DIRECTION('ref_axis',(1.,0.,0.));
#827=CARTESIAN_POINT('',(0.,0.,0.));
#828=CARTESIAN_POINT('Origin',(2.9400787401566,-1.57664026857599,0.15748031496063));
#829=CARTESIAN_POINT('',(2.8362097061347,-1.45827104381104,0.15748031496063));
#830=CARTESIAN_POINT('',(2.78259842519597,-1.57664026857601,0.15748031496063));
#831=CARTESIAN_POINT('Origin',(2.9400787401566,-1.57664026857599,0.15748031496063));
#832=CARTESIAN_POINT('',(2.9400787401566,-1.57664026857599,0.));
#833=CARTESIAN_POINT('Origin',(2.9400787401566,-1.57664026857599,0.15748031496063));
#834=CARTESIAN_POINT('Origin',(2.9400787401566,-1.57664026857599,0.15748031496063));
#835=CARTESIAN_POINT('Origin',(6.08492125984325,-1.57664026857591,0.15748031496063));
#836=CARTESIAN_POINT('',(6.24240157480388,-1.57664026857593,0.15748031496063));
#837=CARTESIAN_POINT('',(6.18879029386515,-1.45827104381096,0.15748031496063));
#838=CARTESIAN_POINT('Origin',(6.08492125984325,-1.57664026857591,0.15748031496063));
#839=CARTESIAN_POINT('',(6.08492125984325,-1.57664026857591,0.));
#840=CARTESIAN_POINT('Origin',(6.08492125984325,-1.57664026857591,0.15748031496063));
#841=CARTESIAN_POINT('Origin',(6.08492125984325,-1.57664026857591,0.15748031496063));
#842=CARTESIAN_POINT('Origin',(6.08492125984327,-1.30959645669307,0.15748031496063));
#843=CARTESIAN_POINT('',(6.24240157480387,-1.66279527559068,0.15748031496063));
#844=CARTESIAN_POINT('',(6.08492125984324,-1.66279527559068,0.));
#845=CARTESIAN_POINT('Origin',(6.08492125984324,-1.66279527559076,0.15748031496063));
#846=CARTESIAN_POINT('',(6.08492125984327,-1.30959645669307,0.));
#847=CARTESIAN_POINT('',(6.2424015748039,-1.30959645669309,0.15748031496063));
#848=CARTESIAN_POINT('Origin',(5.51379576939382,-1.07547746113115,0.15748031496063));
#849=CARTESIAN_POINT('',(4.93297483334998,-0.565806896959053,0.));
#850=CARTESIAN_POINT('',(5.03684386737174,-0.447437672193974,0.15748031496063));
#851=CARTESIAN_POINT('Origin',(4.93297483334998,-0.565806896959053,0.15748031496063));
#852=CARTESIAN_POINT('',(5.61766480341572,-0.957108236366195,0.15748031496063));
#853=CARTESIAN_POINT('',(5.51379576939382,-1.07547746113115,0.));
#854=CARTESIAN_POINT('Origin',(4.51249999999997,-1.04498031496058,0.15748031496063));
#855=CARTESIAN_POINT('',(4.09202516664998,-0.565806896958966,0.));
#856=CARTESIAN_POINT('Origin',(4.5125,-1.04498031496078,0.));
#857=CARTESIAN_POINT('',(3.98815613262805,-0.447437672194001,0.15748031496063));
#858=CARTESIAN_POINT('Origin',(4.09202516664998,-0.565806896958966,0.15748031496063));
#859=CARTESIAN_POINT('Origin',(4.51249999999997,-1.04498031496058,0.15748031496063));
#860=CARTESIAN_POINT('Origin',(4.11398308432205,-0.546538816913125,0.15748031496063));
#861=CARTESIAN_POINT('',(4.11398308432205,-0.546538816913125,0.));
#862=CARTESIAN_POINT('',(4.01011405030015,-0.428169592148174,0.15748031496063));
#863=CARTESIAN_POINT('Origin',(2.9400787401566,-1.57664026857599,0.708661417322835));
#864=CARTESIAN_POINT('',(2.8362097061347,-1.45827104381104,0.708661417322835));
#865=CARTESIAN_POINT('',(2.9400787401566,-1.57664026857599,0.866141732283465));
#866=CARTESIAN_POINT('Origin',(2.9400787401566,-1.57664026857599,0.708661417322835));
#867=CARTESIAN_POINT('',(2.78259842519597,-1.57664026857601,0.708661417322835));
#868=CARTESIAN_POINT('Origin',(2.9400787401566,-1.57664026857599,0.708661417322835));
#869=CARTESIAN_POINT('Origin',(2.9400787401566,-1.57664026857599,0.708661417322835));
#870=CARTESIAN_POINT('Origin',(2.9400787401566,-1.57664026857599,0.));
#871=CARTESIAN_POINT('',(2.8362097061347,-1.45827104381104,0.));
#872=CARTESIAN_POINT('',(2.78259842519597,-1.57664026857601,0.));
#873=CARTESIAN_POINT('Origin',(2.94007874015655,-1.23085629921284,0.708661417322835));
#874=CARTESIAN_POINT('',(2.78259842519598,-1.66279527559077,0.708661417322835));
#875=CARTESIAN_POINT('',(2.94007874015661,-1.66279527559076,0.866141732283465));
#876=CARTESIAN_POINT('Origin',(2.94007874015661,-1.66279527559075,0.708661417322835));
#877=CARTESIAN_POINT('',(2.94007874015655,-1.23085629921284,0.866141732283465));
#878=CARTESIAN_POINT('',(2.78259842519592,-1.23085629921286,0.708661417322835));
#879=CARTESIAN_POINT('Origin',(6.08492125984325,-1.57664026857591,0.708661417322835));
#880=CARTESIAN_POINT('',(6.24240157480388,-1.57664026857593,0.708661417322835));
#881=CARTESIAN_POINT('',(6.08492125984325,-1.57664026857591,0.866141732283465));
#882=CARTESIAN_POINT('Origin',(6.08492125984325,-1.57664026857591,0.708661417322835));
#883=CARTESIAN_POINT('',(6.18879029386515,-1.45827104381096,0.708661417322835));
#884=CARTESIAN_POINT('Origin',(6.08492125984325,-1.57664026857591,0.708661417322835));
#885=CARTESIAN_POINT('Origin',(6.08492125984325,-1.57664026857591,0.708661417322835));
#886=CARTESIAN_POINT('Origin',(6.08492125984325,-1.57664026857591,0.));
#887=CARTESIAN_POINT('',(6.24240157480388,-1.57664026857593,0.));
#888=CARTESIAN_POINT('',(6.18879029386515,-1.45827104381096,0.));
#889=CARTESIAN_POINT('Origin',(5.51379576939382,-1.07547746113115,0.708661417322835));
#890=CARTESIAN_POINT('',(5.03684386737174,-0.447437672193974,0.708661417322835));
#891=CARTESIAN_POINT('',(4.93297483334998,-0.565806896959053,0.866141732283465));
#892=CARTESIAN_POINT('Origin',(4.93297483334984,-0.565806896958931,0.708661417322835));
#893=CARTESIAN_POINT('',(5.51379576939382,-1.07547746113115,0.866141732283465));
#894=CARTESIAN_POINT('',(5.61766480341572,-0.957108236366195,0.708661417322835));
#895=CARTESIAN_POINT('Origin',(4.51249999999997,-1.04498031496058,0.708661417322835));
#896=CARTESIAN_POINT('',(3.98815613262805,-0.447437672194001,0.708661417322835));
#897=CARTESIAN_POINT('Origin',(4.51249999999997,-1.04498031496058,0.708661417322835));
#898=CARTESIAN_POINT('',(4.09202516664998,-0.565806896958966,0.866141732283465));
#899=CARTESIAN_POINT('Origin',(4.09202516664998,-0.565806896958966,0.708661417322835));
#900=CARTESIAN_POINT('Origin',(4.5125,-1.04498031496078,0.866141732283465));
#901=CARTESIAN_POINT('Origin',(4.11398308432205,-0.546538816913125,0.708661417322835));
#902=CARTESIAN_POINT('',(4.11398308432205,-0.546538816913125,0.866141732283465));
#903=CARTESIAN_POINT('',(4.01011405030015,-0.428169592148174,0.708661417322835));
#904=CARTESIAN_POINT('Origin',(6.08492125984327,-1.30959645669307,0.708661417322835));
#905=CARTESIAN_POINT('',(6.08492125984324,-1.66279527559068,0.866141732283465));
#906=CARTESIAN_POINT('',(6.24240157480387,-1.66279527559068,0.708661417322835));
#907=CARTESIAN_POINT('Origin',(6.08492125984324,-1.66279527559076,0.708661417322835));
#908=CARTESIAN_POINT('',(6.2424015748039,-1.30959645669309,0.708661417322835));
#909=CARTESIAN_POINT('',(6.08492125984327,-1.30959645669307,0.866141732283465));
#910=CARTESIAN_POINT('Origin',(2.94007874015655,-1.23085629921284,0.15748031496063));
#911=CARTESIAN_POINT('',(2.94007874015661,-1.66279527559076,0.));
#912=CARTESIAN_POINT('',(2.78259842519598,-1.66279527559077,0.15748031496063));
#913=CARTESIAN_POINT('Origin',(2.94007874015661,-1.66279527559075,0.15748031496063));
#914=CARTESIAN_POINT('',(2.78259842519592,-1.23085629921286,0.15748031496063));
#915=CARTESIAN_POINT('',(2.94007874015655,-1.23085629921284,0.));
#916=CARTESIAN_POINT('Origin',(6.24240157480389,-1.50531496063005,0.));
#917=CARTESIAN_POINT('',(5.03684386737174,-0.447437672193974,0.));
#918=CARTESIAN_POINT('',(5.77494094488234,-1.09511810270829,0.303149606299213));
#919=CARTESIAN_POINT('Origin',(5.77494094488234,-1.09511810270829,0.433070866141732));
#920=CARTESIAN_POINT('Origin',(4.51249999999997,-1.04498031496058,0.));
#921=CARTESIAN_POINT('',(3.98815613262805,-0.447437672194001,0.));
#922=CARTESIAN_POINT('Origin',(4.51249999999992,-0.956397637795341,0.866141732283465));
#923=CARTESIAN_POINT('',(3.87499999999999,-1.66279527559071,0.866141732283465));
#924=CARTESIAN_POINT('',(3.87499999999999,-1.66279527559071,0.866141732283465));
#925=CARTESIAN_POINT('',(3.87499999999996,-1.04498031496078,0.866141732283465));
#926=CARTESIAN_POINT('',(3.87499999999996,-1.04498031496078,0.866141732283465));
#927=CARTESIAN_POINT('Origin',(4.5125,-1.04498031496078,0.866141732283465));
#928=CARTESIAN_POINT('Origin',(4.51249999999992,-0.956397637795341,0.866141732283465));
#929=CARTESIAN_POINT('',(5.14999999999986,-1.04498031496075,0.866141732283465));
#930=CARTESIAN_POINT('Origin',(4.5125,-1.04498031496078,0.866141732283465));
#931=CARTESIAN_POINT('',(5.14999999999986,-1.66279527559068,0.866141732283465));
#932=CARTESIAN_POINT('',(5.14999999999986,-1.04498031496075,0.866141732283465));
#933=CARTESIAN_POINT('',(5.14999999999986,-1.66279527559068,0.866141732283465));
#934=CARTESIAN_POINT('Origin',(2.78259842519596,-1.50531496063014,0.));
#935=CARTESIAN_POINT('',(2.78259842519598,-1.66279527559077,0.));
#936=CARTESIAN_POINT('Origin',(4.51249999999992,-0.956397637795341,0.));
#937=CARTESIAN_POINT('',(3.87499999999996,-1.04498031496078,0.));
#938=CARTESIAN_POINT('Origin',(4.5125,-1.04498031496078,0.));
#939=CARTESIAN_POINT('',(3.87499999999999,-1.66279527559071,0.));
#940=CARTESIAN_POINT('',(3.87499999999996,-1.04498031496078,0.));
#941=CARTESIAN_POINT('',(3.87499999999999,-1.66279527559071,0.));
#942=CARTESIAN_POINT('Origin',(2.78259842519598,-1.66279527559077,0.));
#943=CARTESIAN_POINT('',(3.87499999999999,-1.66279527559071,0.));
#944=CARTESIAN_POINT('',(3.25005905511769,-1.66279527559074,0.359251968503937));
#945=CARTESIAN_POINT('Origin',(3.25005905511769,-1.66279527559074,0.433070866141732));
#946=CARTESIAN_POINT('Origin',(5.77494094488235,-1.38720472440952,0.433070866141732));
#947=CARTESIAN_POINT('',(5.77494094488235,-1.38720472440952,0.303149606299213));
#948=CARTESIAN_POINT('Origin',(5.77494094488235,-1.38720472440952,0.433070866141732));
#949=CARTESIAN_POINT('',(5.77494094488235,-1.38720472440952,0.303149606299213));
#950=CARTESIAN_POINT('Origin',(3.25005905511768,-1.38720472440964,0.433070866141732));
#951=CARTESIAN_POINT('',(3.25005905511768,-1.38720472440964,0.303149606299213));
#952=CARTESIAN_POINT('Origin',(3.25005905511768,-1.38720472440964,0.433070866141732));
#953=CARTESIAN_POINT('',(3.25005905511766,-1.0951181027082,0.303149606299213));
#954=CARTESIAN_POINT('',(3.25005905511768,-1.38720472440964,0.303149606299213));
#955=CARTESIAN_POINT('Origin',(3.25005905511766,-1.0951181027082,0.433070866141732));
#956=CARTESIAN_POINT('Origin',(3.25005905511768,-1.43930142124472,0.433070866141732));
#957=CARTESIAN_POINT('',(3.25005905511768,-1.4913981180798,0.359251968503937));
#958=CARTESIAN_POINT('',(3.25005905511768,-1.43930142124472,0.331200787401575));
#959=CARTESIAN_POINT('Origin',(3.25005905511768,-1.4913981180798,0.433070866141732));
#960=CARTESIAN_POINT('Origin',(3.25005905511768,-1.53877952755925,0.433070866141732));
#961=CARTESIAN_POINT('',(3.25005905511768,-1.53877952755925,0.359251968503937));
#962=CARTESIAN_POINT('Origin',(5.77494094488235,-1.4393014212446,0.433070866141732));
#963=CARTESIAN_POINT('',(5.77494094488236,-1.49139811807968,0.359251968503937));
#964=CARTESIAN_POINT('',(5.77494094488235,-1.4393014212446,0.331200787401575));
#965=CARTESIAN_POINT('Origin',(5.77494094488236,-1.49139811807968,0.433070866141732));
#966=CARTESIAN_POINT('Origin',(5.77494094488236,-1.53877952755912,0.433070866141732));
#967=CARTESIAN_POINT('',(5.77494094488236,-1.66279527559062,0.359251968503937));
#968=CARTESIAN_POINT('',(5.77494094488236,-1.53877952755912,0.359251968503937));
#969=CARTESIAN_POINT('Origin',(5.77494094488236,-1.66279527559065,0.433070866141732));
#970=CARTESIAN_POINT('Origin',(4.5125,-1.04498031496078,0.));
#971=CARTESIAN_POINT('',(5.14999999999986,-1.04498031496075,0.));
#972=CARTESIAN_POINT('Origin',(4.5125,-1.04498031496078,0.));
#973=CARTESIAN_POINT('',(5.14999999999986,-1.04498031496075,0.));
#974=CARTESIAN_POINT('',(3.87499999999996,-1.04498031496078,0.));
#975=CARTESIAN_POINT('Origin',(3.87499999999999,-1.66279527559071,0.));
#976=CARTESIAN_POINT('Origin',(3.98815613262805,-0.447437672194001,0.));
#977=CARTESIAN_POINT('Origin',(6.24240157480387,-1.66279527559068,0.));
#978=CARTESIAN_POINT('',(6.24240157480387,-1.66279527559068,0.));
#979=CARTESIAN_POINT('Origin',(5.14999999999986,-1.66279527559068,0.));
#980=CARTESIAN_POINT('',(5.14999999999986,-1.66279527559068,0.));
#981=CARTESIAN_POINT('',(5.14999999999986,-1.66279527559068,0.));
#982=CARTESIAN_POINT('',(5.14999999999986,-1.66279527559068,0.));
#983=CARTESIAN_POINT('Origin',(5.14999999999986,-1.04498031496075,0.));
#984=CARTESIAN_POINT('',(5.14999999999986,-1.04498031496075,0.));
#985=CARTESIAN_POINT('Origin',(4.51249999999992,-0.956397637795341,0.));
#986=UNCERTAINTY_MEASURE_WITH_UNIT(LENGTH_MEASURE(0.000393700787401575),
#991,'DISTANCE_ACCURACY_VALUE',
'Maximum model space distance between geometric entities at asserted c
onnectivities');
#987=UNCERTAINTY_MEASURE_WITH_UNIT(LENGTH_MEASURE(0.000393700787401575),
#991,'DISTANCE_ACCURACY_VALUE',
'Maximum model space distance between geometric entities at asserted c
onnectivities');
#988=(
GEOMETRIC_REPRESENTATION_CONTEXT(3)
GLOBAL_UNCERTAINTY_ASSIGNED_CONTEXT((#986))
GLOBAL_UNIT_ASSIGNED_CONTEXT((#991,#994,#995))
REPRESENTATION_CONTEXT('','3D')
);
#989=(
GEOMETRIC_REPRESENTATION_CONTEXT(3)
GLOBAL_UNCERTAINTY_ASSIGNED_CONTEXT((#987))
GLOBAL_UNIT_ASSIGNED_CONTEXT((#991,#994,#995))
REPRESENTATION_CONTEXT('','3D')
);
#990=DIMENSIONAL_EXPONENTS(1.,0.,0.,0.,0.,0.,0.);
#991=(
CONVERSION_BASED_UNIT('inch',#993)
LENGTH_UNIT()
NAMED_UNIT(#990)
);
#992=(
LENGTH_UNIT()
NAMED_UNIT(*)
SI_UNIT(.MILLI.,.METRE.)
);
#993=LENGTH_MEASURE_WITH_UNIT(LENGTH_MEASURE(25.4),#992);
#994=(
NAMED_UNIT(*)
PLANE_ANGLE_UNIT()
SI_UNIT($,.RADIAN.)
);
#995=(
NAMED_UNIT(*)
SI_UNIT($,.STERADIAN.)
SOLID_ANGLE_UNIT()
);
#996=SHAPE_DEFINITION_REPRESENTATION(#997,#998);
#997=PRODUCT_DEFINITION_SHAPE('',$,#1000);
#998=SHAPE_REPRESENTATION('',(#566),#988);
#999=PRODUCT_DEFINITION_CONTEXT('part definition',#1004,'design');
#1000=PRODUCT_DEFINITION('Dolly Strap','Dolly Strap v6',#1001,#999);
#1001=PRODUCT_DEFINITION_FORMATION('',$,#1006);
#1002=PRODUCT_RELATED_PRODUCT_CATEGORY('Dolly Strap v6',
'Dolly Strap v6',(#1006));
#1003=APPLICATION_PROTOCOL_DEFINITION('international standard',
'automotive_design',2009,#1004);
#1004=APPLICATION_CONTEXT(
'Core Data for Automotive Mechanical Design Process');
#1005=PRODUCT_CONTEXT('part definition',#1004,'mechanical');
#1006=PRODUCT('Dolly Strap','Dolly Strap v6',$,(#1005));
#1007=PRESENTATION_STYLE_ASSIGNMENT((#1008));
#1008=SURFACE_STYLE_USAGE(.BOTH.,#1009);
#1009=SURFACE_SIDE_STYLE('',(#1010));
#1010=SURFACE_STYLE_FILL_AREA(#1011);
#1011=FILL_AREA_STYLE('Steel - Satin',(#1012));
#1012=FILL_AREA_STYLE_COLOUR('Steel - Satin',#1013);
#1013=COLOUR_RGB('Steel - Satin',0.627450980392157,0.627450980392157,0.627450980392157);
ENDSEC;
END-ISO-10303-21;
