ISO-10303-21;
HEADER;
/* Generated by software containing ST-Developer
 * from STEP Tools, Inc. (www.steptools.com) 
 */

FILE_DESCRIPTION(
/* description */ (''),
/* implementation_level */ '2;1');

FILE_NAME(
/* name */ 'Large.step',
/* time_stamp */ '2026-06-27T15:40:32-04:00',
/* author */ (''),
/* organization */ (''),
/* preprocessor_version */ 'ST-DEVELOPER v20.1',
/* originating_system */ 'Autodesk Translation Framework v15.8.0.0',
/* authorisation */ '');

FILE_SCHEMA (('AUTOMOTIVE_DESIGN { 1 0 10303 214 3 1 1 }'));
ENDSEC;

DATA;
#10=MECHANICAL_DESIGN_GEOMETRIC_PRESENTATION_REPRESENTATION('',(#13,#14,
#15,#16,#17,#18),#1166);
#11=SHAPE_REPRESENTATION_RELATIONSHIP('SRR','None',#1176,#12);
#12=ADVANCED_BREP_SHAPE_REPRESENTATION('',(#19,#20,#21,#22,#23,#24),#1165);
#13=STYLED_ITEM('',(#1185),#19);
#14=STYLED_ITEM('',(#1185),#20);
#15=STYLED_ITEM('',(#1185),#21);
#16=STYLED_ITEM('',(#1185),#22);
#17=STYLED_ITEM('',(#1185),#23);
#18=STYLED_ITEM('',(#1185),#24);
#19=MANIFOLD_SOLID_BREP('Bottom',#721);
#20=MANIFOLD_SOLID_BREP('Top',#722);
#21=MANIFOLD_SOLID_BREP('Body23',#723);
#22=MANIFOLD_SOLID_BREP('Body24',#724);
#23=MANIFOLD_SOLID_BREP('Body25',#725);
#24=MANIFOLD_SOLID_BREP('Body26',#726);
#25=FACE_OUTER_BOUND('',#69,.T.);
#26=FACE_OUTER_BOUND('',#70,.T.);
#27=FACE_OUTER_BOUND('',#71,.T.);
#28=FACE_OUTER_BOUND('',#72,.T.);
#29=FACE_OUTER_BOUND('',#73,.T.);
#30=FACE_OUTER_BOUND('',#74,.T.);
#31=FACE_OUTER_BOUND('',#75,.T.);
#32=FACE_OUTER_BOUND('',#76,.T.);
#33=FACE_OUTER_BOUND('',#77,.T.);
#34=FACE_OUTER_BOUND('',#78,.T.);
#35=FACE_OUTER_BOUND('',#79,.T.);
#36=FACE_OUTER_BOUND('',#80,.T.);
#37=FACE_OUTER_BOUND('',#81,.T.);
#38=FACE_OUTER_BOUND('',#82,.T.);
#39=FACE_OUTER_BOUND('',#83,.T.);
#40=FACE_OUTER_BOUND('',#84,.T.);
#41=FACE_OUTER_BOUND('',#85,.T.);
#42=FACE_OUTER_BOUND('',#86,.T.);
#43=FACE_OUTER_BOUND('',#87,.T.);
#44=FACE_OUTER_BOUND('',#88,.T.);
#45=FACE_OUTER_BOUND('',#89,.T.);
#46=FACE_OUTER_BOUND('',#90,.T.);
#47=FACE_OUTER_BOUND('',#91,.T.);
#48=FACE_OUTER_BOUND('',#92,.T.);
#49=FACE_OUTER_BOUND('',#93,.T.);
#50=FACE_OUTER_BOUND('',#94,.T.);
#51=FACE_OUTER_BOUND('',#95,.T.);
#52=FACE_OUTER_BOUND('',#96,.T.);
#53=FACE_OUTER_BOUND('',#97,.T.);
#54=FACE_OUTER_BOUND('',#98,.T.);
#55=FACE_OUTER_BOUND('',#99,.T.);
#56=FACE_OUTER_BOUND('',#100,.T.);
#57=FACE_OUTER_BOUND('',#101,.T.);
#58=FACE_OUTER_BOUND('',#102,.T.);
#59=FACE_OUTER_BOUND('',#103,.T.);
#60=FACE_OUTER_BOUND('',#104,.T.);
#61=FACE_OUTER_BOUND('',#105,.T.);
#62=FACE_OUTER_BOUND('',#106,.T.);
#63=FACE_OUTER_BOUND('',#107,.T.);
#64=FACE_OUTER_BOUND('',#108,.T.);
#65=FACE_OUTER_BOUND('',#109,.T.);
#66=FACE_OUTER_BOUND('',#110,.T.);
#67=FACE_OUTER_BOUND('',#111,.T.);
#68=FACE_OUTER_BOUND('',#112,.T.);
#69=EDGE_LOOP('',(#449,#450,#451,#452));
#70=EDGE_LOOP('',(#453,#454,#455,#456));
#71=EDGE_LOOP('',(#457,#458,#459,#460));
#72=EDGE_LOOP('',(#461,#462,#463,#464));
#73=EDGE_LOOP('',(#465,#466,#467,#468));
#74=EDGE_LOOP('',(#469,#470,#471,#472));
#75=EDGE_LOOP('',(#473,#474,#475,#476));
#76=EDGE_LOOP('',(#477,#478,#479,#480));
#77=EDGE_LOOP('',(#481,#482,#483,#484));
#78=EDGE_LOOP('',(#485,#486,#487,#488));
#79=EDGE_LOOP('',(#489,#490,#491,#492));
#80=EDGE_LOOP('',(#493,#494,#495,#496));
#81=EDGE_LOOP('',(#497,#498,#499,#500));
#82=EDGE_LOOP('',(#501,#502,#503,#504));
#83=EDGE_LOOP('',(#505,#506,#507,#508));
#84=EDGE_LOOP('',(#509,#510,#511,#512));
#85=EDGE_LOOP('',(#513,#514,#515,#516));
#86=EDGE_LOOP('',(#517,#518,#519,#520,#521));
#87=EDGE_LOOP('',(#522,#523,#524,#525));
#88=EDGE_LOOP('',(#526,#527,#528,#529));
#89=EDGE_LOOP('',(#530,#531,#532,#533,#534));
#90=EDGE_LOOP('',(#535,#536,#537,#538));
#91=EDGE_LOOP('',(#539,#540,#541,#542));
#92=EDGE_LOOP('',(#543,#544,#545,#546));
#93=EDGE_LOOP('',(#547,#548,#549,#550,#551));
#94=EDGE_LOOP('',(#552,#553,#554,#555));
#95=EDGE_LOOP('',(#556,#557,#558,#559));
#96=EDGE_LOOP('',(#560,#561,#562,#563,#564));
#97=EDGE_LOOP('',(#565,#566,#567,#568));
#98=EDGE_LOOP('',(#569,#570,#571,#572));
#99=EDGE_LOOP('',(#573,#574,#575,#576));
#100=EDGE_LOOP('',(#577,#578,#579,#580));
#101=EDGE_LOOP('',(#581,#582,#583,#584,#585));
#102=EDGE_LOOP('',(#586,#587,#588,#589));
#103=EDGE_LOOP('',(#590,#591,#592,#593,#594));
#104=EDGE_LOOP('',(#595,#596,#597,#598));
#105=EDGE_LOOP('',(#599,#600,#601,#602));
#106=EDGE_LOOP('',(#603,#604,#605,#606,#607));
#107=EDGE_LOOP('',(#608,#609,#610,#611));
#108=EDGE_LOOP('',(#612,#613,#614,#615));
#109=EDGE_LOOP('',(#616,#617,#618,#619));
#110=EDGE_LOOP('',(#620,#621,#622,#623,#624));
#111=EDGE_LOOP('',(#625,#626,#627,#628));
#112=EDGE_LOOP('',(#629,#630,#631,#632));
#113=LINE('',#970,#205);
#114=LINE('',#972,#206);
#115=LINE('',#974,#207);
#116=LINE('',#975,#208);
#117=LINE('',#978,#209);
#118=LINE('',#980,#210);
#119=LINE('',#981,#211);
#120=LINE('',#984,#212);
#121=LINE('',#986,#213);
#122=LINE('',#987,#214);
#123=LINE('',#989,#215);
#124=LINE('',#990,#216);
#125=LINE('',#993,#217);
#126=LINE('',#995,#218);
#127=LINE('',#996,#219);
#128=LINE('',#999,#220);
#129=LINE('',#1000,#221);
#130=LINE('',#1004,#222);
#131=LINE('',#1005,#223);
#132=LINE('',#1007,#224);
#133=LINE('',#1012,#225);
#134=LINE('',#1014,#226);
#135=LINE('',#1016,#227);
#136=LINE('',#1017,#228);
#137=LINE('',#1020,#229);
#138=LINE('',#1022,#230);
#139=LINE('',#1023,#231);
#140=LINE('',#1026,#232);
#141=LINE('',#1028,#233);
#142=LINE('',#1029,#234);
#143=LINE('',#1031,#235);
#144=LINE('',#1032,#236);
#145=LINE('',#1038,#237);
#146=LINE('',#1040,#238);
#147=LINE('',#1042,#239);
#148=LINE('',#1043,#240);
#149=LINE('',#1046,#241);
#150=LINE('',#1048,#242);
#151=LINE('',#1050,#243);
#152=LINE('',#1051,#244);
#153=LINE('',#1054,#245);
#154=LINE('',#1055,#246);
#155=LINE('',#1058,#247);
#156=LINE('',#1059,#248);
#157=LINE('',#1062,#249);
#158=LINE('',#1063,#250);
#159=LINE('',#1065,#251);
#160=LINE('',#1070,#252);
#161=LINE('',#1072,#253);
#162=LINE('',#1074,#254);
#163=LINE('',#1075,#255);
#164=LINE('',#1078,#256);
#165=LINE('',#1080,#257);
#166=LINE('',#1082,#258);
#167=LINE('',#1083,#259);
#168=LINE('',#1086,#260);
#169=LINE('',#1087,#261);
#170=LINE('',#1090,#262);
#171=LINE('',#1092,#263);
#172=LINE('',#1093,#264);
#173=LINE('',#1095,#265);
#174=LINE('',#1096,#266);
#175=LINE('',#1102,#267);
#176=LINE('',#1104,#268);
#177=LINE('',#1106,#269);
#178=LINE('',#1107,#270);
#179=LINE('',#1110,#271);
#180=LINE('',#1112,#272);
#181=LINE('',#1113,#273);
#182=LINE('',#1116,#274);
#183=LINE('',#1118,#275);
#184=LINE('',#1119,#276);
#185=LINE('',#1122,#277);
#186=LINE('',#1123,#278);
#187=LINE('',#1126,#279);
#188=LINE('',#1127,#280);
#189=LINE('',#1129,#281);
#190=LINE('',#1134,#282);
#191=LINE('',#1136,#283);
#192=LINE('',#1138,#284);
#193=LINE('',#1140,#285);
#194=LINE('',#1141,#286);
#195=LINE('',#1144,#287);
#196=LINE('',#1146,#288);
#197=LINE('',#1147,#289);
#198=LINE('',#1150,#290);
#199=LINE('',#1151,#291);
#200=LINE('',#1154,#292);
#201=LINE('',#1155,#293);
#202=LINE('',#1158,#294);
#203=LINE('',#1159,#295);
#204=LINE('',#1161,#296);
#205=VECTOR('',#788,0.393700787401575);
#206=VECTOR('',#789,0.393700787401575);
#207=VECTOR('',#790,0.393700787401575);
#208=VECTOR('',#791,0.393700787401575);
#209=VECTOR('',#794,0.393700787401575);
#210=VECTOR('',#795,0.393700787401575);
#211=VECTOR('',#796,0.393700787401575);
#212=VECTOR('',#799,0.393700787401575);
#213=VECTOR('',#800,0.393700787401575);
#214=VECTOR('',#801,0.393700787401575);
#215=VECTOR('',#804,0.393700787401575);
#216=VECTOR('',#805,0.393700787401575);
#217=VECTOR('',#808,0.393700787401575);
#218=VECTOR('',#809,0.393700787401575);
#219=VECTOR('',#810,0.393700787401575);
#220=VECTOR('',#813,0.393700787401575);
#221=VECTOR('',#814,0.393700787401575);
#222=VECTOR('',#819,0.393700787401575);
#223=VECTOR('',#820,0.393700787401575);
#224=VECTOR('',#823,0.393700787401575);
#225=VECTOR('',#828,0.393700787401575);
#226=VECTOR('',#829,0.393700787401575);
#227=VECTOR('',#830,0.393700787401575);
#228=VECTOR('',#831,0.393700787401575);
#229=VECTOR('',#834,0.393700787401575);
#230=VECTOR('',#835,0.393700787401575);
#231=VECTOR('',#836,0.393700787401575);
#232=VECTOR('',#839,0.393700787401575);
#233=VECTOR('',#840,0.393700787401575);
#234=VECTOR('',#841,0.393700787401575);
#235=VECTOR('',#844,0.393700787401575);
#236=VECTOR('',#845,0.393700787401575);
#237=VECTOR('',#852,0.393700787401575);
#238=VECTOR('',#853,0.393700787401575);
#239=VECTOR('',#854,0.393700787401575);
#240=VECTOR('',#855,0.393700787401575);
#241=VECTOR('',#858,0.393700787401575);
#242=VECTOR('',#859,0.393700787401575);
#243=VECTOR('',#860,0.393700787401575);
#244=VECTOR('',#861,0.393700787401575);
#245=VECTOR('',#864,0.393700787401575);
#246=VECTOR('',#865,0.393700787401575);
#247=VECTOR('',#868,0.393700787401575);
#248=VECTOR('',#869,0.393700787401575);
#249=VECTOR('',#872,0.393700787401575);
#250=VECTOR('',#873,0.393700787401575);
#251=VECTOR('',#876,0.393700787401575);
#252=VECTOR('',#881,0.393700787401575);
#253=VECTOR('',#882,0.393700787401575);
#254=VECTOR('',#883,0.393700787401575);
#255=VECTOR('',#884,0.393700787401575);
#256=VECTOR('',#887,0.393700787401575);
#257=VECTOR('',#888,0.393700787401575);
#258=VECTOR('',#889,0.393700787401575);
#259=VECTOR('',#890,0.393700787401575);
#260=VECTOR('',#893,0.393700787401575);
#261=VECTOR('',#894,0.393700787401575);
#262=VECTOR('',#897,0.393700787401575);
#263=VECTOR('',#898,0.393700787401575);
#264=VECTOR('',#899,0.393700787401575);
#265=VECTOR('',#902,0.393700787401575);
#266=VECTOR('',#903,0.393700787401575);
#267=VECTOR('',#910,0.393700787401575);
#268=VECTOR('',#911,0.393700787401575);
#269=VECTOR('',#912,0.393700787401575);
#270=VECTOR('',#913,0.393700787401575);
#271=VECTOR('',#916,0.393700787401575);
#272=VECTOR('',#917,0.393700787401575);
#273=VECTOR('',#918,0.393700787401575);
#274=VECTOR('',#921,0.393700787401575);
#275=VECTOR('',#922,0.393700787401575);
#276=VECTOR('',#923,0.393700787401575);
#277=VECTOR('',#926,0.393700787401575);
#278=VECTOR('',#927,0.393700787401575);
#279=VECTOR('',#930,0.393700787401575);
#280=VECTOR('',#931,0.393700787401575);
#281=VECTOR('',#934,0.393700787401575);
#282=VECTOR('',#939,0.393700787401575);
#283=VECTOR('',#940,0.393700787401575);
#284=VECTOR('',#941,0.393700787401575);
#285=VECTOR('',#942,0.393700787401575);
#286=VECTOR('',#943,0.393700787401575);
#287=VECTOR('',#946,0.393700787401575);
#288=VECTOR('',#947,0.393700787401575);
#289=VECTOR('',#948,0.393700787401575);
#290=VECTOR('',#951,0.393700787401575);
#291=VECTOR('',#952,0.393700787401575);
#292=VECTOR('',#955,0.393700787401575);
#293=VECTOR('',#956,0.393700787401575);
#294=VECTOR('',#959,0.393700787401575);
#295=VECTOR('',#960,0.393700787401575);
#296=VECTOR('',#963,0.393700787401575);
#297=VERTEX_POINT('',#968);
#298=VERTEX_POINT('',#969);
#299=VERTEX_POINT('',#971);
#300=VERTEX_POINT('',#973);
#301=VERTEX_POINT('',#977);
#302=VERTEX_POINT('',#979);
#303=VERTEX_POINT('',#983);
#304=VERTEX_POINT('',#985);
#305=VERTEX_POINT('',#992);
#306=VERTEX_POINT('',#994);
#307=VERTEX_POINT('',#998);
#308=VERTEX_POINT('',#1003);
#309=VERTEX_POINT('',#1010);
#310=VERTEX_POINT('',#1011);
#311=VERTEX_POINT('',#1013);
#312=VERTEX_POINT('',#1015);
#313=VERTEX_POINT('',#1019);
#314=VERTEX_POINT('',#1021);
#315=VERTEX_POINT('',#1025);
#316=VERTEX_POINT('',#1027);
#317=VERTEX_POINT('',#1036);
#318=VERTEX_POINT('',#1037);
#319=VERTEX_POINT('',#1039);
#320=VERTEX_POINT('',#1041);
#321=VERTEX_POINT('',#1045);
#322=VERTEX_POINT('',#1047);
#323=VERTEX_POINT('',#1049);
#324=VERTEX_POINT('',#1053);
#325=VERTEX_POINT('',#1057);
#326=VERTEX_POINT('',#1061);
#327=VERTEX_POINT('',#1068);
#328=VERTEX_POINT('',#1069);
#329=VERTEX_POINT('',#1071);
#330=VERTEX_POINT('',#1073);
#331=VERTEX_POINT('',#1077);
#332=VERTEX_POINT('',#1079);
#333=VERTEX_POINT('',#1081);
#334=VERTEX_POINT('',#1085);
#335=VERTEX_POINT('',#1089);
#336=VERTEX_POINT('',#1091);
#337=VERTEX_POINT('',#1100);
#338=VERTEX_POINT('',#1101);
#339=VERTEX_POINT('',#1103);
#340=VERTEX_POINT('',#1105);
#341=VERTEX_POINT('',#1109);
#342=VERTEX_POINT('',#1111);
#343=VERTEX_POINT('',#1115);
#344=VERTEX_POINT('',#1117);
#345=VERTEX_POINT('',#1121);
#346=VERTEX_POINT('',#1125);
#347=VERTEX_POINT('',#1132);
#348=VERTEX_POINT('',#1133);
#349=VERTEX_POINT('',#1135);
#350=VERTEX_POINT('',#1137);
#351=VERTEX_POINT('',#1139);
#352=VERTEX_POINT('',#1143);
#353=VERTEX_POINT('',#1145);
#354=VERTEX_POINT('',#1149);
#355=VERTEX_POINT('',#1153);
#356=VERTEX_POINT('',#1157);
#357=EDGE_CURVE('',#297,#298,#113,.T.);
#358=EDGE_CURVE('',#298,#299,#114,.T.);
#359=EDGE_CURVE('',#299,#300,#115,.T.);
#360=EDGE_CURVE('',#300,#297,#116,.T.);
#361=EDGE_CURVE('',#301,#299,#117,.T.);
#362=EDGE_CURVE('',#298,#302,#118,.T.);
#363=EDGE_CURVE('',#302,#301,#119,.T.);
#364=EDGE_CURVE('',#303,#301,#120,.T.);
#365=EDGE_CURVE('',#302,#304,#121,.T.);
#366=EDGE_CURVE('',#303,#304,#122,.T.);
#367=EDGE_CURVE('',#304,#297,#123,.T.);
#368=EDGE_CURVE('',#300,#303,#124,.T.);
#369=EDGE_CURVE('',#305,#298,#125,.T.);
#370=EDGE_CURVE('',#306,#305,#126,.T.);
#371=EDGE_CURVE('',#302,#306,#127,.T.);
#372=EDGE_CURVE('',#297,#307,#128,.T.);
#373=EDGE_CURVE('',#305,#307,#129,.T.);
#374=EDGE_CURVE('',#308,#304,#130,.T.);
#375=EDGE_CURVE('',#307,#308,#131,.T.);
#376=EDGE_CURVE('',#308,#306,#132,.T.);
#377=EDGE_CURVE('',#309,#310,#133,.T.);
#378=EDGE_CURVE('',#311,#309,#134,.T.);
#379=EDGE_CURVE('',#311,#312,#135,.T.);
#380=EDGE_CURVE('',#312,#310,#136,.T.);
#381=EDGE_CURVE('',#313,#309,#137,.T.);
#382=EDGE_CURVE('',#314,#313,#138,.T.);
#383=EDGE_CURVE('',#314,#311,#139,.T.);
#384=EDGE_CURVE('',#315,#313,#140,.T.);
#385=EDGE_CURVE('',#316,#315,#141,.T.);
#386=EDGE_CURVE('',#314,#316,#142,.T.);
#387=EDGE_CURVE('',#310,#315,#143,.T.);
#388=EDGE_CURVE('',#316,#312,#144,.T.);
#389=EDGE_CURVE('',#317,#318,#145,.T.);
#390=EDGE_CURVE('',#318,#319,#146,.T.);
#391=EDGE_CURVE('',#319,#320,#147,.T.);
#392=EDGE_CURVE('',#320,#317,#148,.T.);
#393=EDGE_CURVE('',#321,#319,#149,.T.);
#394=EDGE_CURVE('',#321,#322,#150,.T.);
#395=EDGE_CURVE('',#322,#323,#151,.T.);
#396=EDGE_CURVE('',#323,#320,#152,.T.);
#397=EDGE_CURVE('',#318,#324,#153,.T.);
#398=EDGE_CURVE('',#324,#321,#154,.T.);
#399=EDGE_CURVE('',#323,#325,#155,.T.);
#400=EDGE_CURVE('',#317,#325,#156,.T.);
#401=EDGE_CURVE('',#325,#326,#157,.T.);
#402=EDGE_CURVE('',#326,#324,#158,.T.);
#403=EDGE_CURVE('',#322,#326,#159,.T.);
#404=EDGE_CURVE('',#327,#328,#160,.T.);
#405=EDGE_CURVE('',#328,#329,#161,.T.);
#406=EDGE_CURVE('',#329,#330,#162,.T.);
#407=EDGE_CURVE('',#330,#327,#163,.T.);
#408=EDGE_CURVE('',#331,#329,#164,.T.);
#409=EDGE_CURVE('',#331,#332,#165,.T.);
#410=EDGE_CURVE('',#332,#333,#166,.T.);
#411=EDGE_CURVE('',#333,#330,#167,.T.);
#412=EDGE_CURVE('',#328,#334,#168,.T.);
#413=EDGE_CURVE('',#334,#331,#169,.T.);
#414=EDGE_CURVE('',#332,#335,#170,.T.);
#415=EDGE_CURVE('',#336,#335,#171,.T.);
#416=EDGE_CURVE('',#336,#333,#172,.T.);
#417=EDGE_CURVE('',#327,#336,#173,.T.);
#418=EDGE_CURVE('',#335,#334,#174,.T.);
#419=EDGE_CURVE('',#337,#338,#175,.T.);
#420=EDGE_CURVE('',#338,#339,#176,.T.);
#421=EDGE_CURVE('',#339,#340,#177,.T.);
#422=EDGE_CURVE('',#340,#337,#178,.T.);
#423=EDGE_CURVE('',#338,#341,#179,.T.);
#424=EDGE_CURVE('',#341,#342,#180,.T.);
#425=EDGE_CURVE('',#342,#339,#181,.T.);
#426=EDGE_CURVE('',#343,#337,#182,.T.);
#427=EDGE_CURVE('',#344,#343,#183,.T.);
#428=EDGE_CURVE('',#341,#344,#184,.T.);
#429=EDGE_CURVE('',#340,#345,#185,.T.);
#430=EDGE_CURVE('',#343,#345,#186,.T.);
#431=EDGE_CURVE('',#346,#342,#187,.T.);
#432=EDGE_CURVE('',#345,#346,#188,.T.);
#433=EDGE_CURVE('',#346,#344,#189,.T.);
#434=EDGE_CURVE('',#347,#348,#190,.T.);
#435=EDGE_CURVE('',#349,#347,#191,.T.);
#436=EDGE_CURVE('',#350,#349,#192,.T.);
#437=EDGE_CURVE('',#351,#350,#193,.T.);
#438=EDGE_CURVE('',#348,#351,#194,.T.);
#439=EDGE_CURVE('',#348,#352,#195,.T.);
#440=EDGE_CURVE('',#351,#353,#196,.T.);
#441=EDGE_CURVE('',#353,#352,#197,.T.);
#442=EDGE_CURVE('',#354,#350,#198,.T.);
#443=EDGE_CURVE('',#354,#353,#199,.T.);
#444=EDGE_CURVE('',#349,#355,#200,.T.);
#445=EDGE_CURVE('',#355,#354,#201,.T.);
#446=EDGE_CURVE('',#352,#356,#202,.T.);
#447=EDGE_CURVE('',#355,#356,#203,.T.);
#448=EDGE_CURVE('',#356,#347,#204,.T.);
#449=ORIENTED_EDGE('',*,*,#357,.T.);
#450=ORIENTED_EDGE('',*,*,#358,.T.);
#451=ORIENTED_EDGE('',*,*,#359,.T.);
#452=ORIENTED_EDGE('',*,*,#360,.T.);
#453=ORIENTED_EDGE('',*,*,#361,.T.);
#454=ORIENTED_EDGE('',*,*,#358,.F.);
#455=ORIENTED_EDGE('',*,*,#362,.T.);
#456=ORIENTED_EDGE('',*,*,#363,.T.);
#457=ORIENTED_EDGE('',*,*,#364,.T.);
#458=ORIENTED_EDGE('',*,*,#363,.F.);
#459=ORIENTED_EDGE('',*,*,#365,.T.);
#460=ORIENTED_EDGE('',*,*,#366,.F.);
#461=ORIENTED_EDGE('',*,*,#367,.T.);
#462=ORIENTED_EDGE('',*,*,#360,.F.);
#463=ORIENTED_EDGE('',*,*,#368,.T.);
#464=ORIENTED_EDGE('',*,*,#366,.T.);
#465=ORIENTED_EDGE('',*,*,#362,.F.);
#466=ORIENTED_EDGE('',*,*,#369,.F.);
#467=ORIENTED_EDGE('',*,*,#370,.F.);
#468=ORIENTED_EDGE('',*,*,#371,.F.);
#469=ORIENTED_EDGE('',*,*,#357,.F.);
#470=ORIENTED_EDGE('',*,*,#372,.T.);
#471=ORIENTED_EDGE('',*,*,#373,.F.);
#472=ORIENTED_EDGE('',*,*,#369,.T.);
#473=ORIENTED_EDGE('',*,*,#359,.F.);
#474=ORIENTED_EDGE('',*,*,#361,.F.);
#475=ORIENTED_EDGE('',*,*,#364,.F.);
#476=ORIENTED_EDGE('',*,*,#368,.F.);
#477=ORIENTED_EDGE('',*,*,#367,.F.);
#478=ORIENTED_EDGE('',*,*,#374,.F.);
#479=ORIENTED_EDGE('',*,*,#375,.F.);
#480=ORIENTED_EDGE('',*,*,#372,.F.);
#481=ORIENTED_EDGE('',*,*,#376,.T.);
#482=ORIENTED_EDGE('',*,*,#370,.T.);
#483=ORIENTED_EDGE('',*,*,#373,.T.);
#484=ORIENTED_EDGE('',*,*,#375,.T.);
#485=ORIENTED_EDGE('',*,*,#365,.F.);
#486=ORIENTED_EDGE('',*,*,#371,.T.);
#487=ORIENTED_EDGE('',*,*,#376,.F.);
#488=ORIENTED_EDGE('',*,*,#374,.T.);
#489=ORIENTED_EDGE('',*,*,#377,.F.);
#490=ORIENTED_EDGE('',*,*,#378,.F.);
#491=ORIENTED_EDGE('',*,*,#379,.T.);
#492=ORIENTED_EDGE('',*,*,#380,.T.);
#493=ORIENTED_EDGE('',*,*,#381,.F.);
#494=ORIENTED_EDGE('',*,*,#382,.F.);
#495=ORIENTED_EDGE('',*,*,#383,.T.);
#496=ORIENTED_EDGE('',*,*,#378,.T.);
#497=ORIENTED_EDGE('',*,*,#384,.F.);
#498=ORIENTED_EDGE('',*,*,#385,.F.);
#499=ORIENTED_EDGE('',*,*,#386,.F.);
#500=ORIENTED_EDGE('',*,*,#382,.T.);
#501=ORIENTED_EDGE('',*,*,#387,.F.);
#502=ORIENTED_EDGE('',*,*,#380,.F.);
#503=ORIENTED_EDGE('',*,*,#388,.F.);
#504=ORIENTED_EDGE('',*,*,#385,.T.);
#505=ORIENTED_EDGE('',*,*,#379,.F.);
#506=ORIENTED_EDGE('',*,*,#383,.F.);
#507=ORIENTED_EDGE('',*,*,#386,.T.);
#508=ORIENTED_EDGE('',*,*,#388,.T.);
#509=ORIENTED_EDGE('',*,*,#381,.T.);
#510=ORIENTED_EDGE('',*,*,#377,.T.);
#511=ORIENTED_EDGE('',*,*,#387,.T.);
#512=ORIENTED_EDGE('',*,*,#384,.T.);
#513=ORIENTED_EDGE('',*,*,#389,.T.);
#514=ORIENTED_EDGE('',*,*,#390,.T.);
#515=ORIENTED_EDGE('',*,*,#391,.T.);
#516=ORIENTED_EDGE('',*,*,#392,.T.);
#517=ORIENTED_EDGE('',*,*,#391,.F.);
#518=ORIENTED_EDGE('',*,*,#393,.F.);
#519=ORIENTED_EDGE('',*,*,#394,.T.);
#520=ORIENTED_EDGE('',*,*,#395,.T.);
#521=ORIENTED_EDGE('',*,*,#396,.T.);
#522=ORIENTED_EDGE('',*,*,#390,.F.);
#523=ORIENTED_EDGE('',*,*,#397,.T.);
#524=ORIENTED_EDGE('',*,*,#398,.T.);
#525=ORIENTED_EDGE('',*,*,#393,.T.);
#526=ORIENTED_EDGE('',*,*,#392,.F.);
#527=ORIENTED_EDGE('',*,*,#396,.F.);
#528=ORIENTED_EDGE('',*,*,#399,.T.);
#529=ORIENTED_EDGE('',*,*,#400,.F.);
#530=ORIENTED_EDGE('',*,*,#389,.F.);
#531=ORIENTED_EDGE('',*,*,#400,.T.);
#532=ORIENTED_EDGE('',*,*,#401,.T.);
#533=ORIENTED_EDGE('',*,*,#402,.T.);
#534=ORIENTED_EDGE('',*,*,#397,.F.);
#535=ORIENTED_EDGE('',*,*,#403,.T.);
#536=ORIENTED_EDGE('',*,*,#401,.F.);
#537=ORIENTED_EDGE('',*,*,#399,.F.);
#538=ORIENTED_EDGE('',*,*,#395,.F.);
#539=ORIENTED_EDGE('',*,*,#398,.F.);
#540=ORIENTED_EDGE('',*,*,#402,.F.);
#541=ORIENTED_EDGE('',*,*,#403,.F.);
#542=ORIENTED_EDGE('',*,*,#394,.F.);
#543=ORIENTED_EDGE('',*,*,#404,.T.);
#544=ORIENTED_EDGE('',*,*,#405,.T.);
#545=ORIENTED_EDGE('',*,*,#406,.T.);
#546=ORIENTED_EDGE('',*,*,#407,.T.);
#547=ORIENTED_EDGE('',*,*,#406,.F.);
#548=ORIENTED_EDGE('',*,*,#408,.F.);
#549=ORIENTED_EDGE('',*,*,#409,.T.);
#550=ORIENTED_EDGE('',*,*,#410,.T.);
#551=ORIENTED_EDGE('',*,*,#411,.T.);
#552=ORIENTED_EDGE('',*,*,#405,.F.);
#553=ORIENTED_EDGE('',*,*,#412,.T.);
#554=ORIENTED_EDGE('',*,*,#413,.T.);
#555=ORIENTED_EDGE('',*,*,#408,.T.);
#556=ORIENTED_EDGE('',*,*,#414,.T.);
#557=ORIENTED_EDGE('',*,*,#415,.F.);
#558=ORIENTED_EDGE('',*,*,#416,.T.);
#559=ORIENTED_EDGE('',*,*,#410,.F.);
#560=ORIENTED_EDGE('',*,*,#404,.F.);
#561=ORIENTED_EDGE('',*,*,#417,.T.);
#562=ORIENTED_EDGE('',*,*,#415,.T.);
#563=ORIENTED_EDGE('',*,*,#418,.T.);
#564=ORIENTED_EDGE('',*,*,#412,.F.);
#565=ORIENTED_EDGE('',*,*,#407,.F.);
#566=ORIENTED_EDGE('',*,*,#411,.F.);
#567=ORIENTED_EDGE('',*,*,#416,.F.);
#568=ORIENTED_EDGE('',*,*,#417,.F.);
#569=ORIENTED_EDGE('',*,*,#413,.F.);
#570=ORIENTED_EDGE('',*,*,#418,.F.);
#571=ORIENTED_EDGE('',*,*,#414,.F.);
#572=ORIENTED_EDGE('',*,*,#409,.F.);
#573=ORIENTED_EDGE('',*,*,#419,.T.);
#574=ORIENTED_EDGE('',*,*,#420,.T.);
#575=ORIENTED_EDGE('',*,*,#421,.T.);
#576=ORIENTED_EDGE('',*,*,#422,.T.);
#577=ORIENTED_EDGE('',*,*,#420,.F.);
#578=ORIENTED_EDGE('',*,*,#423,.T.);
#579=ORIENTED_EDGE('',*,*,#424,.T.);
#580=ORIENTED_EDGE('',*,*,#425,.T.);
#581=ORIENTED_EDGE('',*,*,#419,.F.);
#582=ORIENTED_EDGE('',*,*,#426,.F.);
#583=ORIENTED_EDGE('',*,*,#427,.F.);
#584=ORIENTED_EDGE('',*,*,#428,.F.);
#585=ORIENTED_EDGE('',*,*,#423,.F.);
#586=ORIENTED_EDGE('',*,*,#422,.F.);
#587=ORIENTED_EDGE('',*,*,#429,.T.);
#588=ORIENTED_EDGE('',*,*,#430,.F.);
#589=ORIENTED_EDGE('',*,*,#426,.T.);
#590=ORIENTED_EDGE('',*,*,#421,.F.);
#591=ORIENTED_EDGE('',*,*,#425,.F.);
#592=ORIENTED_EDGE('',*,*,#431,.F.);
#593=ORIENTED_EDGE('',*,*,#432,.F.);
#594=ORIENTED_EDGE('',*,*,#429,.F.);
#595=ORIENTED_EDGE('',*,*,#427,.T.);
#596=ORIENTED_EDGE('',*,*,#430,.T.);
#597=ORIENTED_EDGE('',*,*,#432,.T.);
#598=ORIENTED_EDGE('',*,*,#433,.T.);
#599=ORIENTED_EDGE('',*,*,#428,.T.);
#600=ORIENTED_EDGE('',*,*,#433,.F.);
#601=ORIENTED_EDGE('',*,*,#431,.T.);
#602=ORIENTED_EDGE('',*,*,#424,.F.);
#603=ORIENTED_EDGE('',*,*,#434,.F.);
#604=ORIENTED_EDGE('',*,*,#435,.F.);
#605=ORIENTED_EDGE('',*,*,#436,.F.);
#606=ORIENTED_EDGE('',*,*,#437,.F.);
#607=ORIENTED_EDGE('',*,*,#438,.F.);
#608=ORIENTED_EDGE('',*,*,#439,.F.);
#609=ORIENTED_EDGE('',*,*,#438,.T.);
#610=ORIENTED_EDGE('',*,*,#440,.T.);
#611=ORIENTED_EDGE('',*,*,#441,.T.);
#612=ORIENTED_EDGE('',*,*,#442,.F.);
#613=ORIENTED_EDGE('',*,*,#443,.T.);
#614=ORIENTED_EDGE('',*,*,#440,.F.);
#615=ORIENTED_EDGE('',*,*,#437,.T.);
#616=ORIENTED_EDGE('',*,*,#436,.T.);
#617=ORIENTED_EDGE('',*,*,#444,.T.);
#618=ORIENTED_EDGE('',*,*,#445,.T.);
#619=ORIENTED_EDGE('',*,*,#442,.T.);
#620=ORIENTED_EDGE('',*,*,#446,.F.);
#621=ORIENTED_EDGE('',*,*,#441,.F.);
#622=ORIENTED_EDGE('',*,*,#443,.F.);
#623=ORIENTED_EDGE('',*,*,#445,.F.);
#624=ORIENTED_EDGE('',*,*,#447,.T.);
#625=ORIENTED_EDGE('',*,*,#448,.F.);
#626=ORIENTED_EDGE('',*,*,#447,.F.);
#627=ORIENTED_EDGE('',*,*,#444,.F.);
#628=ORIENTED_EDGE('',*,*,#435,.T.);
#629=ORIENTED_EDGE('',*,*,#446,.T.);
#630=ORIENTED_EDGE('',*,*,#448,.T.);
#631=ORIENTED_EDGE('',*,*,#434,.T.);
#632=ORIENTED_EDGE('',*,*,#439,.T.);
#633=PLANE('',#740);
#634=PLANE('',#741);
#635=PLANE('',#742);
#636=PLANE('',#743);
#637=PLANE('',#744);
#638=PLANE('',#745);
#639=PLANE('',#746);
#640=PLANE('',#747);
#641=PLANE('',#748);
#642=PLANE('',#749);
#643=PLANE('',#750);
#644=PLANE('',#751);
#645=PLANE('',#752);
#646=PLANE('',#753);
#647=PLANE('',#754);
#648=PLANE('',#755);
#649=PLANE('',#756);
#650=PLANE('',#757);
#651=PLANE('',#758);
#652=PLANE('',#759);
#653=PLANE('',#760);
#654=PLANE('',#761);
#655=PLANE('',#762);
#656=PLANE('',#763);
#657=PLANE('',#764);
#658=PLANE('',#765);
#659=PLANE('',#766);
#660=PLANE('',#767);
#661=PLANE('',#768);
#662=PLANE('',#769);
#663=PLANE('',#770);
#664=PLANE('',#771);
#665=PLANE('',#772);
#666=PLANE('',#773);
#667=PLANE('',#774);
#668=PLANE('',#775);
#669=PLANE('',#776);
#670=PLANE('',#777);
#671=PLANE('',#778);
#672=PLANE('',#779);
#673=PLANE('',#780);
#674=PLANE('',#781);
#675=PLANE('',#782);
#676=PLANE('',#783);
#677=ADVANCED_FACE('',(#25),#633,.T.);
#678=ADVANCED_FACE('',(#26),#634,.T.);
#679=ADVANCED_FACE('',(#27),#635,.T.);
#680=ADVANCED_FACE('',(#28),#636,.T.);
#681=ADVANCED_FACE('',(#29),#637,.T.);
#682=ADVANCED_FACE('',(#30),#638,.F.);
#683=ADVANCED_FACE('',(#31),#639,.T.);
#684=ADVANCED_FACE('',(#32),#640,.T.);
#685=ADVANCED_FACE('',(#33),#641,.T.);
#686=ADVANCED_FACE('',(#34),#642,.T.);
#687=ADVANCED_FACE('',(#35),#643,.T.);
#688=ADVANCED_FACE('',(#36),#644,.T.);
#689=ADVANCED_FACE('',(#37),#645,.T.);
#690=ADVANCED_FACE('',(#38),#646,.T.);
#691=ADVANCED_FACE('',(#39),#647,.F.);
#692=ADVANCED_FACE('',(#40),#648,.F.);
#693=ADVANCED_FACE('',(#41),#649,.T.);
#694=ADVANCED_FACE('',(#42),#650,.F.);
#695=ADVANCED_FACE('',(#43),#651,.T.);
#696=ADVANCED_FACE('',(#44),#652,.T.);
#697=ADVANCED_FACE('',(#45),#653,.T.);
#698=ADVANCED_FACE('',(#46),#654,.T.);
#699=ADVANCED_FACE('',(#47),#655,.F.);
#700=ADVANCED_FACE('',(#48),#656,.T.);
#701=ADVANCED_FACE('',(#49),#657,.T.);
#702=ADVANCED_FACE('',(#50),#658,.T.);
#703=ADVANCED_FACE('',(#51),#659,.T.);
#704=ADVANCED_FACE('',(#52),#660,.F.);
#705=ADVANCED_FACE('',(#53),#661,.T.);
#706=ADVANCED_FACE('',(#54),#662,.F.);
#707=ADVANCED_FACE('',(#55),#663,.T.);
#708=ADVANCED_FACE('',(#56),#664,.F.);
#709=ADVANCED_FACE('',(#57),#665,.F.);
#710=ADVANCED_FACE('',(#58),#666,.T.);
#711=ADVANCED_FACE('',(#59),#667,.F.);
#712=ADVANCED_FACE('',(#60),#668,.T.);
#713=ADVANCED_FACE('',(#61),#669,.F.);
#714=ADVANCED_FACE('',(#62),#670,.F.);
#715=ADVANCED_FACE('',(#63),#671,.F.);
#716=ADVANCED_FACE('',(#64),#672,.T.);
#717=ADVANCED_FACE('',(#65),#673,.T.);
#718=ADVANCED_FACE('',(#66),#674,.F.);
#719=ADVANCED_FACE('',(#67),#675,.T.);
#720=ADVANCED_FACE('',(#68),#676,.T.);
#721=CLOSED_SHELL('',(#677,#678,#679,#680,#681,#682,#683,#684,#685,#686));
#722=CLOSED_SHELL('',(#687,#688,#689,#690,#691,#692));
#723=CLOSED_SHELL('',(#693,#694,#695,#696,#697,#698,#699));
#724=CLOSED_SHELL('',(#700,#701,#702,#703,#704,#705,#706));
#725=CLOSED_SHELL('',(#707,#708,#709,#710,#711,#712,#713));
#726=CLOSED_SHELL('',(#714,#715,#716,#717,#718,#719,#720));
#727=DERIVED_UNIT_ELEMENT(#729,1.);
#728=DERIVED_UNIT_ELEMENT(#1170,-3.);
#729=(
MASS_UNIT()
NAMED_UNIT(*)
SI_UNIT(.KILO.,.GRAM.)
);
#730=DERIVED_UNIT((#727,#728));
#731=MEASURE_REPRESENTATION_ITEM('density measure',
POSITIVE_RATIO_MEASURE(7850.),#730);
#732=PROPERTY_DEFINITION_REPRESENTATION(#737,#734);
#733=PROPERTY_DEFINITION_REPRESENTATION(#738,#735);
#734=REPRESENTATION('material name',(#736),#1165);
#735=REPRESENTATION('density',(#731),#1165);
#736=DESCRIPTIVE_REPRESENTATION_ITEM('Steel','Steel');
#737=PROPERTY_DEFINITION('material property','material name',#1178);
#738=PROPERTY_DEFINITION('material property','density of part',#1178);
#739=AXIS2_PLACEMENT_3D('',#966,#784,#785);
#740=AXIS2_PLACEMENT_3D('',#967,#786,#787);
#741=AXIS2_PLACEMENT_3D('',#976,#792,#793);
#742=AXIS2_PLACEMENT_3D('',#982,#797,#798);
#743=AXIS2_PLACEMENT_3D('',#988,#802,#803);
#744=AXIS2_PLACEMENT_3D('',#991,#806,#807);
#745=AXIS2_PLACEMENT_3D('',#997,#811,#812);
#746=AXIS2_PLACEMENT_3D('',#1001,#815,#816);
#747=AXIS2_PLACEMENT_3D('',#1002,#817,#818);
#748=AXIS2_PLACEMENT_3D('',#1006,#821,#822);
#749=AXIS2_PLACEMENT_3D('',#1008,#824,#825);
#750=AXIS2_PLACEMENT_3D('',#1009,#826,#827);
#751=AXIS2_PLACEMENT_3D('',#1018,#832,#833);
#752=AXIS2_PLACEMENT_3D('',#1024,#837,#838);
#753=AXIS2_PLACEMENT_3D('',#1030,#842,#843);
#754=AXIS2_PLACEMENT_3D('',#1033,#846,#847);
#755=AXIS2_PLACEMENT_3D('',#1034,#848,#849);
#756=AXIS2_PLACEMENT_3D('',#1035,#850,#851);
#757=AXIS2_PLACEMENT_3D('',#1044,#856,#857);
#758=AXIS2_PLACEMENT_3D('',#1052,#862,#863);
#759=AXIS2_PLACEMENT_3D('',#1056,#866,#867);
#760=AXIS2_PLACEMENT_3D('',#1060,#870,#871);
#761=AXIS2_PLACEMENT_3D('',#1064,#874,#875);
#762=AXIS2_PLACEMENT_3D('',#1066,#877,#878);
#763=AXIS2_PLACEMENT_3D('',#1067,#879,#880);
#764=AXIS2_PLACEMENT_3D('',#1076,#885,#886);
#765=AXIS2_PLACEMENT_3D('',#1084,#891,#892);
#766=AXIS2_PLACEMENT_3D('',#1088,#895,#896);
#767=AXIS2_PLACEMENT_3D('',#1094,#900,#901);
#768=AXIS2_PLACEMENT_3D('',#1097,#904,#905);
#769=AXIS2_PLACEMENT_3D('',#1098,#906,#907);
#770=AXIS2_PLACEMENT_3D('',#1099,#908,#909);
#771=AXIS2_PLACEMENT_3D('',#1108,#914,#915);
#772=AXIS2_PLACEMENT_3D('',#1114,#919,#920);
#773=AXIS2_PLACEMENT_3D('',#1120,#924,#925);
#774=AXIS2_PLACEMENT_3D('',#1124,#928,#929);
#775=AXIS2_PLACEMENT_3D('',#1128,#932,#933);
#776=AXIS2_PLACEMENT_3D('',#1130,#935,#936);
#777=AXIS2_PLACEMENT_3D('',#1131,#937,#938);
#778=AXIS2_PLACEMENT_3D('',#1142,#944,#945);
#779=AXIS2_PLACEMENT_3D('',#1148,#949,#950);
#780=AXIS2_PLACEMENT_3D('',#1152,#953,#954);
#781=AXIS2_PLACEMENT_3D('',#1156,#957,#958);
#782=AXIS2_PLACEMENT_3D('',#1160,#961,#962);
#783=AXIS2_PLACEMENT_3D('',#1162,#964,#965);
#784=DIRECTION('axis',(0.,0.,1.));
#785=DIRECTION('refdir',(1.,0.,0.));
#786=DIRECTION('center_axis',(0.,-0.707106781186548,-0.707106781186547));
#787=DIRECTION('ref_axis',(-1.,0.,0.));
#788=DIRECTION('',(-1.,0.,0.));
#789=DIRECTION('',(0.577350269189626,0.577350269189626,-0.577350269189625));
#790=DIRECTION('',(1.,0.,0.));
#791=DIRECTION('',(0.577350269189626,-0.577350269189626,0.577350269189626));
#792=DIRECTION('center_axis',(-0.707106781186548,0.,-0.707106781186548));
#793=DIRECTION('ref_axis',(-0.707106781186548,0.,0.707106781186548));
#794=DIRECTION('',(0.,-1.,0.));
#795=DIRECTION('',(0.,1.,0.));
#796=DIRECTION('',(0.577350269189626,-0.577350269189626,-0.577350269189626));
#797=DIRECTION('center_axis',(0.,0.707106781186548,-0.707106781186547));
#798=DIRECTION('ref_axis',(-1.,0.,0.));
#799=DIRECTION('',(-1.,0.,0.));
#800=DIRECTION('',(1.,0.,0.));
#801=DIRECTION('',(0.577350269189626,0.577350269189626,0.577350269189626));
#802=DIRECTION('center_axis',(0.707106781186548,0.,-0.707106781186548));
#803=DIRECTION('ref_axis',(-0.707106781186548,0.,-0.707106781186548));
#804=DIRECTION('',(0.,-1.,0.));
#805=DIRECTION('',(0.,1.,0.));
#806=DIRECTION('center_axis',(-1.,0.,0.));
#807=DIRECTION('ref_axis',(0.,0.,1.));
#808=DIRECTION('',(-1.40740628414947E-33,0.,-1.));
#809=DIRECTION('',(0.,-1.,0.));
#810=DIRECTION('',(0.,0.,1.));
#811=DIRECTION('center_axis',(0.,1.,0.));
#812=DIRECTION('ref_axis',(1.,0.,0.));
#813=DIRECTION('',(0.,0.,1.));
#814=DIRECTION('',(1.,0.,0.));
#815=DIRECTION('center_axis',(0.,0.,-1.));
#816=DIRECTION('ref_axis',(-1.,0.,0.));
#817=DIRECTION('center_axis',(1.,0.,0.));
#818=DIRECTION('ref_axis',(0.,0.,-1.));
#819=DIRECTION('',(0.,0.,-1.));
#820=DIRECTION('',(0.,1.,0.));
#821=DIRECTION('center_axis',(0.,0.,1.));
#822=DIRECTION('ref_axis',(1.,0.,0.));
#823=DIRECTION('',(-1.,0.,0.));
#824=DIRECTION('center_axis',(0.,1.,0.));
#825=DIRECTION('ref_axis',(0.,0.,1.));
#826=DIRECTION('center_axis',(1.,0.,0.));
#827=DIRECTION('ref_axis',(0.,0.,-1.));
#828=DIRECTION('',(0.,0.,-1.));
#829=DIRECTION('',(0.,1.,0.));
#830=DIRECTION('',(0.,0.,-1.));
#831=DIRECTION('',(0.,1.,0.));
#832=DIRECTION('center_axis',(0.,0.,1.));
#833=DIRECTION('ref_axis',(1.,0.,0.));
#834=DIRECTION('',(1.,0.,0.));
#835=DIRECTION('',(0.,1.,0.));
#836=DIRECTION('',(1.,0.,0.));
#837=DIRECTION('center_axis',(-1.,0.,-2.11279813895148E-17));
#838=DIRECTION('ref_axis',(-2.11279813895148E-17,0.,1.));
#839=DIRECTION('',(-2.11279813895148E-17,0.,1.));
#840=DIRECTION('',(0.,1.,0.));
#841=DIRECTION('',(2.11279813895148E-17,0.,-1.));
#842=DIRECTION('center_axis',(0.,0.,-1.));
#843=DIRECTION('ref_axis',(-1.,0.,0.));
#844=DIRECTION('',(-1.,0.,0.));
#845=DIRECTION('',(1.,0.,0.));
#846=DIRECTION('center_axis',(0.,1.,0.));
#847=DIRECTION('ref_axis',(-1.,0.,0.));
#848=DIRECTION('center_axis',(0.,-1.,0.));
#849=DIRECTION('ref_axis',(0.,0.,-1.));
#850=DIRECTION('center_axis',(-0.707106781186548,0.,0.707106781186548));
#851=DIRECTION('ref_axis',(0.707106781186548,0.,0.707106781186548));
#852=DIRECTION('',(-0.707106781186548,0.,-0.707106781186548));
#853=DIRECTION('',(0.,-1.,0.));
#854=DIRECTION('',(0.707106781186548,0.,0.707106781186548));
#855=DIRECTION('',(0.,1.,0.));
#856=DIRECTION('center_axis',(0.,1.,0.));
#857=DIRECTION('ref_axis',(1.,0.,0.));
#858=DIRECTION('',(0.,0.,1.));
#859=DIRECTION('',(1.,0.,0.));
#860=DIRECTION('',(0.,0.,1.));
#861=DIRECTION('',(-1.,0.,0.));
#862=DIRECTION('center_axis',(-1.,0.,0.));
#863=DIRECTION('ref_axis',(0.,0.,1.));
#864=DIRECTION('',(0.,0.,-1.));
#865=DIRECTION('',(0.,-1.,0.));
#866=DIRECTION('center_axis',(0.,0.,1.));
#867=DIRECTION('ref_axis',(1.,0.,0.));
#868=DIRECTION('',(0.,1.,0.));
#869=DIRECTION('',(1.,0.,0.));
#870=DIRECTION('center_axis',(0.,1.,0.));
#871=DIRECTION('ref_axis',(0.,0.,1.));
#872=DIRECTION('',(0.,0.,-1.));
#873=DIRECTION('',(-1.,0.,0.));
#874=DIRECTION('center_axis',(1.,0.,0.));
#875=DIRECTION('ref_axis',(0.,0.,-1.));
#876=DIRECTION('',(0.,1.,0.));
#877=DIRECTION('center_axis',(0.,0.,1.));
#878=DIRECTION('ref_axis',(1.,0.,0.));
#879=DIRECTION('center_axis',(0.707106781186547,0.,0.707106781186548));
#880=DIRECTION('ref_axis',(0.707106781186548,0.,-0.707106781186547));
#881=DIRECTION('',(0.707106781186548,0.,-0.707106781186547));
#882=DIRECTION('',(0.,1.,0.));
#883=DIRECTION('',(-0.707106781186548,0.,0.707106781186547));
#884=DIRECTION('',(0.,-1.,0.));
#885=DIRECTION('center_axis',(0.,1.,0.));
#886=DIRECTION('ref_axis',(0.,0.,1.));
#887=DIRECTION('',(0.,0.,1.));
#888=DIRECTION('',(-1.,0.,0.));
#889=DIRECTION('',(0.,0.,1.));
#890=DIRECTION('',(1.,0.,0.));
#891=DIRECTION('center_axis',(1.,0.,0.));
#892=DIRECTION('ref_axis',(0.,0.,-1.));
#893=DIRECTION('',(0.,0.,-1.));
#894=DIRECTION('',(0.,1.,0.));
#895=DIRECTION('center_axis',(-1.,0.,0.));
#896=DIRECTION('ref_axis',(0.,0.,1.));
#897=DIRECTION('',(0.,-1.,0.));
#898=DIRECTION('',(-1.40740628414947E-33,0.,-1.));
#899=DIRECTION('',(0.,1.,0.));
#900=DIRECTION('center_axis',(0.,1.,0.));
#901=DIRECTION('ref_axis',(1.,0.,0.));
#902=DIRECTION('',(-1.,0.,0.));
#903=DIRECTION('',(1.,0.,0.));
#904=DIRECTION('center_axis',(0.,0.,1.));
#905=DIRECTION('ref_axis',(1.,0.,0.));
#906=DIRECTION('center_axis',(0.,0.,1.));
#907=DIRECTION('ref_axis',(1.,0.,0.));
#908=DIRECTION('center_axis',(0.,-0.707106781186548,0.707106781186548));
#909=DIRECTION('ref_axis',(1.,0.,0.));
#910=DIRECTION('',(0.,-0.707106781186548,-0.707106781186548));
#911=DIRECTION('',(1.,0.,0.));
#912=DIRECTION('',(0.,0.707106781186548,0.707106781186548));
#913=DIRECTION('',(-1.,0.,0.));
#914=DIRECTION('center_axis',(0.,1.,0.));
#915=DIRECTION('ref_axis',(-1.,0.,0.));
#916=DIRECTION('',(0.,0.,-1.));
#917=DIRECTION('',(1.,0.,0.));
#918=DIRECTION('',(0.,0.,1.));
#919=DIRECTION('center_axis',(1.,0.,0.));
#920=DIRECTION('ref_axis',(0.,0.,-1.));
#921=DIRECTION('',(0.,-1.,0.));
#922=DIRECTION('',(0.,0.,1.));
#923=DIRECTION('',(0.,1.,0.));
#924=DIRECTION('center_axis',(0.,0.,1.));
#925=DIRECTION('ref_axis',(1.,0.,0.));
#926=DIRECTION('',(0.,1.,0.));
#927=DIRECTION('',(1.,0.,0.));
#928=DIRECTION('center_axis',(-1.,0.,0.));
#929=DIRECTION('ref_axis',(0.,0.,1.));
#930=DIRECTION('',(0.,-1.,0.));
#931=DIRECTION('',(0.,0.,-1.));
#932=DIRECTION('center_axis',(0.,1.,0.));
#933=DIRECTION('ref_axis',(0.,0.,1.));
#934=DIRECTION('',(-1.,0.,0.));
#935=DIRECTION('center_axis',(0.,0.,1.));
#936=DIRECTION('ref_axis',(1.,0.,0.));
#937=DIRECTION('center_axis',(-1.,0.,0.));
#938=DIRECTION('ref_axis',(0.,0.,1.));
#939=DIRECTION('',(0.,-1.,0.));
#940=DIRECTION('',(0.,0.,-1.));
#941=DIRECTION('',(0.,0.707106781186548,-0.707106781186547));
#942=DIRECTION('',(0.,1.,0.));
#943=DIRECTION('',(0.,0.,1.));
#944=DIRECTION('center_axis',(0.,1.,0.));
#945=DIRECTION('ref_axis',(1.,0.,0.));
#946=DIRECTION('',(-1.,0.,0.));
#947=DIRECTION('',(-1.,0.,0.));
#948=DIRECTION('',(0.,0.,-1.));
#949=DIRECTION('center_axis',(0.,0.,1.));
#950=DIRECTION('ref_axis',(1.,0.,0.));
#951=DIRECTION('',(1.,0.,0.));
#952=DIRECTION('',(0.,-1.,0.));
#953=DIRECTION('center_axis',(0.,0.707106781186547,0.707106781186548));
#954=DIRECTION('ref_axis',(1.,0.,0.));
#955=DIRECTION('',(-1.,0.,0.));
#956=DIRECTION('',(0.,-0.707106781186548,0.707106781186547));
#957=DIRECTION('center_axis',(1.,0.,0.));
#958=DIRECTION('ref_axis',(0.,0.,-1.));
#959=DIRECTION('',(0.,1.,0.));
#960=DIRECTION('',(0.,0.,-1.));
#961=DIRECTION('center_axis',(0.,1.,0.));
#962=DIRECTION('ref_axis',(0.,0.,1.));
#963=DIRECTION('',(1.,0.,0.));
#964=DIRECTION('center_axis',(0.,0.,-1.));
#965=DIRECTION('ref_axis',(-1.,0.,0.));
#966=CARTESIAN_POINT('',(0.,0.,0.));
#967=CARTESIAN_POINT('Origin',(5.094,0.3125,0.3125));
#968=CARTESIAN_POINT('',(19.,0.,0.625));
#969=CARTESIAN_POINT('',(8.79628927593417E-34,0.,0.624999999999999));
#970=CARTESIAN_POINT('',(5.094,0.,0.625));
#971=CARTESIAN_POINT('',(0.625,0.625,0.));
#972=CARTESIAN_POINT('',(8.79628927593417E-34,0.,0.624999999999999));
#973=CARTESIAN_POINT('',(18.375,0.625,0.));
#974=CARTESIAN_POINT('',(5.094,0.625,0.));
#975=CARTESIAN_POINT('',(18.375,0.625,0.));
#976=CARTESIAN_POINT('Origin',(0.3125,0.688,0.3125));
#977=CARTESIAN_POINT('',(0.625,23.437,0.));
#978=CARTESIAN_POINT('',(0.625,0.688,0.));
#979=CARTESIAN_POINT('',(0.,24.062,0.624999999999999));
#980=CARTESIAN_POINT('',(0.,0.688,0.625));
#981=CARTESIAN_POINT('',(0.,24.062,0.624999999999999));
#982=CARTESIAN_POINT('Origin',(5.094,23.7495,0.3125));
#983=CARTESIAN_POINT('',(18.375,23.437,0.));
#984=CARTESIAN_POINT('',(5.094,23.437,0.));
#985=CARTESIAN_POINT('',(19.,24.062,0.624999999999999));
#986=CARTESIAN_POINT('',(5.094,24.062,0.625));
#987=CARTESIAN_POINT('',(18.375,23.437,0.));
#988=CARTESIAN_POINT('Origin',(18.6875,0.688,0.3125));
#989=CARTESIAN_POINT('',(19.,0.688,0.624999999999999));
#990=CARTESIAN_POINT('',(18.375,0.688,0.));
#991=CARTESIAN_POINT('Origin',(0.,0.688,0.));
#992=CARTESIAN_POINT('',(9.68295523494832E-34,0.,0.688000000000001));
#993=CARTESIAN_POINT('',(2.91164212064842E-32,0.,20.688));
#994=CARTESIAN_POINT('',(0.,24.062,0.688000000000001));
#995=CARTESIAN_POINT('',(0.,6.3595,0.688000000000001));
#996=CARTESIAN_POINT('',(0.,24.062,20.688));
#997=CARTESIAN_POINT('Origin',(9.5,0.,10.344));
#998=CARTESIAN_POINT('',(19.,0.,0.688000000000001));
#999=CARTESIAN_POINT('',(19.,0.,4.85273686774737E-32));
#1000=CARTESIAN_POINT('',(9.5,0.,0.688000000000001));
#1001=CARTESIAN_POINT('Origin',(0.688000000000001,0.688,0.));
#1002=CARTESIAN_POINT('Origin',(19.,0.688,20.688));
#1003=CARTESIAN_POINT('',(19.,24.062,0.688000000000001));
#1004=CARTESIAN_POINT('',(19.,24.062,0.));
#1005=CARTESIAN_POINT('',(19.,6.3595,0.688000000000001));
#1006=CARTESIAN_POINT('Origin',(0.688000000000001,0.688,0.688));
#1007=CARTESIAN_POINT('',(9.5,24.062,0.688000000000001));
#1008=CARTESIAN_POINT('Origin',(9.5,24.062,10.344));
#1009=CARTESIAN_POINT('Origin',(18.312,0.688,20.));
#1010=CARTESIAN_POINT('',(18.312,23.312,20.));
#1011=CARTESIAN_POINT('',(18.312,23.312,19.312));
#1012=CARTESIAN_POINT('',(18.312,23.312,19.828));
#1013=CARTESIAN_POINT('',(18.312,0.688,20.));
#1014=CARTESIAN_POINT('',(18.312,0.688,20.));
#1015=CARTESIAN_POINT('',(18.312,0.688,19.312));
#1016=CARTESIAN_POINT('',(18.312,0.688,20.688));
#1017=CARTESIAN_POINT('',(18.312,0.688,19.312));
#1018=CARTESIAN_POINT('Origin',(0.688,0.688,20.));
#1019=CARTESIAN_POINT('',(0.688,23.312,20.));
#1020=CARTESIAN_POINT('',(5.094,23.312,20.));
#1021=CARTESIAN_POINT('',(0.688,0.688,20.));
#1022=CARTESIAN_POINT('',(0.688,0.688,20.));
#1023=CARTESIAN_POINT('',(0.,0.688,20.));
#1024=CARTESIAN_POINT('Origin',(0.688,0.688,19.312));
#1025=CARTESIAN_POINT('',(0.688,23.312,19.312));
#1026=CARTESIAN_POINT('',(0.687999999999999,23.312,19.484));
#1027=CARTESIAN_POINT('',(0.688,0.688,19.312));
#1028=CARTESIAN_POINT('',(0.688,0.688,19.312));
#1029=CARTESIAN_POINT('',(0.688,0.688,20.688));
#1030=CARTESIAN_POINT('Origin',(18.312,0.688,19.312));
#1031=CARTESIAN_POINT('',(13.906,23.312,19.312));
#1032=CARTESIAN_POINT('',(0.,0.688,19.312));
#1033=CARTESIAN_POINT('Origin',(9.5,0.688,19.656));
#1034=CARTESIAN_POINT('Origin',(9.5,23.312,19.656));
#1035=CARTESIAN_POINT('Origin',(18.6245,0.688,20.3755));
#1036=CARTESIAN_POINT('',(18.937,24.062,20.688));
#1037=CARTESIAN_POINT('',(18.312,24.062,20.063));
#1038=CARTESIAN_POINT('',(13.8355,24.062,15.5865));
#1039=CARTESIAN_POINT('',(18.312,0.,20.063));
#1040=CARTESIAN_POINT('',(18.312,0.688,20.063));
#1041=CARTESIAN_POINT('',(18.937,0.,20.688));
#1042=CARTESIAN_POINT('',(13.8355,4.37095678986282E-17,15.5865));
#1043=CARTESIAN_POINT('',(18.937,0.688,20.688));
#1044=CARTESIAN_POINT('Origin',(9.5,0.,10.344));
#1045=CARTESIAN_POINT('',(18.312,0.,0.688000000000001));
#1046=CARTESIAN_POINT('',(18.312,0.,5.172));
#1047=CARTESIAN_POINT('',(19.,0.,0.688000000000001));
#1048=CARTESIAN_POINT('',(9.5,0.,0.688000000000001));
#1049=CARTESIAN_POINT('',(19.,0.,20.688));
#1050=CARTESIAN_POINT('',(19.,0.,4.85273686774737E-32));
#1051=CARTESIAN_POINT('',(19.,0.,20.688));
#1052=CARTESIAN_POINT('Origin',(18.312,0.688,0.));
#1053=CARTESIAN_POINT('',(18.312,24.062,0.688000000000001));
#1054=CARTESIAN_POINT('',(18.312,24.062,5.172));
#1055=CARTESIAN_POINT('',(18.312,6.3595,0.688000000000001));
#1056=CARTESIAN_POINT('Origin',(0.,0.688,20.688));
#1057=CARTESIAN_POINT('',(19.,24.062,20.688));
#1058=CARTESIAN_POINT('',(19.,0.688,20.688));
#1059=CARTESIAN_POINT('',(19.,24.062,20.688));
#1060=CARTESIAN_POINT('Origin',(9.5,24.062,10.344));
#1061=CARTESIAN_POINT('',(19.,24.062,0.688000000000001));
#1062=CARTESIAN_POINT('',(19.,24.062,0.));
#1063=CARTESIAN_POINT('',(9.5,24.062,0.688000000000001));
#1064=CARTESIAN_POINT('Origin',(19.,0.688,20.688));
#1065=CARTESIAN_POINT('',(19.,6.3595,0.688000000000001));
#1066=CARTESIAN_POINT('Origin',(9.5,12.031,0.688000000000001));
#1067=CARTESIAN_POINT('Origin',(0.3755,0.688,20.3755));
#1068=CARTESIAN_POINT('',(0.0630000000000012,0.,20.688));
#1069=CARTESIAN_POINT('',(0.688000000000001,0.,20.063));
#1070=CARTESIAN_POINT('',(5.1645,-4.37095678986282E-17,15.5865));
#1071=CARTESIAN_POINT('',(0.688000000000001,24.062,20.063));
#1072=CARTESIAN_POINT('',(0.688,0.688,20.063));
#1073=CARTESIAN_POINT('',(0.0630000000000012,24.062,20.688));
#1074=CARTESIAN_POINT('',(5.1645,24.062,15.5865));
#1075=CARTESIAN_POINT('',(0.0630000000000003,0.688,20.688));
#1076=CARTESIAN_POINT('Origin',(9.5,24.062,10.344));
#1077=CARTESIAN_POINT('',(0.688000000000001,24.062,0.688000000000001));
#1078=CARTESIAN_POINT('',(0.688000000000001,24.062,15.516));
#1079=CARTESIAN_POINT('',(0.,24.062,0.688000000000001));
#1080=CARTESIAN_POINT('',(9.5,24.062,0.688000000000001));
#1081=CARTESIAN_POINT('',(0.,24.062,20.688));
#1082=CARTESIAN_POINT('',(0.,24.062,20.688));
#1083=CARTESIAN_POINT('',(19.,24.062,20.688));
#1084=CARTESIAN_POINT('Origin',(0.688,0.688,20.688));
#1085=CARTESIAN_POINT('',(0.688000000000001,0.,0.688000000000001));
#1086=CARTESIAN_POINT('',(0.688000000000001,0.,15.516));
#1087=CARTESIAN_POINT('',(0.688000000000001,6.3595,0.688000000000001));
#1088=CARTESIAN_POINT('Origin',(0.,0.688,0.));
#1089=CARTESIAN_POINT('',(9.68295523494832E-34,0.,0.688000000000001));
#1090=CARTESIAN_POINT('',(0.,6.3595,0.688000000000001));
#1091=CARTESIAN_POINT('',(2.91164212064842E-32,0.,20.688));
#1092=CARTESIAN_POINT('',(2.91164212064842E-32,0.,20.688));
#1093=CARTESIAN_POINT('',(0.,0.688,20.688));
#1094=CARTESIAN_POINT('Origin',(9.5,0.,10.344));
#1095=CARTESIAN_POINT('',(19.,0.,20.688));
#1096=CARTESIAN_POINT('',(9.5,0.,0.688000000000001));
#1097=CARTESIAN_POINT('Origin',(0.,0.688,20.688));
#1098=CARTESIAN_POINT('Origin',(9.5,12.031,0.688000000000001));
#1099=CARTESIAN_POINT('Origin',(4.75,23.6245,20.3755));
#1100=CARTESIAN_POINT('',(0.688,23.937,20.688));
#1101=CARTESIAN_POINT('',(0.688,23.312,20.063));
#1102=CARTESIAN_POINT('',(0.688,17.9685,14.7195));
#1103=CARTESIAN_POINT('',(18.312,23.312,20.063));
#1104=CARTESIAN_POINT('',(4.75,23.312,20.063));
#1105=CARTESIAN_POINT('',(18.312,23.937,20.688));
#1106=CARTESIAN_POINT('',(18.312,12.7965,9.5475));
#1107=CARTESIAN_POINT('',(4.75,23.937,20.688));
#1108=CARTESIAN_POINT('Origin',(9.5,23.312,10.344));
#1109=CARTESIAN_POINT('',(0.688,23.312,0.688));
#1110=CARTESIAN_POINT('',(0.688,23.312,0.688));
#1111=CARTESIAN_POINT('',(18.312,23.312,0.688));
#1112=CARTESIAN_POINT('',(5.094,23.312,0.688000000000001));
#1113=CARTESIAN_POINT('',(18.312,23.312,0.688));
#1114=CARTESIAN_POINT('Origin',(0.688,0.688,20.688));
#1115=CARTESIAN_POINT('',(0.688000000000001,24.062,20.688));
#1116=CARTESIAN_POINT('',(0.688,0.688,20.688));
#1117=CARTESIAN_POINT('',(0.688000000000001,24.062,0.688000000000001));
#1118=CARTESIAN_POINT('',(0.688000000000001,24.062,15.516));
#1119=CARTESIAN_POINT('',(0.688000000000001,6.3595,0.688000000000001));
#1120=CARTESIAN_POINT('Origin',(0.,0.688,20.688));
#1121=CARTESIAN_POINT('',(18.312,24.062,20.688));
#1122=CARTESIAN_POINT('',(18.312,0.688,20.688));
#1123=CARTESIAN_POINT('',(19.,24.062,20.688));
#1124=CARTESIAN_POINT('Origin',(18.312,0.688,0.));
#1125=CARTESIAN_POINT('',(18.312,24.062,0.688000000000001));
#1126=CARTESIAN_POINT('',(18.312,6.3595,0.688000000000001));
#1127=CARTESIAN_POINT('',(18.312,24.062,5.172));
#1128=CARTESIAN_POINT('Origin',(9.5,24.062,10.344));
#1129=CARTESIAN_POINT('',(9.5,24.062,0.688000000000001));
#1130=CARTESIAN_POINT('Origin',(9.5,12.031,0.688000000000001));
#1131=CARTESIAN_POINT('Origin',(18.312,0.688,0.));
#1132=CARTESIAN_POINT('',(18.312,0.688,19.312));
#1133=CARTESIAN_POINT('',(18.312,0.,19.312));
#1134=CARTESIAN_POINT('',(18.312,0.516,19.312));
#1135=CARTESIAN_POINT('',(18.312,0.688,20.063));
#1136=CARTESIAN_POINT('',(18.312,0.688,0.688));
#1137=CARTESIAN_POINT('',(18.312,0.063,20.688));
#1138=CARTESIAN_POINT('',(18.312,5.5475,15.2035));
#1139=CARTESIAN_POINT('',(18.312,0.,20.688));
#1140=CARTESIAN_POINT('',(18.312,0.688,20.688));
#1141=CARTESIAN_POINT('',(18.312,0.,5.172));
#1142=CARTESIAN_POINT('Origin',(9.5,0.,10.344));
#1143=CARTESIAN_POINT('',(0.688000000000001,0.,19.312));
#1144=CARTESIAN_POINT('',(9.5,0.,19.312));
#1145=CARTESIAN_POINT('',(0.688000000000001,0.,20.688));
#1146=CARTESIAN_POINT('',(19.,0.,20.688));
#1147=CARTESIAN_POINT('',(0.688000000000001,0.,15.516));
#1148=CARTESIAN_POINT('Origin',(0.,0.688,20.688));
#1149=CARTESIAN_POINT('',(0.688,0.063,20.688));
#1150=CARTESIAN_POINT('',(4.75,0.063,20.688));
#1151=CARTESIAN_POINT('',(0.688,0.688,20.688));
#1152=CARTESIAN_POINT('Origin',(4.75,0.3755,20.3755));
#1153=CARTESIAN_POINT('',(0.688,0.688,20.063));
#1154=CARTESIAN_POINT('',(4.75,0.688,20.063));
#1155=CARTESIAN_POINT('',(0.688,0.375500000000001,20.3755));
#1156=CARTESIAN_POINT('Origin',(0.688,0.688,20.688));
#1157=CARTESIAN_POINT('',(0.688,0.688,19.312));
#1158=CARTESIAN_POINT('',(0.688,0.516,19.312));
#1159=CARTESIAN_POINT('',(0.688,0.688,0.688));
#1160=CARTESIAN_POINT('Origin',(9.5,0.688,10.344));
#1161=CARTESIAN_POINT('',(9.5,0.688,19.312));
#1162=CARTESIAN_POINT('Origin',(9.5,0.344,19.312));
#1163=UNCERTAINTY_MEASURE_WITH_UNIT(LENGTH_MEASURE(0.000393700787401575),
#1168,'DISTANCE_ACCURACY_VALUE',
'Maximum model space distance between geometric entities at asserted c
onnectivities');
#1164=UNCERTAINTY_MEASURE_WITH_UNIT(LENGTH_MEASURE(0.000393700787401575),
#1168,'DISTANCE_ACCURACY_VALUE',
'Maximum model space distance between geometric entities at asserted c
onnectivities');
#1165=(
GEOMETRIC_REPRESENTATION_CONTEXT(3)
GLOBAL_UNCERTAINTY_ASSIGNED_CONTEXT((#1163))
GLOBAL_UNIT_ASSIGNED_CONTEXT((#1168,#1172,#1173))
REPRESENTATION_CONTEXT('','3D')
);
#1166=(
GEOMETRIC_REPRESENTATION_CONTEXT(3)
GLOBAL_UNCERTAINTY_ASSIGNED_CONTEXT((#1164))
GLOBAL_UNIT_ASSIGNED_CONTEXT((#1168,#1172,#1173))
REPRESENTATION_CONTEXT('','3D')
);
#1167=DIMENSIONAL_EXPONENTS(1.,0.,0.,0.,0.,0.,0.);
#1168=(
CONVERSION_BASED_UNIT('inch',#1171)
LENGTH_UNIT()
NAMED_UNIT(#1167)
);
#1169=(
LENGTH_UNIT()
NAMED_UNIT(*)
SI_UNIT(.MILLI.,.METRE.)
);
#1170=(
LENGTH_UNIT()
NAMED_UNIT(*)
SI_UNIT($,.METRE.)
);
#1171=LENGTH_MEASURE_WITH_UNIT(LENGTH_MEASURE(25.4),#1169);
#1172=(
NAMED_UNIT(*)
PLANE_ANGLE_UNIT()
SI_UNIT($,.RADIAN.)
);
#1173=(
NAMED_UNIT(*)
SI_UNIT($,.STERADIAN.)
SOLID_ANGLE_UNIT()
);
#1174=SHAPE_DEFINITION_REPRESENTATION(#1175,#1176);
#1175=PRODUCT_DEFINITION_SHAPE('',$,#1178);
#1176=SHAPE_REPRESENTATION('',(#739),#1165);
#1177=PRODUCT_DEFINITION_CONTEXT('part definition',#1182,'design');
#1178=PRODUCT_DEFINITION('Large','Large v13',#1179,#1177);
#1179=PRODUCT_DEFINITION_FORMATION('',$,#1184);
#1180=PRODUCT_RELATED_PRODUCT_CATEGORY('Large v13','Large v13',(#1184));
#1181=APPLICATION_PROTOCOL_DEFINITION('international standard',
'automotive_design',2009,#1182);
#1182=APPLICATION_CONTEXT(
'Core Data for Automotive Mechanical Design Process');
#1183=PRODUCT_CONTEXT('part definition',#1182,'mechanical');
#1184=PRODUCT('Large','Large v13',$,(#1183));
#1185=PRESENTATION_STYLE_ASSIGNMENT((#1186));
#1186=SURFACE_STYLE_USAGE(.BOTH.,#1187);
#1187=SURFACE_SIDE_STYLE('',(#1188));
#1188=SURFACE_STYLE_FILL_AREA(#1189);
#1189=FILL_AREA_STYLE('Steel - Satin',(#1190));
#1190=FILL_AREA_STYLE_COLOUR('Steel - Satin',#1191);
#1191=COLOUR_RGB('Steel - Satin',0.627450980392157,0.627450980392157,0.627450980392157);
ENDSEC;
END-ISO-10303-21;
