ISO-10303-21;
HEADER;
/* Generated by software containing ST-Developer
 * from STEP Tools, Inc. (www.steptools.com) 
 */

FILE_DESCRIPTION(
/* description */ (''),
/* implementation_level */ '2;1');

FILE_NAME(
/* name */ 'Ratcheting Screwdriver.step',
/* time_stamp */ '2026-06-27T15:40:35-04:00',
/* author */ (''),
/* organization */ (''),
/* preprocessor_version */ 'ST-DEVELOPER v20.1',
/* originating_system */ 'Autodesk Translation Framework v15.8.0.0',
/* authorisation */ '');

FILE_SCHEMA (('AUTOMOTIVE_DESIGN { 1 0 10303 214 3 1 1 }'));
ENDSEC;

DATA;
#10=MECHANICAL_DESIGN_GEOMETRIC_PRESENTATION_REPRESENTATION('',(#13),#1259);
#11=SHAPE_REPRESENTATION_RELATIONSHIP('SRR','None',#1266,#12);
#12=ADVANCED_BREP_SHAPE_REPRESENTATION('',(#14),#1258);
#13=STYLED_ITEM('',(#1275),#14);
#14=MANIFOLD_SOLID_BREP('Clip',#545);
#15=PLANE('',#609);
#16=PLANE('',#611);
#17=PLANE('',#616);
#18=PLANE('',#617);
#19=PLANE('',#618);
#20=PLANE('',#619);
#21=PLANE('',#620);
#22=(
BOUNDED_SURFACE()
B_SPLINE_SURFACE(5,1,((#1193,#1194),(#1195,#1196),(#1197,#1198),(#1199,
#1200),(#1201,#1202),(#1203,#1204),(#1205,#1206),(#1207,#1208),(#1209,#1210),
(#1211,#1212)),.UNSPECIFIED.,.F.,.F.,.F.)
B_SPLINE_SURFACE_WITH_KNOTS((6,1,1,1,1,6),(2,2),(-1.,-0.8,-0.6,-0.4,-0.2,
0.),(0.,1.65),.UNSPECIFIED.)
GEOMETRIC_REPRESENTATION_ITEM()
RATIONAL_B_SPLINE_SURFACE(((1.,1.),(1.,1.),(1.,1.),(1.,1.),(1.,1.),(1.,
1.),(1.,1.),(1.,1.),(1.,1.),(1.,1.)))
REPRESENTATION_ITEM('')
SURFACE()
);
#23=(
BOUNDED_SURFACE()
B_SPLINE_SURFACE(5,1,((#1218,#1219),(#1220,#1221),(#1222,#1223),(#1224,
#1225),(#1226,#1227),(#1228,#1229),(#1230,#1231),(#1232,#1233),(#1234,#1235),
(#1236,#1237)),.UNSPECIFIED.,.F.,.F.,.F.)
B_SPLINE_SURFACE_WITH_KNOTS((6,1,1,1,1,6),(2,2),(0.,0.2,0.4,0.6,0.8,1.),
(0.,1.65),.UNSPECIFIED.)
GEOMETRIC_REPRESENTATION_ITEM()
RATIONAL_B_SPLINE_SURFACE(((1.,1.),(1.,1.),(1.,1.),(1.,1.),(1.,1.),(1.,
1.),(1.,1.),(1.,1.),(1.,1.),(1.,1.)))
REPRESENTATION_ITEM('')
SURFACE()
);
#24=B_SPLINE_SURFACE_WITH_KNOTS('',3,3,((#923,#924,#925,#926,#927,#928),
(#929,#930,#931,#932,#933,#934),(#935,#936,#937,#938,#939,#940),(#941,#942,
#943,#944,#945,#946),(#947,#948,#949,#950,#951,#952)),.UNSPECIFIED.,.F.,
 .F.,.F.,(4,1,4),(4,1,1,4),(0.,0.571428571428571,1.),(0.,0.590754473587262,
0.886131710380892,2.06764065755542),.UNSPECIFIED.);
#25=B_SPLINE_SURFACE_WITH_KNOTS('',3,3,((#990,#991,#992,#993,#994,#995),
(#996,#997,#998,#999,#1000,#1001),(#1002,#1003,#1004,#1005,#1006,#1007),
(#1008,#1009,#1010,#1011,#1012,#1013),(#1014,#1015,#1016,#1017,#1018,#1019)),
 .UNSPECIFIED.,.F.,.F.,.F.,(4,1,4),(4,1,1,4),(0.,0.571428571428571,1.),
(0.,0.886131710380892,1.47688618396815,2.06764065755542),.UNSPECIFIED.);
#26=B_SPLINE_SURFACE_WITH_KNOTS('',3,3,((#1079,#1080,#1081,#1082,#1083,
#1084),(#1085,#1086,#1087,#1088,#1089,#1090),(#1091,#1092,#1093,#1094,#1095,
#1096),(#1097,#1098,#1099,#1100,#1101,#1102),(#1103,#1104,#1105,#1106,#1107,
#1108)),.UNSPECIFIED.,.F.,.F.,.F.,(4,1,4),(4,1,1,4),(0.,0.571428571428571,
1.),(0.,0.886131710380892,1.47688618396815,2.06764065755542),
 .UNSPECIFIED.);
#27=B_SPLINE_SURFACE_WITH_KNOTS('',3,3,((#1143,#1144,#1145,#1146,#1147,
#1148),(#1149,#1150,#1151,#1152,#1153,#1154),(#1155,#1156,#1157,#1158,#1159,
#1160),(#1161,#1162,#1163,#1164,#1165,#1166),(#1167,#1168,#1169,#1170,#1171,
#1172)),.UNSPECIFIED.,.F.,.F.,.F.,(4,1,4),(4,1,1,4),(0.,0.571428571428571,
1.),(0.,0.886131710380892,1.47688618396815,2.06764065755542),
 .UNSPECIFIED.);
#28=TOROIDAL_SURFACE('',#569,13.75,0.75);
#29=TOROIDAL_SURFACE('',#592,13.75,0.75);
#30=SPHERICAL_SURFACE('',#566,0.749999999999993);
#31=SPHERICAL_SURFACE('',#579,0.75);
#32=SPHERICAL_SURFACE('',#588,0.750000000000002);
#33=SPHERICAL_SURFACE('',#601,0.749999999999993);
#34=FACE_BOUND('',#74,.T.);
#35=FACE_BOUND('',#75,.T.);
#36=FACE_BOUND('',#106,.T.);
#37=FACE_BOUND('',#107,.T.);
#38=FACE_OUTER_BOUND('',#72,.T.);
#39=FACE_OUTER_BOUND('',#73,.T.);
#40=FACE_OUTER_BOUND('',#76,.T.);
#41=FACE_OUTER_BOUND('',#77,.T.);
#42=FACE_OUTER_BOUND('',#78,.T.);
#43=FACE_OUTER_BOUND('',#79,.T.);
#44=FACE_OUTER_BOUND('',#80,.T.);
#45=FACE_OUTER_BOUND('',#81,.T.);
#46=FACE_OUTER_BOUND('',#82,.T.);
#47=FACE_OUTER_BOUND('',#83,.T.);
#48=FACE_OUTER_BOUND('',#84,.T.);
#49=FACE_OUTER_BOUND('',#85,.T.);
#50=FACE_OUTER_BOUND('',#86,.T.);
#51=FACE_OUTER_BOUND('',#87,.T.);
#52=FACE_OUTER_BOUND('',#88,.T.);
#53=FACE_OUTER_BOUND('',#89,.T.);
#54=FACE_OUTER_BOUND('',#90,.T.);
#55=FACE_OUTER_BOUND('',#91,.T.);
#56=FACE_OUTER_BOUND('',#92,.T.);
#57=FACE_OUTER_BOUND('',#93,.T.);
#58=FACE_OUTER_BOUND('',#94,.T.);
#59=FACE_OUTER_BOUND('',#95,.T.);
#60=FACE_OUTER_BOUND('',#96,.T.);
#61=FACE_OUTER_BOUND('',#97,.T.);
#62=FACE_OUTER_BOUND('',#98,.T.);
#63=FACE_OUTER_BOUND('',#99,.T.);
#64=FACE_OUTER_BOUND('',#100,.T.);
#65=FACE_OUTER_BOUND('',#101,.T.);
#66=FACE_OUTER_BOUND('',#102,.T.);
#67=FACE_OUTER_BOUND('',#103,.T.);
#68=FACE_OUTER_BOUND('',#104,.T.);
#69=FACE_OUTER_BOUND('',#105,.T.);
#70=FACE_OUTER_BOUND('',#108,.T.);
#71=FACE_OUTER_BOUND('',#109,.T.);
#72=EDGE_LOOP('',(#340,#341,#342));
#73=EDGE_LOOP('',(#343,#344,#345,#346));
#74=EDGE_LOOP('',(#347,#348));
#75=EDGE_LOOP('',(#349,#350));
#76=EDGE_LOOP('',(#351,#352,#353));
#77=EDGE_LOOP('',(#354,#355,#356));
#78=EDGE_LOOP('',(#357,#358,#359,#360,#361,#362,#363,#364,#365,#366));
#79=EDGE_LOOP('',(#367,#368,#369,#370));
#80=EDGE_LOOP('',(#371,#372,#373,#374));
#81=EDGE_LOOP('',(#375,#376,#377));
#82=EDGE_LOOP('',(#378,#379,#380,#381));
#83=EDGE_LOOP('',(#382,#383,#384,#385));
#84=EDGE_LOOP('',(#386,#387,#388));
#85=EDGE_LOOP('',(#389,#390,#391));
#86=EDGE_LOOP('',(#392,#393,#394,#395,#396,#397,#398,#399,#400,#401));
#87=EDGE_LOOP('',(#402,#403,#404,#405));
#88=EDGE_LOOP('',(#406,#407,#408,#409));
#89=EDGE_LOOP('',(#410,#411,#412));
#90=EDGE_LOOP('',(#413,#414,#415));
#91=EDGE_LOOP('',(#416,#417,#418,#419));
#92=EDGE_LOOP('',(#420,#421,#422,#423));
#93=EDGE_LOOP('',(#424,#425,#426,#427));
#94=EDGE_LOOP('',(#428,#429,#430,#431));
#95=EDGE_LOOP('',(#432,#433,#434,#435));
#96=EDGE_LOOP('',(#436,#437,#438,#439));
#97=EDGE_LOOP('',(#440,#441,#442,#443,#444,#445));
#98=EDGE_LOOP('',(#446,#447,#448,#449));
#99=EDGE_LOOP('',(#450,#451,#452,#453));
#100=EDGE_LOOP('',(#454,#455,#456,#457));
#101=EDGE_LOOP('',(#458,#459,#460,#461,#462));
#102=EDGE_LOOP('',(#463,#464,#465,#466,#467));
#103=EDGE_LOOP('',(#468,#469,#470,#471));
#104=EDGE_LOOP('',(#472,#473,#474,#475));
#105=EDGE_LOOP('',(#476,#477,#478,#479,#480,#481,#482,#483));
#106=EDGE_LOOP('',(#484));
#107=EDGE_LOOP('',(#485));
#108=EDGE_LOOP('',(#486,#487,#488,#489));
#109=EDGE_LOOP('',(#490,#491,#492,#493,#494,#495));
#110=CIRCLE('',#560,0.749999999999999);
#111=CIRCLE('',#562,13.);
#112=CIRCLE('',#563,13.);
#113=CIRCLE('',#565,0.749999999999993);
#114=CIRCLE('',#567,0.750000000000002);
#115=CIRCLE('',#568,0.749999999999993);
#116=CIRCLE('',#570,0.750000000000003);
#117=CIRCLE('',#571,13.75);
#118=CIRCLE('',#572,0.749999999999999);
#119=CIRCLE('',#573,14.5);
#120=CIRCLE('',#574,0.750000000000002);
#121=CIRCLE('',#575,14.5);
#122=CIRCLE('',#576,0.75);
#123=CIRCLE('',#578,0.75);
#124=CIRCLE('',#580,0.749999999999998);
#125=CIRCLE('',#581,0.750000000000002);
#126=CIRCLE('',#582,0.75);
#127=CIRCLE('',#584,0.75);
#128=CIRCLE('',#585,0.750000000000002);
#129=CIRCLE('',#586,0.749999999999999);
#130=CIRCLE('',#589,0.749999999999998);
#131=CIRCLE('',#590,0.750000000000002);
#132=CIRCLE('',#591,0.749999999999999);
#133=CIRCLE('',#593,0.750000000000001);
#134=CIRCLE('',#594,13.75);
#135=CIRCLE('',#595,14.5);
#136=CIRCLE('',#596,14.5);
#137=CIRCLE('',#597,0.75);
#138=CIRCLE('',#599,0.75);
#139=CIRCLE('',#602,0.749999999999999);
#140=CIRCLE('',#604,0.75);
#141=CIRCLE('',#605,0.75);
#142=CIRCLE('',#613,1.25);
#143=CIRCLE('',#615,1.25);
#144=LINE('',#794,#172);
#145=LINE('',#800,#173);
#146=LINE('',#803,#174);
#147=LINE('',#906,#175);
#148=LINE('',#972,#176);
#149=LINE('',#973,#177);
#150=LINE('',#986,#178);
#151=LINE('',#989,#179);
#152=LINE('',#1036,#180);
#153=LINE('',#1128,#181);
#154=LINE('',#1129,#182);
#155=LINE('',#1131,#183);
#156=LINE('',#1139,#184);
#157=LINE('',#1142,#185);
#158=LINE('',#1186,#186);
#159=LINE('',#1187,#187);
#160=LINE('',#1189,#188);
#161=LINE('',#1190,#189);
#162=LINE('',#1192,#190);
#163=LINE('',#1213,#191);
#164=LINE('',#1215,#192);
#165=LINE('',#1217,#193);
#166=LINE('',#1238,#194);
#167=LINE('',#1240,#195);
#168=LINE('',#1244,#196);
#169=LINE('',#1248,#197);
#170=LINE('',#1252,#198);
#171=LINE('',#1253,#199);
#172=VECTOR('',#625,10.);
#173=VECTOR('',#632,10.);
#174=VECTOR('',#635,10.);
#175=VECTOR('',#640,10.);
#176=VECTOR('',#667,10.);
#177=VECTOR('',#668,10.);
#178=VECTOR('',#681,10.);
#179=VECTOR('',#684,10.);
#180=VECTOR('',#689,10.);
#181=VECTOR('',#714,10.);
#182=VECTOR('',#715,10.);
#183=VECTOR('',#718,10.);
#184=VECTOR('',#727,10.);
#185=VECTOR('',#730,10.);
#186=VECTOR('',#733,10.);
#187=VECTOR('',#734,10.);
#188=VECTOR('',#737,10.);
#189=VECTOR('',#738,10.);
#190=VECTOR('',#741,10.);
#191=VECTOR('',#742,10.);
#192=VECTOR('',#745,10.);
#193=VECTOR('',#748,10.);
#194=VECTOR('',#749,10.);
#195=VECTOR('',#752,10.);
#196=VECTOR('',#757,1.25);
#197=VECTOR('',#762,1.25);
#198=VECTOR('',#769,10.);
#199=VECTOR('',#770,10.);
#200=B_SPLINE_CURVE_WITH_KNOTS('',3,(#779,#780,#781,#782,#783,#784,#785,
#786,#787,#788,#789,#790,#791,#792),.UNSPECIFIED.,.F.,.F.,(4,2,2,2,2,2,
4),(0.00011678300593583,0.0193721215628551,0.046072809455527,0.0754910189798881,
0.108393248664388,0.140864082887192,0.141329537535153),.UNSPECIFIED.);
#201=B_SPLINE_CURVE_WITH_KNOTS('',3,(#806,#807,#808,#809,#810,#811,#812,
#813,#814,#815,#816,#817,#818,#819,#820,#821,#822,#823,#824,#825,#826,#827,
#828,#829,#830,#831,#832,#833,#834,#835),.UNSPECIFIED.,.F.,.F.,(4,2,2,2,
2,2,2,2,2,2,2,2,2,2,4),(0.,0.0462436216422933,0.0924872432845867,0.154597377536227,
0.216707511787868,0.285117491574198,0.353527471360527,0.400912347792695,
0.424604786008779,0.448297224224863,0.471989662440947,0.495682100657031,
0.543066977089198,0.611476956875528,0.679886936661858),.UNSPECIFIED.);
#202=B_SPLINE_CURVE_WITH_KNOTS('',3,(#836,#837,#838,#839,#840,#841,#842,
#843,#844,#845),.UNSPECIFIED.,.F.,.F.,(4,2,2,2,4),(0.679886936661858,0.741997070913498,
0.804107205165139,0.850350826807432,0.896594448449726),.UNSPECIFIED.);
#203=B_SPLINE_CURVE_WITH_KNOTS('',3,(#848,#849,#850,#851,#852,#853,#854,
#855,#856,#857,#858,#859,#860,#861,#862,#863,#864,#865,#866,#867,#868,#869,
#870,#871,#872,#873,#874,#875),.UNSPECIFIED.,.F.,.F.,(4,2,2,2,2,2,2,2,2,
2,2,2,2,4),(0.,0.0236924382160839,0.0473848764321678,0.0947697528643355,
0.163179732650665,0.231589712436995,0.293699846688636,0.355809980940276,
0.402053602582569,0.448297224224863,0.494540845867156,0.540784467509449,
0.60289460176109,0.66500473601273),.UNSPECIFIED.);
#204=B_SPLINE_CURVE_WITH_KNOTS('',3,(#876,#877,#878,#879,#880,#881,#882,
#883,#884,#885,#886,#887),.UNSPECIFIED.,.F.,.F.,(4,2,2,2,2,4),(0.66500473601273,
0.73341471579906,0.80182469558539,0.849209572017558,0.872902010233642,0.896594448449725),
 .UNSPECIFIED.);
#205=B_SPLINE_CURVE_WITH_KNOTS('',3,(#890,#891,#892,#893,#894,#895,#896,
#897,#898,#899,#900,#901,#902,#903),.UNSPECIFIED.,.F.,.F.,(4,2,2,2,2,2,
4),(-0.000469695416320235,0.,0.03276667676585,0.0659686794476018,0.0956549189786414,
0.122598877473782,0.14202965187828),.UNSPECIFIED.);
#206=B_SPLINE_CURVE_WITH_KNOTS('',3,(#956,#957,#958,#959,#960,#961),
 .UNSPECIFIED.,.F.,.F.,(4,1,1,4),(-2.06764065755542,-0.886131710380892,
-0.590754473587262,0.),.UNSPECIFIED.);
#207=B_SPLINE_CURVE_WITH_KNOTS('',3,(#962,#963,#964,#965,#966,#967),
 .UNSPECIFIED.,.F.,.F.,(4,1,1,4),(0.,0.590754473587262,0.886131710380892,
2.06764065755542),.UNSPECIFIED.);
#208=B_SPLINE_CURVE_WITH_KNOTS('',3,(#1023,#1024,#1025,#1026,#1027,#1028),
 .UNSPECIFIED.,.F.,.F.,(4,1,1,4),(-2.06764065755542,-1.47688618396815,-0.886131710380892,
0.),.UNSPECIFIED.);
#209=B_SPLINE_CURVE_WITH_KNOTS('',3,(#1029,#1030,#1031,#1032,#1033,#1034),
 .UNSPECIFIED.,.F.,.F.,(4,1,1,4),(0.,0.886131710380892,1.47688618396815,
2.06764065755542),.UNSPECIFIED.);
#210=B_SPLINE_CURVE_WITH_KNOTS('',3,(#1037,#1038,#1039,#1040,#1041,#1042,
#1043,#1044,#1045,#1046,#1047,#1048,#1049,#1050),.UNSPECIFIED.,.F.,.F.,
(4,2,2,2,2,2,4),(-0.141965888046454,-0.120727922084881,-0.096420763765241,
-0.0639581696870955,-0.0326089221722111,0.,0.000532693501264116),
 .UNSPECIFIED.);
#211=B_SPLINE_CURVE_WITH_KNOTS('',3,(#1064,#1065,#1066,#1067,#1068,#1069,
#1070,#1071,#1072,#1073,#1074,#1075,#1076,#1077),.UNSPECIFIED.,.F.,.F.,
(4,2,2,2,2,2,4),(0.,0.0210472901554178,0.045136217265142,0.0773073601135887,
0.108375152095002,0.140691309279589,0.141219220226812),.UNSPECIFIED.);
#212=B_SPLINE_CURVE_WITH_KNOTS('',3,(#1110,#1111,#1112,#1113,#1114,#1115),
 .UNSPECIFIED.,.F.,.F.,(4,1,1,4),(-2.06764065755542,-1.47688618396815,-0.886131710380892,
0.),.UNSPECIFIED.);
#213=B_SPLINE_CURVE_WITH_KNOTS('',3,(#1118,#1119,#1120,#1121,#1122,#1123),
 .UNSPECIFIED.,.F.,.F.,(4,1,1,4),(0.,0.886131710380892,1.47688618396815,
2.06764065755542),.UNSPECIFIED.);
#214=B_SPLINE_CURVE_WITH_KNOTS('',3,(#1173,#1174,#1175,#1176,#1177,#1178),
 .UNSPECIFIED.,.F.,.F.,(4,1,1,4),(-2.06764065755542,-1.47688618396815,-0.886131710380892,
0.),.UNSPECIFIED.);
#215=B_SPLINE_CURVE_WITH_KNOTS('',3,(#1179,#1180,#1181,#1182,#1183,#1184),
 .UNSPECIFIED.,.F.,.F.,(4,1,1,4),(0.,0.886131710380892,1.47688618396815,
2.06764065755542),.UNSPECIFIED.);
#216=VERTEX_POINT('',#777);
#217=VERTEX_POINT('',#778);
#218=VERTEX_POINT('',#793);
#219=VERTEX_POINT('',#797);
#220=VERTEX_POINT('',#799);
#221=VERTEX_POINT('',#801);
#222=VERTEX_POINT('',#804);
#223=VERTEX_POINT('',#805);
#224=VERTEX_POINT('',#846);
#225=VERTEX_POINT('',#847);
#226=VERTEX_POINT('',#889);
#227=VERTEX_POINT('',#904);
#228=VERTEX_POINT('',#908);
#229=VERTEX_POINT('',#912);
#230=VERTEX_POINT('',#913);
#231=VERTEX_POINT('',#915);
#232=VERTEX_POINT('',#917);
#233=VERTEX_POINT('',#919);
#234=VERTEX_POINT('',#953);
#235=VERTEX_POINT('',#954);
#236=VERTEX_POINT('',#969);
#237=VERTEX_POINT('',#970);
#238=VERTEX_POINT('',#975);
#239=VERTEX_POINT('',#976);
#240=VERTEX_POINT('',#978);
#241=VERTEX_POINT('',#982);
#242=VERTEX_POINT('',#983);
#243=VERTEX_POINT('',#985);
#244=VERTEX_POINT('',#987);
#245=VERTEX_POINT('',#1020);
#246=VERTEX_POINT('',#1021);
#247=VERTEX_POINT('',#1052);
#248=VERTEX_POINT('',#1053);
#249=VERTEX_POINT('',#1055);
#250=VERTEX_POINT('',#1059);
#251=VERTEX_POINT('',#1060);
#252=VERTEX_POINT('',#1109);
#253=VERTEX_POINT('',#1116);
#254=VERTEX_POINT('',#1125);
#255=VERTEX_POINT('',#1126);
#256=VERTEX_POINT('',#1135);
#257=VERTEX_POINT('',#1136);
#258=VERTEX_POINT('',#1138);
#259=VERTEX_POINT('',#1140);
#260=VERTEX_POINT('',#1242);
#261=VERTEX_POINT('',#1246);
#262=EDGE_CURVE('',#216,#217,#200,.T.);
#263=EDGE_CURVE('',#216,#218,#144,.T.);
#264=EDGE_CURVE('',#218,#217,#110,.F.);
#265=EDGE_CURVE('',#219,#216,#111,.T.);
#266=EDGE_CURVE('',#220,#219,#145,.T.);
#267=EDGE_CURVE('',#221,#220,#112,.T.);
#268=EDGE_CURVE('',#221,#216,#146,.T.);
#269=EDGE_CURVE('',#222,#223,#201,.T.);
#270=EDGE_CURVE('',#223,#222,#202,.T.);
#271=EDGE_CURVE('',#224,#225,#203,.T.);
#272=EDGE_CURVE('',#225,#224,#204,.T.);
#273=EDGE_CURVE('',#226,#219,#205,.T.);
#274=EDGE_CURVE('',#226,#227,#113,.F.);
#275=EDGE_CURVE('',#227,#219,#147,.T.);
#276=EDGE_CURVE('',#228,#218,#114,.F.);
#277=EDGE_CURVE('',#217,#228,#115,.F.);
#278=EDGE_CURVE('',#229,#230,#116,.T.);
#279=EDGE_CURVE('',#230,#231,#117,.T.);
#280=EDGE_CURVE('',#232,#231,#118,.T.);
#281=EDGE_CURVE('',#232,#233,#119,.T.);
#282=EDGE_CURVE('',#233,#226,#120,.F.);
#283=EDGE_CURVE('',#228,#229,#121,.T.);
#284=EDGE_CURVE('',#234,#235,#122,.T.);
#285=EDGE_CURVE('',#235,#230,#206,.T.);
#286=EDGE_CURVE('',#229,#234,#207,.T.);
#287=EDGE_CURVE('',#236,#237,#123,.T.);
#288=EDGE_CURVE('',#237,#235,#148,.T.);
#289=EDGE_CURVE('',#234,#236,#149,.T.);
#290=EDGE_CURVE('',#238,#239,#124,.F.);
#291=EDGE_CURVE('',#240,#238,#125,.F.);
#292=EDGE_CURVE('',#239,#240,#126,.F.);
#293=EDGE_CURVE('',#241,#242,#127,.T.);
#294=EDGE_CURVE('',#242,#243,#150,.T.);
#295=EDGE_CURVE('',#243,#244,#128,.T.);
#296=EDGE_CURVE('',#244,#241,#151,.T.);
#297=EDGE_CURVE('',#245,#246,#129,.T.);
#298=EDGE_CURVE('',#246,#244,#208,.T.);
#299=EDGE_CURVE('',#243,#245,#209,.T.);
#300=EDGE_CURVE('',#238,#221,#152,.T.);
#301=EDGE_CURVE('',#221,#240,#210,.T.);
#302=EDGE_CURVE('',#247,#248,#130,.F.);
#303=EDGE_CURVE('',#249,#247,#131,.F.);
#304=EDGE_CURVE('',#248,#249,#132,.F.);
#305=EDGE_CURVE('',#250,#251,#133,.T.);
#306=EDGE_CURVE('',#251,#246,#134,.T.);
#307=EDGE_CURVE('',#245,#239,#135,.T.);
#308=EDGE_CURVE('',#220,#249,#211,.T.);
#309=EDGE_CURVE('',#247,#250,#136,.T.);
#310=EDGE_CURVE('',#250,#252,#212,.T.);
#311=EDGE_CURVE('',#252,#253,#137,.T.);
#312=EDGE_CURVE('',#253,#251,#213,.T.);
#313=EDGE_CURVE('',#254,#255,#138,.T.);
#314=EDGE_CURVE('',#255,#253,#153,.T.);
#315=EDGE_CURVE('',#252,#254,#154,.T.);
#316=EDGE_CURVE('',#220,#248,#155,.T.);
#317=EDGE_CURVE('',#227,#233,#139,.F.);
#318=EDGE_CURVE('',#256,#257,#140,.T.);
#319=EDGE_CURVE('',#257,#258,#156,.T.);
#320=EDGE_CURVE('',#258,#259,#141,.T.);
#321=EDGE_CURVE('',#259,#256,#157,.T.);
#322=EDGE_CURVE('',#231,#259,#214,.T.);
#323=EDGE_CURVE('',#258,#232,#215,.T.);
#324=EDGE_CURVE('',#233,#247,#158,.T.);
#325=EDGE_CURVE('',#248,#227,#159,.T.);
#326=EDGE_CURVE('',#218,#238,#160,.T.);
#327=EDGE_CURVE('',#239,#228,#161,.T.);
#328=EDGE_CURVE('',#245,#229,#162,.T.);
#329=EDGE_CURVE('',#243,#234,#163,.T.);
#330=EDGE_CURVE('',#255,#241,#164,.T.);
#331=EDGE_CURVE('',#250,#232,#165,.T.);
#332=EDGE_CURVE('',#252,#258,#166,.T.);
#333=EDGE_CURVE('',#254,#257,#167,.T.);
#334=EDGE_CURVE('',#260,#260,#142,.T.);
#335=EDGE_CURVE('',#260,#225,#168,.T.);
#336=EDGE_CURVE('',#261,#261,#143,.T.);
#337=EDGE_CURVE('',#261,#223,#169,.T.);
#338=EDGE_CURVE('',#242,#236,#170,.T.);
#339=EDGE_CURVE('',#237,#256,#171,.T.);
#340=ORIENTED_EDGE('',*,*,#262,.F.);
#341=ORIENTED_EDGE('',*,*,#263,.T.);
#342=ORIENTED_EDGE('',*,*,#264,.T.);
#343=ORIENTED_EDGE('',*,*,#265,.F.);
#344=ORIENTED_EDGE('',*,*,#266,.F.);
#345=ORIENTED_EDGE('',*,*,#267,.F.);
#346=ORIENTED_EDGE('',*,*,#268,.T.);
#347=ORIENTED_EDGE('',*,*,#269,.T.);
#348=ORIENTED_EDGE('',*,*,#270,.T.);
#349=ORIENTED_EDGE('',*,*,#271,.T.);
#350=ORIENTED_EDGE('',*,*,#272,.T.);
#351=ORIENTED_EDGE('',*,*,#273,.F.);
#352=ORIENTED_EDGE('',*,*,#274,.T.);
#353=ORIENTED_EDGE('',*,*,#275,.T.);
#354=ORIENTED_EDGE('',*,*,#276,.F.);
#355=ORIENTED_EDGE('',*,*,#277,.F.);
#356=ORIENTED_EDGE('',*,*,#264,.F.);
#357=ORIENTED_EDGE('',*,*,#278,.T.);
#358=ORIENTED_EDGE('',*,*,#279,.T.);
#359=ORIENTED_EDGE('',*,*,#280,.F.);
#360=ORIENTED_EDGE('',*,*,#281,.T.);
#361=ORIENTED_EDGE('',*,*,#282,.T.);
#362=ORIENTED_EDGE('',*,*,#273,.T.);
#363=ORIENTED_EDGE('',*,*,#265,.T.);
#364=ORIENTED_EDGE('',*,*,#262,.T.);
#365=ORIENTED_EDGE('',*,*,#277,.T.);
#366=ORIENTED_EDGE('',*,*,#283,.T.);
#367=ORIENTED_EDGE('',*,*,#284,.T.);
#368=ORIENTED_EDGE('',*,*,#285,.T.);
#369=ORIENTED_EDGE('',*,*,#278,.F.);
#370=ORIENTED_EDGE('',*,*,#286,.T.);
#371=ORIENTED_EDGE('',*,*,#287,.T.);
#372=ORIENTED_EDGE('',*,*,#288,.T.);
#373=ORIENTED_EDGE('',*,*,#284,.F.);
#374=ORIENTED_EDGE('',*,*,#289,.T.);
#375=ORIENTED_EDGE('',*,*,#290,.F.);
#376=ORIENTED_EDGE('',*,*,#291,.F.);
#377=ORIENTED_EDGE('',*,*,#292,.F.);
#378=ORIENTED_EDGE('',*,*,#293,.T.);
#379=ORIENTED_EDGE('',*,*,#294,.T.);
#380=ORIENTED_EDGE('',*,*,#295,.T.);
#381=ORIENTED_EDGE('',*,*,#296,.T.);
#382=ORIENTED_EDGE('',*,*,#297,.T.);
#383=ORIENTED_EDGE('',*,*,#298,.T.);
#384=ORIENTED_EDGE('',*,*,#295,.F.);
#385=ORIENTED_EDGE('',*,*,#299,.T.);
#386=ORIENTED_EDGE('',*,*,#291,.T.);
#387=ORIENTED_EDGE('',*,*,#300,.T.);
#388=ORIENTED_EDGE('',*,*,#301,.T.);
#389=ORIENTED_EDGE('',*,*,#302,.F.);
#390=ORIENTED_EDGE('',*,*,#303,.F.);
#391=ORIENTED_EDGE('',*,*,#304,.F.);
#392=ORIENTED_EDGE('',*,*,#305,.T.);
#393=ORIENTED_EDGE('',*,*,#306,.T.);
#394=ORIENTED_EDGE('',*,*,#297,.F.);
#395=ORIENTED_EDGE('',*,*,#307,.T.);
#396=ORIENTED_EDGE('',*,*,#292,.T.);
#397=ORIENTED_EDGE('',*,*,#301,.F.);
#398=ORIENTED_EDGE('',*,*,#267,.T.);
#399=ORIENTED_EDGE('',*,*,#308,.T.);
#400=ORIENTED_EDGE('',*,*,#303,.T.);
#401=ORIENTED_EDGE('',*,*,#309,.T.);
#402=ORIENTED_EDGE('',*,*,#305,.F.);
#403=ORIENTED_EDGE('',*,*,#310,.T.);
#404=ORIENTED_EDGE('',*,*,#311,.T.);
#405=ORIENTED_EDGE('',*,*,#312,.T.);
#406=ORIENTED_EDGE('',*,*,#313,.T.);
#407=ORIENTED_EDGE('',*,*,#314,.T.);
#408=ORIENTED_EDGE('',*,*,#311,.F.);
#409=ORIENTED_EDGE('',*,*,#315,.T.);
#410=ORIENTED_EDGE('',*,*,#308,.F.);
#411=ORIENTED_EDGE('',*,*,#316,.T.);
#412=ORIENTED_EDGE('',*,*,#304,.T.);
#413=ORIENTED_EDGE('',*,*,#317,.F.);
#414=ORIENTED_EDGE('',*,*,#274,.F.);
#415=ORIENTED_EDGE('',*,*,#282,.F.);
#416=ORIENTED_EDGE('',*,*,#318,.T.);
#417=ORIENTED_EDGE('',*,*,#319,.T.);
#418=ORIENTED_EDGE('',*,*,#320,.T.);
#419=ORIENTED_EDGE('',*,*,#321,.T.);
#420=ORIENTED_EDGE('',*,*,#280,.T.);
#421=ORIENTED_EDGE('',*,*,#322,.T.);
#422=ORIENTED_EDGE('',*,*,#320,.F.);
#423=ORIENTED_EDGE('',*,*,#323,.T.);
#424=ORIENTED_EDGE('',*,*,#317,.T.);
#425=ORIENTED_EDGE('',*,*,#324,.T.);
#426=ORIENTED_EDGE('',*,*,#302,.T.);
#427=ORIENTED_EDGE('',*,*,#325,.T.);
#428=ORIENTED_EDGE('',*,*,#276,.T.);
#429=ORIENTED_EDGE('',*,*,#326,.T.);
#430=ORIENTED_EDGE('',*,*,#290,.T.);
#431=ORIENTED_EDGE('',*,*,#327,.T.);
#432=ORIENTED_EDGE('',*,*,#283,.F.);
#433=ORIENTED_EDGE('',*,*,#327,.F.);
#434=ORIENTED_EDGE('',*,*,#307,.F.);
#435=ORIENTED_EDGE('',*,*,#328,.T.);
#436=ORIENTED_EDGE('',*,*,#286,.F.);
#437=ORIENTED_EDGE('',*,*,#328,.F.);
#438=ORIENTED_EDGE('',*,*,#299,.F.);
#439=ORIENTED_EDGE('',*,*,#329,.T.);
#440=ORIENTED_EDGE('',*,*,#296,.F.);
#441=ORIENTED_EDGE('',*,*,#298,.F.);
#442=ORIENTED_EDGE('',*,*,#306,.F.);
#443=ORIENTED_EDGE('',*,*,#312,.F.);
#444=ORIENTED_EDGE('',*,*,#314,.F.);
#445=ORIENTED_EDGE('',*,*,#330,.T.);
#446=ORIENTED_EDGE('',*,*,#309,.F.);
#447=ORIENTED_EDGE('',*,*,#324,.F.);
#448=ORIENTED_EDGE('',*,*,#281,.F.);
#449=ORIENTED_EDGE('',*,*,#331,.F.);
#450=ORIENTED_EDGE('',*,*,#310,.F.);
#451=ORIENTED_EDGE('',*,*,#331,.T.);
#452=ORIENTED_EDGE('',*,*,#323,.F.);
#453=ORIENTED_EDGE('',*,*,#332,.F.);
#454=ORIENTED_EDGE('',*,*,#315,.F.);
#455=ORIENTED_EDGE('',*,*,#332,.T.);
#456=ORIENTED_EDGE('',*,*,#319,.F.);
#457=ORIENTED_EDGE('',*,*,#333,.F.);
#458=ORIENTED_EDGE('',*,*,#334,.F.);
#459=ORIENTED_EDGE('',*,*,#335,.T.);
#460=ORIENTED_EDGE('',*,*,#271,.F.);
#461=ORIENTED_EDGE('',*,*,#272,.F.);
#462=ORIENTED_EDGE('',*,*,#335,.F.);
#463=ORIENTED_EDGE('',*,*,#336,.F.);
#464=ORIENTED_EDGE('',*,*,#337,.T.);
#465=ORIENTED_EDGE('',*,*,#269,.F.);
#466=ORIENTED_EDGE('',*,*,#270,.F.);
#467=ORIENTED_EDGE('',*,*,#337,.F.);
#468=ORIENTED_EDGE('',*,*,#263,.F.);
#469=ORIENTED_EDGE('',*,*,#268,.F.);
#470=ORIENTED_EDGE('',*,*,#300,.F.);
#471=ORIENTED_EDGE('',*,*,#326,.F.);
#472=ORIENTED_EDGE('',*,*,#316,.F.);
#473=ORIENTED_EDGE('',*,*,#266,.T.);
#474=ORIENTED_EDGE('',*,*,#275,.F.);
#475=ORIENTED_EDGE('',*,*,#325,.F.);
#476=ORIENTED_EDGE('',*,*,#287,.F.);
#477=ORIENTED_EDGE('',*,*,#338,.F.);
#478=ORIENTED_EDGE('',*,*,#293,.F.);
#479=ORIENTED_EDGE('',*,*,#330,.F.);
#480=ORIENTED_EDGE('',*,*,#313,.F.);
#481=ORIENTED_EDGE('',*,*,#333,.T.);
#482=ORIENTED_EDGE('',*,*,#318,.F.);
#483=ORIENTED_EDGE('',*,*,#339,.F.);
#484=ORIENTED_EDGE('',*,*,#334,.T.);
#485=ORIENTED_EDGE('',*,*,#336,.T.);
#486=ORIENTED_EDGE('',*,*,#289,.F.);
#487=ORIENTED_EDGE('',*,*,#329,.F.);
#488=ORIENTED_EDGE('',*,*,#294,.F.);
#489=ORIENTED_EDGE('',*,*,#338,.T.);
#490=ORIENTED_EDGE('',*,*,#279,.F.);
#491=ORIENTED_EDGE('',*,*,#285,.F.);
#492=ORIENTED_EDGE('',*,*,#288,.F.);
#493=ORIENTED_EDGE('',*,*,#339,.T.);
#494=ORIENTED_EDGE('',*,*,#321,.F.);
#495=ORIENTED_EDGE('',*,*,#322,.F.);
#496=CYLINDRICAL_SURFACE('',#559,0.75);
#497=CYLINDRICAL_SURFACE('',#561,13.);
#498=CYLINDRICAL_SURFACE('',#564,0.75);
#499=CYLINDRICAL_SURFACE('',#577,0.75);
#500=CYLINDRICAL_SURFACE('',#583,0.75);
#501=CYLINDRICAL_SURFACE('',#587,0.75);
#502=CYLINDRICAL_SURFACE('',#598,0.75);
#503=CYLINDRICAL_SURFACE('',#600,0.75);
#504=CYLINDRICAL_SURFACE('',#603,0.75);
#505=CYLINDRICAL_SURFACE('',#606,0.75);
#506=CYLINDRICAL_SURFACE('',#607,0.75);
#507=CYLINDRICAL_SURFACE('',#608,14.5);
#508=CYLINDRICAL_SURFACE('',#610,14.5);
#509=CYLINDRICAL_SURFACE('',#612,1.25);
#510=CYLINDRICAL_SURFACE('',#614,1.25);
#511=ADVANCED_FACE('',(#38),#496,.T.);
#512=ADVANCED_FACE('',(#39,#34,#35),#497,.F.);
#513=ADVANCED_FACE('',(#40),#498,.T.);
#514=ADVANCED_FACE('',(#41),#30,.T.);
#515=ADVANCED_FACE('',(#42),#28,.T.);
#516=ADVANCED_FACE('',(#43),#24,.F.);
#517=ADVANCED_FACE('',(#44),#499,.T.);
#518=ADVANCED_FACE('',(#45),#31,.T.);
#519=ADVANCED_FACE('',(#46),#500,.T.);
#520=ADVANCED_FACE('',(#47),#25,.F.);
#521=ADVANCED_FACE('',(#48),#501,.T.);
#522=ADVANCED_FACE('',(#49),#32,.T.);
#523=ADVANCED_FACE('',(#50),#29,.T.);
#524=ADVANCED_FACE('',(#51),#26,.F.);
#525=ADVANCED_FACE('',(#52),#502,.T.);
#526=ADVANCED_FACE('',(#53),#503,.T.);
#527=ADVANCED_FACE('',(#54),#33,.T.);
#528=ADVANCED_FACE('',(#55),#504,.T.);
#529=ADVANCED_FACE('',(#56),#27,.F.);
#530=ADVANCED_FACE('',(#57),#505,.T.);
#531=ADVANCED_FACE('',(#58),#506,.T.);
#532=ADVANCED_FACE('',(#59),#507,.T.);
#533=ADVANCED_FACE('',(#60),#22,.T.);
#534=ADVANCED_FACE('',(#61),#15,.T.);
#535=ADVANCED_FACE('',(#62),#508,.T.);
#536=ADVANCED_FACE('',(#63),#23,.T.);
#537=ADVANCED_FACE('',(#64),#16,.T.);
#538=ADVANCED_FACE('',(#65),#509,.F.);
#539=ADVANCED_FACE('',(#66),#510,.F.);
#540=ADVANCED_FACE('',(#67),#17,.T.);
#541=ADVANCED_FACE('',(#68),#18,.T.);
#542=ADVANCED_FACE('',(#69,#36,#37),#19,.T.);
#543=ADVANCED_FACE('',(#70),#20,.T.);
#544=ADVANCED_FACE('',(#71),#21,.F.);
#545=CLOSED_SHELL('',(#511,#512,#513,#514,#515,#516,#517,#518,#519,#520,
#521,#522,#523,#524,#525,#526,#527,#528,#529,#530,#531,#532,#533,#534,#535,
#536,#537,#538,#539,#540,#541,#542,#543,#544));
#546=DERIVED_UNIT_ELEMENT(#548,1.);
#547=DERIVED_UNIT_ELEMENT(#1261,-3.);
#548=(
MASS_UNIT()
NAMED_UNIT(*)
SI_UNIT(.KILO.,.GRAM.)
);
#549=DERIVED_UNIT((#546,#547));
#550=MEASURE_REPRESENTATION_ITEM('density measure',
POSITIVE_RATIO_MEASURE(7850.),#549);
#551=PROPERTY_DEFINITION_REPRESENTATION(#556,#553);
#552=PROPERTY_DEFINITION_REPRESENTATION(#557,#554);
#553=REPRESENTATION('material name',(#555),#1258);
#554=REPRESENTATION('density',(#550),#1258);
#555=DESCRIPTIVE_REPRESENTATION_ITEM('Steel','Steel');
#556=PROPERTY_DEFINITION('material property','material name',#1268);
#557=PROPERTY_DEFINITION('material property','density of part',#1268);
#558=AXIS2_PLACEMENT_3D('',#775,#621,#622);
#559=AXIS2_PLACEMENT_3D('',#776,#623,#624);
#560=AXIS2_PLACEMENT_3D('',#795,#626,#627);
#561=AXIS2_PLACEMENT_3D('',#796,#628,#629);
#562=AXIS2_PLACEMENT_3D('',#798,#630,#631);
#563=AXIS2_PLACEMENT_3D('',#802,#633,#634);
#564=AXIS2_PLACEMENT_3D('',#888,#636,#637);
#565=AXIS2_PLACEMENT_3D('',#905,#638,#639);
#566=AXIS2_PLACEMENT_3D('',#907,#641,#642);
#567=AXIS2_PLACEMENT_3D('',#909,#643,#644);
#568=AXIS2_PLACEMENT_3D('',#910,#645,#646);
#569=AXIS2_PLACEMENT_3D('',#911,#647,#648);
#570=AXIS2_PLACEMENT_3D('',#914,#649,#650);
#571=AXIS2_PLACEMENT_3D('',#916,#651,#652);
#572=AXIS2_PLACEMENT_3D('',#918,#653,#654);
#573=AXIS2_PLACEMENT_3D('',#920,#655,#656);
#574=AXIS2_PLACEMENT_3D('',#921,#657,#658);
#575=AXIS2_PLACEMENT_3D('',#922,#659,#660);
#576=AXIS2_PLACEMENT_3D('',#955,#661,#662);
#577=AXIS2_PLACEMENT_3D('',#968,#663,#664);
#578=AXIS2_PLACEMENT_3D('',#971,#665,#666);
#579=AXIS2_PLACEMENT_3D('',#974,#669,#670);
#580=AXIS2_PLACEMENT_3D('',#977,#671,#672);
#581=AXIS2_PLACEMENT_3D('',#979,#673,#674);
#582=AXIS2_PLACEMENT_3D('',#980,#675,#676);
#583=AXIS2_PLACEMENT_3D('',#981,#677,#678);
#584=AXIS2_PLACEMENT_3D('',#984,#679,#680);
#585=AXIS2_PLACEMENT_3D('',#988,#682,#683);
#586=AXIS2_PLACEMENT_3D('',#1022,#685,#686);
#587=AXIS2_PLACEMENT_3D('',#1035,#687,#688);
#588=AXIS2_PLACEMENT_3D('',#1051,#690,#691);
#589=AXIS2_PLACEMENT_3D('',#1054,#692,#693);
#590=AXIS2_PLACEMENT_3D('',#1056,#694,#695);
#591=AXIS2_PLACEMENT_3D('',#1057,#696,#697);
#592=AXIS2_PLACEMENT_3D('',#1058,#698,#699);
#593=AXIS2_PLACEMENT_3D('',#1061,#700,#701);
#594=AXIS2_PLACEMENT_3D('',#1062,#702,#703);
#595=AXIS2_PLACEMENT_3D('',#1063,#704,#705);
#596=AXIS2_PLACEMENT_3D('',#1078,#706,#707);
#597=AXIS2_PLACEMENT_3D('',#1117,#708,#709);
#598=AXIS2_PLACEMENT_3D('',#1124,#710,#711);
#599=AXIS2_PLACEMENT_3D('',#1127,#712,#713);
#600=AXIS2_PLACEMENT_3D('',#1130,#716,#717);
#601=AXIS2_PLACEMENT_3D('',#1132,#719,#720);
#602=AXIS2_PLACEMENT_3D('',#1133,#721,#722);
#603=AXIS2_PLACEMENT_3D('',#1134,#723,#724);
#604=AXIS2_PLACEMENT_3D('',#1137,#725,#726);
#605=AXIS2_PLACEMENT_3D('',#1141,#728,#729);
#606=AXIS2_PLACEMENT_3D('',#1185,#731,#732);
#607=AXIS2_PLACEMENT_3D('',#1188,#735,#736);
#608=AXIS2_PLACEMENT_3D('',#1191,#739,#740);
#609=AXIS2_PLACEMENT_3D('',#1214,#743,#744);
#610=AXIS2_PLACEMENT_3D('',#1216,#746,#747);
#611=AXIS2_PLACEMENT_3D('',#1239,#750,#751);
#612=AXIS2_PLACEMENT_3D('',#1241,#753,#754);
#613=AXIS2_PLACEMENT_3D('',#1243,#755,#756);
#614=AXIS2_PLACEMENT_3D('',#1245,#758,#759);
#615=AXIS2_PLACEMENT_3D('',#1247,#760,#761);
#616=AXIS2_PLACEMENT_3D('',#1249,#763,#764);
#617=AXIS2_PLACEMENT_3D('',#1250,#765,#766);
#618=AXIS2_PLACEMENT_3D('',#1251,#767,#768);
#619=AXIS2_PLACEMENT_3D('',#1254,#771,#772);
#620=AXIS2_PLACEMENT_3D('',#1255,#773,#774);
#621=DIRECTION('axis',(0.,0.,1.));
#622=DIRECTION('refdir',(1.,0.,0.));
#623=DIRECTION('center_axis',(0.,-0.819152044288992,0.573576436351046));
#624=DIRECTION('ref_axis',(0.707106781186545,0.405579787672641,0.579227965339572));
#625=DIRECTION('',(0.,-0.819152044288992,0.573576436351046));
#626=DIRECTION('center_axis',(0.,-0.819152044288992,0.573576436351046));
#627=DIRECTION('ref_axis',(0.,0.573576436351046,0.819152044288992));
#628=DIRECTION('center_axis',(1.,0.,0.));
#629=DIRECTION('ref_axis',(0.,-2.83276944882399E-16,-1.));
#630=DIRECTION('center_axis',(-1.,0.,0.));
#631=DIRECTION('ref_axis',(0.,1.83697019872103E-16,-1.));
#632=DIRECTION('',(1.,0.,0.));
#633=DIRECTION('center_axis',(1.,0.,0.));
#634=DIRECTION('ref_axis',(0.,1.83697019872103E-16,-1.));
#635=DIRECTION('',(1.,0.,0.));
#636=DIRECTION('center_axis',(0.,-0.819152044288992,-0.573576436351046));
#637=DIRECTION('ref_axis',(0.707106781186545,-0.405579787672641,0.579227965339572));
#638=DIRECTION('center_axis',(0.,0.819152044288993,0.573576436351044));
#639=DIRECTION('ref_axis',(1.,0.,0.));
#640=DIRECTION('',(0.,-0.819152044288992,-0.573576436351046));
#641=DIRECTION('center_axis',(-0.0966261143760987,-0.986771555586928,-0.130174080004936));
#642=DIRECTION('ref_axis',(0.588142797019169,-0.162116924115138,0.792342194528295));
#643=DIRECTION('center_axis',(1.,0.,0.));
#644=DIRECTION('ref_axis',(0.,-0.849218550709627,0.528041525952875));
#645=DIRECTION('center_axis',(0.,0.528041525952875,0.849218550709627));
#646=DIRECTION('ref_axis',(1.,0.,0.));
#647=DIRECTION('center_axis',(1.,0.,0.));
#648=DIRECTION('ref_axis',(0.,0.,-1.));
#649=DIRECTION('center_axis',(0.,0.499999999999999,0.866025403784439));
#650=DIRECTION('ref_axis',(0.,-0.866025403784439,0.499999999999999));
#651=DIRECTION('center_axis',(1.,0.,0.));
#652=DIRECTION('ref_axis',(0.,1.83697019872103E-16,-1.));
#653=DIRECTION('center_axis',(-1.48029736616689E-15,0.500000000000002,-0.866025403784438));
#654=DIRECTION('ref_axis',(0.,0.866025403784438,0.500000000000002));
#655=DIRECTION('center_axis',(1.,0.,0.));
#656=DIRECTION('ref_axis',(0.,0.843391445812885,0.537299608346824));
#657=DIRECTION('center_axis',(0.,-0.528041525952875,0.849218550709627));
#658=DIRECTION('ref_axis',(0.,0.849218550709627,0.528041525952875));
#659=DIRECTION('center_axis',(1.,0.,0.));
#660=DIRECTION('ref_axis',(0.,-0.843391445812886,0.537299608346824));
#661=DIRECTION('center_axis',(0.,0.,1.));
#662=DIRECTION('ref_axis',(0.,-1.,0.));
#663=DIRECTION('center_axis',(0.,0.,-1.));
#664=DIRECTION('ref_axis',(0.707106781186545,-0.70710678118655,0.));
#665=DIRECTION('center_axis',(0.,0.,1.));
#666=DIRECTION('ref_axis',(0.707106781186545,-0.70710678118655,0.));
#667=DIRECTION('',(0.,0.,1.));
#668=DIRECTION('',(0.,0.,-1.));
#669=DIRECTION('center_axis',(0.0966261143760978,-0.986771555586929,-0.13017408000493));
#670=DIRECTION('ref_axis',(-0.58814279701918,-0.162116924115131,0.792342194528289));
#671=DIRECTION('center_axis',(-1.,9.71517199687046E-15,-6.80263666721254E-15));
#672=DIRECTION('ref_axis',(0.,0.573576436351044,0.819152044288993));
#673=DIRECTION('center_axis',(0.,-0.819152044288992,0.573576436351046));
#674=DIRECTION('ref_axis',(-1.,0.,0.));
#675=DIRECTION('center_axis',(0.,0.52804152595287,0.84921855070963));
#676=DIRECTION('ref_axis',(0.,-0.84921855070963,0.52804152595287));
#677=DIRECTION('center_axis',(0.,0.,1.));
#678=DIRECTION('ref_axis',(-0.707106781186545,-0.70710678118655,0.));
#679=DIRECTION('center_axis',(0.,0.,1.));
#680=DIRECTION('ref_axis',(-0.707106781186545,-0.70710678118655,0.));
#681=DIRECTION('',(0.,0.,1.));
#682=DIRECTION('center_axis',(0.,0.,-1.));
#683=DIRECTION('ref_axis',(0.,-1.,0.));
#684=DIRECTION('',(0.,0.,-1.));
#685=DIRECTION('center_axis',(0.,-0.500000000000002,-0.866025403784438));
#686=DIRECTION('ref_axis',(0.,-0.866025403784438,0.500000000000002));
#687=DIRECTION('center_axis',(0.,-0.819152044288992,0.573576436351046));
#688=DIRECTION('ref_axis',(-0.707106781186553,0.405579787672635,0.579227965339565));
#689=DIRECTION('',(0.,0.819152044288992,-0.573576436351046));
#690=DIRECTION('center_axis',(-0.0966261143760976,-0.986771555586929,0.130174080004929));
#691=DIRECTION('ref_axis',(-0.588142797019178,0.162116924115131,0.79234219452829));
#692=DIRECTION('center_axis',(-1.,6.26259103165011E-15,-1.00717618183304E-14));
#693=DIRECTION('ref_axis',(0.,0.849218550709629,0.528041525952872));
#694=DIRECTION('center_axis',(0.,-0.528041525952879,0.849218550709625));
#695=DIRECTION('ref_axis',(-1.,0.,0.));
#696=DIRECTION('center_axis',(-8.24660920670825E-15,0.819152044288992,0.573576436351046));
#697=DIRECTION('ref_axis',(0.,-0.573576436351046,0.819152044288992));
#698=DIRECTION('center_axis',(-1.,0.,0.));
#699=DIRECTION('ref_axis',(0.,1.22464679914735E-16,-1.));
#700=DIRECTION('center_axis',(0.,-0.5,0.866025403784438));
#701=DIRECTION('ref_axis',(0.,0.866025403784438,0.5));
#702=DIRECTION('center_axis',(-1.,0.,0.));
#703=DIRECTION('ref_axis',(0.,1.83697019872103E-16,-1.));
#704=DIRECTION('center_axis',(-1.,0.,0.));
#705=DIRECTION('ref_axis',(0.,-0.843391445812886,0.537299608346824));
#706=DIRECTION('center_axis',(-1.,0.,0.));
#707=DIRECTION('ref_axis',(0.,0.843391445812886,0.537299608346824));
#708=DIRECTION('center_axis',(0.,0.,1.));
#709=DIRECTION('ref_axis',(0.,1.,0.));
#710=DIRECTION('center_axis',(0.,0.,-1.));
#711=DIRECTION('ref_axis',(-0.707106781186545,0.70710678118655,0.));
#712=DIRECTION('center_axis',(0.,0.,1.));
#713=DIRECTION('ref_axis',(-0.707106781186545,0.70710678118655,0.));
#714=DIRECTION('',(0.,0.,1.));
#715=DIRECTION('',(0.,0.,-1.));
#716=DIRECTION('center_axis',(0.,0.819152044288992,0.573576436351046));
#717=DIRECTION('ref_axis',(-0.707106781186545,-0.405579787672641,0.579227965339572));
#718=DIRECTION('',(0.,0.819152044288992,0.573576436351046));
#719=DIRECTION('center_axis',(0.0966261143760989,-0.986771555586928,0.130174080004936));
#720=DIRECTION('ref_axis',(0.588142797019171,0.162116924115144,0.792342194528293));
#721=DIRECTION('center_axis',(1.,0.,0.));
#722=DIRECTION('ref_axis',(0.,-0.573576436351046,0.819152044288992));
#723=DIRECTION('center_axis',(0.,0.,1.));
#724=DIRECTION('ref_axis',(0.707106781186545,0.70710678118655,0.));
#725=DIRECTION('center_axis',(0.,0.,1.));
#726=DIRECTION('ref_axis',(0.707106781186545,0.70710678118655,0.));
#727=DIRECTION('',(0.,0.,1.));
#728=DIRECTION('center_axis',(0.,0.,-1.));
#729=DIRECTION('ref_axis',(0.,1.,0.));
#730=DIRECTION('',(0.,0.,-1.));
#731=DIRECTION('center_axis',(1.,0.,0.));
#732=DIRECTION('ref_axis',(0.,0.20045193257611,0.979703538182088));
#733=DIRECTION('',(-1.,0.,0.));
#734=DIRECTION('',(1.,0.,0.));
#735=DIRECTION('center_axis',(1.,0.,0.));
#736=DIRECTION('ref_axis',(0.,-0.200451932576112,0.979703538182088));
#737=DIRECTION('',(-1.,0.,0.));
#738=DIRECTION('',(1.,0.,0.));
#739=DIRECTION('center_axis',(1.,0.,0.));
#740=DIRECTION('ref_axis',(0.,-1.,0.));
#741=DIRECTION('',(1.,0.,0.));
#742=DIRECTION('',(1.,0.,0.));
#743=DIRECTION('center_axis',(-1.,0.,0.));
#744=DIRECTION('ref_axis',(0.,-1.,0.));
#745=DIRECTION('',(0.,-1.,0.));
#746=DIRECTION('center_axis',(1.,0.,0.));
#747=DIRECTION('ref_axis',(0.,-1.,0.));
#748=DIRECTION('',(1.,0.,0.));
#749=DIRECTION('',(1.,0.,0.));
#750=DIRECTION('center_axis',(0.,1.,0.));
#751=DIRECTION('ref_axis',(0.,0.,1.));
#752=DIRECTION('',(1.,0.,0.));
#753=DIRECTION('center_axis',(0.,0.,1.));
#754=DIRECTION('ref_axis',(-1.,0.,0.));
#755=DIRECTION('center_axis',(0.,0.,1.));
#756=DIRECTION('ref_axis',(-1.,0.,0.));
#757=DIRECTION('',(0.,0.,1.));
#758=DIRECTION('center_axis',(0.,0.,1.));
#759=DIRECTION('ref_axis',(-1.,0.,0.));
#760=DIRECTION('center_axis',(0.,0.,1.));
#761=DIRECTION('ref_axis',(-1.,0.,0.));
#762=DIRECTION('',(0.,0.,1.));
#763=DIRECTION('center_axis',(0.,0.573576436351046,0.819152044288992));
#764=DIRECTION('ref_axis',(0.,-0.819152044288992,0.573576436351046));
#765=DIRECTION('center_axis',(0.,-0.573576436351046,0.819152044288992));
#766=DIRECTION('ref_axis',(0.,-0.819152044288992,-0.573576436351046));
#767=DIRECTION('center_axis',(0.,0.,-1.));
#768=DIRECTION('ref_axis',(0.,1.,0.));
#769=DIRECTION('',(1.,0.,0.));
#770=DIRECTION('',(0.,1.,0.));
#771=DIRECTION('center_axis',(0.,-1.,0.));
#772=DIRECTION('ref_axis',(0.,0.,-1.));
#773=DIRECTION('center_axis',(-1.,0.,0.));
#774=DIRECTION('ref_axis',(0.,0.,1.));
#775=CARTESIAN_POINT('',(0.,0.,0.));
#776=CARTESIAN_POINT('Origin',(84.25,-4.96965825092922,19.5642112280556));
#777=CARTESIAN_POINT('',(84.25,-10.6489765757569,24.4564936725636));
#778=CARTESIAN_POINT('',(85.,-11.6767550722574,24.260570981852));
#779=CARTESIAN_POINT('Ctrl Pts',(84.25,-10.6489765757569,24.4564936725636));
#780=CARTESIAN_POINT('Ctrl Pts',(84.3141693494866,-10.6489765757569,24.4564936725636));
#781=CARTESIAN_POINT('Ctrl Pts',(84.3771015130545,-10.6604398157179,24.4544771933341));
#782=CARTESIAN_POINT('Ctrl Pts',(84.5210896409176,-10.7121424183106,24.4453119156211));
#783=CARTESIAN_POINT('Ctrl Pts',(84.596447510152,-10.7605364057475,24.4366960938911));
#784=CARTESIAN_POINT('Ctrl Pts',(84.7341876106961,-10.8859490243755,24.4139745416982));
#785=CARTESIAN_POINT('Ctrl Pts',(84.79413639081,-10.9649833608284,24.3994612850271));
#786=CARTESIAN_POINT('Ctrl Pts',(84.8956784721899,-11.1445482422016,24.3657776027169));
#787=CARTESIAN_POINT('Ctrl Pts',(84.9350704702374,-11.2478564416237,24.3460085896277));
#788=CARTESIAN_POINT('Ctrl Pts',(84.9866932870663,-11.45747862405,24.3049405727198));
#789=CARTESIAN_POINT('Ctrl Pts',(84.9996316419262,-11.5651459828818,24.2833933484127));
#790=CARTESIAN_POINT('Ctrl Pts',(84.9999974150305,-11.6736873036944,24.2611985678348));
#791=CARTESIAN_POINT('Ctrl Pts',(85.,-11.6752211980532,24.2608848196984));
#792=CARTESIAN_POINT('Ctrl Pts',(85.,-11.6767550722574,24.260570981852));
#793=CARTESIAN_POINT('',(84.25,-11.2465727449941,24.8749350150687));
#794=CARTESIAN_POINT('',(84.25,-4.53947592366593,20.1785752612724));
#795=CARTESIAN_POINT('Origin',(84.25,-11.6767550722574,24.260570981852));
#796=CARTESIAN_POINT('Origin',(70.,-7.88214979396962E-16,17.));
#797=CARTESIAN_POINT('',(84.25,10.6489765757569,24.4564936725636));
#798=CARTESIAN_POINT('Origin',(84.25,-7.88214979396962E-16,17.));
#799=CARTESIAN_POINT('',(70.75,10.6489765757569,24.4564936725636));
#800=CARTESIAN_POINT('',(70.,10.6489765757569,24.4564936725636));
#801=CARTESIAN_POINT('',(70.75,-10.6489765757569,24.4564936725636));
#802=CARTESIAN_POINT('Origin',(70.75,-7.88214979396962E-16,17.));
#803=CARTESIAN_POINT('',(70.,-10.6489765757569,24.4564936725636));
#804=CARTESIAN_POINT('',(77.5,7.5,6.38161970920235));
#805=CARTESIAN_POINT('',(78.75,8.75,7.3855577384853));
#806=CARTESIAN_POINT('Ctrl Pts',(77.5,7.5,6.38161970920235));
#807=CARTESIAN_POINT('Ctrl Pts',(77.3458545945257,7.5,6.38161970920235));
#808=CARTESIAN_POINT('Ctrl Pts',(77.1840219373164,7.53042303382344,6.4029320174965));
#809=CARTESIAN_POINT('Ctrl Pts',(76.8918992115007,7.64663093219362,6.48647744333078));
#810=CARTESIAN_POINT('Ctrl Pts',(76.7615219287874,7.73213092509416,6.54880156349231));
#811=CARTESIAN_POINT('Ctrl Pts',(76.5229917440548,7.94871199626325,6.71203879946646));
#812=CARTESIAN_POINT('Ctrl Pts',(76.4160226763529,8.10314860130207,6.83225290127852));
#813=CARTESIAN_POINT('Ctrl Pts',(76.2796292355801,8.42732579871506,7.09927889334072));
#814=CARTESIAN_POINT('Ctrl Pts',(76.25,8.59688351291863,7.24620807830533));
#815=CARTESIAN_POINT('Ctrl Pts',(76.25,8.91864712840181,7.53904166749308));
#816=CARTESIAN_POINT('Ctrl Pts',(76.2855774117495,9.09621411356983,7.70950217893807));
#817=CARTESIAN_POINT('Ctrl Pts',(76.431974780276,9.42380157448214,8.04196311511064));
#818=CARTESIAN_POINT('Ctrl Pts',(76.542265673037,9.57405388397681,8.20396782404558));
#819=CARTESIAN_POINT('Ctrl Pts',(76.7774745498075,9.77795087463843,8.43219044588025));
#820=CARTESIAN_POINT('Ctrl Pts',(76.900522691039,9.8572942179082,8.52408502708394));
#821=CARTESIAN_POINT('Ctrl Pts',(77.1120332966059,9.94068265939552,8.62237060989648));
#822=CARTESIAN_POINT('Ctrl Pts',(77.1870211157181,9.96274276778736,8.64869652100519));
#823=CARTESIAN_POINT('Ctrl Pts',(77.3415169849772,9.99239953108479,8.68420124926596));
#824=CARTESIAN_POINT('Ctrl Pts',(77.4210252059464,10.,8.69337613708192));
#825=CARTESIAN_POINT('Ctrl Pts',(77.5789747940536,10.,8.69337613708192));
#826=CARTESIAN_POINT('Ctrl Pts',(77.6584830150228,9.99239953108479,8.68420124926596));
#827=CARTESIAN_POINT('Ctrl Pts',(77.8129788842819,9.96274276778736,8.64869652100519));
#828=CARTESIAN_POINT('Ctrl Pts',(77.8879667033941,9.94068265939553,8.62237060989649));
#829=CARTESIAN_POINT('Ctrl Pts',(78.099477308961,9.85729421790821,8.52408502708395));
#830=CARTESIAN_POINT('Ctrl Pts',(78.2225254501925,9.77795087463843,8.43219044588025));
#831=CARTESIAN_POINT('Ctrl Pts',(78.457734326963,9.57405388397681,8.20396782404558));
#832=CARTESIAN_POINT('Ctrl Pts',(78.568025219724,9.42380157448215,8.04196311511064));
#833=CARTESIAN_POINT('Ctrl Pts',(78.7144225882505,9.09621411356983,7.70950217893807));
#834=CARTESIAN_POINT('Ctrl Pts',(78.75,8.91864712840181,7.53904166749309));
#835=CARTESIAN_POINT('Ctrl Pts',(78.75,8.75,7.3855577384853));
#836=CARTESIAN_POINT('Ctrl Pts',(78.75,8.75,7.3855577384853));
#837=CARTESIAN_POINT('Ctrl Pts',(78.75,8.59688351291863,7.24620807830533));
#838=CARTESIAN_POINT('Ctrl Pts',(78.7203707644199,8.42732579871506,7.09927889334072));
#839=CARTESIAN_POINT('Ctrl Pts',(78.5839773236471,8.10314860130207,6.83225290127852));
#840=CARTESIAN_POINT('Ctrl Pts',(78.4770082559452,7.94871199626325,6.71203879946646));
#841=CARTESIAN_POINT('Ctrl Pts',(78.2384780712126,7.73213092509416,6.54880156349231));
#842=CARTESIAN_POINT('Ctrl Pts',(78.1081007884993,7.64663093219362,6.48647744333078));
#843=CARTESIAN_POINT('Ctrl Pts',(77.8159780626836,7.53042303382344,6.4029320174965));
#844=CARTESIAN_POINT('Ctrl Pts',(77.6541454054743,7.5,6.38161970920235));
#845=CARTESIAN_POINT('Ctrl Pts',(77.5,7.5,6.38161970920235));
#846=CARTESIAN_POINT('',(77.5,-10.,8.69337613708192));
#847=CARTESIAN_POINT('',(78.75,-8.75,7.38555773848529));
#848=CARTESIAN_POINT('Ctrl Pts',(77.5,-10.,8.69337613708192));
#849=CARTESIAN_POINT('Ctrl Pts',(77.4210252059464,-10.,8.69337613708192));
#850=CARTESIAN_POINT('Ctrl Pts',(77.3415169849772,-9.99239953108479,8.68420124926595));
#851=CARTESIAN_POINT('Ctrl Pts',(77.1870211157181,-9.96274276778735,8.64869652100518));
#852=CARTESIAN_POINT('Ctrl Pts',(77.1120332966059,-9.94068265939552,8.62237060989648));
#853=CARTESIAN_POINT('Ctrl Pts',(76.900522691039,-9.8572942179082,8.52408502708393));
#854=CARTESIAN_POINT('Ctrl Pts',(76.7774745498075,-9.77795087463843,8.43219044588025));
#855=CARTESIAN_POINT('Ctrl Pts',(76.542265673037,-9.57405388397681,8.20396782404558));
#856=CARTESIAN_POINT('Ctrl Pts',(76.431974780276,-9.42380157448215,8.04196311511063));
#857=CARTESIAN_POINT('Ctrl Pts',(76.2855774117495,-9.09621411356983,7.70950217893807));
#858=CARTESIAN_POINT('Ctrl Pts',(76.25,-8.91864712840181,7.53904166749308));
#859=CARTESIAN_POINT('Ctrl Pts',(76.25,-8.59688351291863,7.24620807830533));
#860=CARTESIAN_POINT('Ctrl Pts',(76.2796292355801,-8.42732579871506,7.09927889334072));
#861=CARTESIAN_POINT('Ctrl Pts',(76.4160226763529,-8.10314860130207,6.83225290127851));
#862=CARTESIAN_POINT('Ctrl Pts',(76.5229917440548,-7.94871199626325,6.71203879946645));
#863=CARTESIAN_POINT('Ctrl Pts',(76.7615219287874,-7.73213092509416,6.5488015634923));
#864=CARTESIAN_POINT('Ctrl Pts',(76.8918992115007,-7.64663093219363,6.48647744333078));
#865=CARTESIAN_POINT('Ctrl Pts',(77.1840219373164,-7.53042303382345,6.40293201749649));
#866=CARTESIAN_POINT('Ctrl Pts',(77.3458545945257,-7.5,6.38161970920235));
#867=CARTESIAN_POINT('Ctrl Pts',(77.6541454054743,-7.5,6.38161970920235));
#868=CARTESIAN_POINT('Ctrl Pts',(77.8159780626836,-7.53042303382344,6.40293201749649));
#869=CARTESIAN_POINT('Ctrl Pts',(78.1081007884993,-7.64663093219362,6.48647744333078));
#870=CARTESIAN_POINT('Ctrl Pts',(78.2384780712126,-7.73213092509416,6.5488015634923));
#871=CARTESIAN_POINT('Ctrl Pts',(78.4770082559452,-7.94871199626325,6.71203879946645));
#872=CARTESIAN_POINT('Ctrl Pts',(78.5839773236471,-8.10314860130207,6.83225290127851));
#873=CARTESIAN_POINT('Ctrl Pts',(78.7203707644199,-8.42732579871506,7.09927889334072));
#874=CARTESIAN_POINT('Ctrl Pts',(78.75,-8.59688351291863,7.24620807830533));
#875=CARTESIAN_POINT('Ctrl Pts',(78.75,-8.75,7.38555773848529));
#876=CARTESIAN_POINT('Ctrl Pts',(78.75,-8.75,7.38555773848529));
#877=CARTESIAN_POINT('Ctrl Pts',(78.75,-8.91864712840181,7.53904166749308));
#878=CARTESIAN_POINT('Ctrl Pts',(78.7144225882505,-9.09621411356983,7.70950217893807));
#879=CARTESIAN_POINT('Ctrl Pts',(78.568025219724,-9.42380157448215,8.04196311511063));
#880=CARTESIAN_POINT('Ctrl Pts',(78.457734326963,-9.57405388397681,8.20396782404558));
#881=CARTESIAN_POINT('Ctrl Pts',(78.2225254501925,-9.77795087463843,8.43219044588025));
#882=CARTESIAN_POINT('Ctrl Pts',(78.099477308961,-9.8572942179082,8.52408502708393));
#883=CARTESIAN_POINT('Ctrl Pts',(77.8879667033941,-9.94068265939552,8.62237060989647));
#884=CARTESIAN_POINT('Ctrl Pts',(77.8129788842819,-9.96274276778735,8.64869652100518));
#885=CARTESIAN_POINT('Ctrl Pts',(77.6584830150228,-9.99239953108479,8.68420124926595));
#886=CARTESIAN_POINT('Ctrl Pts',(77.5789747940536,-10.,8.69337613708192));
#887=CARTESIAN_POINT('Ctrl Pts',(77.5,-10.,8.69337613708192));
#888=CARTESIAN_POINT('Origin',(84.25,5.58402228414595,19.9943935553189));
#889=CARTESIAN_POINT('',(85.,11.6767550722574,24.260570981852));
#890=CARTESIAN_POINT('Ctrl Pts',(85.,11.6767550722574,24.260570981852));
#891=CARTESIAN_POINT('Ctrl Pts',(85.,11.6752211980533,24.2608848196984));
#892=CARTESIAN_POINT('Ctrl Pts',(84.9999974150305,11.6736873036944,24.2611985678348));
#893=CARTESIAN_POINT('Ctrl Pts',(84.9996316419262,11.5651459828839,24.2833933484123));
#894=CARTESIAN_POINT('Ctrl Pts',(84.9866932870664,11.4574786240503,24.3049405727198));
#895=CARTESIAN_POINT('Ctrl Pts',(84.9350704702374,11.2478564416237,24.3460085896277));
#896=CARTESIAN_POINT('Ctrl Pts',(84.8956784721899,11.1445482422016,24.3657776027169));
#897=CARTESIAN_POINT('Ctrl Pts',(84.7941363908101,10.9649833608285,24.3994612850271));
#898=CARTESIAN_POINT('Ctrl Pts',(84.7341876106962,10.8859490243756,24.4139745416982));
#899=CARTESIAN_POINT('Ctrl Pts',(84.596447510152,10.7605364057474,24.4366960938911));
#900=CARTESIAN_POINT('Ctrl Pts',(84.5210896409176,10.7121424183106,24.4453119156211));
#901=CARTESIAN_POINT('Ctrl Pts',(84.3771015130546,10.6604398157179,24.4544771933341));
#902=CARTESIAN_POINT('Ctrl Pts',(84.3141693494866,10.6489765757569,24.4564936725636));
#903=CARTESIAN_POINT('Ctrl Pts',(84.25,10.6489765757569,24.4564936725636));
#904=CARTESIAN_POINT('',(84.25,11.2465727449941,24.8749350150687));
#905=CARTESIAN_POINT('Origin',(84.25,11.6767550722574,24.260570981852));
#906=CARTESIAN_POINT('',(84.25,5.15383995688267,20.6087575885357));
#907=CARTESIAN_POINT('Origin',(84.25,-11.6767550722574,24.260570981852));
#908=CARTESIAN_POINT('',(84.25,-12.3136689852896,24.6566021263167));
#909=CARTESIAN_POINT('Origin',(84.25,-11.6767550722574,24.260570981852));
#910=CARTESIAN_POINT('Origin',(84.25,-11.6767550722574,24.260570981852));
#911=CARTESIAN_POINT('Origin',(84.25,-7.88214979396962E-16,17.));
#912=CARTESIAN_POINT('',(84.25,-12.5573683548744,24.25));
#913=CARTESIAN_POINT('',(85.,-11.907849302036,23.875));
#914=CARTESIAN_POINT('Origin',(84.25,-11.907849302036,23.875));
#915=CARTESIAN_POINT('',(85.,11.907849302036,23.875));
#916=CARTESIAN_POINT('Origin',(85.,-7.88214979396962E-16,17.));
#917=CARTESIAN_POINT('',(84.25,12.5573683548744,24.25));
#918=CARTESIAN_POINT('Origin',(84.25,11.907849302036,23.875));
#919=CARTESIAN_POINT('',(84.25,12.3136689852896,24.6566021263167));
#920=CARTESIAN_POINT('Origin',(84.25,-7.88214979396962E-16,17.));
#921=CARTESIAN_POINT('Origin',(84.25,11.6767550722574,24.260570981852));
#922=CARTESIAN_POINT('Origin',(84.25,-7.88214979396962E-16,17.));
#923=CARTESIAN_POINT('Ctrl Pts',(84.25,-12.5573683548744,24.25));
#924=CARTESIAN_POINT('Ctrl Pts',(84.25,-13.5664642735157,22.5021945992028));
#925=CARTESIAN_POINT('Ctrl Pts',(84.25,-14.8124936873029,19.7258252864833));
#926=CARTESIAN_POINT('Ctrl Pts',(84.25,-16.8405036679284,13.0004527268448));
#927=CARTESIAN_POINT('Ctrl Pts',(84.25,-17.5,8.00569639672236));
#928=CARTESIAN_POINT('Ctrl Pts',(84.25,-17.5,4.));
#929=CARTESIAN_POINT('Ctrl Pts',(84.4743994752564,-12.5573683548744,24.25));
#930=CARTESIAN_POINT('Ctrl Pts',(84.4743994752564,-13.5665425880603,22.5020589544326));
#931=CARTESIAN_POINT('Ctrl Pts',(84.4743994752564,-14.8125271294142,19.7258731925782));
#932=CARTESIAN_POINT('Ctrl Pts',(84.4743994752564,-16.840649636272,13.0000964869759));
#933=CARTESIAN_POINT('Ctrl Pts',(84.4743994752564,-17.5,8.00591158318037));
#934=CARTESIAN_POINT('Ctrl Pts',(84.4743994752564,-17.5,4.));
#935=CARTESIAN_POINT('Ctrl Pts',(84.8627689461972,-12.3941606148125,24.1557719673415));
#936=CARTESIAN_POINT('Ctrl Pts',(84.8627689461972,-13.3970798304349,22.4186649299964));
#937=CARTESIAN_POINT('Ctrl Pts',(84.8627689461972,-14.6354910869588,19.6596874029763));
#938=CARTESIAN_POINT('Ctrl Pts',(84.8627689461972,-16.654301698286,12.9655048794986));
#939=CARTESIAN_POINT('Ctrl Pts',(84.8627689461972,-17.3115439346829,7.98872454491337));
#940=CARTESIAN_POINT('Ctrl Pts',(84.8627689461972,-17.3115439346829,4.));
#941=CARTESIAN_POINT('Ctrl Pts',(85.,-12.053601036662,23.9591498032212));
#942=CARTESIAN_POINT('Ctrl Pts',(85.,-13.043679515678,22.244283574085));
#943=CARTESIAN_POINT('Ctrl Pts',(85.,-14.2661667629827,19.5217092572009));
#944=CARTESIAN_POINT('Ctrl Pts',(85.,-16.265850303536,12.8923623227666));
#945=CARTESIAN_POINT('Ctrl Pts',(85.,-16.9182996064423,7.95344179323622));
#946=CARTESIAN_POINT('Ctrl Pts',(85.,-16.9182996064423,4.));
#947=CARTESIAN_POINT('Ctrl Pts',(85.,-11.907849302036,23.875));
#948=CARTESIAN_POINT('Ctrl Pts',(85.,-12.8924400913481,22.1696387282471));
#949=CARTESIAN_POINT('Ctrl Pts',(85.,-14.108107726308,19.462662560399));
#950=CARTESIAN_POINT('Ctrl Pts',(85.,-16.0996165999535,12.8610232550995));
#951=CARTESIAN_POINT('Ctrl Pts',(85.,-16.75,7.93836315724841));
#952=CARTESIAN_POINT('Ctrl Pts',(85.,-16.75,4.));
#953=CARTESIAN_POINT('',(84.25,-17.5,4.));
#954=CARTESIAN_POINT('',(85.,-16.75,4.));
#955=CARTESIAN_POINT('Origin',(84.25,-16.75,4.));
#956=CARTESIAN_POINT('Ctrl Pts',(85.,-16.75,4.));
#957=CARTESIAN_POINT('Ctrl Pts',(85.,-16.75,7.93836315724841));
#958=CARTESIAN_POINT('Ctrl Pts',(85.,-16.0996165999535,12.8610232550995));
#959=CARTESIAN_POINT('Ctrl Pts',(85.,-14.108107726308,19.462662560399));
#960=CARTESIAN_POINT('Ctrl Pts',(85.,-12.8924400913481,22.1696387282471));
#961=CARTESIAN_POINT('Ctrl Pts',(85.,-11.907849302036,23.875));
#962=CARTESIAN_POINT('Ctrl Pts',(84.25,-12.5573683548744,24.25));
#963=CARTESIAN_POINT('Ctrl Pts',(84.25,-13.5664642735157,22.5021945992028));
#964=CARTESIAN_POINT('Ctrl Pts',(84.25,-14.8124936873029,19.7258252864833));
#965=CARTESIAN_POINT('Ctrl Pts',(84.25,-16.8405036679284,13.0004527268448));
#966=CARTESIAN_POINT('Ctrl Pts',(84.25,-17.5,8.00569639672236));
#967=CARTESIAN_POINT('Ctrl Pts',(84.25,-17.5,4.));
#968=CARTESIAN_POINT('Origin',(84.25,-16.75,8.82921458177254));
#969=CARTESIAN_POINT('',(84.25,-17.5,2.));
#970=CARTESIAN_POINT('',(85.,-16.75,2.));
#971=CARTESIAN_POINT('Origin',(84.25,-16.75,2.));
#972=CARTESIAN_POINT('',(85.,-16.75,8.82921458177254));
#973=CARTESIAN_POINT('',(84.25,-17.5,8.82921458177254));
#974=CARTESIAN_POINT('Origin',(70.75,-11.6767550722574,24.260570981852));
#975=CARTESIAN_POINT('',(70.75,-11.2465727449941,24.8749350150687));
#976=CARTESIAN_POINT('',(70.75,-12.3136689852896,24.6566021263167));
#977=CARTESIAN_POINT('Origin',(70.75,-11.6767550722574,24.260570981852));
#978=CARTESIAN_POINT('',(70.,-11.6767550722574,24.260570981852));
#979=CARTESIAN_POINT('Origin',(70.75,-11.6767550722574,24.260570981852));
#980=CARTESIAN_POINT('Origin',(70.75,-11.6767550722574,24.260570981852));
#981=CARTESIAN_POINT('Origin',(70.75,-16.75,8.82921458177254));
#982=CARTESIAN_POINT('',(70.,-16.75,2.));
#983=CARTESIAN_POINT('',(70.75,-17.5,2.));
#984=CARTESIAN_POINT('Origin',(70.75,-16.75,2.));
#985=CARTESIAN_POINT('',(70.75,-17.5,4.));
#986=CARTESIAN_POINT('',(70.75,-17.5,8.82921458177254));
#987=CARTESIAN_POINT('',(70.,-16.75,4.));
#988=CARTESIAN_POINT('Origin',(70.75,-16.75,4.));
#989=CARTESIAN_POINT('',(70.,-16.75,8.82921458177254));
#990=CARTESIAN_POINT('Ctrl Pts',(70.75,-17.5,4.));
#991=CARTESIAN_POINT('Ctrl Pts',(70.75,-17.5,7.00427229754177));
#992=CARTESIAN_POINT('Ctrl Pts',(70.75,-16.9864270619102,11.9993473868306));
#993=CARTESIAN_POINT('Ctrl Pts',(70.75,-15.2183324960539,18.7970806635651));
#994=CARTESIAN_POINT('Ctrl Pts',(70.75,-13.5664642735157,22.5021945992028));
#995=CARTESIAN_POINT('Ctrl Pts',(70.75,-12.5573683548744,24.25));
#996=CARTESIAN_POINT('Ctrl Pts',(70.5256005247436,-17.5,4.));
#997=CARTESIAN_POINT('Ctrl Pts',(70.5256005247436,-17.5,7.00443368738528));
#998=CARTESIAN_POINT('Ctrl Pts',(70.5256005247436,-16.9865278876469,11.9991132744025));
#999=CARTESIAN_POINT('Ctrl Pts',(70.5256005247436,-15.2183731474018,18.7971336809292));
#1000=CARTESIAN_POINT('Ctrl Pts',(70.5256005247436,-13.5665425880603,22.5020589544326));
#1001=CARTESIAN_POINT('Ctrl Pts',(70.5256005247436,-12.5573683548744,24.25));
#1002=CARTESIAN_POINT('Ctrl Pts',(70.1372227859691,-17.3115508253541,4.));
#1003=CARTESIAN_POINT('Ctrl Pts',(70.1372227859691,-17.3115508253541,6.99154340868504));
#1004=CARTESIAN_POINT('Ctrl Pts',(70.1372227859691,-16.8000607050354,11.9672810974024));
#1005=CARTESIAN_POINT('Ctrl Pts',(70.1372227859691,-15.0389911563409,18.7367176021294));
#1006=CARTESIAN_POINT('Ctrl Pts',(70.1372227859691,-13.3970857979312,22.418668375332));
#1007=CARTESIAN_POINT('Ctrl Pts',(70.1372227859691,-12.3941665823088,24.1557754126771));
#1008=CARTESIAN_POINT('Ctrl Pts',(70.,-16.9182996064423,4.));
#1009=CARTESIAN_POINT('Ctrl Pts',(70.,-16.9182996064423,6.96508134492716));
#1010=CARTESIAN_POINT('Ctrl Pts',(70.,-16.4112185063205,11.900220472544));
#1011=CARTESIAN_POINT('Ctrl Pts',(70.,-14.6647712068601,18.6107863542025));
#1012=CARTESIAN_POINT('Ctrl Pts',(70.,-13.043679515678,22.244283574085));
#1013=CARTESIAN_POINT('Ctrl Pts',(70.,-12.053601036662,23.9591498032212));
#1014=CARTESIAN_POINT('Ctrl Pts',(70.,-16.75,4.));
#1015=CARTESIAN_POINT('Ctrl Pts',(70.,-16.75,6.95377236793631));
#1016=CARTESIAN_POINT('Ctrl Pts',(70.,-16.2448158130032,11.8714973698287));
#1017=CARTESIAN_POINT('Ctrl Pts',(70.,-14.5046204333259,18.5568968467156));
#1018=CARTESIAN_POINT('Ctrl Pts',(70.,-12.8924400913481,22.1696387282471));
#1019=CARTESIAN_POINT('Ctrl Pts',(70.,-11.907849302036,23.875));
#1020=CARTESIAN_POINT('',(70.75,-12.5573683548744,24.25));
#1021=CARTESIAN_POINT('',(70.,-11.907849302036,23.875));
#1022=CARTESIAN_POINT('Origin',(70.75,-11.907849302036,23.875));
#1023=CARTESIAN_POINT('Ctrl Pts',(70.,-11.907849302036,23.875));
#1024=CARTESIAN_POINT('Ctrl Pts',(70.,-12.8924400913481,22.1696387282471));
#1025=CARTESIAN_POINT('Ctrl Pts',(70.,-14.5046204333259,18.5568968467156));
#1026=CARTESIAN_POINT('Ctrl Pts',(70.,-16.2448158130032,11.8714973698287));
#1027=CARTESIAN_POINT('Ctrl Pts',(70.,-16.75,6.95377236793631));
#1028=CARTESIAN_POINT('Ctrl Pts',(70.,-16.75,4.));
#1029=CARTESIAN_POINT('Ctrl Pts',(70.75,-17.5,4.));
#1030=CARTESIAN_POINT('Ctrl Pts',(70.75,-17.5,7.00427229754177));
#1031=CARTESIAN_POINT('Ctrl Pts',(70.75,-16.9864270619102,11.9993473868306));
#1032=CARTESIAN_POINT('Ctrl Pts',(70.75,-15.2183324960539,18.7970806635651));
#1033=CARTESIAN_POINT('Ctrl Pts',(70.75,-13.5664642735157,22.5021945992028));
#1034=CARTESIAN_POINT('Ctrl Pts',(70.75,-12.5573683548744,24.25));
#1035=CARTESIAN_POINT('Origin',(70.75,-4.96965825092922,19.5642112280556));
#1036=CARTESIAN_POINT('',(70.75,-4.53947592366593,20.1785752612724));
#1037=CARTESIAN_POINT('Ctrl Pts',(70.75,-10.6489765757569,24.4564936725636));
#1038=CARTESIAN_POINT('Ctrl Pts',(70.6798423661486,-10.6489765757569,24.4564936725636));
#1039=CARTESIAN_POINT('Ctrl Pts',(70.6112901543197,-10.6626756926688,24.4540848062926));
#1040=CARTESIAN_POINT('Ctrl Pts',(70.4714583960051,-10.7176273816197,24.4443338929458));
#1041=CARTESIAN_POINT('Ctrl Pts',(70.4037672344427,-10.761527598417,24.4365078819455));
#1042=CARTESIAN_POINT('Ctrl Pts',(70.2644191426719,-10.8857675677278,24.4140179587648));
#1043=CARTESIAN_POINT('Ctrl Pts',(70.1993637527907,-10.9729698898034,24.3980028739278));
#1044=CARTESIAN_POINT('Ctrl Pts',(70.0995865496467,-11.1569960942813,24.363396469895));
#1045=CARTESIAN_POINT('Ctrl Pts',(70.0631843582916,-11.2546367118518,24.3446826888667));
#1046=CARTESIAN_POINT('Ctrl Pts',(70.0132806310265,-11.4579059680103,24.3048542761323));
#1047=CARTESIAN_POINT('Ctrl Pts',(70.0004169659302,-11.5650437839452,24.2834124930999));
#1048=CARTESIAN_POINT('Ctrl Pts',(70.0000033248924,-11.6732758346061,24.2612827294766));
#1049=CARTESIAN_POINT('Ctrl Pts',(70.,-11.6750154665642,24.2609269133247));
#1050=CARTESIAN_POINT('Ctrl Pts',(70.,-11.6767550722574,24.260570981852));
#1051=CARTESIAN_POINT('Origin',(70.75,11.6767550722574,24.260570981852));
#1052=CARTESIAN_POINT('',(70.75,12.3136689852896,24.6566021263167));
#1053=CARTESIAN_POINT('',(70.75,11.2465727449941,24.8749350150687));
#1054=CARTESIAN_POINT('Origin',(70.75,11.6767550722574,24.260570981852));
#1055=CARTESIAN_POINT('',(70.,11.6767550722574,24.260570981852));
#1056=CARTESIAN_POINT('Origin',(70.75,11.6767550722574,24.260570981852));
#1057=CARTESIAN_POINT('Origin',(70.75,11.6767550722574,24.260570981852));
#1058=CARTESIAN_POINT('Origin',(70.75,-7.88214979396962E-16,17.));
#1059=CARTESIAN_POINT('',(70.75,12.5573683548744,24.25));
#1060=CARTESIAN_POINT('',(70.,11.907849302036,23.875));
#1061=CARTESIAN_POINT('Origin',(70.75,11.907849302036,23.875));
#1062=CARTESIAN_POINT('Origin',(70.,-7.88214979396962E-16,17.));
#1063=CARTESIAN_POINT('Origin',(70.75,-7.88214979396962E-16,17.));
#1064=CARTESIAN_POINT('Ctrl Pts',(70.75,10.6489765757569,24.4564936725636));
#1065=CARTESIAN_POINT('Ctrl Pts',(70.6798423661486,10.6489765757569,24.4564936725636));
#1066=CARTESIAN_POINT('Ctrl Pts',(70.6112901543197,10.6626756926688,24.4540848062926));
#1067=CARTESIAN_POINT('Ctrl Pts',(70.4714583960051,10.7176273816197,24.4443338929458));
#1068=CARTESIAN_POINT('Ctrl Pts',(70.4037672344427,10.761527598417,24.4365078819455));
#1069=CARTESIAN_POINT('Ctrl Pts',(70.2644191426719,10.8857675677279,24.4140179587648));
#1070=CARTESIAN_POINT('Ctrl Pts',(70.1993637527906,10.9729698898035,24.3980028739278));
#1071=CARTESIAN_POINT('Ctrl Pts',(70.0995865496465,11.1569960942816,24.3633964698949));
#1072=CARTESIAN_POINT('Ctrl Pts',(70.0631843582914,11.2546367118525,24.3446826888666));
#1073=CARTESIAN_POINT('Ctrl Pts',(70.0132806310381,11.4579059679633,24.3048542761415));
#1074=CARTESIAN_POINT('Ctrl Pts',(70.0004169659311,11.5650437836657,24.2834124931321));
#1075=CARTESIAN_POINT('Ctrl Pts',(70.0000033248923,11.6732758346196,24.2612827294756));
#1076=CARTESIAN_POINT('Ctrl Pts',(70.,11.6750154665522,24.2609269133271));
#1077=CARTESIAN_POINT('Ctrl Pts',(70.,11.6767550722574,24.260570981852));
#1078=CARTESIAN_POINT('Origin',(70.75,-7.88214979396962E-16,17.));
#1079=CARTESIAN_POINT('Ctrl Pts',(70.,16.75,4.));
#1080=CARTESIAN_POINT('Ctrl Pts',(70.,16.75,6.95377236793631));
#1081=CARTESIAN_POINT('Ctrl Pts',(70.,16.2448158130032,11.8714973698287));
#1082=CARTESIAN_POINT('Ctrl Pts',(70.,14.5046204333259,18.5568968467156));
#1083=CARTESIAN_POINT('Ctrl Pts',(70.,12.8924400913481,22.1696387282471));
#1084=CARTESIAN_POINT('Ctrl Pts',(70.,11.907849302036,23.875));
#1085=CARTESIAN_POINT('Ctrl Pts',(70.,16.9743994752564,4.));
#1086=CARTESIAN_POINT('Ctrl Pts',(70.,16.9743994752564,6.96894737791694));
#1087=CARTESIAN_POINT('Ctrl Pts',(70.,16.4667462788782,11.9096550398101));
#1088=CARTESIAN_POINT('Ctrl Pts',(70.,14.7181790730026,18.6287811826995));
#1089=CARTESIAN_POINT('Ctrl Pts',(70.,13.0941394226747,22.2690841890496));
#1090=CARTESIAN_POINT('Ctrl Pts',(70.,12.102184948204,23.9871997376282));
#1091=CARTESIAN_POINT('Ctrl Pts',(70.1884491746459,17.3627772140309,4.));
#1092=CARTESIAN_POINT('Ctrl Pts',(70.1884491746459,17.3627772140309,6.9950135778555));
#1093=CARTESIAN_POINT('Ctrl Pts',(70.1884491746458,16.8507272024609,11.9759831284991));
#1094=CARTESIAN_POINT('Ctrl Pts',(70.1884491746459,15.0877442837417,18.7531294773018));
#1095=CARTESIAN_POINT('Ctrl Pts',(70.1884491746459,13.4431330541042,22.4413649654448));
#1096=CARTESIAN_POINT('Ctrl Pts',(70.1884491746459,12.438529936247,24.1813886070154));
#1097=CARTESIAN_POINT('Ctrl Pts',(70.5817003935577,17.5,4.));
#1098=CARTESIAN_POINT('Ctrl Pts',(70.5817003935577,17.5,7.00431334108343));
#1099=CARTESIAN_POINT('Ctrl Pts',(70.5817003935577,16.9864527032097,11.9992878489874));
#1100=CARTESIAN_POINT('Ctrl Pts',(70.5817003935577,15.2183428342217,18.7970941465721));
#1101=CARTESIAN_POINT('Ctrl Pts',(70.5817003935577,13.5664841899256,22.502160102969));
#1102=CARTESIAN_POINT('Ctrl Pts',(70.5817003935577,12.5573683548744,24.25));
#1103=CARTESIAN_POINT('Ctrl Pts',(70.75,17.5,4.));
#1104=CARTESIAN_POINT('Ctrl Pts',(70.75,17.5,7.00427229754177));
#1105=CARTESIAN_POINT('Ctrl Pts',(70.75,16.9864270619102,11.9993473868306));
#1106=CARTESIAN_POINT('Ctrl Pts',(70.75,15.2183324960539,18.7970806635651));
#1107=CARTESIAN_POINT('Ctrl Pts',(70.75,13.5664642735157,22.5021945992028));
#1108=CARTESIAN_POINT('Ctrl Pts',(70.75,12.5573683548744,24.25));
#1109=CARTESIAN_POINT('',(70.75,17.5,4.));
#1110=CARTESIAN_POINT('Ctrl Pts',(70.75,12.5573683548744,24.25));
#1111=CARTESIAN_POINT('Ctrl Pts',(70.75,13.5664642735157,22.5021945992028));
#1112=CARTESIAN_POINT('Ctrl Pts',(70.75,15.2183324960539,18.7970806635651));
#1113=CARTESIAN_POINT('Ctrl Pts',(70.75,16.9864270619102,11.9993473868306));
#1114=CARTESIAN_POINT('Ctrl Pts',(70.75,17.5,7.00427229754177));
#1115=CARTESIAN_POINT('Ctrl Pts',(70.75,17.5,4.));
#1116=CARTESIAN_POINT('',(70.,16.75,4.));
#1117=CARTESIAN_POINT('Origin',(70.75,16.75,4.));
#1118=CARTESIAN_POINT('Ctrl Pts',(70.,16.75,4.));
#1119=CARTESIAN_POINT('Ctrl Pts',(70.,16.75,6.95377236793631));
#1120=CARTESIAN_POINT('Ctrl Pts',(70.,16.2448158130032,11.8714973698287));
#1121=CARTESIAN_POINT('Ctrl Pts',(70.,14.5046204333259,18.5568968467156));
#1122=CARTESIAN_POINT('Ctrl Pts',(70.,12.8924400913481,22.1696387282471));
#1123=CARTESIAN_POINT('Ctrl Pts',(70.,11.907849302036,23.875));
#1124=CARTESIAN_POINT('Origin',(70.75,16.75,7.82921458177254));
#1125=CARTESIAN_POINT('',(70.75,17.5,2.));
#1126=CARTESIAN_POINT('',(70.,16.75,2.));
#1127=CARTESIAN_POINT('Origin',(70.75,16.75,2.));
#1128=CARTESIAN_POINT('',(70.,16.75,7.82921458177254));
#1129=CARTESIAN_POINT('',(70.75,17.5,7.82921458177254));
#1130=CARTESIAN_POINT('Origin',(70.75,5.58402228414595,19.9943935553189));
#1131=CARTESIAN_POINT('',(70.75,5.15383995688267,20.6087575885357));
#1132=CARTESIAN_POINT('Origin',(84.25,11.6767550722574,24.260570981852));
#1133=CARTESIAN_POINT('Origin',(84.25,11.6767550722574,24.260570981852));
#1134=CARTESIAN_POINT('Origin',(84.25,16.75,7.82921458177254));
#1135=CARTESIAN_POINT('',(85.,16.75,2.));
#1136=CARTESIAN_POINT('',(84.25,17.5,2.));
#1137=CARTESIAN_POINT('Origin',(84.25,16.75,2.));
#1138=CARTESIAN_POINT('',(84.25,17.5,4.));
#1139=CARTESIAN_POINT('',(84.25,17.5,7.82921458177254));
#1140=CARTESIAN_POINT('',(85.,16.75,4.));
#1141=CARTESIAN_POINT('Origin',(84.25,16.75,4.));
#1142=CARTESIAN_POINT('',(85.,16.75,7.82921458177254));
#1143=CARTESIAN_POINT('Ctrl Pts',(84.25,17.5,4.));
#1144=CARTESIAN_POINT('Ctrl Pts',(84.25,17.5,7.00427229754177));
#1145=CARTESIAN_POINT('Ctrl Pts',(84.25,16.9863707191703,11.9992866293333));
#1146=CARTESIAN_POINT('Ctrl Pts',(84.25,15.2182473974284,18.7970551006999));
#1147=CARTESIAN_POINT('Ctrl Pts',(84.25,13.5664642735157,22.5021945992028));
#1148=CARTESIAN_POINT('Ctrl Pts',(84.25,12.5573683548744,24.25));
#1149=CARTESIAN_POINT('Ctrl Pts',(84.4743994752564,17.5,4.));
#1150=CARTESIAN_POINT('Ctrl Pts',(84.4743994752564,17.5,7.00443368738528));
#1151=CARTESIAN_POINT('Ctrl Pts',(84.4743994752564,16.9864758055092,11.9990480132807));
#1152=CARTESIAN_POINT('Ctrl Pts',(84.4743994752564,15.2182914313369,18.7971049488258));
#1153=CARTESIAN_POINT('Ctrl Pts',(84.4743994752564,13.5665425880603,22.5020589544326));
#1154=CARTESIAN_POINT('Ctrl Pts',(84.4743994752564,12.5573683548744,24.25));
#1155=CARTESIAN_POINT('Ctrl Pts',(84.8627689461972,17.3115439346829,4.));
#1156=CARTESIAN_POINT('Ctrl Pts',(84.8627689461972,17.3115439346829,6.99154340868504));
#1157=CARTESIAN_POINT('Ctrl Pts',(84.8627689461972,16.799998294072,11.9672264668847));
#1158=CARTESIAN_POINT('Ctrl Pts',(84.8627689461972,15.0389016532417,18.7366913868665));
#1159=CARTESIAN_POINT('Ctrl Pts',(84.8627689461972,13.3970798304349,22.4186649299964));
#1160=CARTESIAN_POINT('Ctrl Pts',(84.8627689461972,12.3941606148125,24.1557719673415));
#1161=CARTESIAN_POINT('Ctrl Pts',(85.,16.9182996064423,4.));
#1162=CARTESIAN_POINT('Ctrl Pts',(85.,16.9182996064423,6.96508134492716));
#1163=CARTESIAN_POINT('Ctrl Pts',(85.,16.41116617892,11.9001815719506));
#1164=CARTESIAN_POINT('Ctrl Pts',(85.,14.6646944640501,18.6107631775666));
#1165=CARTESIAN_POINT('Ctrl Pts',(85.,13.043679515678,22.244283574085));
#1166=CARTESIAN_POINT('Ctrl Pts',(85.,12.053601036662,23.9591498032212));
#1167=CARTESIAN_POINT('Ctrl Pts',(85.,16.75,4.));
#1168=CARTESIAN_POINT('Ctrl Pts',(85.,16.75,6.95377236793631));
#1169=CARTESIAN_POINT('Ctrl Pts',(85.,16.2447654363466,11.8714639589352));
#1170=CARTESIAN_POINT('Ctrl Pts',(85.,14.5045467344589,18.5568737735676));
#1171=CARTESIAN_POINT('Ctrl Pts',(85.,12.8924400913481,22.1696387282471));
#1172=CARTESIAN_POINT('Ctrl Pts',(85.,11.907849302036,23.875));
#1173=CARTESIAN_POINT('Ctrl Pts',(85.,11.907849302036,23.875));
#1174=CARTESIAN_POINT('Ctrl Pts',(85.,12.8924400913481,22.1696387282471));
#1175=CARTESIAN_POINT('Ctrl Pts',(85.,14.5045467344589,18.5568737735676));
#1176=CARTESIAN_POINT('Ctrl Pts',(85.,16.2447654363466,11.8714639589352));
#1177=CARTESIAN_POINT('Ctrl Pts',(85.,16.75,6.95377236793631));
#1178=CARTESIAN_POINT('Ctrl Pts',(85.,16.75,4.));
#1179=CARTESIAN_POINT('Ctrl Pts',(84.25,17.5,4.));
#1180=CARTESIAN_POINT('Ctrl Pts',(84.25,17.5,7.00427229754177));
#1181=CARTESIAN_POINT('Ctrl Pts',(84.25,16.9863707191703,11.9992866293333));
#1182=CARTESIAN_POINT('Ctrl Pts',(84.25,15.2182473974284,18.7970551006999));
#1183=CARTESIAN_POINT('Ctrl Pts',(84.25,13.5664642735157,22.5021945992028));
#1184=CARTESIAN_POINT('Ctrl Pts',(84.25,12.5573683548744,24.25));
#1185=CARTESIAN_POINT('Origin',(70.,11.6767550722574,24.260570981852));
#1186=CARTESIAN_POINT('',(70.,12.3136689852896,24.6566021263167));
#1187=CARTESIAN_POINT('',(70.,11.2465727449941,24.8749350150687));
#1188=CARTESIAN_POINT('Origin',(70.,-11.6767550722574,24.260570981852));
#1189=CARTESIAN_POINT('',(70.,-11.2465727449941,24.8749350150687));
#1190=CARTESIAN_POINT('',(70.,-12.3136689852896,24.6566021263167));
#1191=CARTESIAN_POINT('Origin',(70.,-7.88214979396962E-16,17.));
#1192=CARTESIAN_POINT('',(70.,-12.5573683548744,24.25));
#1193=CARTESIAN_POINT('Ctrl Pts',(70.,-12.5573683548744,24.25));
#1194=CARTESIAN_POINT('Ctrl Pts',(86.5,-12.5573683548744,24.25));
#1195=CARTESIAN_POINT('Ctrl Pts',(70.,-12.9857984717849,23.5079372700182));
#1196=CARTESIAN_POINT('Ctrl Pts',(86.5,-12.9857984717849,23.5079372700182));
#1197=CARTESIAN_POINT('Ctrl Pts',(70.,-13.7851295560077,22.0045904194345));
#1198=CARTESIAN_POINT('Ctrl Pts',(86.5,-13.7851295560077,22.0045904194345));
#1199=CARTESIAN_POINT('Ctrl Pts',(70.,-14.811684655648,19.6919572683421));
#1200=CARTESIAN_POINT('Ctrl Pts',(86.5,-14.811684655648,19.6919572683421));
#1201=CARTESIAN_POINT('Ctrl Pts',(70.,-15.8750380014938,16.5086161887382));
#1202=CARTESIAN_POINT('Ctrl Pts',(86.5,-15.8750380014938,16.5086161887382));
#1203=CARTESIAN_POINT('Ctrl Pts',(70.,-16.8082502588401,12.4151507669245));
#1204=CARTESIAN_POINT('Ctrl Pts',(86.5,-16.8082502588401,12.4151507669245));
#1205=CARTESIAN_POINT('Ctrl Pts',(70.,-17.2763952884078,9.07908922756472));
#1206=CARTESIAN_POINT('Ctrl Pts',(86.5,-17.2763952884078,9.07908922756472));
#1207=CARTESIAN_POINT('Ctrl Pts',(70.,-17.4593275871266,6.54999663110894));
#1208=CARTESIAN_POINT('Ctrl Pts',(86.5,-17.4593275871266,6.54999663110894));
#1209=CARTESIAN_POINT('Ctrl Pts',(70.,-17.5,4.85199070416903));
#1210=CARTESIAN_POINT('Ctrl Pts',(86.5,-17.5,4.85199070416903));
#1211=CARTESIAN_POINT('Ctrl Pts',(70.,-17.5,4.));
#1212=CARTESIAN_POINT('Ctrl Pts',(86.5,-17.5,4.));
#1213=CARTESIAN_POINT('',(70.,-17.5,4.));
#1214=CARTESIAN_POINT('Origin',(70.,0.,13.6584291635451));
#1215=CARTESIAN_POINT('',(70.,17.5,2.));
#1216=CARTESIAN_POINT('Origin',(70.,-7.88214979396962E-16,17.));
#1217=CARTESIAN_POINT('',(70.,12.5573683548744,24.25));
#1218=CARTESIAN_POINT('Ctrl Pts',(70.,17.5,4.));
#1219=CARTESIAN_POINT('Ctrl Pts',(86.5,17.5,4.));
#1220=CARTESIAN_POINT('Ctrl Pts',(70.,17.5,4.85199070416903));
#1221=CARTESIAN_POINT('Ctrl Pts',(86.5,17.5,4.85199070416903));
#1222=CARTESIAN_POINT('Ctrl Pts',(70.,17.4593275871266,6.54999663110894));
#1223=CARTESIAN_POINT('Ctrl Pts',(86.5,17.4593275871266,6.54999663110894));
#1224=CARTESIAN_POINT('Ctrl Pts',(70.,17.2763952884078,9.07908922756472));
#1225=CARTESIAN_POINT('Ctrl Pts',(86.5,17.2763952884078,9.07908922756472));
#1226=CARTESIAN_POINT('Ctrl Pts',(70.,16.8082502588401,12.4151507669245));
#1227=CARTESIAN_POINT('Ctrl Pts',(86.5,16.8082502588401,12.4151507669245));
#1228=CARTESIAN_POINT('Ctrl Pts',(70.,15.8750380014938,16.5086161887382));
#1229=CARTESIAN_POINT('Ctrl Pts',(86.5,15.8750380014938,16.5086161887382));
#1230=CARTESIAN_POINT('Ctrl Pts',(70.,14.811684655648,19.6919572683421));
#1231=CARTESIAN_POINT('Ctrl Pts',(86.5,14.811684655648,19.6919572683421));
#1232=CARTESIAN_POINT('Ctrl Pts',(70.,13.7851295560077,22.0045904194345));
#1233=CARTESIAN_POINT('Ctrl Pts',(86.5,13.7851295560077,22.0045904194345));
#1234=CARTESIAN_POINT('Ctrl Pts',(70.,12.9857984717849,23.5079372700182));
#1235=CARTESIAN_POINT('Ctrl Pts',(86.5,12.9857984717849,23.5079372700182));
#1236=CARTESIAN_POINT('Ctrl Pts',(70.,12.5573683548744,24.25));
#1237=CARTESIAN_POINT('Ctrl Pts',(86.5,12.5573683548744,24.25));
#1238=CARTESIAN_POINT('',(70.,17.5,4.));
#1239=CARTESIAN_POINT('Origin',(70.,17.5,2.));
#1240=CARTESIAN_POINT('',(70.,17.5,2.));
#1241=CARTESIAN_POINT('Origin',(77.5,-8.75,13.45107151991));
#1242=CARTESIAN_POINT('',(78.75,-8.75,2.));
#1243=CARTESIAN_POINT('Origin',(77.5,-8.75,2.));
#1244=CARTESIAN_POINT('',(78.75,-8.75,13.45107151991));
#1245=CARTESIAN_POINT('Origin',(77.5,8.75,13.45107151991));
#1246=CARTESIAN_POINT('',(78.75,8.75,2.));
#1247=CARTESIAN_POINT('Origin',(77.5,8.75,2.));
#1248=CARTESIAN_POINT('',(78.75,8.75,13.45107151991));
#1249=CARTESIAN_POINT('Origin',(70.,-10.6489765757569,24.4564936725636));
#1250=CARTESIAN_POINT('Origin',(70.,11.8777046421904,25.3168583270902));
#1251=CARTESIAN_POINT('Origin',(70.,-17.5,2.));
#1252=CARTESIAN_POINT('',(70.,-17.5,2.));
#1253=CARTESIAN_POINT('',(85.,-8.75,2.));
#1254=CARTESIAN_POINT('Origin',(70.,-17.5,4.));
#1255=CARTESIAN_POINT('Origin',(85.,-1.11022302462516E-15,13.6584291635451));
#1256=UNCERTAINTY_MEASURE_WITH_UNIT(LENGTH_MEASURE(0.01),#1260,
'DISTANCE_ACCURACY_VALUE',
'Maximum model space distance between geometric entities at asserted c
onnectivities');
#1257=UNCERTAINTY_MEASURE_WITH_UNIT(LENGTH_MEASURE(0.01),#1260,
'DISTANCE_ACCURACY_VALUE',
'Maximum model space distance between geometric entities at asserted c
onnectivities');
#1258=(
GEOMETRIC_REPRESENTATION_CONTEXT(3)
GLOBAL_UNCERTAINTY_ASSIGNED_CONTEXT((#1256))
GLOBAL_UNIT_ASSIGNED_CONTEXT((#1260,#1262,#1263))
REPRESENTATION_CONTEXT('','3D')
);
#1259=(
GEOMETRIC_REPRESENTATION_CONTEXT(3)
GLOBAL_UNCERTAINTY_ASSIGNED_CONTEXT((#1257))
GLOBAL_UNIT_ASSIGNED_CONTEXT((#1260,#1262,#1263))
REPRESENTATION_CONTEXT('','3D')
);
#1260=(
LENGTH_UNIT()
NAMED_UNIT(*)
SI_UNIT(.MILLI.,.METRE.)
);
#1261=(
LENGTH_UNIT()
NAMED_UNIT(*)
SI_UNIT($,.METRE.)
);
#1262=(
NAMED_UNIT(*)
PLANE_ANGLE_UNIT()
SI_UNIT($,.RADIAN.)
);
#1263=(
NAMED_UNIT(*)
SI_UNIT($,.STERADIAN.)
SOLID_ANGLE_UNIT()
);
#1264=SHAPE_DEFINITION_REPRESENTATION(#1265,#1266);
#1265=PRODUCT_DEFINITION_SHAPE('',$,#1268);
#1266=SHAPE_REPRESENTATION('',(#558),#1258);
#1267=PRODUCT_DEFINITION_CONTEXT('part definition',#1272,'design');
#1268=PRODUCT_DEFINITION('Ratcheting Screwdriver',
'Ratcheting Screwdriver v5',#1269,#1267);
#1269=PRODUCT_DEFINITION_FORMATION('',$,#1274);
#1270=PRODUCT_RELATED_PRODUCT_CATEGORY('Ratcheting Screwdriver v5',
'Ratcheting Screwdriver v5',(#1274));
#1271=APPLICATION_PROTOCOL_DEFINITION('international standard',
'automotive_design',2009,#1272);
#1272=APPLICATION_CONTEXT(
'Core Data for Automotive Mechanical Design Process');
#1273=PRODUCT_CONTEXT('part definition',#1272,'mechanical');
#1274=PRODUCT('Ratcheting Screwdriver','Ratcheting Screwdriver v5',$,(#1273));
#1275=PRESENTATION_STYLE_ASSIGNMENT((#1276));
#1276=SURFACE_STYLE_USAGE(.BOTH.,#1277);
#1277=SURFACE_SIDE_STYLE('',(#1278));
#1278=SURFACE_STYLE_FILL_AREA(#1279);
#1279=FILL_AREA_STYLE('Steel - Satin',(#1280));
#1280=FILL_AREA_STYLE_COLOUR('Steel - Satin',#1281);
#1281=COLOUR_RGB('Steel - Satin',0.627450980392157,0.627450980392157,0.627450980392157);
ENDSEC;
END-ISO-10303-21;
