ISO-10303-21;
HEADER;
/* Generated by software containing ST-Developer
 * from STEP Tools, Inc. (www.steptools.com) 
 */

FILE_DESCRIPTION(
/* description */ (''),
/* implementation_level */ '2;1');

FILE_NAME(
/* name */ 'Dolly Strap.step',
/* time_stamp */ '2026-05-30T14:56:47-04:00',
/* author */ (''),
/* organization */ (''),
/* preprocessor_version */ 'ST-DEVELOPER v20.1',
/* originating_system */ 'Autodesk Translation Framework v15.8.0.0',
/* authorisation */ '');

FILE_SCHEMA (('AUTOMOTIVE_DESIGN { 1 0 10303 214 3 1 1 }'));
ENDSEC;

DATA;
#10=MECHANICAL_DESIGN_GEOMETRIC_PRESENTATION_REPRESENTATION('',(#13),#551);
#11=SHAPE_REPRESENTATION_RELATIONSHIP('SRR','None',#560,#12);
#12=ADVANCED_BREP_SHAPE_REPRESENTATION('',(#14),#550);
#13=STYLED_ITEM('',(#569),#14);
#14=MANIFOLD_SOLID_BREP('Body1',#331);
#15=FACE_BOUND('',#58,.T.);
#16=FACE_BOUND('',#61,.T.);
#17=FACE_BOUND('',#64,.T.);
#18=FACE_BOUND('',#67,.T.);
#19=PLANE('',#350);
#20=PLANE('',#351);
#21=PLANE('',#352);
#22=PLANE('',#353);
#23=PLANE('',#357);
#24=PLANE('',#358);
#25=PLANE('',#359);
#26=PLANE('',#360);
#27=PLANE('',#361);
#28=PLANE('',#362);
#29=CONICAL_SURFACE('',#339,0.101870078740157,0.493928178314395);
#30=CONICAL_SURFACE('',#343,0.101870078740157,0.493928178314395);
#31=FACE_OUTER_BOUND('',#49,.T.);
#32=FACE_OUTER_BOUND('',#50,.T.);
#33=FACE_OUTER_BOUND('',#51,.T.);
#34=FACE_OUTER_BOUND('',#52,.T.);
#35=FACE_OUTER_BOUND('',#53,.T.);
#36=FACE_OUTER_BOUND('',#54,.T.);
#37=FACE_OUTER_BOUND('',#55,.T.);
#38=FACE_OUTER_BOUND('',#56,.T.);
#39=FACE_OUTER_BOUND('',#57,.T.);
#40=FACE_OUTER_BOUND('',#59,.T.);
#41=FACE_OUTER_BOUND('',#60,.T.);
#42=FACE_OUTER_BOUND('',#62,.T.);
#43=FACE_OUTER_BOUND('',#63,.T.);
#44=FACE_OUTER_BOUND('',#65,.T.);
#45=FACE_OUTER_BOUND('',#66,.T.);
#46=FACE_OUTER_BOUND('',#68,.T.);
#47=FACE_OUTER_BOUND('',#69,.T.);
#48=FACE_OUTER_BOUND('',#70,.T.);
#49=EDGE_LOOP('',(#219,#220,#221,#222));
#50=EDGE_LOOP('',(#223,#224,#225,#226));
#51=EDGE_LOOP('',(#227,#228,#229,#230));
#52=EDGE_LOOP('',(#231,#232,#233,#234));
#53=EDGE_LOOP('',(#235,#236,#237,#238));
#54=EDGE_LOOP('',(#239,#240,#241,#242));
#55=EDGE_LOOP('',(#243,#244,#245,#246));
#56=EDGE_LOOP('',(#247,#248,#249,#250));
#57=EDGE_LOOP('',(#251,#252,#253,#254));
#58=EDGE_LOOP('',(#255));
#59=EDGE_LOOP('',(#256,#257,#258,#259));
#60=EDGE_LOOP('',(#260,#261,#262,#263));
#61=EDGE_LOOP('',(#264));
#62=EDGE_LOOP('',(#265,#266,#267,#268));
#63=EDGE_LOOP('',(#269,#270,#271,#272));
#64=EDGE_LOOP('',(#273));
#65=EDGE_LOOP('',(#274,#275,#276,#277));
#66=EDGE_LOOP('',(#278,#279,#280,#281));
#67=EDGE_LOOP('',(#282));
#68=EDGE_LOOP('',(#283,#284,#285,#286));
#69=EDGE_LOOP('',(#287,#288,#289,#290,#291,#292,#293,#294,#295,#296));
#70=EDGE_LOOP('',(#297,#298,#299,#300,#301,#302,#303,#304,#305,#306));
#71=ELLIPSE('',#335,0.171347716852068,0.12992125984252);
#72=ELLIPSE('',#338,0.17134771685206,0.12992125984252);
#73=LINE('',#462,#105);
#74=LINE('',#468,#106);
#75=LINE('',#472,#107);
#76=LINE('',#476,#108);
#77=LINE('',#480,#109);
#78=LINE('',#484,#110);
#79=LINE('',#491,#111);
#80=LINE('',#494,#112);
#81=LINE('',#497,#113);
#82=LINE('',#499,#114);
#83=LINE('',#500,#115);
#84=LINE('',#503,#116);
#85=LINE('',#505,#117);
#86=LINE('',#506,#118);
#87=LINE('',#509,#119);
#88=LINE('',#511,#120);
#89=LINE('',#512,#121);
#90=LINE('',#515,#122);
#91=LINE('',#517,#123);
#92=LINE('',#518,#124);
#93=LINE('',#524,#125);
#94=LINE('',#527,#126);
#95=LINE('',#529,#127);
#96=LINE('',#530,#128);
#97=LINE('',#533,#129);
#98=LINE('',#535,#130);
#99=LINE('',#536,#131);
#100=LINE('',#539,#132);
#101=LINE('',#541,#133);
#102=LINE('',#542,#134);
#103=LINE('',#544,#135);
#104=LINE('',#545,#136);
#105=VECTOR('',#369,0.12992125984252);
#106=VECTOR('',#376,0.12992125984252);
#107=VECTOR('',#381,0.101870078740157);
#108=VECTOR('',#386,0.0738188976377953);
#109=VECTOR('',#391,0.101870078740157);
#110=VECTOR('',#396,0.0738188976377953);
#111=VECTOR('',#403,0.393700787401575);
#112=VECTOR('',#406,0.393700787401575);
#113=VECTOR('',#409,0.393700787401575);
#114=VECTOR('',#410,0.393700787401575);
#115=VECTOR('',#411,0.393700787401575);
#116=VECTOR('',#414,0.393700787401575);
#117=VECTOR('',#415,0.393700787401575);
#118=VECTOR('',#416,0.393700787401575);
#119=VECTOR('',#419,0.393700787401575);
#120=VECTOR('',#420,0.393700787401575);
#121=VECTOR('',#421,0.393700787401575);
#122=VECTOR('',#424,0.393700787401575);
#123=VECTOR('',#425,0.393700787401575);
#124=VECTOR('',#426,0.393700787401575);
#125=VECTOR('',#433,0.393700787401575);
#126=VECTOR('',#436,0.393700787401575);
#127=VECTOR('',#437,0.393700787401575);
#128=VECTOR('',#438,0.393700787401575);
#129=VECTOR('',#441,0.393700787401575);
#130=VECTOR('',#442,0.393700787401575);
#131=VECTOR('',#443,0.393700787401575);
#132=VECTOR('',#446,0.393700787401575);
#133=VECTOR('',#447,0.393700787401575);
#134=VECTOR('',#448,0.393700787401575);
#135=VECTOR('',#451,0.393700787401575);
#136=VECTOR('',#452,0.393700787401575);
#137=CIRCLE('',#334,0.12992125984252);
#138=CIRCLE('',#337,0.12992125984252);
#139=CIRCLE('',#340,0.0738188976377953);
#140=CIRCLE('',#342,0.0738188976377953);
#141=CIRCLE('',#344,0.0738188976377953);
#142=CIRCLE('',#346,0.0738188976377953);
#143=CIRCLE('',#348,0.6375);
#144=CIRCLE('',#349,0.6375);
#145=CIRCLE('',#355,0.834350393700798);
#146=CIRCLE('',#356,0.834350393700798);
#147=VERTEX_POINT('',#459);
#148=VERTEX_POINT('',#461);
#149=VERTEX_POINT('',#465);
#150=VERTEX_POINT('',#467);
#151=VERTEX_POINT('',#471);
#152=VERTEX_POINT('',#475);
#153=VERTEX_POINT('',#479);
#154=VERTEX_POINT('',#483);
#155=VERTEX_POINT('',#487);
#156=VERTEX_POINT('',#488);
#157=VERTEX_POINT('',#490);
#158=VERTEX_POINT('',#492);
#159=VERTEX_POINT('',#496);
#160=VERTEX_POINT('',#498);
#161=VERTEX_POINT('',#502);
#162=VERTEX_POINT('',#504);
#163=VERTEX_POINT('',#508);
#164=VERTEX_POINT('',#510);
#165=VERTEX_POINT('',#514);
#166=VERTEX_POINT('',#516);
#167=VERTEX_POINT('',#520);
#168=VERTEX_POINT('',#522);
#169=VERTEX_POINT('',#526);
#170=VERTEX_POINT('',#528);
#171=VERTEX_POINT('',#532);
#172=VERTEX_POINT('',#534);
#173=VERTEX_POINT('',#538);
#174=VERTEX_POINT('',#540);
#175=EDGE_CURVE('',#147,#147,#137,.T.);
#176=EDGE_CURVE('',#147,#148,#73,.T.);
#177=EDGE_CURVE('',#148,#148,#71,.T.);
#178=EDGE_CURVE('',#149,#149,#138,.T.);
#179=EDGE_CURVE('',#149,#150,#74,.T.);
#180=EDGE_CURVE('',#150,#150,#72,.T.);
#181=EDGE_CURVE('',#149,#151,#75,.T.);
#182=EDGE_CURVE('',#151,#151,#139,.T.);
#183=EDGE_CURVE('',#151,#152,#76,.T.);
#184=EDGE_CURVE('',#152,#152,#140,.T.);
#185=EDGE_CURVE('',#147,#153,#77,.T.);
#186=EDGE_CURVE('',#153,#153,#141,.T.);
#187=EDGE_CURVE('',#153,#154,#78,.T.);
#188=EDGE_CURVE('',#154,#154,#142,.T.);
#189=EDGE_CURVE('',#155,#156,#143,.T.);
#190=EDGE_CURVE('',#155,#157,#79,.T.);
#191=EDGE_CURVE('',#158,#157,#144,.T.);
#192=EDGE_CURVE('',#156,#158,#80,.T.);
#193=EDGE_CURVE('',#156,#159,#81,.T.);
#194=EDGE_CURVE('',#160,#158,#82,.T.);
#195=EDGE_CURVE('',#159,#160,#83,.T.);
#196=EDGE_CURVE('',#159,#161,#84,.T.);
#197=EDGE_CURVE('',#162,#160,#85,.T.);
#198=EDGE_CURVE('',#161,#162,#86,.T.);
#199=EDGE_CURVE('',#161,#163,#87,.T.);
#200=EDGE_CURVE('',#164,#162,#88,.T.);
#201=EDGE_CURVE('',#163,#164,#89,.T.);
#202=EDGE_CURVE('',#163,#165,#90,.T.);
#203=EDGE_CURVE('',#166,#164,#91,.T.);
#204=EDGE_CURVE('',#165,#166,#92,.T.);
#205=EDGE_CURVE('',#167,#165,#145,.T.);
#206=EDGE_CURVE('',#168,#166,#146,.T.);
#207=EDGE_CURVE('',#167,#168,#93,.T.);
#208=EDGE_CURVE('',#169,#167,#94,.T.);
#209=EDGE_CURVE('',#170,#168,#95,.T.);
#210=EDGE_CURVE('',#169,#170,#96,.T.);
#211=EDGE_CURVE('',#171,#169,#97,.T.);
#212=EDGE_CURVE('',#172,#170,#98,.T.);
#213=EDGE_CURVE('',#171,#172,#99,.T.);
#214=EDGE_CURVE('',#173,#171,#100,.T.);
#215=EDGE_CURVE('',#174,#172,#101,.T.);
#216=EDGE_CURVE('',#173,#174,#102,.T.);
#217=EDGE_CURVE('',#155,#173,#103,.T.);
#218=EDGE_CURVE('',#157,#174,#104,.T.);
#219=ORIENTED_EDGE('',*,*,#175,.F.);
#220=ORIENTED_EDGE('',*,*,#176,.T.);
#221=ORIENTED_EDGE('',*,*,#177,.F.);
#222=ORIENTED_EDGE('',*,*,#176,.F.);
#223=ORIENTED_EDGE('',*,*,#178,.F.);
#224=ORIENTED_EDGE('',*,*,#179,.T.);
#225=ORIENTED_EDGE('',*,*,#180,.F.);
#226=ORIENTED_EDGE('',*,*,#179,.F.);
#227=ORIENTED_EDGE('',*,*,#178,.T.);
#228=ORIENTED_EDGE('',*,*,#181,.T.);
#229=ORIENTED_EDGE('',*,*,#182,.T.);
#230=ORIENTED_EDGE('',*,*,#181,.F.);
#231=ORIENTED_EDGE('',*,*,#182,.F.);
#232=ORIENTED_EDGE('',*,*,#183,.T.);
#233=ORIENTED_EDGE('',*,*,#184,.F.);
#234=ORIENTED_EDGE('',*,*,#183,.F.);
#235=ORIENTED_EDGE('',*,*,#175,.T.);
#236=ORIENTED_EDGE('',*,*,#185,.T.);
#237=ORIENTED_EDGE('',*,*,#186,.T.);
#238=ORIENTED_EDGE('',*,*,#185,.F.);
#239=ORIENTED_EDGE('',*,*,#186,.F.);
#240=ORIENTED_EDGE('',*,*,#187,.T.);
#241=ORIENTED_EDGE('',*,*,#188,.F.);
#242=ORIENTED_EDGE('',*,*,#187,.F.);
#243=ORIENTED_EDGE('',*,*,#189,.F.);
#244=ORIENTED_EDGE('',*,*,#190,.T.);
#245=ORIENTED_EDGE('',*,*,#191,.F.);
#246=ORIENTED_EDGE('',*,*,#192,.F.);
#247=ORIENTED_EDGE('',*,*,#193,.F.);
#248=ORIENTED_EDGE('',*,*,#192,.T.);
#249=ORIENTED_EDGE('',*,*,#194,.F.);
#250=ORIENTED_EDGE('',*,*,#195,.F.);
#251=ORIENTED_EDGE('',*,*,#196,.F.);
#252=ORIENTED_EDGE('',*,*,#195,.T.);
#253=ORIENTED_EDGE('',*,*,#197,.F.);
#254=ORIENTED_EDGE('',*,*,#198,.F.);
#255=ORIENTED_EDGE('',*,*,#184,.T.);
#256=ORIENTED_EDGE('',*,*,#199,.F.);
#257=ORIENTED_EDGE('',*,*,#198,.T.);
#258=ORIENTED_EDGE('',*,*,#200,.F.);
#259=ORIENTED_EDGE('',*,*,#201,.F.);
#260=ORIENTED_EDGE('',*,*,#202,.F.);
#261=ORIENTED_EDGE('',*,*,#201,.T.);
#262=ORIENTED_EDGE('',*,*,#203,.F.);
#263=ORIENTED_EDGE('',*,*,#204,.F.);
#264=ORIENTED_EDGE('',*,*,#180,.T.);
#265=ORIENTED_EDGE('',*,*,#205,.T.);
#266=ORIENTED_EDGE('',*,*,#204,.T.);
#267=ORIENTED_EDGE('',*,*,#206,.F.);
#268=ORIENTED_EDGE('',*,*,#207,.F.);
#269=ORIENTED_EDGE('',*,*,#208,.T.);
#270=ORIENTED_EDGE('',*,*,#207,.T.);
#271=ORIENTED_EDGE('',*,*,#209,.F.);
#272=ORIENTED_EDGE('',*,*,#210,.F.);
#273=ORIENTED_EDGE('',*,*,#177,.T.);
#274=ORIENTED_EDGE('',*,*,#211,.T.);
#275=ORIENTED_EDGE('',*,*,#210,.T.);
#276=ORIENTED_EDGE('',*,*,#212,.F.);
#277=ORIENTED_EDGE('',*,*,#213,.F.);
#278=ORIENTED_EDGE('',*,*,#214,.T.);
#279=ORIENTED_EDGE('',*,*,#213,.T.);
#280=ORIENTED_EDGE('',*,*,#215,.F.);
#281=ORIENTED_EDGE('',*,*,#216,.F.);
#282=ORIENTED_EDGE('',*,*,#188,.T.);
#283=ORIENTED_EDGE('',*,*,#217,.T.);
#284=ORIENTED_EDGE('',*,*,#216,.T.);
#285=ORIENTED_EDGE('',*,*,#218,.F.);
#286=ORIENTED_EDGE('',*,*,#190,.F.);
#287=ORIENTED_EDGE('',*,*,#218,.T.);
#288=ORIENTED_EDGE('',*,*,#215,.T.);
#289=ORIENTED_EDGE('',*,*,#212,.T.);
#290=ORIENTED_EDGE('',*,*,#209,.T.);
#291=ORIENTED_EDGE('',*,*,#206,.T.);
#292=ORIENTED_EDGE('',*,*,#203,.T.);
#293=ORIENTED_EDGE('',*,*,#200,.T.);
#294=ORIENTED_EDGE('',*,*,#197,.T.);
#295=ORIENTED_EDGE('',*,*,#194,.T.);
#296=ORIENTED_EDGE('',*,*,#191,.T.);
#297=ORIENTED_EDGE('',*,*,#217,.F.);
#298=ORIENTED_EDGE('',*,*,#189,.T.);
#299=ORIENTED_EDGE('',*,*,#193,.T.);
#300=ORIENTED_EDGE('',*,*,#196,.T.);
#301=ORIENTED_EDGE('',*,*,#199,.T.);
#302=ORIENTED_EDGE('',*,*,#202,.T.);
#303=ORIENTED_EDGE('',*,*,#205,.F.);
#304=ORIENTED_EDGE('',*,*,#208,.F.);
#305=ORIENTED_EDGE('',*,*,#211,.F.);
#306=ORIENTED_EDGE('',*,*,#214,.F.);
#307=CYLINDRICAL_SURFACE('',#333,0.12992125984252);
#308=CYLINDRICAL_SURFACE('',#336,0.12992125984252);
#309=CYLINDRICAL_SURFACE('',#341,0.0738188976377953);
#310=CYLINDRICAL_SURFACE('',#345,0.0738188976377953);
#311=CYLINDRICAL_SURFACE('',#347,0.6375);
#312=CYLINDRICAL_SURFACE('',#354,0.834350393700798);
#313=ADVANCED_FACE('',(#31),#307,.F.);
#314=ADVANCED_FACE('',(#32),#308,.F.);
#315=ADVANCED_FACE('',(#33),#29,.F.);
#316=ADVANCED_FACE('',(#34),#309,.F.);
#317=ADVANCED_FACE('',(#35),#30,.F.);
#318=ADVANCED_FACE('',(#36),#310,.F.);
#319=ADVANCED_FACE('',(#37),#311,.F.);
#320=ADVANCED_FACE('',(#38),#19,.T.);
#321=ADVANCED_FACE('',(#39,#15),#20,.T.);
#322=ADVANCED_FACE('',(#40),#21,.T.);
#323=ADVANCED_FACE('',(#41,#16),#22,.T.);
#324=ADVANCED_FACE('',(#42),#312,.T.);
#325=ADVANCED_FACE('',(#43,#17),#23,.T.);
#326=ADVANCED_FACE('',(#44),#24,.T.);
#327=ADVANCED_FACE('',(#45,#18),#25,.T.);
#328=ADVANCED_FACE('',(#46),#26,.T.);
#329=ADVANCED_FACE('',(#47),#27,.T.);
#330=ADVANCED_FACE('',(#48),#28,.F.);
#331=CLOSED_SHELL('',(#313,#314,#315,#316,#317,#318,#319,#320,#321,#322,
#323,#324,#325,#326,#327,#328,#329,#330));
#332=AXIS2_PLACEMENT_3D('',#457,#363,#364);
#333=AXIS2_PLACEMENT_3D('',#458,#365,#366);
#334=AXIS2_PLACEMENT_3D('',#460,#367,#368);
#335=AXIS2_PLACEMENT_3D('',#463,#370,#371);
#336=AXIS2_PLACEMENT_3D('',#464,#372,#373);
#337=AXIS2_PLACEMENT_3D('',#466,#374,#375);
#338=AXIS2_PLACEMENT_3D('',#469,#377,#378);
#339=AXIS2_PLACEMENT_3D('',#470,#379,#380);
#340=AXIS2_PLACEMENT_3D('',#473,#382,#383);
#341=AXIS2_PLACEMENT_3D('',#474,#384,#385);
#342=AXIS2_PLACEMENT_3D('',#477,#387,#388);
#343=AXIS2_PLACEMENT_3D('',#478,#389,#390);
#344=AXIS2_PLACEMENT_3D('',#481,#392,#393);
#345=AXIS2_PLACEMENT_3D('',#482,#394,#395);
#346=AXIS2_PLACEMENT_3D('',#485,#397,#398);
#347=AXIS2_PLACEMENT_3D('',#486,#399,#400);
#348=AXIS2_PLACEMENT_3D('',#489,#401,#402);
#349=AXIS2_PLACEMENT_3D('',#493,#404,#405);
#350=AXIS2_PLACEMENT_3D('',#495,#407,#408);
#351=AXIS2_PLACEMENT_3D('',#501,#412,#413);
#352=AXIS2_PLACEMENT_3D('',#507,#417,#418);
#353=AXIS2_PLACEMENT_3D('',#513,#422,#423);
#354=AXIS2_PLACEMENT_3D('',#519,#427,#428);
#355=AXIS2_PLACEMENT_3D('',#521,#429,#430);
#356=AXIS2_PLACEMENT_3D('',#523,#431,#432);
#357=AXIS2_PLACEMENT_3D('',#525,#434,#435);
#358=AXIS2_PLACEMENT_3D('',#531,#439,#440);
#359=AXIS2_PLACEMENT_3D('',#537,#444,#445);
#360=AXIS2_PLACEMENT_3D('',#543,#449,#450);
#361=AXIS2_PLACEMENT_3D('',#546,#453,#454);
#362=AXIS2_PLACEMENT_3D('',#547,#455,#456);
#363=DIRECTION('axis',(0.,0.,1.));
#364=DIRECTION('refdir',(1.,0.,0.));
#365=DIRECTION('center_axis',(-5.02058143227108E-14,1.,0.));
#366=DIRECTION('ref_axis',(0.,0.,1.));
#367=DIRECTION('center_axis',(-4.97431820960692E-14,1.,0.));
#368=DIRECTION('ref_axis',(0.,0.,1.));
#369=DIRECTION('',(-5.02058143227108E-14,1.,0.));
#370=DIRECTION('center_axis',(-0.651985264153884,-0.758231636985816,0.));
#371=DIRECTION('ref_axis',(0.758231636985816,-0.651985264153884,0.));
#372=DIRECTION('center_axis',(-5.02058143227112E-14,1.,0.));
#373=DIRECTION('ref_axis',(0.,0.,1.));
#374=DIRECTION('center_axis',(-4.97431820960692E-14,1.,0.));
#375=DIRECTION('ref_axis',(0.,0.,1.));
#376=DIRECTION('',(-5.02058143227112E-14,1.,0.));
#377=DIRECTION('center_axis',(0.651985264153922,-0.758231636985783,0.));
#378=DIRECTION('ref_axis',(0.758231636985783,0.651985264153922,0.));
#379=DIRECTION('center_axis',(-4.97431820960692E-14,1.,0.));
#380=DIRECTION('ref_axis',(0.,0.,1.));
#381=DIRECTION('',(4.3739686266299E-14,-0.880477353509162,0.474088209047116));
#382=DIRECTION('center_axis',(4.97431820960692E-14,-1.,0.));
#383=DIRECTION('ref_axis',(0.,0.,1.));
#384=DIRECTION('center_axis',(4.97431820960692E-14,-1.,0.));
#385=DIRECTION('ref_axis',(0.,0.,1.));
#386=DIRECTION('',(4.97431820960692E-14,-1.,0.));
#387=DIRECTION('center_axis',(-4.97431820960692E-14,1.,0.));
#388=DIRECTION('ref_axis',(0.,0.,1.));
#389=DIRECTION('center_axis',(-4.97431820960692E-14,1.,0.));
#390=DIRECTION('ref_axis',(0.,0.,1.));
#391=DIRECTION('',(4.3739686266299E-14,-0.880477353509162,0.474088209047116));
#392=DIRECTION('center_axis',(4.97431820960692E-14,-1.,0.));
#393=DIRECTION('ref_axis',(0.,0.,1.));
#394=DIRECTION('center_axis',(4.97431820960692E-14,-1.,0.));
#395=DIRECTION('ref_axis',(0.,0.,1.));
#396=DIRECTION('',(4.97431820960692E-14,-1.,0.));
#397=DIRECTION('center_axis',(4.97431820960692E-14,1.,0.));
#398=DIRECTION('ref_axis',(0.,0.,1.));
#399=DIRECTION('center_axis',(0.,0.,1.));
#400=DIRECTION('ref_axis',(1.,0.,0.));
#401=DIRECTION('center_axis',(0.,0.,1.));
#402=DIRECTION('ref_axis',(1.,0.,0.));
#403=DIRECTION('',(0.,0.,1.));
#404=DIRECTION('center_axis',(0.,0.,-1.));
#405=DIRECTION('ref_axis',(1.,0.,0.));
#406=DIRECTION('',(0.,0.,1.));
#407=DIRECTION('center_axis',(1.,4.64111074815426E-14,0.));
#408=DIRECTION('ref_axis',(-4.64111074815426E-14,1.,0.));
#409=DIRECTION('',(4.64111074815426E-14,-1.,0.));
#410=DIRECTION('',(-4.64111074815426E-14,1.,0.));
#411=DIRECTION('',(0.,0.,1.));
#412=DIRECTION('center_axis',(4.97431820960692E-14,-1.,0.));
#413=DIRECTION('ref_axis',(1.,4.97431820960692E-14,0.));
#414=DIRECTION('',(-1.,-4.97431820960692E-14,0.));
#415=DIRECTION('',(1.,4.97431820960692E-14,0.));
#416=DIRECTION('',(0.,0.,1.));
#417=DIRECTION('center_axis',(-1.,-9.94759830064139E-14,0.));
#418=DIRECTION('ref_axis',(9.94759830064139E-14,-1.,0.));
#419=DIRECTION('',(-9.94759830064139E-14,1.,0.));
#420=DIRECTION('',(9.94759830064139E-14,-1.,0.));
#421=DIRECTION('',(0.,0.,1.));
#422=DIRECTION('center_axis',(-0.651985264153922,0.758231636985783,0.));
#423=DIRECTION('ref_axis',(-0.758231636985783,-0.651985264153922,0.));
#424=DIRECTION('',(0.758231636985783,0.651985264153922,0.));
#425=DIRECTION('',(-0.758231636985783,-0.651985264153922,0.));
#426=DIRECTION('',(0.,0.,1.));
#427=DIRECTION('center_axis',(0.,0.,1.));
#428=DIRECTION('ref_axis',(1.,4.19100351397954E-16,0.));
#429=DIRECTION('center_axis',(0.,0.,1.));
#430=DIRECTION('ref_axis',(1.,4.19100351397954E-16,0.));
#431=DIRECTION('center_axis',(0.,0.,1.));
#432=DIRECTION('ref_axis',(1.,4.19100351397954E-16,0.));
#433=DIRECTION('',(0.,0.,1.));
#434=DIRECTION('center_axis',(0.651985264153884,0.758231636985816,0.));
#435=DIRECTION('ref_axis',(-0.758231636985816,0.651985264153884,0.));
#436=DIRECTION('',(-0.758231636985816,0.651985264153884,0.));
#437=DIRECTION('',(-0.758231636985816,0.651985264153884,0.));
#438=DIRECTION('',(0.,0.,1.));
#439=DIRECTION('center_axis',(1.,-8.88178419700124E-14,0.));
#440=DIRECTION('ref_axis',(8.88178419700124E-14,1.,0.));
#441=DIRECTION('',(8.88178419700124E-14,1.,0.));
#442=DIRECTION('',(8.88178419700124E-14,1.,0.));
#443=DIRECTION('',(0.,0.,1.));
#444=DIRECTION('center_axis',(-4.97431820960692E-14,-1.,0.));
#445=DIRECTION('ref_axis',(1.,-4.97431820960692E-14,0.));
#446=DIRECTION('',(1.,-4.97431820960692E-14,0.));
#447=DIRECTION('',(1.,-4.97431820960692E-14,0.));
#448=DIRECTION('',(0.,0.,1.));
#449=DIRECTION('center_axis',(-1.,4.64111074815426E-14,0.));
#450=DIRECTION('ref_axis',(-4.64111074815426E-14,-1.,0.));
#451=DIRECTION('',(-4.64111074815426E-14,-1.,0.));
#452=DIRECTION('',(-4.64111074815426E-14,-1.,0.));
#453=DIRECTION('center_axis',(0.,0.,1.));
#454=DIRECTION('ref_axis',(1.,0.,0.));
#455=DIRECTION('center_axis',(0.,0.,1.));
#456=DIRECTION('ref_axis',(1.,0.,0.));
#457=CARTESIAN_POINT('',(0.,0.,0.));
#458=CARTESIAN_POINT('Origin',(5.81431102362265,-1.42657480314926,0.433070866141732));
#459=CARTESIAN_POINT('',(5.81431102362265,-1.42657480314926,0.303149606299213));
#460=CARTESIAN_POINT('Origin',(5.81431102362265,-1.42657480314926,0.433070866141732));
#461=CARTESIAN_POINT('',(5.81431102362264,-1.10335673650071,0.303149606299213));
#462=CARTESIAN_POINT('',(5.81431102362265,-1.42657480314926,0.303149606299213));
#463=CARTESIAN_POINT('Origin',(5.81431102362264,-1.10335673650071,0.433070866141732));
#464=CARTESIAN_POINT('Origin',(3.21068897637737,-1.42657480314939,0.433070866141732));
#465=CARTESIAN_POINT('',(3.21068897637737,-1.42657480314939,0.303149606299213));
#466=CARTESIAN_POINT('Origin',(3.21068897637737,-1.42657480314939,0.433070866141732));
#467=CARTESIAN_POINT('',(3.21068897637735,-1.10335673650083,0.303149606299213));
#468=CARTESIAN_POINT('',(3.21068897637737,-1.42657480314939,0.303149606299213));
#469=CARTESIAN_POINT('Origin',(3.21068897637735,-1.10335673650083,0.433070866141732));
#470=CARTESIAN_POINT('Origin',(3.21068897637737,-1.47867149998447,0.433070866141732));
#471=CARTESIAN_POINT('',(3.21068897637738,-1.53076819681955,0.359251968503937));
#472=CARTESIAN_POINT('',(3.21068897637737,-1.47867149998447,0.331200787401575));
#473=CARTESIAN_POINT('Origin',(3.21068897637738,-1.53076819681955,0.433070866141732));
#474=CARTESIAN_POINT('Origin',(3.21068897637738,-1.57814960629899,0.433070866141732));
#475=CARTESIAN_POINT('',(3.21068897637738,-1.70216535433049,0.359251968503937));
#476=CARTESIAN_POINT('',(3.21068897637738,-1.57814960629899,0.359251968503937));
#477=CARTESIAN_POINT('Origin',(3.21068897637738,-1.70216535433049,0.433070866141732));
#478=CARTESIAN_POINT('Origin',(5.81431102362266,-1.47867149998434,0.433070866141732));
#479=CARTESIAN_POINT('',(5.81431102362266,-1.53076819681942,0.359251968503937));
#480=CARTESIAN_POINT('',(5.81431102362266,-1.47867149998434,0.331200787401575));
#481=CARTESIAN_POINT('Origin',(5.81431102362266,-1.53076819681942,0.433070866141732));
#482=CARTESIAN_POINT('Origin',(5.81431102362266,-1.57814960629886,0.433070866141732));
#483=CARTESIAN_POINT('',(5.81431102362267,-1.70216535433036,0.359251968503937));
#484=CARTESIAN_POINT('',(5.81431102362266,-1.57814960629886,0.359251968503937));
#485=CARTESIAN_POINT('Origin',(5.81431102362267,-1.70216535433042,0.433070866141732));
#486=CARTESIAN_POINT('Origin',(4.5125,-1.08435039370054,0.));
#487=CARTESIAN_POINT('',(5.15000000000006,-1.08435039370054,0.));
#488=CARTESIAN_POINT('',(3.875,-1.08435039370054,0.));
#489=CARTESIAN_POINT('Origin',(4.5125,-1.08435039370054,0.));
#490=CARTESIAN_POINT('',(5.15000000000006,-1.08435039370054,0.866141732283465));
#491=CARTESIAN_POINT('',(5.15000000000006,-1.08435039370054,0.));
#492=CARTESIAN_POINT('',(3.875,-1.08435039370054,0.866141732283465));
#493=CARTESIAN_POINT('Origin',(4.5125,-1.08435039370054,0.866141732283465));
#494=CARTESIAN_POINT('',(3.875,-1.08435039370054,0.));
#495=CARTESIAN_POINT('Origin',(3.87500000000003,-1.70216535433046,0.));
#496=CARTESIAN_POINT('',(3.87500000000003,-1.70216535433046,0.));
#497=CARTESIAN_POINT('',(3.875,-1.08435039370054,0.));
#498=CARTESIAN_POINT('',(3.87500000000003,-1.70216535433046,0.866141732283465));
#499=CARTESIAN_POINT('',(3.875,-1.08435039370054,0.866141732283465));
#500=CARTESIAN_POINT('',(3.87500000000003,-1.70216535433046,0.));
#501=CARTESIAN_POINT('Origin',(2.74322834645553,-1.70216535433051,0.));
#502=CARTESIAN_POINT('',(2.74322834645553,-1.70216535433051,0.));
#503=CARTESIAN_POINT('',(3.87500000000003,-1.70216535433046,0.));
#504=CARTESIAN_POINT('',(2.74322834645553,-1.70216535433051,0.866141732283465));
#505=CARTESIAN_POINT('',(3.87500000000003,-1.70216535433046,0.866141732283465));
#506=CARTESIAN_POINT('',(2.74322834645553,-1.70216535433051,0.));
#507=CARTESIAN_POINT('Origin',(2.74322834645551,-1.50531496062973,0.));
#508=CARTESIAN_POINT('',(2.74322834645551,-1.50531496062973,0.));
#509=CARTESIAN_POINT('',(2.74322834645553,-1.70216535433051,0.));
#510=CARTESIAN_POINT('',(2.74322834645551,-1.50531496062973,0.866141732283465));
#511=CARTESIAN_POINT('',(2.74322834645553,-1.70216535433051,0.866141732283465));
#512=CARTESIAN_POINT('',(2.74322834645551,-1.50531496062973,0.));
#513=CARTESIAN_POINT('Origin',(3.96851583816625,-0.451719528865248,0.));
#514=CARTESIAN_POINT('',(3.96851583816625,-0.451719528865248,0.));
#515=CARTESIAN_POINT('',(2.74322834645551,-1.50531496062973,0.));
#516=CARTESIAN_POINT('',(3.96851583816625,-0.451719528865248,0.866141732283465));
#517=CARTESIAN_POINT('',(2.74322834645551,-1.50531496062973,0.866141732283465));
#518=CARTESIAN_POINT('',(3.96851583816625,-0.451719528865248,0.));
#519=CARTESIAN_POINT('Origin',(4.51250000000018,-1.08435039370054,0.));
#520=CARTESIAN_POINT('',(5.05648416183377,-0.45171952886522,0.));
#521=CARTESIAN_POINT('Origin',(4.51250000000018,-1.08435039370054,0.));
#522=CARTESIAN_POINT('',(5.05648416183377,-0.45171952886522,0.866141732283465));
#523=CARTESIAN_POINT('Origin',(4.51250000000018,-1.08435039370054,0.866141732283465));
#524=CARTESIAN_POINT('',(5.05648416183377,-0.45171952886522,0.));
#525=CARTESIAN_POINT('Origin',(6.28177165354456,-1.50531496062964,0.));
#526=CARTESIAN_POINT('',(6.28177165354456,-1.50531496062964,0.));
#527=CARTESIAN_POINT('',(6.28177165354456,-1.50531496062964,0.));
#528=CARTESIAN_POINT('',(6.28177165354456,-1.50531496062964,0.866141732283465));
#529=CARTESIAN_POINT('',(6.28177165354456,-1.50531496062964,0.866141732283465));
#530=CARTESIAN_POINT('',(6.28177165354456,-1.50531496062964,0.));
#531=CARTESIAN_POINT('Origin',(6.28177165354452,-1.70216535433051,0.));
#532=CARTESIAN_POINT('',(6.28177165354452,-1.70216535433051,0.));
#533=CARTESIAN_POINT('',(6.28177165354452,-1.70216535433051,0.));
#534=CARTESIAN_POINT('',(6.28177165354452,-1.70216535433051,0.866141732283465));
#535=CARTESIAN_POINT('',(6.28177165354452,-1.70216535433051,0.866141732283465));
#536=CARTESIAN_POINT('',(6.28177165354452,-1.70216535433051,0.));
#537=CARTESIAN_POINT('Origin',(5.15000000000003,-1.70216535433046,0.));
#538=CARTESIAN_POINT('',(5.15000000000003,-1.70216535433046,0.));
#539=CARTESIAN_POINT('',(5.15000000000003,-1.70216535433046,0.));
#540=CARTESIAN_POINT('',(5.15000000000003,-1.70216535433046,0.866141732283465));
#541=CARTESIAN_POINT('',(5.15000000000003,-1.70216535433046,0.866141732283465));
#542=CARTESIAN_POINT('',(5.15000000000003,-1.70216535433046,0.));
#543=CARTESIAN_POINT('Origin',(5.15000000000006,-1.08435039370054,0.));
#544=CARTESIAN_POINT('',(5.15000000000006,-1.08435039370054,0.));
#545=CARTESIAN_POINT('',(5.15000000000006,-1.08435039370054,0.866141732283465));
#546=CARTESIAN_POINT('Origin',(4.51250000000004,-0.976082677165127,0.866141732283465));
#547=CARTESIAN_POINT('Origin',(4.51250000000004,-0.976082677165127,0.));
#548=UNCERTAINTY_MEASURE_WITH_UNIT(LENGTH_MEASURE(0.000393700787401575),
#553,'DISTANCE_ACCURACY_VALUE',
'Maximum model space distance between geometric entities at asserted c
onnectivities');
#549=UNCERTAINTY_MEASURE_WITH_UNIT(LENGTH_MEASURE(0.000393700787401575),
#553,'DISTANCE_ACCURACY_VALUE',
'Maximum model space distance between geometric entities at asserted c
onnectivities');
#550=(
GEOMETRIC_REPRESENTATION_CONTEXT(3)
GLOBAL_UNCERTAINTY_ASSIGNED_CONTEXT((#548))
GLOBAL_UNIT_ASSIGNED_CONTEXT((#553,#556,#557))
REPRESENTATION_CONTEXT('','3D')
);
#551=(
GEOMETRIC_REPRESENTATION_CONTEXT(3)
GLOBAL_UNCERTAINTY_ASSIGNED_CONTEXT((#549))
GLOBAL_UNIT_ASSIGNED_CONTEXT((#553,#556,#557))
REPRESENTATION_CONTEXT('','3D')
);
#552=DIMENSIONAL_EXPONENTS(1.,0.,0.,0.,0.,0.,0.);
#553=(
CONVERSION_BASED_UNIT('inch',#555)
LENGTH_UNIT()
NAMED_UNIT(#552)
);
#554=(
LENGTH_UNIT()
NAMED_UNIT(*)
SI_UNIT(.MILLI.,.METRE.)
);
#555=LENGTH_MEASURE_WITH_UNIT(LENGTH_MEASURE(25.4),#554);
#556=(
NAMED_UNIT(*)
PLANE_ANGLE_UNIT()
SI_UNIT($,.RADIAN.)
);
#557=(
NAMED_UNIT(*)
SI_UNIT($,.STERADIAN.)
SOLID_ANGLE_UNIT()
);
#558=SHAPE_DEFINITION_REPRESENTATION(#559,#560);
#559=PRODUCT_DEFINITION_SHAPE('',$,#562);
#560=SHAPE_REPRESENTATION('',(#332),#550);
#561=PRODUCT_DEFINITION_CONTEXT('part definition',#566,'design');
#562=PRODUCT_DEFINITION('Dolly Strap','Dolly Strap v5',#563,#561);
#563=PRODUCT_DEFINITION_FORMATION('',$,#568);
#564=PRODUCT_RELATED_PRODUCT_CATEGORY('Dolly Strap v5','Dolly Strap v5',
(#568));
#565=APPLICATION_PROTOCOL_DEFINITION('international standard',
'automotive_design',2009,#566);
#566=APPLICATION_CONTEXT(
'Core Data for Automotive Mechanical Design Process');
#567=PRODUCT_CONTEXT('part definition',#566,'mechanical');
#568=PRODUCT('Dolly Strap','Dolly Strap v5',$,(#567));
#569=PRESENTATION_STYLE_ASSIGNMENT((#570));
#570=SURFACE_STYLE_USAGE(.BOTH.,#571);
#571=SURFACE_SIDE_STYLE('',(#572));
#572=SURFACE_STYLE_FILL_AREA(#573);
#573=FILL_AREA_STYLE('Steel - Satin',(#574));
#574=FILL_AREA_STYLE_COLOUR('Steel - Satin',#575);
#575=COLOUR_RGB('Steel - Satin',0.627450980392157,0.627450980392157,0.627450980392157);
ENDSEC;
END-ISO-10303-21;
